<svg xmlns="http://www.w3.org/2000/svg" viewBox="0 0 500 500"><ellipse cx="244.99" cy="349.69" fill="#f5f5f5" rx="225.05" ry="129.93"/><g fill="#e0e0e0"><ellipse cx="283.51" cy="397.24" rx="41.38" ry="23.89"/><ellipse cx="391.16" cy="383.09" rx="41.38" ry="23.89"/><ellipse cx="164.82" cy="433.06" rx="41.38" ry="23.89"/></g><path fill="#37474f" d="M97 354.5s-1.08-25.26-11.67-39.32-23.57-16.08-30-12.12c-4.7 2.88-4.07 11.44 4.06 17s23.8 19.81 26.25 29.1Z"/><path fill="#fff" d="M90 350.82a.66.66 0 0 1-.61-.69c1.09-22.92-19-37.21-24.47-39.78a.66.66 0 0 1-.32-.87.67.67 0 0 1 .88-.32c5.61 2.66 26.34 17.39 25.22 41a.66.66 0 0 1-.69.62Z"/><path fill="#455a64" d="M92 346.52a6 6 0 0 1-3.91-1.52c-1.23-1.35-1.13-3.42-1.7-5.16-.93-2.86-3.75-4.8-6.69-5.41a20.31 20.31 0 0 0-8.92.6c-5.9 1.45-11.57-2.18-17.48-1.75a11.78 11.78 0 0 0-6 1.87 6.38 6.38 0 0 0-2.86 5.36 6.84 6.84 0 0 0 2.44 4.49 20.54 20.54 0 0 0 4.48 2.8l5.19 2.65a9.15 9.15 0 0 1 2.45 1.6 6.91 6.91 0 0 1 1.81 5.53c-.4 2-2 3.52-2.51 5.48-.63 2.57.94 5.32 3.2 6.71a13.1 13.1 0 0 0 7.68 1.5c2.65-.15 5.27-.68 7.92-.73a9.33 9.33 0 0 1 5.16 1.13 9.57 9.57 0 0 1 3.63 5.27 14 14 0 0 0 1.62 3.86 7.47 7.47 0 0 0 3.49 2.45 11.94 11.94 0 0 0 8.25 0c2.19-.84 3.26-3.31 4.08-5.45a19 19 0 0 0 1.15-7 44.71 44.71 0 0 0-4.07-17.74c-1.23-2.56-3-5.12-5.72-6a17.25 17.25 0 0 0-2.69-.54Z"/><path fill="#fff" d="M97.68 374a.58.58 0 0 1-.55-.39c-6.17-17.69-35.36-33.08-46-34.85a.58.58 0 1 1 .19-1.15c10.88 1.8 40.65 17.53 47 35.61a.58.58 0 0 1-.36.75.63.63 0 0 1-.28.03Z"/><path fill="#fff" d="M71.44 364.3a.58.58 0 0 1-.35-1 29.36 29.36 0 0 1 16.22-5.21.59.59 0 0 1 0 1.17 28.79 28.79 0 0 0-15.53 5 .6.6 0 0 1-.34.04Z"/><path fill="#455a64" d="M98 387.68a4.85 4.85 0 0 1-2.12-3.83V175.46a5 5 0 0 1 2.26-3.91L343.3 30a4.23 4.23 0 0 1 6.48 3.74v208.4a5 5 0 0 1-2.26 3.91L102.36 387.6a4.85 4.85 0 0 1-4.36.08Z"/><path fill="#191919" d="M101.93 387.79h-.09a.79.79 0 0 1-.22.09h-.17a1.41 1.41 0 0 1-.31.07.72.72 0 0 1-.21.05l-.34.05a4.38 4.38 0 0 1-2.6-.45 4.81 4.81 0 0 1-2.11-3.82V202.17l4.24 2.45v181.67c0 1 .51 1.62 1.25 1.62a1 1 0 0 0 .3 0 .94.94 0 0 0 .26-.12Z"/><path fill="#e0e0e0" d="M101.93 387.79h-.09a.79.79 0 0 1-.22.09h-.17a1.41 1.41 0 0 1-.31.07.72.72 0 0 1-.21.05l-.34.05a4.38 4.38 0 0 1-2.6-.45 4.81 4.81 0 0 1-2.11-3.82V202.17l4.24 2.45v181.67c0 1 .51 1.62 1.25 1.62a1 1 0 0 0 .3 0 .94.94 0 0 0 .26-.12Z" opacity=".81"/><path fill="#191919" d="m100.11 204.62-4.24-2.45v40.35l4.24 2.47v-40.37z"/><path d="m100.11 204.62-4.24-2.45v40.35l4.24 2.47v-40.37z" opacity=".15"/><path fill="#263238" d="M100.76 175.68a4.65 4.65 0 0 0-.65 2.22v26.72l-4.24-2.45v-26.71a2.44 2.44 0 0 1 0-.27 5 5 0 0 1 .09-.56 5.77 5.77 0 0 1 .56-1.4Z"/><path fill="#37474f" d="M349.78 33.75v12.06L170.07 149.56c-1.24.72-2.25.13-2.25-1.3v-4.57c0-1.43-1-2-2.26-1.3L110.83 174a5 5 0 0 0-2.26 3.91v4.56a5 5 0 0 1-2.25 3.91l-6.21 3.62v-12a5 5 0 0 1 2.25-3.91L347.53 32.45c1.24-.72 2.25-.14 2.25 1.3Z"/><path fill="#191919" d="M349.79 242.15a5 5 0 0 1-2.26 3.9L102.36 387.6c-1.24.71-2.25.13-2.25-1.31V190l6.21-3.58c1.24-.72 3.26-11.66 4.51-12.38l53.81-31.07c1.25-.72 4.19 7.36 5.43 6.64l179.71-103.8v196.34Z"/><path fill="#fff" d="M349.79 242.15a5 5 0 0 1-2.26 3.9L102.36 387.6c-1.24.71-2.25.13-2.25-1.31V190l6.21-3.58c1.24-.72 3.26-11.66 4.51-12.38l53.81-31.07c1.25-.72 4.19 7.36 5.43 6.64l179.71-103.8v196.34Z" opacity=".9"/><path fill="#191919" d="M348.78 47.54v194.61a4 4 0 0 1-1.76 3L101.86 386.73a1 1 0 0 1-.51.17c-.23 0-.24-.5-.24-.61V190.53l5.71-3.3c.88-.51 1.44-2.26 2.7-6.76a33.57 33.57 0 0 1 1.88-5.66L164.77 144a22.37 22.37 0 0 1 1.72 2.74c1.45 2.54 2.25 3.86 3.41 3.86a1.42 1.42 0 0 0 .67-.17L348.78 47.54m1-1.73L170.07 149.56a.35.35 0 0 1-.17 0c-1.26 0-3.82-6.73-5.09-6.73a.34.34 0 0 0-.17 0L110.83 174c-1.25.72-3.27 11.66-4.51 12.38l-6.21 3.62v196.29c0 1 .51 1.61 1.24 1.61a2.11 2.11 0 0 0 1-.3l245.18-141.55a5 5 0 0 0 2.26-3.9V45.81Z" opacity=".4"/><path fill="#191919" d="M100.11 204.62v40.37l249.67-144.13V60.48L100.11 204.62z"/><path fill="#f0f0f0" d="M349.78 45.81v14.67L100.11 204.62V190l4.63-2.68c1.24-.72 1.66-1.82 2.25-3.91l1.58-5.46c.49-1.9 1-3.19 2.26-3.91l53.81-31.07c1.25-.72 2.23-.8 3.18.77l1.93 3.5c.7 1.23 1.06 1.95 2.3 1.23Z"/><path fill="#191919" d="M339.2 41.31c1.57-.9 2.84-.17 2.84 1.64a6.28 6.28 0 0 1-2.84 4.92c-1.56.9-2.83.17-2.83-1.64a6.3 6.3 0 0 1 2.83-4.92ZM329 47.2c1.56-.9 2.83-.17 2.83 1.64a6.3 6.3 0 0 1-2.83 4.92c-1.57.9-2.84.17-2.84-1.64A6.28 6.28 0 0 1 329 47.2Zm-10.23 5.89c1.56-.9 2.84-.17 2.84 1.64a6.31 6.31 0 0 1-2.84 4.92c-1.57.91-2.84.17-2.84-1.64a6.28 6.28 0 0 1 2.84-4.92Z"/><path fill="#455a64" d="m110.45 191-3.54 2 1.35-2.59a.67.67 0 0 0 0-.64c-.1-.12-.28 0-.4.19l-1.92 3.7a.78.78 0 0 0 0 .14 1.37 1.37 0 0 0 0 .19.79.79 0 0 0 0 .17.22.22 0 0 0 0 .08l1.92 1.48a.18.18 0 0 0 .19 0 .73.73 0 0 0 .21-.28c.1-.24.09-.51 0-.6l-1.35-1 3.54-2a.75.75 0 0 0 .29-.61c0-.23-.13-.31-.29-.23Zm2.96-1.7 3.54-2-1.35-1c-.12-.09-.13-.36 0-.6s.28-.37.4-.28l1.92 1.48a.2.2 0 0 1 .06.07.41.41 0 0 1 0 .16.58.58 0 0 1 0 .19v.05a.84.84 0 0 1-.06.14l-1.92 3.66a.53.53 0 0 1-.19.22.15.15 0 0 1-.21 0 .64.64 0 0 1 0-.64l1.35-2.6-3.54 2.05c-.16.09-.28 0-.28-.28a.74.74 0 0 1 .28-.62ZM125 179.1c0-.21-.21-.18-.3.05l-.49 1.19c-.83-.09-1.83.71-2.51 2.15-.87 1.85-.87 4 0 4.89a1.26 1.26 0 0 0 1.6.1 4.36 4.36 0 0 0 1.59-1.93.61.61 0 0 0 0-.62c-.12-.11-.3 0-.41.23-.65 1.38-1.72 2-2.37 1.37s-.66-2.27 0-3.66c.46-1 1.13-1.57 1.72-1.6l-.37.89c-.09.23 0 .45.14.35l1.45-.94a.49.49 0 0 0 .16-.4Zm38.09-29.48 1.29-2.74a.84.84 0 0 0 0-.85c-.15-.14-.4 0-.55.32l-1.29 2.73-1.3-1.24c-.15-.15-.4 0-.55.32a.84.84 0 0 0 0 .85l1.29 1.24-1.29 2.75a.84.84 0 0 0 0 .85.22.22 0 0 0 .28 0 .66.66 0 0 0 .27-.33l1.3-2.74 1.29 1.25a.21.21 0 0 0 .27 0 .73.73 0 0 0 .28-.33.84.84 0 0 0 0-.85Z" opacity=".5"/><path fill="#fff" d="M129.73 182.46v-4.56A5 5 0 0 1 132 174L334.85 57c1.25-.72 2.26-.14 2.26 1.3v4.5a5 5 0 0 1-2.26 3.91L132 183.77c-1.26.72-2.27.13-2.27-1.31Z"/><path fill="#e0e0e0" d="M331.76 67a.41.41 0 0 1-.16 0 .53.53 0 0 1-.28-.59l.22-1.89-.92-.66a.49.49 0 0 1-.2-.42.94.94 0 0 1 .34-.72l1.32-1a.3.3 0 0 0 .09-.15l.59-1.94a.76.76 0 0 1 .59-.57.46.46 0 0 1 .43.26l.53 1.14 1.2-.46a.44.44 0 0 1 .5.11.74.74 0 0 1 0 .81l-1 1.8a.41.41 0 0 0 0 .16l.23 1.63a.9.9 0 0 1-.26.73.51.51 0 0 1-.44.18l-1.19-.15-1.15 1.54a.58.58 0 0 1-.44.19Zm-.76-3.67.92.66a.56.56 0 0 1 .19.54l-.11 1.56 1-1.26a.59.59 0 0 1 .51-.25l1.19.15s.05-.16 0-.24l-.23-1.63a.91.91 0 0 1 .11-.52l1-1.8-1.1.42a.43.43 0 0 1-.57-.23l-.49-1-.59 1.94a.86.86 0 0 1-.3.45l-1.32 1a.42.42 0 0 0-.21.21Z"/><path fill="#455a64" d="M339.75 56.38a.78.78 0 0 1-.39-1.46l6.34-3.66a.78.78 0 1 1 .79 1.35l-6.35 3.67a.78.78 0 0 1-.39.1Zm0 3.67a.79.79 0 0 1-.68-.39.78.78 0 0 1 .29-1.07l6.34-3.67a.79.79 0 0 1 .79 1.36l-6.35 3.66a.79.79 0 0 1-.39.11Zm0 3.66a.79.79 0 0 1-.68-.39.77.77 0 0 1 .29-1.06l6.34-3.67a.78.78 0 0 1 .79 1.35l-6.35 3.67a.78.78 0 0 1-.39.1Z" opacity=".5"/><path fill="#e0e0e0" d="M100.11 189.95v14.67l-4.24-2.45v-14.66l4.24 2.44z"/><text fill="#455a64" font-family="Rubik-Medium,Rubik" font-size="24.297" font-weight="500" transform="matrix(.65 -.38 0 1 270.84 135.67)">About us</text><path fill="#191919" d="m110.94 254.51 69.05-39.87v112.57l-69.25 39.76.2-112.46z" opacity=".1"/><path fill="#191919" d="m195.21 207.93 83.3-48.09c1.68-1 3-.24 3 1.63a6.64 6.64 0 0 1-3 5.16l-83.31 48.63c-1.67 1-3 .2-3-1.73v-.35a6.72 6.72 0 0 1 3.01-5.25Z" opacity=".15"/><path fill="#191919" d="m194.34 222.5 137.84-79.58c1.2-.69 2.17-.2 2.17 1.09a4.64 4.64 0 0 1-2.17 3.6l-137.84 79.58c-1.19.69-2.16.2-2.16-1.09a4.65 4.65 0 0 1 2.16-3.6Zm0 9.42 137.84-79.58c1.2-.69 2.17-.2 2.17 1.09a4.64 4.64 0 0 1-2.17 3.6l-137.84 79.58c-1.19.69-2.16.2-2.16-1.1a4.65 4.65 0 0 1 2.16-3.59Zm0 9.41 137.84-79.58c1.2-.69 2.17-.2 2.17 1.1a4.64 4.64 0 0 1-2.17 3.59L194.34 246c-1.19.69-2.16.2-2.16-1.1a4.67 4.67 0 0 1 2.16-3.57Zm0 9.42 137.84-79.58c1.2-.69 2.17-.2 2.17 1.09a4.64 4.64 0 0 1-2.17 3.6l-137.84 79.58c-1.19.69-2.16.2-2.16-1.09a4.65 4.65 0 0 1 2.16-3.6Zm0 9.42 96.18-56c1.19-.69 2.16-.2 2.16 1.1a4.65 4.65 0 0 1-2.16 3.59l-96.18 56c-1.19.69-2.16.2-2.16-1.1a4.65 4.65 0 0 1 2.16-3.59Zm0 18.83 137.84-79.58c1.2-.69 2.17-.2 2.17 1.09a4.64 4.64 0 0 1-2.17 3.6l-137.84 79.58c-1.19.69-2.16.2-2.16-1.09a4.65 4.65 0 0 1 2.16-3.6Zm0 9.42 137.84-79.58c1.2-.69 2.17-.2 2.17 1.09a4.64 4.64 0 0 1-2.17 3.6l-137.84 79.58c-1.19.69-2.16.2-2.16-1.1a4.65 4.65 0 0 1 2.16-3.59Zm0 9.41 137.84-79.58c1.2-.69 2.17-.2 2.17 1.1a4.64 4.64 0 0 1-2.17 3.59l-137.84 79.59c-1.19.69-2.16.2-2.16-1.1a4.67 4.67 0 0 1 2.16-3.6Zm0 9.42L245 277.69c1.19-.69 2.16-.2 2.16 1.1a4.65 4.65 0 0 1-2.16 3.59l-50.65 29.56c-1.19.69-2.16.2-2.16-1.09a4.65 4.65 0 0 1 2.15-3.6Z" opacity=".1"/><path fill="#ffa8a7" d="M378.54 253.2c7.33-23.78 14.46-39.45 7.19-44.3-6.76 1.26-9.79 4.61-11.23 13.53-1.51 9.35-4.65 22.39-6.48 29.91a89 89 0 0 1-6.75 18.17 3.85 3.85 0 0 1-2 1.75c-2.26.89-3.34 2-5.18 3.36-1.45 1-2.51 1.14-2.44 1.57a1.9 1.9 0 0 0 2.26 1.4 13.73 13.73 0 0 0 3.15-1 15.71 15.71 0 0 1-3.94 5.76c-3.55 3-3 5.93 2.69 6.27 2 .12 6.77-1.74 11.16-9.21a74.47 74.47 0 0 0 3.91-8.61c3.06-7.66 6.19-13.8 7.66-18.6Z"/><path fill="#191919" d="M387 208.62s-5.64-.29-9.06 3.48-7.4 26.29-7.4 26.29 3.74 5.14 13.6 3Z"/><path d="M387 208.62s-5.64-.29-9.06 3.48-7.4 26.29-7.4 26.29 3.74 5.14 13.6 3Z" opacity=".3"/><path fill="#ffa8a7" d="M405.84 368.38h7.57v13.5h-7.57zm-18.68-.72-7.57.28-.38-14.29 7.95-.27v14.28z"/><path fill="#37474f" d="M414.48 251.5c0 7.53-1.11 68.13-1.11 68.13.17 2.17 2.12 6.17 1.7 14.49-.57 11.3-1.34 41-1.34 41a9.61 9.61 0 0 1-8.43.18s-7.16-41.15-8.51-52.36c-1.19-9.77-3.2-42.69-3.2-42.69l-4.1 38.27a47 47 0 0 1 .94 12.54c-.36 5.18-2.79 32.17-2.79 32.17a10 10 0 0 1-8.74.69s-4.31-40.64-4.4-45.4c-.1-5.42 2.52-67.11 2.52-67.11Z"/><path fill="#263238" d="M405.84 378v-1.13c-.73.33-2.41 7-5.41 9.88-2.39 2.26-5.65 4.88-6.48 7.41s4.54 4.09 6.77 3.68c2.59-.48 7.09-2.38 8.21-4.15s1.66-4.36 2.58-5.65 3-2.73 3.52-4.23c.28-.82 0-2.62-.43-4.14s-.73-2.93-1.19-2.8v.86a5.82 5.82 0 0 1-3.78 1.34c-1.11.03-3.8-.2-3.79-1.07Zm-26.33-12.5c-.39 0-.71.59-1.58 1.57a16.62 16.62 0 0 1-4.45 3.34c-2.84 1.48-8.35 3.75-10.85 4.92-1.55.73-1.48 2.69.13 3.81s5.5 1.92 10.17.83c2.54-.59 5.86-3 7.95-2.91s6 .11 7.57-1 .93-3.48.49-5.52c-.48-2.22-1.07-5.69-1.78-5.54v.77c-.91 1.43-5.61 2-7.61 1Zm14.08-85.24a27.75 27.75 0 0 1-10.54-6.3s2 4 8.08 7.66l-1.29 34.18Z"/><path fill="#191919" d="M410.54 210.42s5.92.55 5.5 11.83l-1.31 18v27c-5.57 6.31-30.25 5.84-38.7-.51 0 0 .95-31.93 1.52-44.22.41-8.73 2.42-13.13 11-14.09l10.55.46Z"/><path d="m393.71 216.34-1.36 9.48-3.16-.06 3.57.57.95-9.99z" opacity=".3"/><path fill="#263238" d="M401.61 185a11.52 11.52 0 0 1-11.27 11.75c-6.23 0-11-5.27-11.28-11.74-.49-11.47 5.05-11.75 11.28-11.75A11.52 11.52 0 0 1 401.61 185Zm6.39 5.81s-1.73 8.46-2.42 9.85a3.66 3.66 0 0 1-2.12 1.78l.12-5.95Z"/><path fill="#263238" d="M405.86 178.69s1.24-.31 2.56 1.75c1.13 1.76 1.39 5.72-.39 10.37l-3.25.39Z"/><path fill="#ffa8a7" d="M403.8 191.2c.65.41 1.58-.9 2.39-1.78s3.43-2.07 4.75.8-1.16 6.81-3.23 7.49c-3.57 1.17-4.1-1.22-4.1-1.22l-.28 13.4c-4.73 7.33-15.46 7.06-11.6-.35v-4.08a21.79 21.79 0 0 1-4.81.26c-2.62-.43-4.27-2.58-5.07-5.54-1.28-4.75-1.76-8.58-.68-17.93 1.2-10.25 12.64-10.34 18.83-6.25s3.8 15.2 3.8 15.2Z"/><path fill="#263238" d="M403.39 206.89a17.15 17.15 0 0 1-4.63 5.81 13.08 13.08 0 0 1-5.61 2.38 12.43 12.43 0 0 1 4 4.45c1.19 2.6 9.52-4.57 9.44-9.66 0 0-1.3-5.11-3.1-5.43Zm-10.24 8.19s-2.57-1.27-1.42-5.54v-4.08l-1.13.15a9.93 9.93 0 0 0-2.7 4.69c-.26 1.17-.9 7.09.23 8.26s2.71-3.16 5.02-3.48Zm6.27-35.08a1.64 1.64 0 0 1 .88.05c1 .44 1.18 3.46 1.35 4.33.57 2.93 1.05 7.9 2.15 7.92.33 0 1.58-2.15 2.39-2.92 1.13-1.07-.33-10.73-.33-10.73a4.71 4.71 0 0 0-1.08-4.89c-2-2.32-5.22-2.84-8.13-3-3.43-.19-6.91.07-10.29-.68a27.28 27.28 0 0 0-3.23-.69.37.37 0 0 0-.29 0c-.11.09-.09.26-.06.4a10.74 10.74 0 0 0 1.06 2.9 26 26 0 0 1-5.92-1.17.57.57 0 0 0-.34 0c-.23.07-.27.37-.25.61.13 2.42 1.28 6.08 3.25 7.5a11.36 11.36 0 0 0 5.86 1.85c5.3.2 8.56-.92 12.98-1.48Z"/><path fill="#263238" d="m405.86 179.2 3.95-2.21a2.14 2.14 0 0 0-3-1 2.51 2.51 0 0 0-.95 3.21Z"/><path fill="#f28f8f" d="M391.74 205.46s5.85-1.23 7.9-2.36a6.92 6.92 0 0 0 2.83-2.92 9.71 9.71 0 0 1-1.61 3.44c-1.49 2-9.12 3.46-9.12 3.46Z"/><path fill="#263238" d="M393.15 189.68a1.17 1.17 0 1 0 1.17-1.28 1.21 1.21 0 0 0-1.17 1.28Zm1.85-5.06 2.51 1.44A1.6 1.6 0 0 0 397 184a1.37 1.37 0 0 0-2 .62Z"/><path fill="#f28f8f" d="m392.27 198.12-2.68 1a1.4 1.4 0 0 0 1.82.93 1.58 1.58 0 0 0 .86-1.93Z"/><path fill="#263238" d="m382.38 185.69 2.29-1.84a1.35 1.35 0 0 0-2-.31 1.62 1.62 0 0 0-.29 2.15Zm1.01 3.64a1.21 1.21 0 0 0 1.17 1.26 1.27 1.27 0 0 0 0-2.54 1.24 1.24 0 0 0-1.17 1.28Z"/><path fill="#f28f8f" d="m389.67 188.35-.14 7.41-4.21-.97 4.35-6.44z"/><path fill="#191919" d="M422.06 195.8c1.69-2.24 5.11 2.73 6.69 6.16s1.61 5.37.31 6.73-3.75.54-6.2-2.71-1.77-8.53-.8-10.18Z"/><path d="M422.06 195.8c1.69-2.24 5.11 2.73 6.69 6.16s1.61 5.37.31 6.73-3.75.54-6.2-2.71-1.77-8.53-.8-10.18Z" opacity=".5"/><path fill="#ffa8a7" d="M434 196.46c-6 14-14.35 21.89-18.1 30.9-4.91-.33-8.74-12.2-5.08-17.27 0 0 14.38-15.57 15.68-21.69 1.16-5.43 2.71-14.39 2.58-19a3.19 3.19 0 0 0-.89-2c-1.51-1.63-1.51-2.93-2.48-4.72-.75-1.4-1.58-1.92-1.34-2.24a1.81 1.81 0 0 1 2.45-.18 9.56 9.56 0 0 1 1.85 1.78 10.26 10.26 0 0 0-.85-5.26c-1.67-3.78-1.26-5.7 3.83-4.36 3.2.85 5.2 3.51 5.68 11.18a75.86 75.86 0 0 1 .06 9.59c-.56 5.91-.91 12.07-1.64 17a25.68 25.68 0 0 1-1.75 6.27Z"/><path fill="#191919" d="m409.32 210.26 12.68-14.5s-1.51 3.53 1.79 8.68 5.26 4.25 5.26 4.25-7.49 10.93-9.49 14.59-4.09 6.75-4.09 6.75a2.41 2.41 0 0 1-2.37 1.29c-1.86 0-6.79-8.26-3.78-21.06Z"/><path d="m409.32 210.26 12.68-14.5s-1.51 3.53 1.79 8.68 5.26 4.25 5.26 4.25-7.49 10.93-9.49 14.59-4.09 6.75-4.09 6.75a2.41 2.41 0 0 1-2.37 1.29c-1.86 0-6.79-8.26-3.78-21.06Z" opacity=".3"/><path fill="#f28f8f" d="m306.42 242.85 5.97 7.95-6.42 7.35-8.27-9.67 8.72-5.63z"/><path fill="#455a64" d="M286.87 224.77c5.21.24 7.69 1 10.42 4.26S313.66 252 313.66 252s-2.41 6.76-7.69 6.18l-9.59-9.89Z"/><path fill="#263238" d="M261.31 389.89a38.69 38.69 0 0 0-.6 6.28c-.07 3.8-.77 5.16-.86 8.28-.11 3.57.51 4.91 2 6.91s5.25 3.83 6.86.44 1.4-5.61.88-9.12-.6-5.62-.9-8.38c-.28-2.44-.6-4.29-.6-4.29Z"/><path fill="#ffbda7" d="m272.12 360-12.55-.23c.19 8.38 1.52 22.32 1.74 30.17 0 1.48 0 11.49.52 14.54.84 4.57 6.26 3.95 6.55 1.22s-.35-14.43-.33-15.64c-.05-5 2.31-18.18 3.55-27.23.06-.49.46-2.45.52-2.83Z"/><path fill="#263238" d="M290.55 383.38s-.64 0-.75.56-.15 1.62-.41 2.66a15 15 0 0 0-.44 5c.21 1.17 2.88 2.91 4.71 3.22s4.4 2.11 5.83 3.46a14 14 0 0 0 8.11 3.18c3 0 5.17-1 6.17-2.64s-.91-1.83-4.39-4.09l-2.71-1.76c-5.51-3.6-7.53-5.53-9.09-9.13Z"/><path fill="#ffbda7" d="M297.62 381.42c-.09-2.6 1.23-21.7 1.23-21.7l-10.79 1.22c2.56 15.22 2.76 20.41 2.47 22.63a2.16 2.16 0 0 0-.07.63c0 3 3.35 4.56 6 6.53 1 .78 3.67 3.18 6.77 4.23 2 .69 5.71 1 6.18-.27-3.16-2.42-7.48-5.58-10-8.35-1.24-1.34-1.7-2.34-1.79-4.92Z"/><path fill="#191919" d="M262.48 273.36c-5.88 12.86.22 58.14.22 58.14-.18 2.09-2.57 6.19-3.45 15.38-1.05 10.84 1.93 39.89 1.93 39.89a7 7 0 0 0 7 .15s7.59-42.68 9-53.46c1.19-9.42 3.47-30.12 3.47-30.12l6.48 30.06a55.84 55.84 0 0 0-2.06 9.3c-.61 6.34 5.57 38.19 5.57 38.19a8.75 8.75 0 0 0 7-.14s2.73-41.14 3.31-48.78c1-12.84-2.45-52.89-4.8-60.49Z"/><path d="M262.48 273.36c-5.88 12.86.22 58.14.22 58.14-.18 2.09-2.57 6.19-3.45 15.38-1.05 10.84 1.93 39.89 1.93 39.89a7 7 0 0 0 7 .15s7.59-42.68 9-53.46c1.19-9.42 3.47-30.12 3.47-30.12l6.48 30.06a55.84 55.84 0 0 0-2.06 9.3c-.61 6.34 5.57 38.19 5.57 38.19a8.75 8.75 0 0 0 7-.14s2.73-41.14 3.31-48.78c1-12.84-2.45-52.89-4.8-60.49Z" opacity=".5"/><path d="m280.63 303.34 1.91-11.94s8.08-1.67 11.75-5.12a20.88 20.88 0 0 1-9.56 6.35l-2.15 9.2 3.76 27.83Z" opacity=".2"/><path fill="#191919" d="m265.5 233.43 8 2.08v-16.93c-4.42-1.15-8 1.4-8 5.7Z"/><path d="m265.5 233.43 8 2.08v-16.93c-4.42-1.15-8 1.4-8 5.7Z" opacity=".6"/><path fill="#191919" d="m281.34 221-2.87-.06c-8.76-.21-15.7-7.76-15.51-16.88 0-9.94 7.7-18 17.24-18.09 9.54-.05 17.32 8 17.37 17.9v1c-.24 9.13-7.49 16.32-16.23 16.13Z"/><path d="m281.34 221-2.87-.06c-8.76-.21-15.7-7.76-15.51-16.88 0-9.94 7.7-18 17.24-18.09 9.54-.05 17.32 8 17.37 17.9v1c-.24 9.13-7.49 16.32-16.23 16.13Z" opacity=".6"/><path fill="#191919" d="M267.93 190.12a2.17 2.17 0 0 0-2.77-1.56l.77 3a2 2 0 0 0-.58-.5 2.13 2.13 0 0 0-3 1l3.9 2.29a2.37 2.37 0 0 0 .26-1.27 2.47 2.47 0 0 0 1.42-2.96Z"/><path d="M267.93 190.12a2.17 2.17 0 0 0-2.77-1.56l.77 3a2 2 0 0 0-.58-.5 2.13 2.13 0 0 0-3 1l3.9 2.29a2.37 2.37 0 0 0 .26-1.27 2.47 2.47 0 0 0 1.42-2.96Z" opacity=".6"/><path fill="#37474f" d="M272.66 225.46a73.59 73.59 0 0 0-8 1.54c3.1 7.6-1.76 19.34-1.76 19.34l4.59 14.13c-3.17 6.49-5.78 9.71-6.86 15 2.92 5.7 23.53 11.14 36.95.75 0 0-.43-14.43-2.14-22.84 4.39-8.57 3.68-11.09 2.78-14.08-2.09-6.95-6.31-9.62-11.34-14.52l-3-.32Z"/><path fill="#263238" d="M268 266.13c2.49-2.55 7.77-3.28 7.77-3.28l-4.85-2.76L265.5 247a30 30 0 0 0 3.27-14.41l-3.12-.75c.38 6.93-2.76 14.51-2.76 14.51l4.59 14.13c-3.17 6.49-5.78 9.71-6.86 15 2 3.9 12.29 7.68 22.89 6.34-14.2-.96-17.9-13.22-15.51-15.69Z"/><path fill="#e6e6e6" d="m282.35 281.93.58-.06a3.45 3.45 0 0 0-.58.06Z"/><path fill="#ffbda7" d="M291.13 194.83c1.72 1.58 3.87 5 3.7 15-.15 8.5-2.78 10.61-4.11 11.22s-3.88.26-6.37-.16v3.52s3.28 3.64 3.08 6-4.68 3.31-7.91 1a30.23 30.23 0 0 1-6-6.05v-10.69s-1.46 1.49-4-.75c-2-1.86-2.76-5-1.17-6.7a3.5 3.5 0 0 1 5.69 1.15 32.48 32.48 0 0 0 10.96-3.16 10.85 10.85 0 0 0 6.13-10.38Z"/><path fill="#263238" d="M284.34 207.92a1 1 0 1 1-1.08-1 1.06 1.06 0 0 1 1.08 1Z"/><path fill="#f79776" d="m284.73 215 2.67.87a1.37 1.37 0 0 1-1.73 1 1.54 1.54 0 0 1-.94-1.87Z"/><path fill="#263238" d="m294 204.09-2.43-.83a1.19 1.19 0 0 1 1.55-.85 1.42 1.42 0 0 1 .88 1.68Z"/><path fill="#191919" d="M274.05 207.42v3.59a1.69 1.69 0 0 0 1.76-1.72 1.86 1.86 0 0 0-1.76-1.87Z"/><path d="M274.05 207.42v3.59a1.69 1.69 0 0 0 1.76-1.72 1.86 1.86 0 0 0-1.76-1.87Z" opacity=".6"/><path fill="#263238" d="M293.12 207.57a1.09 1.09 0 0 1-1 1.17 1.11 1.11 0 1 1 1-1.17Z"/><path fill="#f79776" d="m287.42 206.12-.02 6.96 3.24-1.07-3.22-5.89zm-3.07 14.81c-2.63-.34-8-1.93-8.89-4.15a5.8 5.8 0 0 0 1.91 2.83c1.62 1.43 7 3 7 3Z"/><path fill="#ffbda7" d="M252.35 261s6.42 9.12 7.52 10.31 1.86.79 3.05.26a33.76 33.76 0 0 1 4.46-1.45c2-.49 2.38 1.32.44 2.61-1.4.94-3 1.34-2.34 2.11a14.87 14.87 0 0 0 4.68 2.87c4.74 1.87 4.37 2.81 3.5 4.34-.76 1.34-3 4.22-11.44.82-3.5-1.41-8.42-5.4-10.74-8-3.35-3.71-8.58-10.36-8.58-10.36Z"/><path fill="#455a64" d="M265.89 226.67c-2.32.15-6.69.71-12.17 9.81-4.81 8-12.26 18.81-13.64 22.68-.56 1.57 1.62 4.82 4.43 8.15 3.83-.17 7.32-2.82 9.13-4.94a17.82 17.82 0 0 0-1.76-3.21l11.24-12.82s4.27-3.91 5.16-9c.96-5.52.66-9.86-2.39-10.67Z"/><path fill="#191919" d="m328.82 243.93-27.71 7.3-7.63 31.35 26.35-7.65 8.99-31z"/><path d="m328.82 243.93-27.71 7.3-7.63 31.35 26.35-7.65 8.99-31z" opacity=".25"/><path d="M316.3 266.13a5.47 5.47 0 0 0 5.18 3.1l.2-.69Zm4.17-17.22.23-1.06c.13-.58-1.5-.61-3.63 0l-4.09 1c-2.13.56-4 1.48-4.09 2.06l-.22 1.06Z" opacity=".1"/><path fill="#37474f" d="M322.6 244.94c.08-.37-.58-.47-1.47-.22l-1.62.45s.48-2.29-3.1-1.49a5.64 5.64 0 0 0-4.38 3.4l-1.72.49c-1 .27-1.82.78-1.93 1.14l-.21.66 14.28-3.76Z"/><path fill="#37474f" d="M320.63 246.06c-1.3.32-1.85.49-2 1.39s-.32 1.78-.32 1.78L312 250.9s.31-1.3.41-1.8-.12-.82-1.13-.55l-.08-.4 9.9-2.53Z"/><path fill="#37474f" d="m320.85 249 .23-1.06c.13-.58-1.5-.61-3.63 0l-4.09 1c-2.13.56-4 1.48-4.09 2.06l-.22 1.06Z"/><path fill="#ffbda7" d="M325.9 254s-1 3.55-1.27 4.39-3.35 2.37-5.38 2.93-4.27 1.22-3.3 4.07c.88 2.63 4.24 3.23 5.94 3.15s4.05-1.7 5-4.33c1.17-3.36.54-6.94 1-8.9s-.97-2.48-1.99-1.31Z"/><path fill="#914f4e" d="M220.93 254.83c-3.8-3.83-5.16-2.34-5.64 1.86a18.66 18.66 0 0 1-1.27 5.13 9.49 9.49 0 0 0-.71-2.53 1.85 1.85 0 0 0-2.26-1.11c-.37.15.09 1 0 2.67-.07 2.08-.75 3.23-.26 5.44a3.57 3.57 0 0 1-.37 2.44c-2 3.8-8.59 10.82-13.21 15.88l-17.55-15.85c-6-5.4-7.94-7.83-13.73-7.44a15.66 15.66 0 0 1 4.92 3c2.69 2.27 2.05 15.26 2.05 15.26s19.92 14.28 22 15.64c.3.2.61.38.91.55a4.92 4.92 0 0 0 6-1.15c4.25-4.86 10.45-14.43 14-19.4a60.21 60.21 0 0 0 4.33-7.54c3.56-7.07 3.17-10.45.79-12.85Z"/><path fill="#191919" d="M166.55 261a10 10 0 0 1 8 2c3.42 2.6 18 16 18 16s.4 7.09-7 11.31l-17.87-12.6Z"/><path d="M166.55 261a10 10 0 0 1 8 2c3.42 2.6 18 16 18 16s.4 7.09-7 11.31l-17.87-12.6Z" opacity=".3"/><path fill="#914f4e" d="M141.73 420.96h7.57v13.5h-7.57zm26.25-.72 7.57.27.38-14.29-7.95-.27v14.29z"/><path fill="#37474f" d="M140.66 304.07c0 7.53 1.11 68.14 1.11 68.14-.17 2.16-2.12 6.16-1.7 14.48.57 11.31 1.34 41 1.34 41a9.63 9.63 0 0 0 8.43.17s7.16-41.15 8.52-52.35c1.18-9.78 3.19-42.7 3.19-42.7l4.1 38.28a46.92 46.92 0 0 0-.94 12.53c.36 5.18 2.79 32.17 2.79 32.17a10 10 0 0 0 8.75.7s4.3-40.65 4.39-45.4c.1-5.42-2.52-67.12-2.52-67.12Z"/><path fill="#263238" d="M149.3 430.56v-1.12c.73.33 2.41 7 5.41 9.87 2.39 2.27 5.65 4.89 6.48 7.42s-4.54 4.08-6.77 3.67c-2.59-.48-7.09-2.38-8.21-4.14s-1.66-4.37-2.58-5.66-3-2.73-3.52-4.23a10 10 0 0 1 .43-4.14c.35-1.39.73-2.92 1.19-2.79v.86a5.88 5.88 0 0 0 3.79 1.33c1.1.04 3.79-.19 3.78-1.07Zm26.33-12.48c.39 0 .71.59 1.58 1.57a16.6 16.6 0 0 0 4.45 3.33c2.84 1.48 8.35 3.76 10.85 4.93 1.56.73 1.48 2.69-.13 3.8s-5.5 1.92-10.17.84c-2.54-.6-5.86-3-8-2.91s-6 .1-7.57-1-.93-3.49-.49-5.52c.48-2.23 1.08-5.7 1.78-5.55v.77c.91 1.44 5.61 2 7.61 1Zm-14.08-85.25a27.75 27.75 0 0 0 10.54-6.3s-2 4-8.08 7.66l1.29 34.19Z"/><path fill="#191919" d="M144.6 263s-5.92.54-5.5 11.83l1.31 18-.12 27c5.56 6.31 30.25 5.85 38.7-.51 0 0-.87-31.93-1.44-44.22-.41-8.73-2.42-13.13-11-14.09l-10.56.46Z"/><path d="m161.43 268.92 1.36 9.48 3.17-.06-3.58.56-.95-9.98z" opacity=".3"/><path fill="#914f4e" d="M125.81 301.76c3.07-24.7 10.14-37 18.75-38.42l-.61 15.8a139.5 139.5 0 0 0-8.2 26.15c-1.13 6.08-2.44 16.65-2.1 21.84a3.88 3.88 0 0 0 1.1 2.43c1.7 1.73 2.21 3.23 3.35 5.18.9 1.53 1.82 2.07 1.58 2.44a1.91 1.91 0 0 1-2.64.34 14.35 14.35 0 0 1-2.46-2.21 15.64 15.64 0 0 0 1.24 6.87c2 4.16 1.68 6.35-3.9 5.12-3.5-.76-6-4.45-7-13.06a75.41 75.41 0 0 1-.17-9.66c.38-8.23.45-17.88 1.06-22.82Z"/><path fill="#191919" d="M145.05 262.93c-4.47 0-8.55.77-11.8 7-3.11 6-5.5 18.69-6.71 22.84 0 0 6.53 3.86 12.54 3.76l4.23-14.68s2.86-6.85 1.74-18.92Z"/><path d="M145.05 262.93c-4.47 0-8.55.77-11.8 7-3.11 6-5.5 18.69-6.71 22.84 0 0 6.53 3.86 12.54 3.76l4.23-14.68s2.86-6.85 1.74-18.92Z" opacity=".3"/><path fill="#263238" d="M154.28 237.51a11.28 11.28 0 1 0 11.27-11.74 11.52 11.52 0 0 0-11.27 11.74Zm-7.17 5.87s1.73 8.46 2.42 9.85a3.7 3.7 0 0 0 2.13 1.79l-.13-6Zm2.17-12.12S148 231 146.72 233c-1.13 1.76-1.38 5.72.39 10.37l3.25.39Z"/><path fill="#914f4e" d="M151.34 243.77c-.65.41-1.58-.9-2.39-1.77s-3.43-2.08-4.74.8 1.15 6.81 3.22 7.48c3.57 1.17 4.1-1.22 4.1-1.22l.28 13.41c4.73 7.32 15.46 7.06 11.6-.36V258a21.79 21.79 0 0 0 4.81.26c2.62-.42 4.27-2.58 5.07-5.54 1.28-4.75 1.76-8.58.68-17.92-1.19-10.24-12.62-10.35-18.8-6.3s-3.83 15.27-3.83 15.27Z"/><path fill="#263238" d="M151.75 259.46a17.15 17.15 0 0 0 4.63 5.81 13.23 13.23 0 0 0 5.61 2.39 12.46 12.46 0 0 0-4 4.44c-1.18 2.61-9.52-4.56-9.44-9.65 0 0 1.31-5.11 3.1-5.44Zm10.25 8.2s2.57-1.28 1.42-5.55V258l1.13.15a9.93 9.93 0 0 1 2.7 4.69c.26 1.17.9 7.09-.23 8.26s-2.72-3.1-5.02-3.44Zm-10.66-22.74c-.33 0-1.58-2.15-2.39-2.92-1.13-1.07.33-10.74.33-10.74a4.74 4.74 0 0 1 1.08-4.89c1.55-1.77 4.13-2 8.53-2.68a46.05 46.05 0 0 0 5.22-.95 30.66 30.66 0 0 0 5.22-2.54 2.62 2.62 0 0 1 1.76-.4 1.71 1.71 0 0 1 1.13 1.28 5.25 5.25 0 0 1 0 1.77 2.87 2.87 0 0 1 4.05.14 4.14 4.14 0 0 1 .64 4.28 7.66 7.66 0 0 1-3 3.37c-5.53 3.74-12.06 2.7-18.26 2a1.55 1.55 0 0 0-.88.06c-1 .44-1.18 3.45-1.35 4.32-.5 2.9-.98 7.88-2.08 7.9Z"/><path fill="#263238" d="m149.28 231.77-3.94-2.21a2.13 2.13 0 0 1 3-1 2.51 2.51 0 0 1 .94 3.21Z"/><path fill="#783736" d="M163.4 258s-5.85-1.23-7.9-2.36a6.86 6.86 0 0 1-2.83-2.92 9.71 9.71 0 0 0 1.61 3.44c1.49 2 9.12 3.47 9.12 3.47Z"/><path fill="#263238" d="M161.28 241.9a1.22 1.22 0 0 1-1.17 1.27 1.24 1.24 0 0 1-1.17-1.28 1.17 1.17 0 1 1 2.34 0Zm-2.01-5.08-2.51 1.44a1.6 1.6 0 0 1 .58-2.08 1.38 1.38 0 0 1 1.93.64Z"/><path fill="#783736" d="m162.87 250.69 2.68 1.05a1.39 1.39 0 0 1-1.82.92 1.58 1.58 0 0 1-.86-1.97Z"/><path fill="#263238" d="m173 238.22-2.64-1.28a1.35 1.35 0 0 1 1.87-.75 1.62 1.62 0 0 1 .77 2.03Zm-1.73 3.68a1.18 1.18 0 1 1-2.35 0 1.21 1.21 0 0 1 1.17-1.26 1.23 1.23 0 0 1 1.18 1.26Z"/><path fill="#783736" d="m164.62 240.99.13 7.41 4.21-.96-4.34-6.45z"/><path fill="#263238" d="M159.47 238.84a2.93 2.93 0 0 0 0 5.86h.53a2.93 2.93 0 0 0 0-5.86Zm-3.47 2.93a3.5 3.5 0 0 1 3.46-3.53h.54a3.53 3.53 0 0 1 0 7h-.53a3.49 3.49 0 0 1-3.47-3.47Zm14-2.93a2.93 2.93 0 0 0 0 5.86h.53a2.93 2.93 0 0 0 0-5.86Zm-3.46 2.93a3.5 3.5 0 0 1 3.46-3.53h.53a3.53 3.53 0 0 1 0 7H170a3.49 3.49 0 0 1-3.44-3.47Z"/><path fill="#263238" d="M163.42 241.07a2.29 2.29 0 0 1 1.83-.95 1.85 1.85 0 0 1 1.59.62l.47-.36a2.36 2.36 0 0 0-2.09-.85 2.82 2.82 0 0 0-2.3 1.23Zm-13.06-.03h5.96v.59h-5.96z"/></svg>