<svg xmlns="http://www.w3.org/2000/svg" viewBox="0 0 500 500"><path fill="#ebebeb" d="M416.78 398.49h33.12v.25h-33.12zm-94.25 2.72h8.69v.25h-8.69zm74.06-12h19.19v.25h-19.19zm-344.13 1.68h43.19v.25H52.46zm52.1 0h6.33v.25h-6.33zm26.91 4.22h93.68v.25h-93.68zM238.4 337.8H45.3a5.71 5.71 0 0 1-5.71-5.71V60.66A5.71 5.71 0 0 1 45.3 55h193.1a5.71 5.71 0 0 1 5.71 5.71v271.38a5.71 5.71 0 0 1-5.71 5.71ZM45.3 55.2a5.47 5.47 0 0 0-5.46 5.46v271.43a5.47 5.47 0 0 0 5.46 5.46h193.1a5.47 5.47 0 0 0 5.46-5.46V60.66a5.47 5.47 0 0 0-5.46-5.46Zm409.4 282.6H261.6a5.71 5.71 0 0 1-5.71-5.71V60.66A5.71 5.71 0 0 1 261.6 55h193.1a5.71 5.71 0 0 1 5.71 5.71v271.38a5.71 5.71 0 0 1-5.71 5.71ZM261.6 55.2a5.47 5.47 0 0 0-5.46 5.46v271.43a5.47 5.47 0 0 0 5.46 5.46h193.1a5.47 5.47 0 0 0 5.46-5.46V60.66a5.47 5.47 0 0 0-5.46-5.46ZM0 382.03h500v.25H0z"/><path fill="#f0f0f0" d="m304.48 183.39 3.34 1.83-3.34 1.83-1.83 3.34-1.82-3.34-3.34-1.83 3.34-1.83 1.82-3.34 1.83 3.34z"/><path fill="#ebebeb" d="m317.13 178.8 1.67.91-1.67.91-.91 1.67-.91-1.67-1.67-.91 1.67-.91.91-1.67.91 1.67z"/><path fill="#f0f0f0" d="m320.17 69.75-1.86 3.33 3.8-.23 3.33 1.85-.23-3.8 1.85-3.32-3.8.23-3.32-1.86.23 3.8z"/><path fill="#ebebeb" d="m307.01 72.6-.92 1.66 1.89-.12 1.66.93-.11-1.9.92-1.66-1.89.12-1.66-.93.11 1.9z"/><path fill="#f0f0f0" d="m379.4 158.74 3.34 1.82-3.34 1.83-1.83 3.34-1.82-3.34-3.35-1.83 3.35-1.82 1.82-3.34 1.83 3.34z"/><path fill="#ebebeb" d="m392.05 154.14 1.67.92-1.67.91-.91 1.67-.91-1.67-1.67-.91 1.67-.92.91-1.66.91 1.66z"/><path fill="#f0f0f0" d="m217.31 132.18 3.34 1.82-3.34 1.83-1.83 3.34-1.82-3.34-3.35-1.83 3.35-1.82 1.82-3.34 1.83 3.34z"/><path fill="#ebebeb" d="m229.96 127.58 1.67.92-1.67.91-.91 1.67-.91-1.67-1.67-.91 1.67-.92.91-1.66.91 1.66z"/><path fill="#f0f0f0" d="m81.66 113.11 3.34 1.82-3.34 1.83-1.83 3.34-1.83-3.34-3.34-1.83 3.34-1.82 1.83-3.34 1.83 3.34z"/><path fill="#ebebeb" d="m94.31 108.51 1.66.92-1.66.91-.92 1.67-.91-1.67-1.67-.91 1.67-.92.91-1.66.92 1.66z"/><path fill="#f0f0f0" d="m394.57 80.37-.69 3.74-2.78-2.61-3.74-.7 2.61-2.77.7-3.74 2.77 2.6 3.74.7-2.61 2.78z"/><path fill="#ebebeb" d="m402.87 90.97-.35 1.87-1.39-1.3-1.86-.35 1.3-1.39.35-1.87 1.38 1.3 1.87.35-1.3 1.39z"/><path fill="#f0f0f0" d="m218.32 73.22-.77 3.73-2.73-2.65-3.73-.77 2.66-2.73.76-3.73 2.73 2.66 3.73.76-2.65 2.73z"/><path fill="#ebebeb" d="m226.43 83.96-.38 1.86-1.37-1.32-1.86-.38 1.33-1.37.38-1.86 1.36 1.33 1.86.38-1.32 1.36z"/><path fill="#f0f0f0" d="m142.08 102.62 2.08 1.13-2.08 1.14-1.13 2.07-1.14-2.07-2.07-1.14 2.07-1.13 1.14-2.08 1.13 2.08zm43.78-3.21 2.08 1.13-2.08 1.14-1.13 2.07-1.14-2.07-2.07-1.14 2.07-1.13 1.14-2.08 1.13 2.08zm-25.94-8.01 2.07 1.14-2.07 1.13-1.14 2.08-1.13-2.08-2.08-1.13 2.08-1.14 1.13-2.07 1.14 2.07zm278.83 31.02 2.07 1.14-2.07 1.13-1.14 2.08-1.13-2.08-2.08-1.13 2.08-1.14 1.13-2.07 1.14 2.07zM128.29 85.38l2.08 1.13-2.08 1.14-1.13 2.07-1.13-2.07-2.08-1.14 2.08-1.13 1.13-2.08 1.13 2.08zm7.53-7.32 2.07 1.14-2.07 1.13-1.14 2.08-1.13-2.08-2.08-1.13 2.08-1.14 1.13-2.07 1.14 2.07zm303.6 97.21 2.08 1.13-2.08 1.14-1.13 2.07-1.14-2.07-2.07-1.14 2.07-1.13 1.14-2.08 1.13 2.08zm-147.07 207.8s38.67-30.94 53.26-31.46 120.08 29.89 120.08 29.89Z"/><path fill="#e6e6e6" d="M212.09 381.9s-45.71-22.49-52.9-23-31.61 23.22-31.61 23.22Z"/><path fill="#ebebeb" d="M172.9 382.27s-76.85-22.86-88.69-23.39-52 23-52 23Z"/><path fill="#e6e6e6" d="M387.19 327.63c3.23-3.25 7.55-3.69 9.65-1s1.17 7.55-2.07 10.8-7.55 3.68-9.65 1-1.12-7.55 2.07-10.8Z"/><ellipse cx="381.32" cy="322.13" fill="#ebebeb" rx="20.99" ry="15.43" transform="rotate(-48.15 381.351 322.14)"/><path fill="#e6e6e6" d="M408.7 311c6-5.64 13.93-6.4 17.8-1.69s2.15 13.09-3.81 18.73-13.94 6.39-17.8 1.69-2.16-13.11 3.81-18.73Z"/><path fill="#ebebeb" d="M415.21 322c6-5.64 13.94-6.4 17.8-1.69s2.16 13.09-3.81 18.73-13.93 6.4-17.8 1.69-2.15-13.08 3.81-18.73Z"/><path fill="#f0f0f0" d="M395.6 304.72c8.23-7.78 19.22-8.83 24.54-2.34s3 18.05-5.25 25.83-19.22 8.83-24.55 2.34-2.97-18.05 5.26-25.83Z"/><path fill="#f0f0f0" d="M379.75 317.67c4.48-4.5 10.45-5.1 13.35-1.35s1.62 10.44-2.86 14.93-10.45 5.1-13.35 1.35-1.62-10.43 2.86-14.93Zm36.95 14.97c3.23-3.25 7.55-3.69 9.65-1s1.17 7.55-2.07 10.8-7.55 3.68-9.65 1-1.17-7.55 2.07-10.8Z"/><path fill="#f5f5f5" d="m416.36 344.83-5.68 4.75c.46 6.69.83 22.1.83 22.1l2 10.78-17.81.14s.81-9.1.81-9.59 3.49-17.93 3.49-17.93l1.21-9.76-9.21-2.52-1.68-4.35-6.75-3.45-3.3-4.55 1.28-.27 3.64 4.2 4.25.83-1.82-3.87h2l5.06 9 6.52 1.2-.86-12.6c6.28 1.77 6.89-1.46 6.89-1.46s2.15 17 2.91 18.89l3.36-1.52 3.64-5.17h1.62Z"/><path fill="#e6e6e6" d="M127.82 344.14c-2.22-2.23-5.19-2.53-6.63-.67s-.8 5.18 1.42 7.41 5.19 2.53 6.63.67.81-5.18-1.42-7.41Z"/><path fill="#ebebeb" d="M138.61 332.13c-5.76-5.46-13.47-6.19-17.2-1.64s-2.09 12.66 3.68 18.11 13.47 6.19 17.21 1.64 2.08-12.66-3.69-18.11Z"/><path fill="#e6e6e6" d="M113.05 332.7c-4.1-3.87-9.57-4.39-12.22-1.16s-1.49 9 2.61 12.86 9.57 4.4 12.22 1.17 1.49-8.99-2.61-12.87Z"/><path fill="#ebebeb" d="M108.58 340.28c-4.1-3.87-9.58-4.39-12.23-1.16s-1.48 9 2.62 12.86 9.57 4.4 12.22 1.16 1.48-8.99-2.61-12.86Z"/><path fill="#f0f0f0" d="M122.05 328.4c-5.66-5.34-13.2-6.06-16.86-1.6s-2 12.4 3.61 17.74 13.2 6.06 16.85 1.6 2.05-12.39-3.6-17.74Z"/><path fill="#f0f0f0" d="M132.93 337.3c-3.07-3.09-7.18-3.5-9.17-.93s-1.11 7.17 2 10.26 7.18 3.5 9.17.93 1.07-7.17-2-10.26Zm-25.38 10.28c-2.22-2.23-5.19-2.53-6.62-.67s-.81 5.18 1.41 7.41 5.19 2.53 6.63.67.81-5.18-1.42-7.41Z"/><path fill="#f5f5f5" d="m107.78 356 3.91 3.26c-.31 4.6-.57 15.18-.57 15.18l-1.39 7.4 12.23.11s-.55-6.25-.55-6.59-2.36-12.36-2.36-12.36l-.84-6.7 6.31-1.73 1.15-3 4.64-2.36 2.26-3.12-.87-.2-2.51 2.89-2.92.57 1.25-2.66h-1.39l-3.47 6.16-4.48.83.59-8.65c-4.31 1.21-4.73-1-4.73-1s-1.48 11.64-2 13l-2.31-1.03-2.5-3.55h-1.11ZM158 382.28l18-32.56 53.5-33.48 18.23-38.13s42.87 21.7 44.1 22.25 17.14 57.37 18.49 58.25 14.06 10.84 14.06 10.84l1.06 12.66Z"/><path fill="#ebebeb" d="m158.02 382.28 25.64-24.7 36.33-17.16 6.8 21.72 9.15-24.71 10.38 8.42-2.25-29.05 1.8-9.29 6.1 6.17-4.23-35.57 44.1 22.25 18.49 58.25 14.05 10.84 1.07 12.66-167.43.17z"/><path fill="#fafafa" d="m253 280.39 13.23 24.44 10.91 4.3s5.75 11.93 5.69 11.17-.66-14.14-.66-14.14l9.68-5.8Zm57.33 78.22 4.27 9.87 9.78.97-14.05-10.84z"/><path fill="#f0f0f0" d="m295.75 292.13 37.92-2.21a6.93 6.93 0 0 1 3.85.91c12.53 10.86 26 3.61 32-.67a14.77 14.77 0 0 1 7.72-2.78l42.26-2.46c15.85-.92 18.38-23.34 3.11-27.68l-.59-.16c15.75-14.76-22.28-41.74-59.4.84 2.29-13.61-32.51-6.71-42.18 12.24-4.51-11.81-36.75 11.04-24.69 21.97ZM70.42 278.48l13.13-.25 1.09.46a21.54 21.54 0 0 0 18.62-.84l11-.21s10.2-4.07 8.68-14.3S106 262 106 262s4.43-14.39-10.52-10a22.24 22.24 0 0 0-16.13 18.56s-19.76-3.16-8.93 7.92ZM129 317.71h56.16c7.19 0 8.93-10.07 2.13-12.44l-.26-.09c7.51-6.26-9-19.46-26.89-1.18 1.4-6.1-14.52-3.89-19.39 4.42-1.7-5.42-16.88 4.03-11.75 9.29Z"/><ellipse cx="250" cy="421.69" fill="#f5f5f5" rx="193.89" ry="11.32"/><path fill="#061d44" d="m103.5 394.42 17.35 1.34s-2.93-21.65.71-24.06c4.48-3 6.35.85 6.87 7.61s.09 24.85-4.41 24.34S103.5 405 103.5 405Z"/><path d="m103.5 394.42 17.35 1.34s-2.93-21.65.71-24.06c4.48-3 6.35.85 6.87 7.61s.09 24.85-4.41 24.34S103.5 405 103.5 405Z" opacity=".1"/><path fill="#061d44" d="m96.51 343.65-20.08 1.56s3.39-25.08-.83-27.87c-5.18-3.43-7.35 1-7.95 8.81s-.11 28.78 5.11 28.19 23.75 1.56 23.75 1.56Z"/><path d="m96.51 343.65-20.08 1.56s3.39-25.08-.83-27.87c-5.18-3.43-7.35 1-7.95 8.81s-.11 28.78 5.11 28.19 23.75 1.56 23.75 1.56Z" opacity=".1"/><path fill="#061d44" d="M94.24 423.85C95 422.37 91 292.63 91 292.63s.85-17.76 13.86-19.1c6.5-.67 10.44 4.34 12.75 9.52a31.76 31.76 0 0 1 2.47 16l-8.8 124.83Z"/><path d="m96.7 422.54-1.35-105.35c-.18-14.13-.16-29.08 7.07-41.23a112.66 112.66 0 0 0-4.56 20.44c-.82 6.44-.49 12.71-.62 19.16-.32 14.75.87 90.5.74 100.05a23.22 23.22 0 0 1-.94 7.53Zm13.19-.18c1.44-35.09 4-69.27 5.47-104.36.58-14.12 1-29.07-5.91-41.42a113.35 113.35 0 0 1 4 20.56c.64 6.46.13 12.72.09 19.18-.09 14.75-4.58 89.52-4.71 99.08a22.78 22.78 0 0 0 .73 7.55Z" opacity=".2"/><path fill="#fff" d="M99.34 281.24c-.08 0-.14-.06-.21-.15a.61.61 0 0 1-.09-.17v-.07l-4.29-8.19.45-.23 2.2 4.21c1.23 2.34 1.81 3.45 2 4l.13.25c.08.24 0 .27 0 .31a.27.27 0 0 1-.19.04Zm11-4.74-.47-.17a19.77 19.77 0 0 0 1-4.5l.5.06a20.21 20.21 0 0 1-1.03 4.61ZM121 298.52a5.28 5.28 0 0 1-2-.39l.19-.47a4.73 4.73 0 0 0 3.62 0l.2.46a5.19 5.19 0 0 1-2.01.4Zm-30.48 3.33a7.16 7.16 0 0 1-2.74-.54l.2-.47a6.57 6.57 0 0 0 4.13.31l.12.49a7.08 7.08 0 0 1-1.71.21Zm27.23-15.51-.31-.4a18.17 18.17 0 0 0 2.79-2.61l.38.33a20.17 20.17 0 0 1-2.86 2.68Zm-25.13-.78a2 2 0 0 0-2.08-.85l-.1-.49a2.54 2.54 0 0 1 2.6 1.07Zm26.99 49.75a23.32 23.32 0 0 1-5-2.9l.3-.4a22.4 22.4 0 0 0 4.93 2.84Zm-27.89 4.77-.08-.49a4.75 4.75 0 0 0 2.7-1.38l.36.35a5.22 5.22 0 0 1-2.98 1.52Zm2.418 45.633 4.26-3.35.31.394-4.261 3.35zm21.942 6.407a3.23 3.23 0 0 0-3-1.08l-.09-.49a3.74 3.74 0 0 1 3.47 1.24Zm-10.81-25.24-.11-.49a7.75 7.75 0 0 0 2.57-1.07l.27.43a8.49 8.49 0 0 1-2.73 1.13Zm9.67-5.249.06-.496 4.507.54-.06.496zM99.28 352.4h1.66v.5h-1.66zm11.89-.2v-.5a2.08 2.08 0 0 0 1.27-.44l.31.39a2.65 2.65 0 0 1-1.58.55Zm-13.133 22.971.158-.474.712.237-.159.475zm14.475 3.213.115-.487 3.085.73-.115.487zM96.12 318.89l-.3-.4 1.22-.91.3.4-1.22.91zm20.007-3.552.057-.496 2.603.298-.057.497zM98.46 293.456l.224-.447.948.475-.223.447zm6.06-7.576a12.22 12.22 0 0 0-.57-3.7l.48-.15a12.84 12.84 0 0 1 .59 3.85Zm6.82-.05-.34-.37a6.5 6.5 0 0 0 1.41-1.81l.44.23a6.86 6.86 0 0 1-1.51 1.95Zm2.43 8.41a.76.76 0 0 1-.33-.08l.22-.45a.31.31 0 0 0 .38-.11l.43.25a.82.82 0 0 1-.7.39Zm-7.28 10.622.301-.4 1.63 1.227-.3.4zM120.65 308a12.5 12.5 0 0 1-2.9-.56l.15-.47a11.57 11.57 0 0 0 2.78.53Zm-24.412 1.692 1.17-1.447.389.315-1.17 1.446zm7.062 7.998-.36-.34a1.7 1.7 0 0 0 .34-1.67l.48-.17a2.2 2.2 0 0 1-.46 2.18Zm8.869-6.714.391-.311.74.932-.391.31zm7.561 15.764a10.15 10.15 0 0 0-2.26-1.7l.24-.43a10 10 0 0 1 2.37 1.78Zm-29.32 2.144 3.325-1.186.168.47-3.325 1.187zm7.74 5.216-.13-.48a1.14 1.14 0 0 0 .79-1.15h.5a1.65 1.65 0 0 1-1.16 1.63Zm16.58-3.89a2.36 2.36 0 0 0-1.48-1.08l.11-.49a2.85 2.85 0 0 1 1.8 1.32ZM106 341.44l-.09-.5a.28.28 0 0 0 .2-.21.32.32 0 0 0 0-.3l.35-.35a.79.79 0 0 1 .17.79.81.81 0 0 1-.63.57Zm-.547-10.807.475-.158.237.712-.475.158zm12.777 11.507a2.65 2.65 0 0 0-1.64-1.21l.11-.48a3.11 3.11 0 0 1 2 1.43ZM69 323.65a11.72 11.72 0 0 1-3.36-2.95l.39-.3a11.24 11.24 0 0 0 3.22 2.81Zm3.18-9.26h.5V317h-.5zm3.53 6.33-.22-.45a8.31 8.31 0 0 0 3.05-2.53l.46.26a8.77 8.77 0 0 1-3.29 2.72Zm-1.028 6.982.224-.448.474.238-.224.447zm2.738-1.442h2.14v.5h-2.14zm-10.29 5.93-.31-.4a5.73 5.73 0 0 1 2.22-1l.11.49a5.08 5.08 0 0 0-2.02.91Zm2.05 10.29-.5-.07a1.66 1.66 0 0 1 1.32-1.36l.08.49a1.16 1.16 0 0 0-.9.94Zm5.82-4.3a2.46 2.46 0 0 1-1.29-.83l.38-.32a2 2 0 0 0 1 .67Zm2.66-5.26h1.66v.5h-1.66zm-.14 10.34a1.24 1.24 0 0 0-1.4-.31l-.21-.45a1.75 1.75 0 0 1 2 .44Zm-7.65 8.64-.14-.48a2.44 2.44 0 0 0 1.35-1l.42.27a2.9 2.9 0 0 1-1.63 1.21Zm8.49 4.21-.43-.25a3.9 3.9 0 0 0 .41-2.68l.49-.1a4.44 4.44 0 0 1-.47 3.03Zm9.59-.09-.6-2.35.49-.12.6 2.35-.49.12zM86 345.77h-.49a6.7 6.7 0 0 0-.38-2.55l.47-.17a7.1 7.1 0 0 1 .4 2.72Zm-7.695 3.561.13-.483.946.254-.13.483zm12.117-.437 1.428-.252.087.492-1.428.252zm-7.002 3.986-.13-.48a.17.17 0 0 0 .06-.06.12.12 0 0 0 0-.08l.47-.17a.62.62 0 0 1 0 .48.63.63 0 0 1-.4.31Zm9.17 9.81a13.31 13.31 0 0 1-1.41-.07v-.5A13.39 13.39 0 0 0 95 362l.09.49a13.59 13.59 0 0 1-2.5.2Zm23.23 8.24a1.58 1.58 0 0 1-1.35-.78l.43-.25a1.1 1.1 0 0 0 1 .53v.49Zm-24.74 3.23-.34-.37a6.12 6.12 0 0 1 3.78-1.62v.5a5.55 5.55 0 0 0-3.44 1.49Zm14.677 11.27.312-.39 1.188.948-.312.39zM92.46 403.75l-.39-.32a14 14 0 0 1 4.42-3.6l.23.44a13.54 13.54 0 0 0-4.26 3.48Zm4.65 9.38-.43-.26 1.13-1.93.43.25-1.13 1.94zm7.867-1.377.414-.28 1.92 2.842-.415.28zm2.551-10.713.186-.464 1.884.757-.187.464zM122 404.42a12.63 12.63 0 0 1-2.61-2.23l.38-.33a11.9 11.9 0 0 0 2.5 2.14Zm5.237-24.474 2.38-.434.09.492-2.38.434zm-2.047-8.016a2.89 2.89 0 0 1 1-2.64l.32.38a2.39 2.39 0 0 0-.81 2.18Zm-4.58 5.59a2.9 2.9 0 0 1-1.91-2.25l.5-.08a2.38 2.38 0 0 0 1.57 1.86Zm9.47 18.3a7.48 7.48 0 0 0-2.33-.88l.09-.49a7.91 7.91 0 0 1 2.49.94Zm-12.88.33a3.29 3.29 0 0 1 .45-1.77l.43.25a2.82 2.82 0 0 0-.38 1.5Zm3.62-8.1a4.69 4.69 0 0 1-2-1.47l.39-.31a4.21 4.21 0 0 0 1.83 1.31Zm8.18 2.19a.81.81 0 0 1-.69-.38l.42-.26a.32.32 0 0 0 .39.11l.23.45a.85.85 0 0 1-.35.08Zm-5.26-6.22h.5v.48h-.5zm-2.837 8.56 1.885-.305.08.493-1.885.306zm6.477 9.66-1.23-1.39.37-.34 1.23 1.39-.37.34zm-12.2-2.44h.24v.5h-.24zm-1.26 12.42a6.34 6.34 0 0 0-2.77-.87v-.49a6.72 6.72 0 0 1 3 .93Zm2.35-62.686.243-.438 2.143 1.19-.243.436zm-12.8-77.609.487-.113.379 1.626-.487.114zm13.13 7.595-.49-.13a2.48 2.48 0 0 1 .85-1.3l.31.39a1.91 1.91 0 0 0-.67 1.04ZM98.57 394.7h2.38v.5h-2.38z"/><path fill="#061d44" d="M139.19 424.3c-.36.06-.77.11-1.23.17H70.4a4.79 4.79 0 0 1 .32-2.28 17.1 17.1 0 0 0 .25-11 17.26 17.26 0 0 1 2.34 9.09c.31-3.19-.44-12.64-.12-15.83 4 4.55 1.65 14.16 4 17.21 2.74-.73.39-16.57.66-15.44 1.47 0 2.85 8.59 3.26 11.48a25.16 25.16 0 0 1 9-19c-6.82 9.05-4.92 16.58-4.71 23.15 2.14-5.59 3-7.68 1.58-13.4 5.57 5.22.28 14.4 3.15 14.78 0 0 2.71-10.39 7.36-16.45a25.59 25.59 0 0 0 1 14.36c1.61 1.25.06-13.15 3.16-16.89.37 2.69 1.53 15.39 3 13.7-.14-4.53-1.42-14.51-4.05-18.14a19.71 19.71 0 0 1 6.09 7.44c.11-.33.23-.66.35-1a55.74 55.74 0 0 0 2-7.37 81.89 81.89 0 0 1-.57 11.15A45.2 45.2 0 0 1 110 416c.79-2.26 1.57-4.89 2.74-8.1-1.18 3.36-.71 6.65 0 10.1 5 .69 4.33-10.87 3.44-14.49 4.09 1.42 4.72 10.88 4.8 15.82 0 0 4-3 6.62-15.88 2.26 4.25-.87 15.77 2.26 18.31.88.72 1.12-14.32 7.39-17.7-2.45 1.32-2.81 8.51-1.75 13.65a12.49 12.49 0 0 0 3.69 6.59Z"/><path fill="#fff" d="M139.19 424.3c-.36.06-.77.11-1.23.17H70.4a4.79 4.79 0 0 1 .32-2.28 17.1 17.1 0 0 0 .25-11 17.26 17.26 0 0 1 2.34 9.09c.31-3.19-.44-12.64-.12-15.83 4 4.55 1.65 14.16 4 17.21 2.74-.73.39-16.57.66-15.44 1.47 0 2.85 8.59 3.26 11.48a25.16 25.16 0 0 1 9-19c-6.82 9.05-4.92 16.58-4.71 23.15 2.14-5.59 3-7.68 1.58-13.4 5.57 5.22.28 14.4 3.15 14.78 0 0 2.71-10.39 7.36-16.45a25.59 25.59 0 0 0 1 14.36c1.61 1.25.06-13.15 3.16-16.89.37 2.69 1.53 15.39 3 13.7-.14-4.53-1.42-14.51-4.05-18.14a19.71 19.71 0 0 1 6.09 7.44c.11-.33.23-.66.35-1a55.74 55.74 0 0 0 2-7.37 81.89 81.89 0 0 1-.57 11.15A45.2 45.2 0 0 1 110 416c.79-2.26 1.57-4.89 2.74-8.1-1.18 3.36-.71 6.65 0 10.1 5 .69 4.33-10.87 3.44-14.49 4.09 1.42 4.72 10.88 4.8 15.82 0 0 4-3 6.62-15.88 2.26 4.25-.87 15.77 2.26 18.31.88.72 1.12-14.32 7.39-17.7-2.45 1.32-2.81 8.51-1.75 13.65a12.49 12.49 0 0 0 3.69 6.59Z" opacity=".7"/><path fill="#061d44" d="M170.25 423.88a30.34 30.34 0 0 0 8.81-17c-2.43 4.65-4.33 5.64-8.18 9.52-.32-3.53 5.17-14.27-.9-34.54a59.64 59.64 0 0 1-1.32 26.59c.16-12.07-3.69-18.72-7.69-24.4 8.33 21.92 4.19 28.68 2.31 39.79 1.88.16 6.97.04 6.97.04Z"/><path fill="#fff" d="M170.25 423.88a30.34 30.34 0 0 0 8.81-17c-2.43 4.65-4.33 5.64-8.18 9.52-.32-3.53 5.17-14.27-.9-34.54a59.64 59.64 0 0 1-1.32 26.59c.16-12.07-3.69-18.72-7.69-24.4 8.33 21.92 4.19 28.68 2.31 39.79 1.88.16 6.97.04 6.97.04Z" opacity=".7"/><path fill="#061d44" d="M192 423.82c2.28-4.18 2.28-11.36 2.28-23.94 1 3.66 1.94 12.16 2.35 15.94 1.45-14.23 1.71-19.25 3.16-33.48 1.95 12.67 2.36 19 1.18 31.74 2.84-16 5.25-14.71 9.2-20.91a45.28 45.28 0 0 0-4.89 23c2.57-4.12 4.69-7.36 7.26-11.48-2 6.36-3.44 12.82-5.44 19.18Z"/><path fill="#fff" d="M192 423.82c2.28-4.18 2.28-11.36 2.28-23.94 1 3.66 1.94 12.16 2.35 15.94 1.45-14.23 1.71-19.25 3.16-33.48 1.95 12.67 2.36 19 1.18 31.74 2.84-16 5.25-14.71 9.2-20.91a45.28 45.28 0 0 0-4.89 23c2.57-4.12 4.69-7.36 7.26-11.48-2 6.36-3.44 12.82-5.44 19.18Z" opacity=".7"/><path fill="#061d44" d="M241.26 407.67c-1.72 5.46-.66 16.73-.66 16.73-3.8 0-32-.35-35.18-.35 0 0 7.85-4 9.83-16.41a58.35 58.35 0 0 1 1.85 9.62c1.26-12.23 5.54-15 4.52-4 2.42-5.11 4.7-10.33 7.12-15.45a64.76 64.76 0 0 1-2.17 13.19c-1 3.77-2 6.35-2 6.5.88-1.42 1.71-2.72 2.52-4 .21 1.23.38 1.67.52 2.92a50.88 50.88 0 0 1 .89-5.15c1.94-10.25 4.64-9 3.62 1.93 2.42-5.11 4.7-10.33 7.12-15.45a72.83 72.83 0 0 1-4.24 19.78c2.24-3.53 4.05-6.33 6.26-9.86Z"/><path fill="#fff" d="M241.26 407.67c-1.72 5.46-.66 16.73-.66 16.73-3.8 0-32-.35-35.18-.35 0 0 7.85-4 9.83-16.41a58.35 58.35 0 0 1 1.85 9.62c1.26-12.23 5.54-15 4.52-4 2.42-5.11 4.7-10.33 7.12-15.45a64.76 64.76 0 0 1-2.17 13.19c-1 3.77-2 6.35-2 6.5.88-1.42 1.71-2.72 2.52-4 .21 1.23.38 1.67.52 2.92a50.88 50.88 0 0 1 .89-5.15c1.94-10.25 4.64-9 3.62 1.93 2.42-5.11 4.7-10.33 7.12-15.45a72.83 72.83 0 0 1-4.24 19.78c2.24-3.53 4.05-6.33 6.26-9.86Z" opacity=".7"/><path fill="#061d44" d="M343.9 424q1.25-8.36 2.48-16.71a59.38 59.38 0 0 1 1.67 9.65c1.49-12.2 6.91-24.32 8.4-36.52 1.46 10.92-2.56 20.85-3.79 31.8 2.52-5.07 4.88-9.45 7.4-14.52a72.54 72.54 0 0 1-4.58 19.66c2.28-3.5 4.15-6.25 6.43-9.75l-5.48 16.29c-3.8-.05-8.73.2-12.53.1Z"/><path fill="#fff" d="M343.9 424q1.25-8.36 2.48-16.71a59.38 59.38 0 0 1 1.67 9.65c1.49-12.2 6.91-24.32 8.4-36.52 1.46 10.92-2.56 20.85-3.79 31.8 2.52-5.07 4.88-9.45 7.4-14.52a72.54 72.54 0 0 1-4.58 19.66c2.28-3.5 4.15-6.25 6.43-9.75l-5.48 16.29c-3.8-.05-8.73.2-12.53.1Z" opacity=".7"/><path fill="#061d44" d="M342.85 423.77a27.69 27.69 0 0 0 6.49-14.61c-1.79 4-3.19 4.85-6 8.18-.24-3 3.8-12.26-.66-29.68a59.75 59.75 0 0 1-1 22.84 48.26 48.26 0 0 0-6.07-15.87 69.64 69.64 0 0 1 2.11 29.1c1.39.16 5.13.04 5.13.04Z"/><path fill="#061d44" d="M338.94 423.9c.08-4.61 1.58-11.44-1-14.88.07 2.57-.54 8-4.74 11.06 1.93-6.28 1.4-15.47 1.13-22-4.33 23.59-11.48 25.2-14 25.92 4.87.06 18.61-.1 18.61-.1Z"/><g fill="#fff" opacity=".7"><path d="M342.85 423.77a27.69 27.69 0 0 0 6.49-14.61c-1.79 4-3.19 4.85-6 8.18-.24-3 3.8-12.26-.66-29.68a59.75 59.75 0 0 1-1 22.84 48.26 48.26 0 0 0-6.07-15.87 69.64 69.64 0 0 1 2.11 29.1c1.39.16 5.13.04 5.13.04Z"/><path d="M338.94 423.9c.08-4.61 1.58-11.44-1-14.88.07 2.57-.54 8-4.74 11.06 1.93-6.28 1.4-15.47 1.13-22-4.33 23.59-11.48 25.2-14 25.92 4.87.06 18.61-.1 18.61-.1Z"/></g><path fill="#061d44" d="M371.61 423.88c.07-4.62-1.34-8.16-1.27-12.77-1.68 8.3-5.65 9.19-5.65 9.19 3.06-7.84 3.19-15.69 3-22.26-1.53 8.09-3.2 16.53-7.61 22.82-1.05 1.51-2.61 3.54-4.15 2.93-.03 0 11.73-.01 15.68.09Z"/><path fill="#fff" d="M371.61 423.88c.07-4.62-1.34-8.16-1.27-12.77-1.68 8.3-5.65 9.19-5.65 9.19 3.06-7.84 3.19-15.69 3-22.26-1.53 8.09-3.2 16.53-7.61 22.82-1.05 1.51-2.61 3.54-4.15 2.93-.03 0 11.73-.01 15.68.09Z" opacity=".7"/><path fill="#061d44" d="M289.13 423.88c.07-4.62-1.35-8.16-1.28-12.77-1.67 8.3-5.64 9.19-5.64 9.19 3.05-7.84 3.19-15.69 3-22.26-1.53 8.09-3.19 16.53-7.6 22.82-1.06 1.51-2.61 3.54-4.16 2.93-.04 0 11.73-.01 15.68.09Z"/><path fill="#fff" d="M289.13 423.88c.07-4.62-1.35-8.16-1.28-12.77-1.67 8.3-5.64 9.19-5.64 9.19 3.05-7.84 3.19-15.69 3-22.26-1.53 8.09-3.19 16.53-7.6 22.82-1.06 1.51-2.61 3.54-4.16 2.93-.04 0 11.73-.01 15.68.09Z" opacity=".7"/><path fill="#061d44" d="m232.961 186.133 45.951 23.737-13.512 26.156-45.95-23.737z"/><path fill="#061d44" d="m275.626 209.47 45.951 23.738-12.392 23.988-45.95-23.738z"/><path fill="#263238" d="m268.65 236.6-3.1-.73 13.33-25.81 2.39 2.1-12.62 24.44z"/><path d="m268.65 236.6-3.1-.73 13.33-25.81 2.39 2.1-12.62 24.44z" opacity=".2"/><path fill="#263238" d="m276.164 208.448 2.79 1.44-13.512 26.157-2.79-1.441zm43.296 48.402-7.24 1.59 12.15-23.54 2.9 6.83-7.81 15.12zm18.712-7.827 8.379 4.327-5.896 11.417-8.379-4.326z"/><path d="m338.172 249.023 8.379 4.327-5.896 11.417-8.379-4.326z" opacity=".2"/><path fill="#263238" d="m323.687 239.234 17.698 9.143-7.986 15.459-17.698-9.143z"/><path d="m319.46 256.85-7.24 1.59 12.15-23.54 2.9 6.83-7.81 15.12z" opacity=".2"/><path fill="#263238" d="m321.58 233.209 2.79 1.44-12.392 23.99-2.79-1.442zm-89.985-47.802 2.79 1.44-13.507 26.159-2.79-1.44zM329.47 263.7a4.8 4.8 0 1 1-2.06-6.47 4.8 4.8 0 0 1 2.06 6.47Z"/><path fill="#061d44" d="M329.47 263.7a4.8 4.8 0 1 1-2.06-6.47 4.8 4.8 0 0 1 2.06 6.47Z"/><path fill="#263238" d="m357.613 239.557 8.45 4.364-8.216 15.904-8.449-4.365z"/><path d="m357.613 239.557 8.45 4.364-8.216 15.904-8.449-4.365z" opacity=".2"/><path fill="#263238" d="m347.49 251.5-7.99 15.46 3.8 1.96 16.88-6.02 2.05-3.79-14.74-7.61z"/><path fill="#061d44" d="m365.83 245.47-9.31-4.81v-4.17l12.72 6.57-3.41 2.41zm-140.97-66.533 7.926 4.094-15.788 30.563-7.925-4.094z"/><path fill="#fff" d="m238.73 191.69-3.41-1.75-1.5 2.91 3.46 1.77a25.73 25.73 0 0 0 1.45-2.93Zm2.06 1.14a28.64 28.64 0 0 1-1.45 2.94l32.84 16.75 1.51-2.9Zm78.77 41.83-1.51 2.9-38.03-19.76 1.5-2.91 38.04 19.77zm-87.96-51-1.51 2.9-6.19-3.24 1.5-2.91 6.2 3.25z" opacity=".4"/><path fill="#263238" d="m303.368 213.176 8.636 4.46-1.656 3.207-8.637-4.46z"/><path fill="#061d44" d="m291.029 193.233 40.416 20.878-3.7 7.161-40.415-20.878z"/><path fill="#fff" d="m294.44 195.83-2.71-1.39-.69 1.41 2.81 1.44a4.67 4.67 0 0 0 .59-1.46Zm1.36.74a6.37 6.37 0 0 1-.61 1.45l34.21 17.5.61-1.44Z" opacity=".4"/><path fill="#263238" d="m308.038 201.13 2.381 1.23-10.226 19.795-2.38-1.23z"/><path d="m308.038 201.13 2.381 1.23-10.226 19.795-2.38-1.23z" opacity=".2"/><path fill="#263238" d="m285.92 198.7 1.44 1.68 3.69-7.16-2.2-.19-2.93 5.67zm37.359 10.3 12.642 6.532-4.465 8.645-12.643-6.531z"/><path d="M289.43 197.42a28.48 28.48 0 0 1-1.45 2.93L327.3 221l1.51-2.9Zm-77.67 8.63a28.48 28.48 0 0 1-1.45 2.93l6.39 3.39 1.51-2.9Zm12.86 3.54a28.64 28.64 0 0 1-1.45 2.94l39.32 20.64 1.51-2.9Zm48.25 24.08a28.64 28.64 0 0 1-1.45 2.94l36.77 19.15 1.51-2.9Z" opacity=".3" style="isolation:isolate"/><path fill="#263238" d="m279.526 239.986 21.625 11.171-3.92 7.588-21.625-11.171zm.444 23.354h9.74v9.74h-9.74z"/><path d="M279.97 263.34h9.74v9.74h-9.74z" opacity=".2"/><path fill="#263238" d="M284.85 247.85h4.86v17.83h-4.86z"/><path fill="#263238" d="M270.23 261.02h19.48v4.66h-19.48zm0 10.44h24.34v6.95h-24.34zm14.02 152.19h-3.47l-2.09-145.24h7.66l-2.1 145.24z"/><path fill="#fff" d="M284.25 423.65h-3.47l-2.09-145.24h7.66l-2.1 145.24z" opacity=".1"/><path fill="#263238" d="m245.69 420.52-3.41-.65 25.1-143.07 7.52 1.43-29.21 142.29z"/><path fill="#fff" d="m245.69 420.52-3.41-.65 25.1-143.07 7.52 1.43-29.21 142.29z" opacity=".1"/><path fill="#263238" d="m244.258 397.54 7.562 1.448-1.448 7.562-7.562-1.448zm-2.878 7.77 7.546 1.463-1.463 7.546-7.546-1.463zm6.05 10.24-5.03-.96-1.08 9.06h3.9l2.21-8.1zm71.5 4.97 3.41-.65-25.11-143.07-7.52 1.43 29.22 142.29z"/><path fill="#fff" d="m318.93 420.52 3.41-.65-25.11-143.07-7.52 1.43 29.22 142.29z" opacity=".1"/><path fill="#263238" d="m321.825 405.087-7.563 1.448-1.448-7.563 7.563-1.448zm1.57 8.191-7.563 1.448-1.448-7.562 7.563-1.448zm-6.205 2.272 5.02-.96 1.08 9.06h-3.9l-2.2-8.1zm-68.891-20.732 33.929-2.623.309 3.998-33.93 2.623z"/><path fill="#263238" d="m316.478 398.82-33.929-2.623.31-3.998 33.928 2.623z"/><path fill="#b55b52" d="M365.82 252.93c1-1 2.41-2.12 3.38-3.15a39.78 39.78 0 0 0 .88-5.8 2.43 2.43 0 0 0-1.71-1.51c-.26-.08-2.27 1.73-2.54 1.8-1-.85-2.33 3.06-2.31 3-.4 1.4-1.29 2.81-1 4.24.19 1.2 2.48 2.3 3.3 1.42Z"/><path fill="#b55b52" d="m363.05 252.64 3.42-1.19 4.72 9.07a6.83 6.83 0 0 0 7.6 3.56c3.91-1 9.34-4 14.72-12.67 0 0 6 2.51 6.22 5.47 0 0-18.41 21.47-29.65 11.1-3.72-3.43-7.03-15.34-7.03-15.34Z"/><path fill="#061d44" d="M398.83 294.92s14.16 18.13 6.42 35.81c-4.23 9.68-8.33 37.92-8.33 37.92A47.44 47.44 0 0 1 410 382.2c8.39 13.55 12.49 17.12 12.49 17.12l-6 4.57s-24.74-18.78-31-27.94-5.11-17.28 3-52.27l-18.94 41.17c8.15 11 7.23 39.17 7.23 39.17l-9.41 1.5s-10-28.23-12.61-35.83-4.82-9.59 3-34.54c3-9.57 12.26-39.24 12.26-39.24Z"/><path d="M398.83 294.92s14.16 18.13 6.42 35.81c-4.23 9.68-8.33 37.92-8.33 37.92A47.44 47.44 0 0 1 410 382.2c8.39 13.55 12.49 17.12 12.49 17.12l-6 4.57s-24.74-18.78-31-27.94-5.11-17.28 3-52.27l-18.94 41.17c8.15 11 7.23 39.17 7.23 39.17l-9.41 1.5s-10-28.23-12.61-35.83-4.82-9.59 3-34.54c3-9.57 12.26-39.24 12.26-39.24Z" opacity=".6"/><path d="M388.56 323.68s6.37-2.79 7.14-9.21c0 0 0 9.59-6.14 15.21-3.82 3.5-3.33 4-3.33 4Z" opacity=".2" style="isolation:isolate"/><path fill="#b55b52" d="m416.23 402.75 8.13 8.34 5.15-.47-8.13-11.51-5.15 3.64zm-47.79 2.77 3.53 12.5 4.99-.2-.78-12.72-7.74.42z"/><path fill="#263238" d="M432.06 412a1.18 1.18 0 0 0-.09-1.6c-.5-.42-2-1.45-3.06-2.17-.67-.45-1.53-1.16-2.2-.72l-3 2.67c-.78.5-.85 1.23-.81 2.15a14.83 14.83 0 0 1-2.32 7.87c-1.09 1.72-1.72 3-1 3.63a1.37 1.37 0 0 0 .73.28 3.14 3.14 0 0 0 2.76-1.19Zm-55.39 3.23a1.69 1.69 0 0 1 1.69 1.67 58.08 58.08 0 0 1-.12 7c-.29.68-20.36-.11-20.36-.11a2.33 2.33 0 0 1-1-2c.15-1.24 6.93-1.9 9.35-3.16a23.79 23.79 0 0 0 4.27-3 1.67 1.67 0 0 1 1.11-.42Z"/><path fill="#061d44" d="m412.99 402.85 8.79-6.55 2.19 2.86-8.04 6.23-2.94-2.54z"/><path fill="#fff" d="m412.99 402.85 8.79-6.55 2.19 2.86-8.04 6.23-2.94-2.54z" opacity=".4"/><path fill="#061d44" d="M365.8 404.63c.21-.15 12.38-2.28 12.38-2.28l.28 4.06-11.46 2.65Z"/><path fill="#fff" d="M365.8 404.63c.21-.15 12.38-2.28 12.38-2.28l.28 4.06-11.46 2.65Z" opacity=".4"/><path fill="#b55b52" d="M382.82 230c.78 4.56 3.56 15.28 7.64 17 0 0 .46 4.76-7.45 7.77-8.7 3.3-6.44-5.34-6.44-5.34 4.32-2.95 2.85-6.42.76-9.41Z"/><path fill="#061d44" d="M392.24 246.44a1.75 1.75 0 0 0-1.65-1.78c-3.48-.16-11.39-.4-15.24.6-2.86.75-3.43 2.53-3.39 3.93a1.71 1.71 0 0 0 1.77 1.66h.27l16.81-2.75a1.74 1.74 0 0 0 1.43-1.66Z"/><path fill="#fff" d="M392.24 246.44a1.75 1.75 0 0 0-1.65-1.78c-3.48-.16-11.39-.4-15.24.6-2.86.75-3.43 2.53-3.39 3.93a1.71 1.71 0 0 0 1.77 1.66h.27l16.81-2.75a1.74 1.74 0 0 0 1.43-1.66Z" opacity=".4"/><path fill="#061d44" d="M401.59 254.64c-3.9 21.13-3.6 28.66-2.74 40.24l-28.76 1s-3.43-17.2-3.78-23.46c-.21-3.62-.38-6.74-.52-9.43-.62-11.24-.73-14.83-.73-14.83a83.17 83.17 0 0 1 24.49-1.33q3.26.09 6.5.39a6.27 6.27 0 0 1 5.54 7.42Z"/><path fill="#b55b52" d="M333.92 268.4c-.55-1.3-1-3.07-1.52-4.36a30.18 30.18 0 0 0-6.23-3.59 26.37 26.37 0 0 0-2.74 3.18c-.17.22-.05.66-.09.93a18.2 18.2 0 0 0 4.06 3.16c1.12.92 2.47 2.83 3.88 3.16 1.19.28 3.11-1.36 2.64-2.48Z"/><path fill="#b55b52" d="m331.28 270.88 2.64-2.48 15.82 4.5s7.52-10.29 8.87-15.53c0 0 6.5-.14 7.91 2.47 0 0-8.65 18-13.24 20.83s-22-9.79-22-9.79Z"/><path fill="#061d44" d="m332.83 270.46-.89 1.43 2.05 1.27.58-1.52s-.85.05-1.74-1.18Z"/><path fill="#263238" d="M336.31 269.9a1.74 1.74 0 1 1-1.74-1.73 1.74 1.74 0 0 1 1.74 1.73Z"/><path fill="#061d44" d="M334.57 272.14a2.24 2.24 0 1 1 2.24-2.24 2.24 2.24 0 0 1-2.24 2.24Zm0-3.47a1.24 1.24 0 1 0 1.24 1.23 1.24 1.24 0 0 0-1.24-1.23Z"/><path d="M366.52 272.53a.9.9 0 0 1-.21-.08c-.21-3.62-.38-6.74-.52-9.43 1.8-4.34 4-8.94 4.57-6.71.77 3.18-3.84 16.22-3.84 16.22Z" opacity=".2" style="isolation:isolate"/><path fill="#061d44" d="m353.79 263.65 10.84 6.35s7.87-11 6.18-17.09c-.09-4.14-3.82-5.49-5.74-4.75-6.44 1.42-11.28 15.49-11.28 15.49Z"/><path fill="#263238" d="M363.72 229.63a2.38 2.38 0 0 1 2.06-.79h.1a.31.31 0 0 0 .32-.3.31.31 0 0 0-.3-.32 3 3 0 0 0-2.61.92.32.32 0 0 0-.08.2.32.32 0 0 0 .51.27Z"/><path fill="#df5753" d="M366.2 231.78a19.73 19.73 0 0 1 .32 4.2 1.58 1.58 0 0 0 1.63-.24Z"/><path fill="#263238" d="M365.08 229.71c-.37.18-.44.78-.17 1.34s.8.86 1.16.68.44-.77.16-1.33-.79-.87-1.15-.69Z"/><path fill="#b55b52" d="M383.8 218.87c2.94 7 4.33 10 2.61 15.15-2.6 7.82-11.87 9.9-16.83 3.92-4.49-5.42-8.76-14.28-3.39-20.29 3.79-4.3 10.57-6.42 14.87-2.63a10.38 10.38 0 0 1 2.74 3.85Z"/><path fill="#263238" d="M363.05 220.43a7.62 7.62 0 0 0 2.56 6.08c1.52 1.34 3.76 2.32 4 4.33.1.73-.08 1.55.36 2.14.62.84 1.92.56 2.9.2.31.1.4.5.51.81.44 1.31-.49 2.64-.95 3.94a10.46 10.46 0 0 0 .6 6.53c.81-1.75 6.62-4.27 12-5.9 3.56-1.1 5.43-7 5.43-7a16.08 16.08 0 0 0-9.07-19.56c-12.39-3.14-18.22 6.15-18.34 8.43Z"/><path fill="#b55b52" d="M372.3 229.14a7.48 7.48 0 0 1 .72 4.19c-.23 1.85-1.59 1.87-2.61.5-.89-1.21-1.86-3.64-1.12-5.14s2.22-1.12 3.01.45Z"/><path fill="#263238" d="M359.12 223.43a2.81 2.81 0 0 0 2.23 3.08 4.65 4.65 0 0 0 6.33 2.82c-1.29-.17-1.87-1.8-1.6-3.07.49-2.34 3.34-5.52 0-6.93-2.57-1.08-6.69 1.4-6.96 4.1Z"/><path fill="#061d44" d="M350.23 124.42a30.91 30.91 0 1 0-30.91 30.91 30.91 30.91 0 0 0 30.91-30.91Zm-4.44 2.49c1.34.45 1.91 2.36 1.27 4.28s-2 3-3.31 2.74c.55 1.42-.17 3.72-1.14 5.15-1.81 2.65-3.78 3.69-5.17 3.36-2.31-.56-1.74-3.48-.32-6.08 1.1-2 3-4.11 5.16-3.63a4.36 4.36 0 0 1-.06-3.14c.64-1.92 2.23-3.12 3.57-2.68Zm-8.27-11a4.3 4.3 0 1 1-5.93-1.35 4.3 4.3 0 0 1 5.93 1.36ZM293 125.73a3.3 3.3 0 1 1 3.29 3.3 3.29 3.29 0 0 1-3.29-3.3Zm10.84.38a3.79 3.79 0 0 1 1.41-2.94 14 14 0 0 1-5.23-9.63 2.8 2.8 0 0 1-1 .16 2.86 2.86 0 1 1 0-5.71 2.82 2.82 0 0 1 1.44.39 14 14 0 0 1 19.75-8.6 5.61 5.61 0 1 1 6.94 8.11 14 14 0 0 1-15.7 18.11v.16a3.79 3.79 0 1 1-7.57 0Zm23.24 9a2.86 2.86 0 0 1 2-2.48 4.3 4.3 0 1 1 3.13 1.15 2.78 2.78 0 0 1 .47 1.82 2.83 2.83 0 0 1-5.64-.49Zm-25.52 5a2.15 2.15 0 1 1 2.14 2.14 2.15 2.15 0 0 1-2.1-2.1Zm23.74 3.25a2.83 2.83 0 1 1 2.57 3.07 2.83 2.83 0 0 1-2.53-3.03Z"/><path fill="#fff" d="M350.23 124.42a30.91 30.91 0 1 1-30.91-30.91 30.77 30.77 0 0 1 30.91 30.91Z" opacity=".5"/><path fill="#fff" d="M343.63 143.51a30.92 30.92 0 0 1-50.92-3.35 34.34 34.34 0 0 1-2-4.06 22.6 22.6 0 0 1-.94-6.54 8.46 8.46 0 0 0 8.54-.48l.76-.5a8.3 8.3 0 0 0 2.5-2.21 2.79 2.79 0 0 0 .07-3.14c.74-.6 1.82-1.61 2.56-2.21a8.57 8.57 0 0 0 7.34 4.86 12.78 12.78 0 0 0 8.55-3 28.23 28.23 0 0 0 6.54-7.08l3.08 1c0 1.77.52 3.73 3.17 5.59a7 7 0 0 1 2.88 6.62v.1a6.52 6.52 0 0 0 2.79 6.11 9 9 0 0 0 1.67.95c.16.48 1 1.19 1.13 1.66-1 1.08-1 1.6-.3 2.87a9.59 9.59 0 0 0 2.58 2.81Z" opacity=".4"/><path fill="#061d44" d="M296.33 129a3.3 3.3 0 1 1 3.3-3.3 3.29 3.29 0 0 1-3.3 3.3Z"/><path fill="#fff" d="M296.33 129a3.3 3.3 0 1 1 3.3-3.3 3.29 3.29 0 0 1-3.3 3.3Z" opacity=".2"/><path fill="#061d44" d="M330.24 120.49a4.3 4.3 0 1 1 5.92 1.36 4.28 4.28 0 0 1-5.92-1.36Z"/><path fill="#fff" d="M330.24 120.49a4.3 4.3 0 1 1 5.92 1.36 4.28 4.28 0 0 1-5.92-1.36Z" opacity=".2"/><path fill="#061d44" d="M329.7 138.2a2.82 2.82 0 0 1-2.58-3.06 2.86 2.86 0 0 1 2-2.48 4.3 4.3 0 1 1 3.13 1.15 2.78 2.78 0 0 1 .47 1.82 2.82 2.82 0 0 1-3.02 2.57Z"/><path fill="#fff" d="M329.7 138.2a2.82 2.82 0 0 1-2.58-3.06 2.86 2.86 0 0 1 2-2.48 4.3 4.3 0 1 1 3.13 1.15 2.78 2.78 0 0 1 .47 1.82 2.82 2.82 0 0 1-3.02 2.57Z" opacity=".2"/><path fill="#061d44" d="M327.91 146.47a2.84 2.84 0 1 1 3.07-2.58 2.83 2.83 0 0 1-3.07 2.58Z"/><path fill="#fff" d="M327.91 146.47a2.84 2.84 0 1 1 3.07-2.58 2.83 2.83 0 0 1-3.07 2.58Z" opacity=".2"/><path fill="#fff" d="M308.18 141.06a.36.36 0 0 1 0-.1.3.3 0 0 1 .39-.19c5.06 1.72 15.2.37 15.3.36a.3.3 0 0 1 .35.26.31.31 0 0 1-.27.35c-.42.06-10.39 1.38-15.58-.38a.32.32 0 0 1-.19-.3Zm-2.8 3.49a.31.31 0 0 1 .55-.19 14.44 14.44 0 0 0 7.43 4.89.31.31 0 0 1 .21.39.31.31 0 0 1-.39.2 14.93 14.93 0 0 1-7.74-5.1.31.31 0 0 1-.06-.19ZM301 131.28a.32.32 0 0 1 .3-.31.31.31 0 0 1 .32.3 18 18 0 0 0 .74 4.43.31.31 0 0 1-.21.39.33.33 0 0 1-.39-.21 18.65 18.65 0 0 1-.76-4.58Zm-5.36 11.13a.3.3 0 0 1 .23-.3l3.88-1.06a.31.31 0 0 1 .38.22.32.32 0 0 1-.22.38l-3.91 1.06a.31.31 0 0 1-.38-.22.25.25 0 0 1 .02-.08ZM301 149a12 12 0 0 1 1.21-4.56.31.31 0 0 1 .42-.13.3.3 0 0 1 .13.42 11.43 11.43 0 0 0-1.14 4.32.3.3 0 0 1-.33.28.32.32 0 0 1-.29-.33Zm5.9-11.78a.3.3 0 0 1 .18-.28c2.62-1.21 11.53-5.73 11.62-5.78a.31.31 0 1 1 .28.56c-.09 0-9 4.56-11.64 5.79a.31.31 0 0 1-.41-.15.35.35 0 0 1-.03-.14Zm-14.09-5.87a.32.32 0 0 1 .16-.27.31.31 0 0 1 .42.12 18.8 18.8 0 0 0 6.84 6.76.31.31 0 0 1 .12.42.32.32 0 0 1-.43.12 19.45 19.45 0 0 1-7.07-7 .28.28 0 0 1-.04-.15Z"/><path fill="#061d44" d="M311.45 126.11V126a14 14 0 0 0 15.78-18.06 5.61 5.61 0 1 0-6.94-8.11 14 14 0 0 0-19.75 8.6 2.82 2.82 0 0 0-1.44-.39 2.86 2.86 0 1 0 0 5.71 2.8 2.8 0 0 0 1-.16 14 14 0 0 0 5.23 9.63 3.78 3.78 0 1 0 6.16 2.94Z"/><path fill="#fff" d="M311.45 126.11V126a14 14 0 0 0 15.78-18.06 5.61 5.61 0 1 0-6.94-8.11 14 14 0 0 0-19.75 8.6 2.82 2.82 0 0 0-1.44-.39 2.86 2.86 0 1 0 0 5.71 2.8 2.8 0 0 0 1-.16 14 14 0 0 0 5.23 9.63 3.78 3.78 0 1 0 6.16 2.94Z" opacity=".2"/><path fill="#061d44" d="M337.44 142.44c-2.31-.56-1.74-3.48-.32-6.08 1.1-2 3-4.11 5.16-3.63a4.36 4.36 0 0 1-.06-3.14c.64-1.92 2.23-3.12 3.57-2.68s1.91 2.36 1.27 4.28-2 3-3.31 2.74c.55 1.42-.17 3.72-1.14 5.15-1.81 2.65-3.78 3.69-5.17 3.36Z"/><path fill="#fff" d="M337.44 142.44c-2.31-.56-1.74-3.48-.32-6.08 1.1-2 3-4.11 5.16-3.63a4.36 4.36 0 0 1-.06-3.14c.64-1.92 2.23-3.12 3.57-2.68s1.91 2.36 1.27 4.28-2 3-3.31 2.74c.55 1.42-.17 3.72-1.14 5.15-1.81 2.65-3.78 3.69-5.17 3.36Z" opacity=".2"/><path fill="#061d44" d="M336.87 105.44a.51.51 0 0 1-.48-.36c-.59-2-4.3-5.58-8.37-7.26-4.73-1.95-12.93-1.46-14.82-.07a.5.5 0 1 1-.59-.81c2.32-1.69 11-2 15.79 0 4 1.66 8.21 5.36 9 7.91a.5.5 0 0 1-.34.62Z"/><path fill="#fff" d="M336.87 105.44a.51.51 0 0 1-.48-.36c-.59-2-4.3-5.58-8.37-7.26-4.73-1.95-12.93-1.46-14.82-.07a.5.5 0 1 1-.59-.81c2.32-1.69 11-2 15.79 0 4 1.66 8.21 5.36 9 7.91a.5.5 0 0 1-.34.62Z" opacity=".2"/><path fill="#061d44" d="M313.3 113.26a1.83 1.83 0 0 0 1.14.78 1.81 1.81 0 0 0 2.14-1.41 1.74 1.74 0 0 0-.26-1.35 1.8 1.8 0 0 0-3.27.62 1.64 1.64 0 0 0 0 .38 1.83 1.83 0 0 0 .25.98Z"/><path fill="#fff" d="M313.3 113.26a1.83 1.83 0 0 0 1.14.78 1.81 1.81 0 0 0 2.14-1.41 1.74 1.74 0 0 0-.26-1.35 1.8 1.8 0 0 0-3.27.62 1.64 1.64 0 0 0 0 .38 1.83 1.83 0 0 0 .25.98Z" opacity=".4"/><path fill="#061d44" d="M153.44 133a11.94 11.94 0 1 1-13.53-10.09A11.93 11.93 0 0 1 153.44 133Z"/><path d="M146.86 124.55a11.54 11.54 0 0 0-3.06-1 20.62 20.62 0 0 1-12.75 7.07 11.09 11.09 0 0 0-.75 3.3c6.39-.59 13.03-3.81 16.56-9.37Z" opacity=".2"/><path fill="#fff" d="M140 123.41a11.41 11.41 0 0 0-9 7.16 20.62 20.62 0 0 0 12.75-7.07 11.53 11.53 0 0 0-3.75-.09Z" opacity=".5"/><path d="M143.32 146a11.41 11.41 0 0 0 9.45-8.63 27.17 27.17 0 0 1-14.07 8.35 11.5 11.5 0 0 0 4.62.28Z" opacity=".2"/><path fill="#fff" d="M151.38 128.7a11.42 11.42 0 0 0-2-2.45c-3.6 6.39-11.27 10.4-18.84 10.78a11.35 11.35 0 0 0 1.14 3.11c8.23-.45 16.08-4.98 19.7-11.44Z" opacity=".1"/><path fill="#fff" d="M149.35 126.25a11.79 11.79 0 0 0-2.49-1.7c-3.53 5.56-10.17 8.78-16.56 9.32a11.5 11.5 0 0 0 .08 2.48c0 .23.09.45.13.68 7.57-.38 15.24-4.39 18.84-10.78Z" opacity=".3"/><path fill="#fff" d="M152.8 132.18c-3.67 5.72-10.74 10.15-18.78 11a11.64 11.64 0 0 0 4.68 2.55 27.17 27.17 0 0 0 14.07-8.35 11.5 11.5 0 0 0 .21-4.31c-.05-.31-.11-.6-.18-.89Z" opacity=".4"/><path d="M152.8 132.18a11.49 11.49 0 0 0-1.42-3.48c-3.62 6.46-11.47 11-19.73 11.44a11.38 11.38 0 0 0 2.37 3c8.04-.81 15.11-5.24 18.78-10.96Z" opacity=".5"/><path fill="#061d44" d="M170.82 118.69c-1.89-3.36-12.45-1.11-25 4.94a3.32 3.32 0 0 1 .51.23 3.53 3.53 0 0 1 1.07.51c7-2.92 12.47-3.8 13.58-1.84s-2.36 6.12-8.31 10.5a78.23 78.23 0 0 1-7.83 5 74.27 74.27 0 0 1-10 4.75c-6.05 2.31-10.67 2.85-11.68 1.06s1.68-5.21 6.45-9a6.69 6.69 0 0 1 .24-2c-10.42 7.16-16.85 14.33-15.03 17.49 1.89 3.34 12.33 1.16 24.79-4.8 2.37-1.13 4.81-2.41 7.28-3.81 1.92-1.08 3.77-2.19 5.53-3.31 12.4-7.89 20.38-16.24 18.4-19.72Z"/><path fill="#fff" d="M170.82 118.69c-1.89-3.36-12.45-1.11-25 4.94a3.32 3.32 0 0 1 .51.23 3.53 3.53 0 0 1 1.07.51c7-2.92 12.47-3.8 13.58-1.84s-2.36 6.12-8.31 10.5a78.23 78.23 0 0 1-7.83 5 74.27 74.27 0 0 1-10 4.75c-6.05 2.31-10.67 2.85-11.68 1.06s1.68-5.21 6.45-9a6.69 6.69 0 0 1 .24-2c-10.42 7.16-16.85 14.33-15.03 17.49 1.89 3.34 12.33 1.16 24.79-4.8 2.37-1.13 4.81-2.41 7.28-3.81 1.92-1.08 3.77-2.19 5.53-3.31 12.4-7.89 20.38-16.24 18.4-19.72Z" opacity=".5"/><path fill="#061d44" d="M122.29 149.14a4.66 4.66 0 0 1-2.75-.69 2.81 2.81 0 0 1-1.27-2.36c0-4 7.74-10 11-12.32l.29.41c-2.53 1.8-10.82 8-10.84 11.91a2.32 2.32 0 0 0 1.06 2c1.48 1.07 4.49.45 6.29.08l.34-.07a58 58 0 0 0 13.14-4.77c9-4.28 18.9-9.73 24.38-17.65 1.42-2 1.83-3.75 1.17-4.8s-2.67-1.51-5.37-1a54.27 54.27 0 0 0-12.73 4.19l-.2-.46a54.23 54.23 0 0 1 12.94-4.31c2.94-.5 5 0 5.87 1.27.55.87.8 2.51-1.18 5.36-5.55 8-15.53 13.5-24.57 17.82a59.21 59.21 0 0 1-13.26 4.8l-.34.07a20.24 20.24 0 0 1-3.97.52Zm21.77 19.36 3.34 1.83-3.34 1.83-1.83 3.34-1.83-3.34-3.34-1.83 3.34-1.83 1.83-3.34 1.83 3.34zm12.65-4.59 1.66.91-1.66.92-.92 1.66-.91-1.66-1.67-.92 1.67-.91.91-1.67.92 1.67z"/><path fill="#fff" d="m144.06 168.5 3.34 1.83-3.34 1.83-1.83 3.34-1.83-3.34-3.34-1.83 3.34-1.83 1.83-3.34 1.83 3.34zm12.65-4.59 1.66.91-1.66.92-.92 1.66-.91-1.66-1.67-.92 1.67-.91.91-1.67.92 1.67z" opacity=".8"/><path fill="#061d44" d="m92.34 163.69 2.08 1.13-2.08 1.14-1.13 2.07-1.14-2.07-2.07-1.14 2.07-1.13 1.14-2.08 1.13 2.08z"/><path fill="#fff" d="m92.34 163.69 2.08 1.13-2.08 1.14-1.13 2.07-1.14-2.07-2.07-1.14 2.07-1.13 1.14-2.08 1.13 2.08z" opacity=".8"/><path fill="#061d44" d="m108.69 121.77 2.08 1.13-2.08 1.14-1.13 2.07-1.14-2.07-2.07-1.14 2.07-1.13 1.14-2.08 1.13 2.08z"/><path fill="#fff" d="m108.69 121.77 2.08 1.13-2.08 1.14-1.13 2.07-1.14-2.07-2.07-1.14 2.07-1.13 1.14-2.08 1.13 2.08z" opacity=".8"/><path fill="#061d44" d="m183.2 138.09 2.07 1.14-2.07 1.13-1.14 2.08-1.13-2.08-2.08-1.13 2.08-1.14 1.13-2.07 1.14 2.07z"/><path fill="#fff" d="m183.2 138.09 2.07 1.14-2.07 1.13-1.14 2.08-1.13-2.08-2.08-1.13 2.08-1.14 1.13-2.07 1.14 2.07z" opacity=".8"/></svg>