<svg xmlns="http://www.w3.org/2000/svg" viewBox="0 0 500 500"><path fill="#f5f5f5" d="M412.48 255.92c-90.32-52.15-236.29-52.15-326 0s-89.29 136.71 1.03 188.86 236.3 52.15 326 0 89.3-136.71-1.03-188.86Z"/><path fill="#e6e6e6" d="M430.09 342.06c6.2-3.58 16.23-3.58 22.4 0s6.13 9.4-.08 13-16.23 3.58-22.39 0-6.14-9.41.07-13Zm-354.6 2.48c-6.53-3.77-17.1-3.77-23.6 0s-6.46 9.9.08 13.68 17.1 3.77 23.6 0 6.43-9.9-.08-13.68Zm172.56-116.92c-13-7.5-34-7.5-46.93 0s-12.86 19.68.15 27.19 34 7.51 46.94 0 12.85-19.68-.16-27.19Zm121.28 182.02c-21.83-12.6-57.09-12.6-78.77 0s-21.56 33 .26 45.62 57.08 12.6 78.76 0 21.57-33.02-.25-45.62ZM310 307.65c-20.93-12.09-54.75-12.09-75.54 0s-20.68 31.67.25 43.75 54.75 12.09 75.54 0 20.63-31.67-.25-43.75Zm-138.78 42.49c-20.45-11.8-53.48-11.8-73.8 0s-20.2 30.94.24 42.74 53.49 11.81 73.8 0 20.2-30.94-.24-42.74Z"/><path fill="#e0e0e0" d="m140 147.1.11 39.27-2.19 1.26-.11-39.27 2.19-1.26z"/><path fill="#f0f0f0" d="m137.81 148.36.11 39.27-1.89-1.1-.11-37.07 1.89-1.1z"/><rect width="2.52" x="137.64" y="147.73" fill="#e0e0e0" transform="rotate(-30 138.913 147.742)"/><path d="m137.82 150.13-.01-1.77 2.19-1.26v1.77l-2.18 1.26zm0 0-1.54-.89 1.53-.88.01 1.77z" opacity=".2"/><rect width="2.52" x="137.64" y="147.73" fill="#e0e0e0" transform="rotate(-30 138.913 147.742)"/><path fill="#e0e0e0" d="m140 105.02.11 39.27-2.19 1.26-.11-39.27 2.19-1.26z"/><path fill="#f0f0f0" d="m137.81 106.28.11 39.27-1.89-1.11-.11-37.07 1.89-1.09z"/><rect width="2.52" x="137.64" y="105.65" fill="#e0e0e0" transform="rotate(-30 138.895 105.637)"/><path d="m137.82 108.04-.01-1.76 2.19-1.26v1.76l-2.18 1.26zm0 0-1.54-.88 1.53-.88.01 1.76z" opacity=".2"/><rect width="2.52" x="137.64" y="105.65" fill="#e0e0e0" transform="rotate(-30 138.913 105.642)"/><path fill="#e0e0e0" d="m140 62.94.11 39.26-2.19 1.27-.11-39.27 2.19-1.26z"/><path fill="#f0f0f0" d="m137.81 64.2.11 39.27-1.89-1.11-.11-37.07 1.89-1.09z"/><rect width="2.52" x="137.64" y="63.57" fill="#e0e0e0" transform="rotate(-30 138.89 63.556)"/><path d="m137.82 65.96-.01-1.76 2.19-1.26v1.76l-2.18 1.26zm0 0-1.54-.88 1.53-.88.01 1.76z" opacity=".2"/><rect width="2.52" x="137.64" y="63.57" fill="#e0e0e0" transform="rotate(-30 138.89 63.556)"/><path fill="#e0e0e0" d="m67.77 189.19.11 39.26-2.19 1.26-.11-39.26 2.19-1.26z"/><path fill="#f0f0f0" d="m65.58 190.45.11 39.26-1.89-1.1-.11-37.07 1.89-1.09z"/><rect width="2.52" x="65.41" y="189.82" fill="#e0e0e0" transform="rotate(-30 66.663 189.802)"/><path d="m65.59 192.21-.01-1.76 2.19-1.26v1.76l-2.18 1.26z" opacity=".2"/><path d="m65.59 192.21-1.53-.88 1.52-.88.01 1.76z" opacity=".2"/><rect width="2.52" x="65.41" y="189.82" fill="#e0e0e0" transform="rotate(-30 66.663 189.802)"/><path fill="#e0e0e0" d="m67.77 147.1.11 39.27-2.19 1.26-.11-39.27 2.19-1.26z"/><path fill="#f0f0f0" d="m65.58 148.36.11 39.27-1.89-1.1-.11-37.07 1.89-1.1z"/><rect width="2.52" x="65.41" y="147.73" fill="#e0e0e0" transform="matrix(.87 -.5 .5 .87 -64.94 53.14)"/><path d="m65.59 150.13-.01-1.77 2.19-1.26v1.77l-2.18 1.26z" opacity=".2"/><path d="m65.59 150.13-1.53-.89 1.52-.88.01 1.77z" opacity=".2"/><rect width="2.52" x="65.41" y="147.73" fill="#e0e0e0" transform="matrix(.87 -.5 .5 .87 -64.94 53.14)"/><path fill="#e0e0e0" d="m67.77 105.02.11 39.27-2.19 1.26-.11-39.27 2.19-1.26z"/><path fill="#f0f0f0" d="m65.58 106.28.11 39.27-1.89-1.11-.11-37.07 1.89-1.09z"/><rect width="2.52" x="65.41" y="105.65" fill="#e0e0e0" transform="rotate(-30 66.673 105.645)"/><path d="m65.59 108.04-.01-1.76 2.19-1.26v1.76l-2.18 1.26z" opacity=".2"/><path d="m65.59 108.04-1.53-.88 1.52-.88.01 1.76z" opacity=".2"/><rect width="2.52" x="65.41" y="105.65" fill="#e0e0e0" transform="rotate(-30 66.673 105.645)"/><path fill="#f0f0f0" d="m166.29 131.92-1.9-1.1.11 39.26 1.9 1.11-.11-39.27z"/><path fill="#f5f5f5" d="m166.4 171.19-1.9-1.11-54.77 31.63 1.9 1.1 54.77-31.62z"/><path fill="#e0e0e0" d="m168.6 172.44-59.15 34.15-.13-44.29 59.15-34.15Zm-57 30.37 54.77-31.62-.11-39.27-54.78 31.63.12 39.26"/><path fill="#f5f5f5" d="m168.47 128.15-1.9-1.11-59.15 34.15 1.9 1.11 59.15-34.15z"/><path fill="#f0f0f0" d="m109.32 162.3-1.9-1.11.13 44.29 1.9 1.11-.13-44.29zm56.97-72.46-1.9-1.11.11 39.27 1.9 1.1-.11-39.26z"/><path fill="#f5f5f5" d="m166.4 129.1-1.9-1.1-54.77 31.63 1.9 1.1 54.77-31.63z"/><path fill="#e0e0e0" d="m168.6 130.35-59.15 34.15-.13-44.29 59.15-34.15Zm-57 30.38 54.8-31.63-.11-39.26-54.78 31.62.12 39.27"/><path fill="#f5f5f5" d="m168.47 86.06-1.9-1.1-59.15 34.15 1.9 1.1 59.15-34.15z"/><path fill="#f0f0f0" d="m109.32 120.21-1.9-1.1.13 44.29 1.9 1.1-.13-44.29zm56.97-72.46-1.9-1.1.11 39.27 1.9 1.1-.11-39.27z"/><path fill="#f5f5f5" d="m166.4 87.02-1.9-1.1-54.77 31.62 1.9 1.11 54.77-31.63z"/><path fill="#e0e0e0" d="m168.6 88.27-59.15 34.15-.13-44.29L168.47 44Zm-57 30.38L166.4 87l-.11-39.27-54.78 31.65.12 39.27"/><path fill="#f5f5f5" d="m168.47 43.98-1.9-1.1-59.15 34.15 1.9 1.1 59.15-34.15z"/><path fill="#f0f0f0" d="m109.32 78.13-1.9-1.1.13 44.28 1.9 1.11-.13-44.29zM94.06 174l-1.9-1.1.12 39.27 1.89 1.1-.11-39.27z"/><path fill="#f5f5f5" d="m94.17 213.27-1.89-1.1-54.78 31.62 1.9 1.11 54.77-31.63z"/><path fill="#e0e0e0" d="m96.37 214.52-59.15 34.15-.13-44.29 59.15-34.15Zm-57 30.38 54.77-31.63-.08-39.27-54.77 31.63.11 39.27"/><path fill="#f5f5f5" d="m96.24 170.23-1.9-1.1-59.14 34.15 1.89 1.1 59.15-34.15z"/><path fill="#f0f0f0" d="m37.09 204.38-1.89-1.1.12 44.28 1.9 1.11-.13-44.29zm56.97-72.46-1.9-1.1.12 39.26 1.89 1.11-.11-39.27z"/><path fill="#f5f5f5" d="m94.17 171.19-1.89-1.11-54.78 31.63 1.9 1.1 54.77-31.62z"/><path fill="#e0e0e0" d="m96.37 172.44-59.15 34.15-.13-44.29 59.15-34.15Zm-57 30.37 54.77-31.62-.11-39.27-54.74 31.63.11 39.26"/><path fill="#f5f5f5" d="m96.24 128.15-1.9-1.11-59.14 34.15 1.89 1.11 59.15-34.15z"/><path fill="#f0f0f0" d="m37.09 162.3-1.89-1.11.12 44.29 1.9 1.11-.13-44.29zm56.97-72.46-1.9-1.11.12 39.27 1.89 1.1-.11-39.26z"/><path fill="#f5f5f5" d="m94.17 129.1-1.89-1.1-54.78 31.63 1.9 1.1 54.77-31.63z"/><path fill="#e0e0e0" d="M96.37 130.35 37.22 164.5l-.13-44.29 59.15-34.15Zm-57 30.38 54.8-31.63-.11-39.26-54.77 31.62.11 39.27"/><path fill="#f5f5f5" d="m96.24 86.06-1.9-1.1-59.14 34.15 1.89 1.1 59.15-34.15z"/><path fill="#f0f0f0" d="m37.09 120.21-1.89-1.1.12 44.29 1.9 1.1-.13-44.29z"/><path d="m329.25 232.73 124.11 71.66a1.79 1.79 0 0 1 0 3.11l-48.05 27.63a5.4 5.4 0 0 1-5.39 0l-124.11-71.66a1.79 1.79 0 0 1 0-3.11l48-27.63a5.4 5.4 0 0 1 5.44 0Z" opacity=".1"/><path fill="#e0e0e0" d="M280.9 192v71.36l121.36 69.7V261.7L280.9 192zm169.23 42.15v71.35l-47.87 27.56V261.7l47.87-27.55z"/><path d="M280.9 192v71.36l121.36 69.7V261.7L280.9 192z" opacity=".1"/><path d="M450.13 234.15v71.35l-47.87 27.56V261.7l47.87-27.55z" opacity=".2"/><path fill="#e0e0e0" d="m339.73 270.37 56.8 32.63v-16.75l-56.8-32.63v16.75zm56.8 11.87v-17.22l-56.8-32.62v17.22l56.8 32.62zm-62.54-53.14-47.36-27.19v17.22l47.36 27.19V229.1zm5.74 61.43 56.8 32.62V307l-56.8-32.62v16.15zm-5.74-40.2-47.36-27.2v16.75l47.36 27.2v-16.75zm-47.36-6.45v16.16l47.36 27.2v-16.16l-47.36-27.2z"/><path fill="#ebebeb" d="m279.18 185.35 124.19 71.34 48.48-27.91-124.26-71.38-48.41 27.95z"/><path fill="#e0e0e0" d="M279.18 185.35v7.29l124.19 71.34v-7.29l-124.19-71.34zm172.67 43.43v7.29l-48.48 27.91v-7.29l48.48-27.91z"/><path d="M451.85 228.78v7.29l-48.48 27.91v-7.29l48.48-27.91z" opacity=".1"/><path fill="#e0e0e0" d="M238.32 235.1c-.09 2-1.41 3.87-4 5.36-5.32 3.09-14 3.09-19.33 0-2.57-1.49-3.91-3.41-4-5.36v4.32c0 2 1.35 4.05 4 5.59 5.35 3.1 14 3.1 19.33 0 2.66-1.54 4-3.57 4-5.59v-4.32Z"/><path fill="#f0f0f0" d="M215 240.46c5.35 3.09 14 3.09 19.33 0 2.55-1.49 3.87-3.41 4-5.36a5 5 0 0 0-.56-2.47 8.6 8.6 0 0 0-3.47-3.37c-5.35-3.09-14-3.09-19.32 0a8.41 8.41 0 0 0-3.43 3.37 4.77 4.77 0 0 0-.53 2.47c.1 1.95 1.44 3.9 3.98 5.36Z"/><path fill="#e0e0e0" d="M213.94 114.07h.4v36.02h-.4z"/><path fill="#f0f0f0" d="M215.14 150.49a1 1 0 1 1-1-1 1 1 0 0 1 1 1Z"/><path fill="#e0e0e0" d="M227.11 101.08h-4.9v132.6a1.23 1.23 0 0 0 .72 1 3.85 3.85 0 0 0 3.47 0 1.21 1.21 0 0 0 .71-1Z"/><path fill="#f0f0f0" d="M252.87 107.71c-3.14-10.92-15.13-33.46-15.13-33.46 1.37 2.68.24 5.7-3.4 7.82-5.32 3.1-14 3.1-19.33 0-3.67-2.12-4.84-5.14-3.49-7.82s-12 22.54-15.13 33.46c-2.13 5.45.48 11.4 7.83 15.64 11.35 6.56 29.7 6.56 41 0 7.3-4.24 9.84-10.19 7.65-15.64Z"/><path fill="#e0e0e0" d="M237.76 74.25a8.48 8.48 0 0 0-3.47-3.37c-5.35-3.09-14-3.09-19.32 0a8.29 8.29 0 0 0-3.43 3.37c-1.35 2.68-.18 5.7 3.49 7.82 5.35 3.1 14 3.1 19.33 0 3.64-2.07 4.77-5.14 3.4-7.82Z"/><path d="M237.76 74.25a8.48 8.48 0 0 0-3.47-3.37c-5.35-3.09-14-3.09-19.32 0a8.29 8.29 0 0 0-3.43 3.37c-1.35 2.68-.18 5.7 3.49 7.82 5.35 3.1 14 3.1 19.33 0 3.64-2.07 4.77-5.14 3.4-7.82Z" opacity=".1"/><path fill="#fff" d="m426.23 321.45 15 .44 15-.44c.65 10.15-1.33 20.49-4.06 25.54a6.86 6.86 0 0 1-3 3c-4.44 2.56-11.6 2.56-16 0a6.74 6.74 0 0 1-3-3.1c-2.63-5.06-4.59-15.34-3.94-25.44Z"/><path fill="#ebebeb" d="M430.66 315.3c-5.88 3.4-5.91 8.91-.07 12.3s15.36 3.4 21.25 0 5.92-8.9.07-12.3-15.36-3.4-21.25 0Z"/><path fill="#e0e0e0" d="M433 316.65c-4.59 2.65-4.62 7-.05 9.6s12 2.65 16.57 0 4.62-6.95.06-9.6-12-2.65-16.58 0Z"/><path d="M433 316.65c-4.59 2.65-4.62 7-.05 9.6s12 2.65 16.57 0 4.62-6.95.06-9.6-12-2.65-16.58 0Z" opacity=".15"/><path fill="#0d83fd" d="M448.91 290.71c2.45-3 5.29-5.76 7.53-8.95 1.52-2.18 2.8-4.84 2.16-7.42a6.62 6.62 0 0 0-5.26-4.63 10.07 10.07 0 0 0-7.06 1.57 21.84 21.84 0 0 0-5.34 5.08 53 53 0 0 0-11.16 37.86 7.94 7.94 0 0 0 1.39 4.35 4.36 4.36 0 0 0 4.49 1.37c4.1-1.21 3.55-6.74 4.22-10a45.83 45.83 0 0 1 4.7-12.77 44.77 44.77 0 0 1 4.33-6.46Z"/><path d="M448.91 290.71c2.45-3 5.29-5.76 7.53-8.95 1.52-2.18 2.8-4.84 2.16-7.42a6.62 6.62 0 0 0-5.26-4.63 10.07 10.07 0 0 0-7.06 1.57 21.84 21.84 0 0 0-5.34 5.08 53 53 0 0 0-11.16 37.86 7.94 7.94 0 0 0 1.39 4.35 4.36 4.36 0 0 0 4.49 1.37c4.1-1.21 3.55-6.74 4.22-10a45.83 45.83 0 0 1 4.7-12.77 44.77 44.77 0 0 1 4.33-6.46Z" opacity=".2"/><path fill="#f0f0f0" d="M435.41 315.82a.36.36 0 0 0 .29-.33c.29-6.57 2.42-29 17.87-41.72a.36.36 0 0 0-.45-.55c-15.68 12.91-17.85 35.59-18.14 42.23a.37.37 0 0 0 .35.38Z"/><path fill="#0d83fd" d="M433.15 316.53a11 11 0 0 0 5 7 14.1 14.1 0 0 0 7.59 1.27 33.17 33.17 0 0 0 7.71-1.83c1.24-.41 2.62-1 2.75-2.51a2.73 2.73 0 0 0-.88-2.16 7.79 7.79 0 0 0-.8-.69.79.79 0 0 1 .43-1.42 18 18 0 0 0 2.19-.28 9.71 9.71 0 0 0 4.61-2.08 7.58 7.58 0 0 0 2.13-3.16 2.94 2.94 0 0 0-.3-3.09 3.37 3.37 0 0 0-1.71-.75q-.83-.18-1.65-.3a.73.73 0 0 1-.17-1.4l2.33-1a4.39 4.39 0 0 0 1.77-1.1 3.89 3.89 0 0 0 .45-3.21c-.29-1.46-.79-2.87-1.14-4.32a9.28 9.28 0 0 1-.15-4.41 37.21 37.21 0 0 0-13.05.87 9.47 9.47 0 0 0-3.57 1.56 5.23 5.23 0 0 0-1.67 4.8.34.34 0 0 1-.64.18l-1.49-2.75a1.77 1.77 0 0 0-2.31-.74 10.72 10.72 0 0 0-3.41 2.68 5.9 5.9 0 0 0-1.46 4.36 38.39 38.39 0 0 0 1.09 6.4.59.59 0 0 1-.93.63l-.07-.05a2 2 0 0 0-1.4-.41c-1.32.16-1.66 1.49-1.74 2.63a21.84 21.84 0 0 0 .49 5.28Z"/><path d="M433.15 316.53a11 11 0 0 0 5 7 14.1 14.1 0 0 0 7.59 1.27 33.17 33.17 0 0 0 7.71-1.83c1.24-.41 2.62-1 2.75-2.51a2.73 2.73 0 0 0-.88-2.16 7.79 7.79 0 0 0-.8-.69.79.79 0 0 1 .43-1.42 18 18 0 0 0 2.19-.28 9.71 9.71 0 0 0 4.61-2.08 7.58 7.58 0 0 0 2.13-3.16 2.94 2.94 0 0 0-.3-3.09 3.37 3.37 0 0 0-1.71-.75q-.83-.18-1.65-.3a.73.73 0 0 1-.17-1.4l2.33-1a4.39 4.39 0 0 0 1.77-1.1 3.89 3.89 0 0 0 .45-3.21c-.29-1.46-.79-2.87-1.14-4.32a9.28 9.28 0 0 1-.15-4.41 37.21 37.21 0 0 0-13.05.87 9.47 9.47 0 0 0-3.57 1.56 5.23 5.23 0 0 0-1.67 4.8.34.34 0 0 1-.64.18l-1.49-2.75a1.77 1.77 0 0 0-2.31-.74 10.72 10.72 0 0 0-3.41 2.68 5.9 5.9 0 0 0-1.46 4.36 38.39 38.39 0 0 0 1.09 6.4.59.59 0 0 1-.93.63l-.07-.05a2 2 0 0 0-1.4-.41c-1.32.16-1.66 1.49-1.74 2.63a21.84 21.84 0 0 0 .49 5.28Z" opacity=".2"/><path fill="#fff" d="M433.15 316.53a11 11 0 0 0 5 7 14.1 14.1 0 0 0 7.59 1.27 33.17 33.17 0 0 0 7.71-1.83c1.24-.41 2.62-1 2.75-2.51a2.73 2.73 0 0 0-.88-2.16 7.79 7.79 0 0 0-.8-.69.79.79 0 0 1 .43-1.42 18 18 0 0 0 2.19-.28 9.71 9.71 0 0 0 4.61-2.08 7.58 7.58 0 0 0 2.13-3.16 2.94 2.94 0 0 0-.3-3.09 3.37 3.37 0 0 0-1.71-.75q-.83-.18-1.65-.3a.73.73 0 0 1-.17-1.4l2.33-1a4.39 4.39 0 0 0 1.77-1.1 3.89 3.89 0 0 0 .45-3.21c-.29-1.46-.79-2.87-1.14-4.32a9.28 9.28 0 0 1-.15-4.41 37.21 37.21 0 0 0-13.05.87 9.47 9.47 0 0 0-3.57 1.56 5.23 5.23 0 0 0-1.67 4.8.34.34 0 0 1-.64.18l-1.49-2.75a1.77 1.77 0 0 0-2.31-.74 10.72 10.72 0 0 0-3.41 2.68 5.9 5.9 0 0 0-1.46 4.36 38.39 38.39 0 0 0 1.09 6.4.59.59 0 0 1-.93.63l-.07-.05a2 2 0 0 0-1.4-.41c-1.32.16-1.66 1.49-1.74 2.63a21.84 21.84 0 0 0 .49 5.28Z" opacity=".2"/><path fill="#f0f0f0" d="M440.08 323.13a51.36 51.36 0 0 1 3.51-10.13.34.34 0 0 1 .12-.27c.08-.18.16-.35.25-.53a33.25 33.25 0 0 0-3.48-11.66.35.35 0 0 1 .13-.48.36.36 0 0 1 .49.13 33.7 33.7 0 0 1 3.43 10.81 47.71 47.71 0 0 1 15-18 .36.36 0 1 1 .41.59c-7.55 5.25-12.32 12.54-15.21 18.58a21.94 21.94 0 0 1 12.44-1.68.35.35 0 0 1 .29.42.37.37 0 0 1-.28.28h-.14c-.07 0-6.9-1.25-12.81 2.05a52.35 52.35 0 0 0-3.48 10.08.36.36 0 0 1-.28.28h-.14a.35.35 0 0 1-.25-.47Z"/><path fill="#fff" d="m79.56 322.82-15.83.46-15.83-.46c-.68 10.69 1.4 21.59 4.28 26.91a7.23 7.23 0 0 0 3.14 3.19c4.67 2.7 12.22 2.7 16.86 0a7 7 0 0 0 3.13-3.27c2.87-5.35 4.93-16.19 4.25-26.83Z"/><path fill="#ebebeb" d="M74.89 316.33c6.2 3.59 6.24 9.39.07 13s-16.18 3.59-22.39 0-6.23-9.38-.07-13 16.19-3.58 22.39 0Z"/><path fill="#e0e0e0" d="M72.44 317.76c4.84 2.79 4.86 7.32 0 10.12s-12.63 2.79-17.46 0-4.87-7.33-.06-10.12 12.68-2.76 17.52 0Z"/><path d="M72.44 317.76c4.84 2.79 4.86 7.32 0 10.12s-12.63 2.79-17.46 0-4.87-7.33-.06-10.12 12.68-2.76 17.52 0Z" opacity=".15"/><path fill="#0d83fd" d="M89.76 255.26c-35.68 11.68-36 35.55-28 52.55 2 3.44 8.17 5.29 13.51-15.85l-9.37 1.2 10.92-5.54 2.84-8.48-9.1.68L82.15 275a171.38 171.38 0 0 1 7.61-19.74Z"/><path d="M89.76 255.26c-35.68 11.68-36 35.55-28 52.55 2 3.44 8.17 5.29 13.51-15.85l-9.37 1.2 10.92-5.54 2.84-8.48-9.1.68L82.15 275a171.38 171.38 0 0 1 7.61-19.74Z" opacity=".2"/><path fill="#fff" d="M89.76 255.26c-35.68 11.68-36 35.55-28 52.55 2 3.44 8.17 5.29 13.51-15.85l-9.37 1.2 10.92-5.54 2.84-8.48-9.1.68L82.15 275a171.38 171.38 0 0 1 7.61-19.74Z" opacity=".2"/><path fill="#fff" d="M79.67 261.23c-18.81 14.28-20.51 30.65-15.2 47.77-1.88-15.08-3.91-30.3 15.2-47.77Z"/><path fill="#0d83fd" d="M29.33 279.5c35.17 5 39.44 27.13 34.77 44.3-1.32 3.54-6.73 6.28-15.22-12.52l8.93-.44-11.09-3.34-4-7.42 8.59-.89-11.57-2.6a163.18 163.18 0 0 0-10.41-17.09Z"/><path fill="#fff" d="M29.33 279.5c35.17 5 39.44 27.13 34.77 44.3-1.32 3.54-6.73 6.28-15.22-12.52l8.93-.44-11.09-3.34-4-7.42 8.59-.89-11.57-2.6a163.18 163.18 0 0 0-10.41-17.09Z" opacity=".2"/><path d="M29.33 279.5c35.17 5 39.44 27.13 34.77 44.3-1.32 3.54-6.73 6.28-15.22-12.52l8.93-.44-11.09-3.34-4-7.42 8.59-.89-11.57-2.6a163.18 163.18 0 0 0-10.41-17.09Z" opacity=".1"/><path fill="#fff" d="M39.72 283.39c19.9 10.17 24.2 25.14 22.09 41.94-.75-14.33-1.39-28.84-22.09-41.94Z"/><path fill="#0d83fd" d="M100.06 287.81c-32.26.53-38.59 20-36.3 36 .79 3.34 5.36 6.41 15.12-9.58l-8-1.4 10.37-1.77 4.48-6.24-7.64-1.75 10.72-1.06a146 146 0 0 1 11.25-14.2Z"/><path fill="#fff" d="M90.26 290.15c-19.07 6.94-24.63 20-24.61 35.33 2.28-12.83 4.48-25.84 24.61-35.33Z"/><path fill="#fff" d="M100.06 287.81c-32.26.53-38.59 20-36.3 36 .79 3.34 5.36 6.41 15.12-9.58l-8-1.4 10.37-1.77 4.48-6.24-7.64-1.75 10.72-1.06a146 146 0 0 1 11.25-14.2Z" opacity=".2"/><path fill="none" d="m404.73 126.85 29.29 16.91-.06 22.39-29.29-16.91.06-22.39z"/><path fill="#f0f0f0" d="m404.73 126.85-.06 22.39-2.71 1.57.07-25.52 2.7 1.56z"/><path fill="#f5f5f5" d="m433.96 166.15-.01 3.13-31.99-18.47 2.71-1.57 29.29 16.91z"/><path fill="#e0e0e0" d="m398.67 152.69 38.55 22.25.09-33.05-38.55-22.26Zm3.29-1.88.07-25.52 2.7 1.56L434 143.76v25.52Z"/><path fill="#f5f5f5" d="m398.76 119.63 2.71-1.57 38.56 22.25-2.72 1.58-38.55-22.26z"/><path fill="#f0f0f0" d="m440.03 140.31-.1 33.06-2.71 1.57.09-33.05 2.72-1.58z"/><g fill="#e0e0e0" style="isolation:isolate"><path d="m414.04 135.35-7.99 6.29-.02 6.14 26.57 15.34.02-6.14-5.06-10.06-4.55 3.53 1.61 4.99-2.34-4.43-8.24-15.66z"/><path d="M422.77 138.45c-1.25-.73-2.27-.15-2.28 1.29a5 5 0 0 0 2.26 3.91c1.25.72 2.27.14 2.27-1.3a4.94 4.94 0 0 0-2.25-3.9Z"/></g><path fill="none" d="m357.07 99.46 29.3 16.91-.07 22.39-29.29-16.91.06-22.39z"/><path fill="#f0f0f0" d="m357.07 99.46-.06 22.39-2.71 1.58.07-25.53 2.7 1.56z"/><path fill="#f5f5f5" d="m386.3 138.76-.01 3.14-31.99-18.47 2.71-1.58 29.29 16.91z"/><path fill="#e0e0e0" d="m351 125.3 38.55 22.26.09-33.06-38.54-22.25Zm3.29-1.87.07-25.53 2.7 1.56 29.29 16.91-.06 22.39v3.14Z"/><path fill="#f5f5f5" d="m351.1 92.25 2.71-1.58 38.56 22.26-2.72 1.57-38.55-22.25z"/><path fill="#f0f0f0" d="m392.37 112.93-.1 33.05-2.71 1.58.09-33.06 2.72-1.57z"/><g fill="#e0e0e0" style="isolation:isolate"><path d="m366.38 107.96-7.99 6.29-.01 6.15 26.56 15.34.02-6.15-5.06-10.06-4.55 3.53 1.61 5-2.33-4.44-8.25-15.66z"/><path d="M375.11 111.06c-1.25-.72-2.27-.14-2.27 1.29a5 5 0 0 0 2.25 3.91c1.25.72 2.27.15 2.27-1.29a5 5 0 0 0-2.25-3.91Z"/></g><path fill="none" d="m396 53.56-.3-.23Zm1.72 1.44-.06-.05.06.05Zm-12.1-6.7-.44-.08.42.07Zm.98.24-.39-.1.38.1Zm4.14 1.63Zm13.44 50.93c.27-.08.54-.18.8-.28-.26.1-.53.18-.8.28Zm3.15-34.19-.18-.3Zm-1.06-1.73-.21-.34Zm-6.83-8.58c-.06-.06-.13-.11-.19-.18l.19.18Zm1.15 1.19-.01-.01.01.01zm2.86 3.37Zm-1.57 40.37c.3 0 .6-.06.89-.11-.29.05-.59.08-.89.11Zm-16.46-7.77Zm6.58 5.06c.43.24.85.47 1.27.68-.45-.21-.87-.44-1.27-.68Zm-1.6-.99c.52.35 1 .68 1.57 1-.53-.32-1.05-.65-1.57-1Zm8.02 3.49.47.08Zm10.74-30.97-.06-.12Zm-28.72-22.26Zm3.03-.09Zm-1.84 0h-.25Zm2.99.11h-.46.4Zm-5.57.28h-.16.09Zm-1 .36-.15.06.13-.06Zm16.05 3.42-.06-.05.06.05Zm19.25 40.26c0 .21-.06.42-.1.62.04-.2.07-.41.1-.62Zm-.48 2.15c-.06.18-.1.37-.16.54.06-.12.1-.36.16-.54Zm.26-1.04c0 .19-.08.39-.13.57.05-.18.09-.38.13-.57Zm-.95 2.97Zm.37-.94-.18.51Zm-.78 1.82c-.07.15-.15.3-.23.45.08-.15.16-.3.23-.45Zm-.12-20.92v-.01.01zm-19.54-25.56q.45.26.9.54c-.3-.18-.6-.37-.9-.54ZM413.64 90l-.06.82Zm-.11 1.22c0 .24-.06.49-.09.72.03-.23.06-.48.09-.72Zm.17-2.92v1.26-1.26Zm-.06-1.88v-.12.12Zm-.21-2.25v-.24.24Zm-4.05 16.51c.11-.1.21-.21.31-.32-.1.11-.2.22-.31.32ZM413 81.34v-.14.14Zm.23 1.44c0-.2-.07-.39-.11-.59.04.2.07.39.11.59Zm-1.91 15.44c-.09.13-.17.28-.25.41.08-.13.16-.28.25-.41Zm-2.91 3.28-.35.26Zm1.86-1.8-.29.36Zm.55-.7c-.09.13-.18.26-.28.38.1-.13.19-.26.28-.38Zm-1.75 2-.33.29Zm-31.53-49.43-.32.21ZM374.53 77Zm-.64-1.84c-.19-.57-.36-1.14-.53-1.72.17.56.34 1.15.53 1.72Zm34.19 23.18c-.29 0-.6.08-.9.1h-1.63a12.64 12.64 0 0 1-1.34-.13c-.29 0-.6-.1-.9-.17l-.29-.07-.63-.15c-.35-.1-.71-.21-1.08-.34l-.22-.08c-.29-.1-.59-.21-.88-.34l-.34-.14c-.32-.14-.63-.28-.95-.44l-.37-.17c-.42-.22-.84-.44-1.27-.69s-1-.64-1.58-1l-.26-.17c-.5-.34-1-.7-1.48-1.07l-.28-.22c-.49-.39-1-.79-1.46-1.21l-.13-.12c-.46-.41-.92-.84-1.36-1.27l-.23-.22-1-1-.05-.06c-.32-.34-.63-.68-.94-1l-.2-.24c-.51-.58-1-1.18-1.48-1.79l-.15-.2c-.38-.5-.75-1-1.11-1.51-.05-.08-.11-.15-.16-.22-.35-.5-.69-1-1-1.52l-.24-.37-.78-1.27c-.05-.09-.11-.18-.16-.28-.29-.49-.56-1-.83-1.49-.07-.12-.13-.24-.19-.37-.21-.39-.42-.8-.61-1.2-.07-.13-.14-.27-.2-.4-.24-.51-.48-1-.7-1.54a2.14 2.14 0 0 1-.1-.22c-.2-.47-.39-.93-.57-1.4l-.16-.42c-.21-.55-.41-1.11-.6-1.66v-.14c-.19-.57-.36-1.15-.53-1.72l-.09-.34c-.19-.66-.35-1.33-.49-2 0-.14-.07-.29-.1-.44l-.15-.78-.09-.55c-.05-.26-.09-.53-.13-.8l-.06-.48c-.08-.58-.13-1.15-.17-1.72v-.36q-.06-.89-.06-1.74c0-4.76 1.28-8.45 3.44-10.88 3.23-.69 7.14.07 11.36 2.51 11.06 6.38 20 21.87 20 34.59 0 4.74-1.28 8.43-3.43 10.85l-.29.07Zm-29.25-12.78-.78-1.28.78 1.28Zm4.17 5.61c-.5-.59-1-1.18-1.47-1.8.47.62 1 1.21 1.47 1.8Zm-6.74-10.23Zm1.63 3.06c-.28-.49-.56-1-.83-1.49.27.49.55 1.01.83 1.49ZM406 100.34h.06a8.86 8.86 0 0 1-.82.4c.27-.15.51-.27.76-.4Zm-25.92-12.9c-.35-.5-.68-1-1-1.51.33.51.66 1 1 1.51Zm4.03 4.99-.93-1Zm4.26 3.93c-.52-.41-1-.83-1.54-1.28l.08.07c.48.42.97.85 1.46 1.21Zm1.76 1.29.19.13c-.62-.42-1.24-.87-1.85-1.34l.19.14c.48.42.97.73 1.47 1.07Zm16.03 2.61Zm-20.96-6.71c-.35-.34-.69-.69-1-1 .31.31.65.66 1 1Zm9.36 6.56-1.17-.54.21.1c.33.16.65.33.96.44Zm1.22.49.22.08 1.07.33a20.9 20.9 0 0 1-2.18-.75Zm4.47.94-.64-.05.63.05Zm1.4 0a9 9 0 0 1-1.16 0 8.64 8.64 0 0 0 1.16 0Zm2.35-.39c-.33.09-.66.17-1 .23.38-.07.71-.14 1-.23Zm-6 .08-.35-.08h.08Zm-16.65-12.06c-.38-.49-.75-1-1.11-1.51.36.51.76 1.02 1.11 1.51Zm-6.68-34.82c-.08.11-.16.21-.23.32.07-.11.15-.21.23-.32Zm.5-.66-.25.3Zm-.97 1.38a3.79 3.79 0 0 0-.2.34 3.79 3.79 0 0 1 .2-.34Zm2.09-2.55-.29.26Zm.61-.52-.31.23Zm-1.19 1.08-.27.28Zm-1.02 24.31.57 1.39Zm.67 1.61c.22.51.46 1 .7 1.53-.24-.53-.48-1.01-.7-1.53Z"/><path fill="#ebebeb" d="m384.11 92.43-.93-1c-.07-.08-.13-.16-.2-.23-.5-.59-1-1.18-1.47-1.8l-.16-.2c-.38-.49-.75-1-1.11-1.51l-.16-.22c-.35-.5-.68-1-1-1.51l-.24-.37-.78-1.28c-.05-.09-.1-.18-.16-.27-.28-.49-.56-1-.83-1.49l-.19-.37c-.21-.4-.41-.8-.61-1.21l-.2-.4c-.24-.51-.48-1-.7-1.53a2.29 2.29 0 0 0-.1-.23l-.57-1.39c-.05-.14-.1-.28-.16-.42-.21-.56-.41-1.11-.6-1.67a1 1 0 0 0 0-.14c-.19-.57-.36-1.14-.53-1.72l-.09-.33c-.18-.67-.35-1.34-.49-2l-.09-.44q-.09-.39-.15-.78a4.8 4.8 0 0 1-.09-.5q-.07-.41-.12-.81c0-.16-.05-.32-.07-.48-.07-.57-.13-1.15-.17-1.72v-.36q-.06-.87-.06-1.74v-1.59c0-.23 0-.47.05-.7s0-.28.05-.43 0-.43.08-.64.05-.3.08-.45.06-.39.1-.58.07-.3.1-.45.08-.36.13-.53.08-.29.12-.44.09-.34.15-.5.1-.28.15-.42.1-.31.16-.46.12-.27.17-.4.13-.3.19-.44.13-.25.19-.37.14-.28.22-.42a3.79 3.79 0 0 1 .2-.34l.24-.4c.07-.11.15-.21.23-.32l.25-.36.25-.3.27-.33.27-.28c.1-.1.19-.21.29-.3l.29-.26.3-.27.31-.23c.11-.08.21-.17.32-.24l.32-.21a10 10 0 0 1 3.21-1.3c-2.16 2.43-3.43 6.12-3.44 10.88q0 .85.06 1.74v.36c0 .57.09 1.14.17 1.72l.06.48c0 .27.08.54.13.8l.09.55.15.78c0 .15.07.3.1.44.14.67.3 1.34.49 2l.09.34c.17.57.34 1.15.53 1.72v.14c.19.55.39 1.11.6 1.66l.16.42c.18.47.37.93.57 1.4a2.14 2.14 0 0 0 .1.22c.22.52.46 1 .7 1.54.06.13.13.27.2.4.19.4.4.81.61 1.2.06.13.12.25.19.37.27.51.54 1 .83 1.49.05.1.11.19.16.28l.78 1.27.24.37c.32.51.66 1 1 1.52.05.07.11.14.16.22.36.51.73 1 1.11 1.51l.15.2c.48.61 1 1.21 1.48 1.79l.2.24c.31.35.62.69.94 1l.05.06q.51.54 1 1l.23.22c.44.43.9.86 1.36 1.27l.13.12c.48.42 1 .82 1.46 1.21l.28.22c.49.37 1 .73 1.48 1.07l.26.17c.53.35 1.05.69 1.58 1s.85.47 1.27.69l.37.17c.32.16.63.3.95.44l.34.14c.29.13.59.24.88.34l.22.08c.37.13.73.24 1.08.34l.63.15.29.07c.3.07.61.12.9.17a12.64 12.64 0 0 0 1.34.13h1.63c.3 0 .61-.06.9-.1h.28l.29-.07a9.57 9.57 0 0 1-2.48 2h-.16c-.25.13-.49.25-.74.36l-.26.11c-.26.1-.53.2-.8.28l-.15.05c-.32.09-.65.16-1 .23h-.26c-.29 0-.59.08-.89.11h-.23a8.64 8.64 0 0 1-1.14 0h-.27l-.63-.05q-.36 0-.72-.09l-.47-.08-.44-.09-.27-.06h-.08l-.56-.14-1.07-.33-.22-.08-.88-.34-.32-.14c-.31-.13-.63-.28-.95-.43l-.21-.1-.16-.08c-.42-.21-.84-.44-1.27-.68s-1.05-.64-1.57-1h-.08l-.19-.13c-.5-.34-1-.69-1.47-1.07l-.19-.14-.1-.08c-.49-.39-1-.79-1.46-1.21l-.08-.07h-.05c-.46-.41-.91-.84-1.36-1.28l-.22-.21c-.35-.34-.69-.69-1-1Z"/><path fill="#fff" d="M408.31 81.5v1.23l3.48 2.01v-1.23l-3.48-2.01zm-28.13-25.99-.53.75 3.01 3.74.53-.76-3.01-3.73z"/><path fill="#e0e0e0" d="M414.73 85.82c0 12.72-9 17.84-20.1 11.46s-20-21.88-20-34.59 9-17.85 20.1-11.46 20.04 21.87 20 34.59Zm-29.09-12.28a1.18 1.18 0 0 0 .49.65.69.69 0 0 0 .21.08l8.51.66a.28.28 0 0 0 .32-.12l5.57-9.44a1 1 0 0 0-.24-1 1.07 1.07 0 0 0-.23-.2c-.2-.11-.39-.09-.48.07l-5.48 9.29-8.39-.67c-.27 0-.39.27-.28.65m16.36-8.3 1.75-2.46-.92-1.15-1.75 2.46.92 1.15m.73 31 .93-.08-1.73-4.47-.93.08 1.73 4.47m-22.61-20 3-.26-.54-1.38-3 .26.53 1.38M409.21 93l.53-.76-3-3.74-.53.76 3 3.74m-29-37.5-.53.75 3 3.74.53-.76-3-3.73m26.6 18.42 3-.26-.53-1.37-3 .25.54 1.38m-20.16-21.66-.93.08 1.73 4.47.93-.08-1.73-4.47m-.1 34.64 1.75-2.46-.92-1.14-1.75 2.46.92 1.14M381.08 67v-1.23l-3.48-2V65l3.49 2m30.71 16.5-3.48-2v1.23l3.48 2v-1.22m-17.69 10.08 1.06.62v-4l-1.06-.62v4m1.17-38.67-1.06-.62v4l1.06.62v-4"/><path fill="#fff" d="m394.22 54.3-.02 4 1.07.62.01-4-1.06-.62zm8.61 7.3-1.75 2.46.92 1.15 1.75-2.46-.92-1.15zm6.43 10.7-3.01.25.52 1.37 3.03-.25-.54-1.37zm-2.53 16.21-.53.76 3.01 3.74.53-.76-3.01-3.74zm-4.8 3.18-.93.08 1.73 4.47.93-.08-1.73-4.47zm-7.81-2.1-.01 4 1.06.62.01-4-1.06-.62zm-6.73-6.29-1.75 2.46.92 1.14 1.75-2.46-.92-1.14zm-4.78-8.72-3.02.26.53 1.38 3.02-.26-.53-1.38zm-5.01-10.81-.01 1.23 3.48 2.01.01-1.23-3.48-2.01zm9.06-11.51-.93.08 1.73 4.47.93-.08-1.73-4.47zm8.04 21.38a.47.47 0 0 0-.22-.07h-.17l-8.39-.67c-.27 0-.39.27-.28.65a1.18 1.18 0 0 0 .49.65.69.69 0 0 0 .21.08l8.51.66c.27 0 .4-.27.29-.65a1.23 1.23 0 0 0-.44-.65Z"/><path fill="#f5f5f5" d="M400.27 64.2c-.2-.11-.39-.09-.48.07l-5.48 9.29h.17a.47.47 0 0 1 .22.07 1.23 1.23 0 0 1 .49.65c.11.38 0 .67-.29.65a.28.28 0 0 0 .32-.12l5.57-9.44a1 1 0 0 0-.24-1 1.07 1.07 0 0 0-.28-.17Z"/><path fill="#ebebeb" d="m408.41 101.5.33-.25.33-.29.31-.28c.11-.1.21-.21.31-.32l.29-.3.29-.36c.09-.11.19-.21.27-.33s.19-.25.28-.38l.25-.36c.08-.13.16-.28.25-.41l.22-.38c.08-.15.16-.3.23-.45L412 97c.07-.15.14-.31.2-.47s.13-.28.19-.43l.18-.51.16-.45c.06-.17.1-.36.16-.54s.09-.31.13-.47.09-.38.13-.57l.12-.49c0-.2.07-.41.1-.62l.09-.49c0-.23.06-.48.09-.72s0-.29.05-.44l.06-.82v-1.66c0-.62 0-1.25-.06-1.88s0-.08 0-.12c0-.7-.11-1.41-.2-2.13v-.24c0-.38-.11-.77-.17-1.15 0-.2-.07-.39-.11-.59-.05-.28-.1-.57-.16-.85v-.14a43.84 43.84 0 0 0-1.28-4.74 49.88 49.88 0 0 0-2.49-6.11l-.06-.12c-.55-1.13-1.14-2.23-1.77-3.32l-.18-.3c-.28-.48-.58-1-.88-1.43l-.21-.34q-1.23-1.91-2.61-3.68c-.9-1.16-1.84-2.28-2.83-3.33-.37-.4-.76-.79-1.14-1.18l-.19-.18c-.5-.49-1-1-1.53-1.43l-.06-.05c-.54-.48-1.1-.94-1.66-1.38l-.3-.23c-.53-.41-1.06-.79-1.6-1.16l-.06-.05-1-.67q-.45-.29-.9-.54c-.46-.27-.92-.51-1.37-.74a22.83 22.83 0 0 0-4.1-1.61l-.38-.1-.59-.14-.42-.07-.54-.11h-.46l-.71-.08h-.28a13.21 13.21 0 0 0-1.54 0h-.21c-.33 0-.65.06-1 .11a10 10 0 0 0-1.34.29h-.09a9 9 0 0 0-.87.31l-.13.06a10.52 10.52 0 0 0-1.17.57l5.3-3.09.12-.06.14-.07c.26-.14.53-.27.8-.39l.15-.08h.13c.32-.13.64-.25 1-.35h.05c.35-.1.72-.18 1.08-.25h.3c.33 0 .65-.09 1-.11h.22a10.41 10.41 0 0 1 1.25 0h.82c.29 0 .59.06.88.1l1 .18.31.07.61.15h.07l1.16.36.24.09c.32.11.64.23 1 .37h.13l.23.11 1 .47.4.2c.45.22.91.47 1.37.73s1.14.7 1.7 1.07l.29.19c.54.37 1.07.76 1.6 1.16l.3.24c.53.42 1.06.85 1.58 1.31l.14.12c.5.44 1 .9 1.48 1.38 0 .05.1.09.14.14l.09.09c.38.37.75.75 1.11 1.13v.06c.35.37.69.75 1 1.13l.1.11.12.14c.54.63 1.08 1.28 1.59 1.94v.06l.11.15c.41.54.81 1.08 1.21 1.64l.12.16a.56.56 0 0 0 0 .08c.38.54.74 1.08 1.1 1.64l.1.15.15.25c.29.45.57.91.84 1.37l.13.21.05.09c.31.53.61 1.07.89 1.61l.08.13.13.27c.23.43.45.86.66 1.3.05.09.1.18.14.27l.08.17c.26.55.52 1.1.76 1.66v.05c0 .06.05.12.07.17q.33.77.63 1.53a2.44 2.44 0 0 0 .1.24 1.72 1.72 0 0 0 .07.21c.23.6.45 1.2.65 1.81v.1c.21.63.4 1.25.57 1.87 0 .08.05.16.07.24s0 .08 0 .13c.19.72.37 1.44.53 2.16v.19l.06.29c.06.28.11.56.16.84s.07.4.1.59.1.59.14.88l.06.41a.45.45 0 0 0 0 .11q.12.93.18 1.86v.39c0 .63.06 1.26.06 1.88 0 6.83-2.43 11.63-6.32 13.89l-5.31 3.09.34-.22.34-.22Z"/><path fill="#fff" d="M370.38 63.29c0 13.74 9.63 30.49 21.59 37.4 6.2 3.57 11.79 3.8 15.75 1.29l.34-.22.35-.26.33-.25.33-.29.31-.28c.11-.1.21-.21.31-.32l.29-.3.29-.36c.09-.11.19-.21.27-.33s.19-.25.28-.38l.25-.36c.08-.13.16-.28.25-.41l.22-.38c.08-.15.16-.3.23-.45L412 97c.07-.15.14-.31.2-.47s.13-.28.19-.43l.18-.51.16-.45c.06-.17.1-.36.16-.54s.09-.31.13-.47.09-.38.13-.57l.12-.49c0-.2.07-.41.1-.62l.09-.49c0-.23.06-.48.09-.72s0-.29.05-.44l.06-.82v-1.66c0-.62 0-1.25-.06-1.88v-.14c0-.7-.11-1.41-.2-2.13v-.24c0-.38-.11-.77-.17-1.15 0-.2-.07-.39-.11-.59s-.1-.57-.16-.85v-.14a43.84 43.84 0 0 0-1.28-4.74 49.88 49.88 0 0 0-2.49-6.11l-.06-.12c-.55-1.13-1.14-2.23-1.77-3.32l-.18-.3c-.28-.48-.58-1-.88-1.43l-.21-.34q-1.23-1.91-2.61-3.68c-.9-1.16-1.84-2.28-2.83-3.33-.37-.4-.76-.79-1.14-1.18-.06-.06-.13-.11-.19-.18-.5-.49-1-1-1.53-1.43l-.06-.05c-.54-.48-1.1-.94-1.66-1.38l-.3-.23c-.53-.41-1.06-.79-1.6-1.16l-.06-.05-1-.67c-.3-.18-.6-.37-.9-.54-.46-.27-.92-.51-1.37-.74a22.83 22.83 0 0 0-4.1-1.61l-.39-.1-.59-.14-.44-.08-.54-.11h-.46l-.71-.08h-.28a13.21 13.21 0 0 0-1.54 0h-.25c-.33 0-.65.06-1 .11a10 10 0 0 0-1.34.29h-.16a9 9 0 0 0-.87.31l-.15.06a10.52 10.52 0 0 0-1.17.57c-4.03 2.19-6.45 7-6.47 13.85Zm13.79 29.21-.06-.07-.93-1c-.07-.08-.13-.16-.2-.23-.5-.59-1-1.18-1.47-1.8l-.16-.2c-.38-.49-.75-1-1.11-1.51l-.16-.22c-.35-.5-.68-1-1-1.51l-.24-.37-.78-1.28c-.05-.09-.1-.18-.16-.27-.28-.49-.56-1-.83-1.49l-.19-.37c-.21-.4-.41-.8-.61-1.21l-.2-.4c-.24-.51-.48-1-.7-1.53a2.29 2.29 0 0 0-.1-.23l-.57-1.39c-.05-.14-.1-.28-.16-.42-.21-.56-.41-1.11-.6-1.67a1 1 0 0 0 0-.14c-.19-.57-.36-1.14-.53-1.72l-.09-.33c-.18-.67-.35-1.34-.49-2l-.09-.44q-.09-.39-.15-.78a4.8 4.8 0 0 1-.09-.5c-.05-.29-.09-.57-.13-.86s-.05-.32-.07-.48c-.07-.57-.13-1.15-.17-1.72V66q-.06-.87-.06-1.74v-1.59c0-.23 0-.47.05-.7s0-.28.05-.43 0-.43.08-.64.05-.3.08-.45.06-.39.1-.58.07-.3.1-.45.08-.36.13-.53.08-.29.12-.44.09-.34.15-.5.1-.28.15-.42.1-.31.16-.46.12-.27.17-.4.13-.3.19-.44.13-.25.19-.37.14-.28.22-.42a3.79 3.79 0 0 1 .2-.34l.24-.4c.07-.11.15-.21.23-.32l.25-.36.25-.3.27-.33.27-.28c.1-.1.19-.21.29-.3l.29-.26.3-.27.31-.23c.11-.08.21-.17.32-.24l.32-.21a10 10 0 0 1 3.21-1.3c3.23-.69 7.14.07 11.36 2.51 11.06 6.38 20 21.87 20 34.59 0 4.74-1.28 8.43-3.43 10.85a9.57 9.57 0 0 1-2.48 2h-.1a8.86 8.86 0 0 1-.82.4l-.26.11c-.26.1-.53.2-.8.28l-.15.05c-.33.09-.66.17-1 .23h-.26c-.29 0-.59.08-.89.11h-.23a9 9 0 0 1-1.16 0h-.24l-.64-.05q-.36 0-.72-.09l-.47-.08-.44-.09-.35-.08-.56-.14a20.9 20.9 0 0 1-2.18-.75l-.32-.14-1.17-.54-.16-.08c-.42-.21-.84-.44-1.27-.68s-1.05-.64-1.57-1h-.08c-.62-.42-1.24-.87-1.85-1.34l-.1-.08c-.52-.41-1-.83-1.54-1.28h-.05c-.46-.41-.91-.84-1.36-1.28l-.22-.21c-.4-.31-.74-.66-1.08-1.02Z"/><path fill="#ffa8a7" d="m224.89 147.36-4.1-3a8.23 8.23 0 0 1-2.79-3.74l-1-2.67a10 10 0 0 0-3.43-4.58 34.39 34.39 0 0 1-6.29-6 3.79 3.79 0 0 0-.26 4.78 26.06 26.06 0 0 0 2.5 2.87l-2.26.16a7.8 7.8 0 0 1-4.64-1.14l-5.73-3.51a1.09 1.09 0 0 0-1.66.92 24.7 24.7 0 0 0 1.65 8.29 9.39 9.39 0 0 0 5.47 5.53c3 1.17 6 2.18 7.69 2.74a9.32 9.32 0 0 1 2.69 1.4l6 4.48Z"/><path fill="#455a64" d="m220.43 143.41 5.18 3.33a10.12 10.12 0 0 1-6.67 8.64l-4.74-4.48s4.58-.71 6.23-7.49Z"/><path fill="#fff" d="m220.43 143.41 5.18 3.33a10.12 10.12 0 0 1-6.67 8.64l-4.74-4.48s4.58-.71 6.23-7.49Z" opacity=".6"/><path fill="#455a64" d="M223.68 151.85a10.25 10.25 0 0 0 1.93-5.11l16.18 10.44 9.54-26.72a10.06 10.06 0 0 1 8.2-6.6l4.67-.6-4.36 31.27-7.43 14.91a9.92 9.92 0 0 1-15.18 3.24l-18.29-17.3a10.22 10.22 0 0 0 4.74-3.53Z"/><path fill="#fff" d="M223.68 151.85a10.25 10.25 0 0 0 1.93-5.11l16.18 10.44 9.54-26.72a10.06 10.06 0 0 1 8.2-6.6l4.67-.6-4.36 31.27-7.43 14.91a9.92 9.92 0 0 1-15.18 3.24l-18.29-17.3a10.22 10.22 0 0 0 4.74-3.53Z" opacity=".4"/><path d="m241.78 157.18 6.14 4.6-4.43-9.37-1.71 4.77z" opacity=".2"/><path fill="#37474f" d="M243.54 326.74a10.09 10.09 0 0 0 7.56 2.78 22.9 22.9 0 0 0 8-2c2.56-1.05 5.77-4 8.54-3.94a68.27 68.27 0 0 0 8.09-.55 42.08 42.08 0 0 0-1.15-11l-12.92-.34c-3.49 4.78-10.27 8.75-15.4 10.24a4.53 4.53 0 0 0-3.19 3.4.25.25 0 0 1 0 .08 5.31 5.31 0 0 0 .47 1.33Z"/><path fill="#263238" d="M267.65 323.56c-2.77-.06-6 2.89-8.54 3.94a22.9 22.9 0 0 1-8 2 10.09 10.09 0 0 1-7.56-2.78 5.31 5.31 0 0 1-.45-1.32.25.25 0 0 0 0-.08 4.16 4.16 0 0 0 0 1.72 5.31 5.31 0 0 0 .45 1.32 10.09 10.09 0 0 0 7.56 2.78 22.9 22.9 0 0 0 8-2c2.56-1.05 5.77-4 8.54-3.94a59.2 59.2 0 0 0 8-.46c.06-.58.1-1.16.12-1.73a68.27 68.27 0 0 1-8.12.55Zm36.47 4.44a18.42 18.42 0 0 1-.39 3.92 9 9 0 0 1-3.58 5.71 11.42 11.42 0 0 1-5.69 1.52 12.69 12.69 0 0 1-5.21-.54 5.87 5.87 0 0 1-3.05-2.49.17.17 0 0 1 0 .07 5.49 5.49 0 0 0 3.51 3.65 12.71 12.71 0 0 0 5.21.54 11.42 11.42 0 0 0 5.69-1.52 9 9 0 0 0 3.58-5.71 18.42 18.42 0 0 0 .39-3.92 6.65 6.65 0 0 1 2.1-4.79 11.61 11.61 0 0 0 .92-.94 2.32 2.32 0 0 0 .56-1.71c0-.25-.05-.48-.08-.72-.47.56-1.59 1.88-1.87 2.14a6.61 6.61 0 0 0-2.09 4.79Z"/><path fill="#37474f" d="M294.24 314.3a14.26 14.26 0 0 1-1 7.94 30.25 30.25 0 0 1-4.2 6.92 19.85 19.85 0 0 0-2.2 3.21 5.77 5.77 0 0 0-.63 3.7 5.87 5.87 0 0 0 3.05 2.49 12.69 12.69 0 0 0 5.21.54 11.42 11.42 0 0 0 5.69-1.52 9 9 0 0 0 3.58-5.71 18.42 18.42 0 0 0 .39-3.92 6.61 6.61 0 0 1 2.1-4.79c.28-.26 1.4-1.58 1.87-2.14a14.45 14.45 0 0 0-1.93-5.54Z"/><path fill="#263238" d="m256.08 186.7 1.07 73.69 3.48 51.61c8.8 5.57 15.18 1 15.18 1 3.33-24.43 3.79-39.46 2-49.63l1.67-39.76 5 41.28 8.42 50.61c9 5.85 15.41 0 15.41 0 0-18.74 1.66-39.68-3.5-53.19a310.18 310.18 0 0 0-2.42-74.82Z"/><path d="m277.61 208.39 1.84 15.19-.78 18.62-3.4-30.61c-7.85-3.07-8.87-7.4-8.87-7.4a24.07 24.07 0 0 0 11.21 4.2Z" opacity=".3"/><path fill="#455a64" d="m272.81 122.35-8.61.91c-7.06 6.22-10.71 19.27-9.19 33.69a256.23 256.23 0 0 1 1.07 29.75c19.12 14 43.25 3.79 46.29.76L301 169.78a12.34 12.34 0 0 1 1-5.82c1.81-4.2 5-12.45 5.46-18.85a33.45 33.45 0 0 0-3.49-16.47l-12.52-5.46Z"/><path fill="#fff" d="m272.81 122.35-8.61.91c-7.06 6.22-10.71 19.27-9.19 33.69a256.23 256.23 0 0 1 1.07 29.75c19.12 14 43.25 3.79 46.29.76L301 169.78a12.34 12.34 0 0 1 1-5.82c1.81-4.2 5-12.45 5.46-18.85a33.45 33.45 0 0 0-3.49-16.47l-12.52-5.46Z" opacity=".5"/><path fill="#fff" d="M270.42 134.91a93.28 93.28 0 0 0-7.1 33.65l3.55 7.63 5.56-7.29a286.45 286.45 0 0 1 .67-33.5Z"/><path fill="#fff" d="M270.11 128.64a26.17 26.17 0 0 0 .31 6.27 5 5 0 0 0 2.68.49 22 22 0 0 0 4.3-5.2l-4.3-1.56Z"/><path fill="#455a64" d="M273.1 128.64c3.71 1.37 7 8 7 8 9.74-8.27 11.26-13.43 11.26-13.43a19.22 19.22 0 0 0-4.72-5Zm0 0c-2.83.08-5.34 4-5.34 4-.45-6.91 5.34-12.22 5.34-12.22Z"/><path fill="#fff" d="M273.1 128.64c3.71 1.37 7 8 7 8 9.74-8.27 11.26-13.43 11.26-13.43a19.22 19.22 0 0 0-4.72-5Zm0 0c-2.83.08-5.34 4-5.34 4-.45-6.91 5.34-12.22 5.34-12.22Z" opacity=".35"/><path fill="#37474f" d="M291.37 90.35a7.65 7.65 0 0 0-4.91-2.64l-25.64 2.41c-3 6.36-.59 10.56-.59 10.56-.4 9.7-.74 15.86 3.47 17.91a19.38 19.38 0 0 0 9.36 1.31 22.09 22.09 0 0 0 8.59-2.31l.13-.08a7.32 7.32 0 0 0 3.68-4.89 39.8 39.8 0 0 0 .88-5.74 22.25 22.25 0 0 1 .36-3.27 5.81 5.81 0 0 1 1.44-2.91 3.3 3.3 0 0 1 2.95-1 3.05 3.05 0 0 1 .53.2c.73-4.3.94-8.04-.25-9.55Z"/><path fill="#ffa8a7" d="M282 91.09a9.1 9.1 0 0 0 .34 5.45 39.5 39.5 0 0 1 1.62 5.3 8.68 8.68 0 0 1-.7 5.34 6.2 6.2 0 0 1-4.09 3.31c-2.75.59-5.44-1-8.2-1.58a11.33 11.33 0 0 0-7.72 1.38 1.33 1.33 0 0 1-2-1.08c-.32-5.58-.32-14.33.49-18.44Zm2.59 24.94v-.01l-.01.01h.01z"/><path fill="#37474f" d="m286.83 109.67-.11 5a7.7 7.7 0 0 0 2.39-3.76 3.44 3.44 0 0 1-2.28-1.24ZM262.14 86 259 83.79a7 7 0 0 0 1.22 6.37 10.05 10.05 0 0 0 5.62 3.35 20.87 20.87 0 0 0 6.6.31 48.32 48.32 0 0 0 9.54-1.77 7.57 7.57 0 0 0 3.75-2 5.07 5.07 0 0 0 .2-5.92 7.41 7.41 0 0 0-5.27-3.1 19.77 19.77 0 0 0-6.35.51 19.11 19.11 0 0 1-6.34.46 6.63 6.63 0 0 1-5.12-3.44c-1.85 2.96-.71 7.44-.71 7.44Z"/><path fill="#f28f8f" d="m270.18 100.99-4.67 5.74 4.29 1.54.38-7.28zm3.54 10.14-3.61 1.12a2.2 2.2 0 0 0 2.43 1.14 2 2 0 0 0 1.18-2.26Z"/><path d="m273.72 111.13-3.61 1.12a2.2 2.2 0 0 0 2.43 1.14 2 2 0 0 0 1.18-2.26Z" opacity=".3"/><path fill="#f28f8f" d="M271.36 113.32a2.08 2.08 0 0 0 1.18.07 1.83 1.83 0 0 0 1.18-1.65 2.07 2.07 0 0 0-1.4.25 2.18 2.18 0 0 0-.96 1.33Z"/><path fill="#263238" d="M276.54 102.25a1.28 1.28 0 1 1-1.21-1.37 1.29 1.29 0 0 1 1.21 1.37Zm-10.74-1.01a1.29 1.29 0 1 1-1.22-1.37 1.29 1.29 0 0 1 1.22 1.37Zm-.98-5.24-2.94 1.84a1.86 1.86 0 0 1 .66-2 2.13 2.13 0 0 1 2.28.16Zm10.99.43 2.74 2.15a1.87 1.87 0 0 0-.45-2.07 2.15 2.15 0 0 0-2.29-.08Z"/><path fill="#ffa8a7" d="M293.39 101.79a3.64 3.64 0 0 0-1.77-1.89 3.05 3.05 0 0 0-.53-.2 3.3 3.3 0 0 0-2.95 1 5.81 5.81 0 0 0-1.44 2.91 22.25 22.25 0 0 0-.36 3.27 41.78 41.78 0 0 1-.91 5.88 7.24 7.24 0 0 1-3.66 4.76l-.12.07a22.09 22.09 0 0 1-8.59 2.31v8.74l12.12-7.17a2.93 2.93 0 0 0 1.44-2.47c0-1.4.06-2.94.09-4.36l.11-5a3.44 3.44 0 0 0 2.28 1.21 3.2 3.2 0 0 0 1.2-.06 4.55 4.55 0 0 0 2.66-2.31 8.41 8.41 0 0 0 .85-3.53 7 7 0 0 0-.42-3.16Z"/><path fill="#f28f8f" d="M283.38 117.41a8.32 8.32 0 0 0 1.49-3.15 7.24 7.24 0 0 1-3.1 3.26l-.12.07a22.09 22.09 0 0 1-8.59 2.31v2.23a21.5 21.5 0 0 0 5.08-1.08 11.44 11.44 0 0 0 5.24-3.64Z"/><path fill="#ffa8a7" d="M233.25 171.62c2.34-1 9.38 4.64 13.95 3.71l-4.58-2.24a2.94 2.94 0 0 1-1.62-3 .76.76 0 0 1 .85-.65c6.8 1.05 12 5.45 14.42 5.78A23.28 23.28 0 0 0 261 175a21.92 21.92 0 0 0 0 11c-2.5.05-4.32.08-5 .08-3.24 0-7 1.38-10.54.67-6.66-1.57-9.29-4-9.32-6.89 0 0-2.74-1.86-1.89-4.84-.04-.02-3.34-2.37-1-3.4Z"/><path fill="#455a64" d="M265.54 173.6c6.29-1.1 9-2.18 16.69-2.57l5.31-14.88c2.4-7.47 8.1-24 13-29 14.21 3 15.27 9.52 2.5 40-.93 2.26-4.51 9.44-7 14.42a9.15 9.15 0 0 1-8.19 5h-21.76a27.51 27.51 0 0 1-.55-12.97Z"/><path fill="#455a64" d="M258.13 174.65c3-.33 5.4-.69 7.41-1.05a27.51 27.51 0 0 0 .55 13.1h-7.16s-3.47-6.78-.8-12.05Z"/><path fill="#fff" d="M265.54 173.6c6.29-1.1 9-2.18 16.69-2.57l5.31-14.88c2.4-7.47 8.1-24 13-29 14.21 3 15.27 9.52 2.5 40-.93 2.26-4.51 9.44-7 14.42a9.15 9.15 0 0 1-8.19 5h-21.76a27.51 27.51 0 0 1-.55-12.97Z" opacity=".4"/><path fill="#fff" d="M258.13 174.65c3-.33 5.4-.69 7.41-1.05a27.51 27.51 0 0 0 .55 13.1h-7.16s-3.47-6.78-.8-12.05Z" opacity=".6"/><path d="M282.23 171a38.18 38.18 0 0 1 9.13 1.07 20.44 20.44 0 0 0-7.56-5.47Z" opacity=".2"/><path fill="#ffcdcc" d="M352.53 237c11.59 1.35 13.82 7.2 17.87 18.35 2.45 6.78 5 13.39 6.57 17.54a8.43 8.43 0 0 1-1.14 8.09l-11.9 15.82-5.31-11.48 6.59-10-6.7-12.26Z"/><path fill="#f5f5f5" d="M352.53 237c15.19 1.43 14.8 8.41 18.93 17.84-3.75 7.67-14.25 8.05-14.25 8.05-5.63-17.97-4.68-25.89-4.68-25.89Z"/><path fill="#ffa8a7" d="m324.26 213.52-3.2 6 2.85 1.93c.16-2.58.18-5.38.35-7.93Z"/><path fill="#ffcdcc" d="M281.59 293.92a34.55 34.55 0 0 1-11.39 3.32c-4 .37-5.2.35-8.74-1.46a15.65 15.65 0 0 1-7.69-8.88 3.64 3.64 0 0 1 4.54-.68c3.37 1.94 4.86 1.89 8.56.82a25.53 25.53 0 0 1-3.22-4c-.46-.71-.89-1.65-.42-2.36a1.59 1.59 0 0 1 1.82-.49 5.42 5.42 0 0 1 1.7 1.09 23 23 0 0 0 10 4.67c1.48 2.47 3.35 5.44 4.84 7.97Zm26.12 150.78a4.83 4.83 0 0 0 3.48 1 40.28 40.28 0 0 0 11-1.54 22.77 22.77 0 0 0 5.8-2.43 15.71 15.71 0 0 0 5.11-5.21 41.76 41.76 0 0 1-.84-7.05h-9.25v5a47.21 47.21 0 0 1-15.26 6.71 2.47 2.47 0 0 0-.06 3.62Z"/><path fill="#0d83fd" d="M333.84 439.51c-.28-1-.52-2-.72-3a15.71 15.71 0 0 1-5.12 5.19 22.77 22.77 0 0 1-5.8 2.43 40.28 40.28 0 0 1-11 1.54 4.83 4.83 0 0 1-3.48-1 2.47 2.47 0 0 1 .06-3.62l-1.24.3a12.34 12.34 0 0 0-4.2 1.36 3.61 3.61 0 0 0-1.79 3.75c.36 1.29 1.65 2.09 2.88 2.64a21.23 21.23 0 0 0 15.05.79c3-1 6-2.7 9.18-2.61 1.83.05 3.83.66 5.37-.34a4.1 4.1 0 0 0 1.62-3.51 15 15 0 0 0-.81-3.92Z"/><path fill="#ffcdcc" d="M345.34 409.69a3.49 3.49 0 0 0-3.07 2.9c-.1 1.45 1 2.67 2.08 3.69l4 3.9a9.29 9.29 0 0 0 3.81 2.63 5.29 5.29 0 0 0 4.49-1 6.55 6.55 0 0 0 1.78-2.16c-.13-.91-.25-1.82-.42-2.72a7.09 7.09 0 0 0-1.21-3.23c-1.27-1.58-3.33-1.8-5.21-2-1.53-.15-2.43-1-3.57-1.91a7.36 7.36 0 0 0-2.68-.1Z"/><path fill="#0d83fd" d="M358.43 419.69a6.55 6.55 0 0 1-1.78 2.16 5.29 5.29 0 0 1-4.49 1 9.29 9.29 0 0 1-3.81-2.63l-4-3.9c-1.05-1-2.18-2.24-2.08-3.69a3.49 3.49 0 0 1 3.07-2.9 7.36 7.36 0 0 1 2.68.16l-.4-.29a17.85 17.85 0 0 0-3.28-1.83 5.79 5.79 0 0 0-4-.53 4.28 4.28 0 0 0-2.72 3.94 7.43 7.43 0 0 0 1.72 4.69 33.14 33.14 0 0 0 3.55 3.66 43.93 43.93 0 0 1 4.56 5.16 27.2 27.2 0 0 0 3.23 3.94 6.55 6.55 0 0 0 4.58 1.94 3.88 3.88 0 0 0 3.41-2.17 6.14 6.14 0 0 0 .3-2.67c-.04-2.05-.26-4.05-.54-6.04Z"/><path fill="#0d83fd" d="M317 301.92c-2.81 35.5-.71 72.48-.71 72.48s4.91 39.66 5.63 56.33c4 3.95 11.68 0 11.68 0 2.2-29 8-40.16 1.67-58.22l4.53-41.59 1.8 33.38 6.85 52c4.16 3 9.55 0 9.55 0 2.23-25.5 7.44-37.1 0-57.84 8.9-41.29 5.95-57 4.78-61.15Z"/><path d="M317 301.92c-2.81 35.5-.71 72.48-.71 72.48s4.91 39.66 5.63 56.33c4 3.95 11.68 0 11.68 0 2.2-29 8-40.16 1.67-58.22l4.53-41.59 1.8 33.38 6.85 52c4.16 3 9.55 0 9.55 0 2.23-25.5 7.44-37.1 0-57.84 8.9-41.29 5.95-57 4.78-61.15Z" opacity=".3"/><path fill="#fff" d="M328.92 240.24c6-1.84 23.36-5.64 27.76-1.67 3.85 3.47 6.35 15.44 1.16 30.8a18.28 18.28 0 0 0 .61 13.41 80 80 0 0 1 5.26 15.1c-14 14.23-38.57 12-47.88 6a227 227 0 0 1 2.93-34Z"/><path fill="#0d83fd" d="M324.74 208.79a10 10 0 0 1-4.9-9.39 12.08 12.08 0 0 1 6.11-9.18 14.21 14.21 0 0 1 11.1-1c3.22 1 6.08 3.06 9.39 3.73 2.87.58 6 .08 8.67 1.2 3.4 1.39 5.38 5 6.25 8.58a24.16 24.16 0 0 1-1.27 15.15c-2 4.74-7.36 10.4-11.84 13-4.57 5.46-12.71 1.89-16.17-2.74s-7.34-19.35-7.34-19.35Z"/><path d="M324.74 208.79a10 10 0 0 1-4.9-9.39 12.08 12.08 0 0 1 6.11-9.18 14.21 14.21 0 0 1 11.1-1c3.22 1 6.08 3.06 9.39 3.73 2.87.58 6 .08 8.67 1.2 3.4 1.39 5.38 5 6.25 8.58a24.16 24.16 0 0 1-1.27 15.15c-2 4.74-7.36 10.4-11.84 13-4.57 5.46-12.71 1.89-16.17-2.74s-7.34-19.35-7.34-19.35Z" opacity=".4"/><path fill="#ffcdcc" d="M326.82 204.81a22.86 22.86 0 0 0-3.61 10.34 67.81 67.81 0 0 0-.16 11 7.15 7.15 0 0 0 1 4.09 5.62 5.62 0 0 0 4.54 1.78c1.69 0 3.22 0 5-.06l.36 7.63c6 3.34 12.79 1 14.54-1.37l-.3-7.46c-9.36 1.75-14.41-1.45-15.29-7.25a6.54 6.54 0 0 0 5.4-1.41 6.17 6.17 0 0 0 1.78-5.12 4.08 4.08 0 0 0-1-2.27 3.7 3.7 0 0 0-3.83-.81 5.87 5.87 0 0 0-3 2.69 14.76 14.76 0 0 0-1.4 3.88 3.52 3.52 0 0 1-1.13-3.8c.25-.69.75-1.34.65-2.07s-1-1.33-1.35-2.06a2.77 2.77 0 0 1-.14-2.06 8.55 8.55 0 0 1 .9-1.91 19.1 19.1 0 0 0-2.96-3.76Z"/><path fill="#0d83fd" d="M362.86 226.62a33.82 33.82 0 0 1-7.48-12.12 22.14 22.14 0 0 1-.16-14.09 14.13 14.13 0 0 1 4.49-6.6 9.67 9.67 0 0 1 7.58-2.06c4.22.78 7.24 4.84 8 9.06s-.31 8.54-1.68 12.6c-1.71 5.07-5.62 11.31-4.95 18.47a36.62 36.62 0 0 1-5.8-5.26Z"/><path d="M362.86 226.62a33.82 33.82 0 0 1-7.48-12.12 22.14 22.14 0 0 1-.16-14.09 14.13 14.13 0 0 1 4.49-6.6 9.67 9.67 0 0 1 7.58-2.06c4.22.78 7.24 4.84 8 9.06s-.31 8.54-1.68 12.6c-1.71 5.07-5.62 11.31-4.95 18.47a36.62 36.62 0 0 1-5.8-5.26Z" opacity=".3"/><path fill="#ffcdcc" d="M328.92 240.24c-12.13 2.46-11.29 8.52-17.34 19.68-3.7 7.17-7.91 17.38-7.91 17.38-10 2.38-20.29 6.42-26.93 8.59-2.41 6.33 4.85 8 4.85 8l25.09-4a13 13 0 0 0 9.11-6.18c8.95-15.04 17.44-32.71 13.13-43.47Z"/><path d="M355.05 313.57a21.33 21.33 0 0 1-14 5.21l-1.32 12.14 1.2 22.29 2.48-32.21a16.54 16.54 0 0 0 11.64-7.43Z" opacity=".3"/><path fill="#f5f5f5" d="M328.92 240.24c-11.59 1.55-12.34 6.59-17.46 17.14 6.25 8.79 16.12 6.16 16.12 6.16 7-18.54 1.34-23.3 1.34-23.3Z"/><path fill="#824645" d="m166.74 192.14 4.23 4.1c4.35-5.55 10.18-9.3 15.28-17.07 1.47-1.87 1.31-5.58 2.31-7.47.78-1.48 2.15-3.71 2.73-5a.82.82 0 0 1 1.21-.36c1.45 1.05.69 3.57-.08 6.22-.89 3.1 3.79-1.11 4.42-1.82 3-2.76 5.52-9.53 7.54-8.85s.42 4 .42 4c1.86.4 1.16 3.37 1.16 3.37 1.1 1.94.78 4.94-1.48 7.72-1.64 2-6.08 4.8-8.39 6.16a7.47 7.47 0 0 0-2.4 2.28l-14.52 21.57a8.8 8.8 0 0 1-12.58 2.13l-7.88-5.89Z"/><path fill="#0d83fd" d="M142.17 173.09c8.05-.35 19 12.7 25.11 18.85-.48 7.51-8.57 12.45-8.57 12.45a174.48 174.48 0 0 1-16.54-12.93Z"/><path fill="#fff" d="M142.17 173.09c8.05-.35 19 12.7 25.11 18.85-.48 7.51-8.57 12.45-8.57 12.45a174.48 174.48 0 0 1-16.54-12.93Z" opacity=".3"/><path d="M149.68 197.72c2.59 2.05 5.69 4.39 9 6.67a42.86 42.86 0 0 0-5.32-21c-1.21 4.78-2.44 9.61-3.68 14.33Z" opacity=".2"/><path fill="#824645" d="M146.36 344.25c-.15 3.42 0 7.44 0 7.44l-2 .11a4.81 4.81 0 0 0-4.26 3.16v.13a1.88 1.88 0 0 1-2.32 1.15 1.91 1.91 0 0 1-1.14-1l-1-8.58Z"/><path fill="#37474f" d="M149.27 374c5.21 2.22 13.18 2.66 16.48-2.66v1.44c-3.3 5.31-11.27 4.88-16.48 2.66s-4.06-5.86-8.73-7.81a12.66 12.66 0 0 1-4.55-2.87c0-.43-.09-1-.16-1.57a15.87 15.87 0 0 0 4.71 3c4.67 1.97 3.53 5.61 8.73 7.81Z"/><path fill="#0d83fd" d="M135.83 358.49a7.46 7.46 0 0 0 0-3.07 1.64 1.64 0 0 1 .24-1.36l.39-.38.18 1.58a1.91 1.91 0 0 0 1.14 1 1.88 1.88 0 0 0 2.32-1.15v-.13a4.81 4.81 0 0 1 4.26-3.16l2-.12a1.45 1.45 0 0 1 1.42.9c2.08 5 7.3 10.57 11.33 13.12 3-.07 6.61 2.38 6.61 5.37v.29c-3.3 5.32-11.27 4.88-16.48 2.66s-4.06-5.86-8.73-7.81a15.87 15.87 0 0 1-4.71-3 16.77 16.77 0 0 1 .03-4.74Z"/><path fill="#fff" d="M145.9 362.6a.65.65 0 0 1-.92.08.66.66 0 0 1-.11-.91 7.53 7.53 0 0 1 6.8-3c.28.34.56.68.85 1a7.3 7.3 0 0 0-6.62 2.83Zm-2.05-2.3a.66.66 0 0 1-1-.83 7.93 7.93 0 0 1 7.09-3.06c.25.37.52.74.78 1.11a7.32 7.32 0 0 0-6.87 2.78Zm4.15 4.54a.66.66 0 0 1-.93.09.65.65 0 0 1-.1-.91 7.5 7.5 0 0 1 6.61-3l1 1a7.28 7.28 0 0 0-6.58 2.82Zm11.14.86c3-.07 6.61 2.38 6.61 5.37v.29c-3.26 5.24-11 4.89-16.24 2.75.4-7.11 7.27-8.44 9.63-8.41Zm-8.91 1.3a.65.65 0 0 1-.92.08.66.66 0 0 1-.11-.91 7.54 7.54 0 0 1 6.64-3c.41.37.83.72 1.24 1a7.33 7.33 0 0 0-6.85 2.83Z"/><path fill="#824645" d="M118.69 350.57c-.14 3.43 0 7.45 0 7.45l-2 .1a4.82 4.82 0 0 0-4.26 3.17v.13a1.87 1.87 0 0 1-2.32 1.15 1.86 1.86 0 0 1-1.13-1l-1-8.58Z"/><path fill="#37474f" d="M121.61 380.35c5.2 2.22 13.17 2.65 16.48-2.66v1.44c-3.31 5.31-11.28 4.88-16.48 2.66s-4.07-5.86-8.73-7.81a12.66 12.66 0 0 1-4.55-2.87c0-.43-.09-1-.17-1.57a15.81 15.81 0 0 0 4.72 3c4.66 1.95 3.52 5.59 8.73 7.81Z"/><path fill="#0d83fd" d="M108.16 364.82a7.51 7.51 0 0 0 0-3.07 1.64 1.64 0 0 1 .23-1.36l.39-.38.19 1.58a1.87 1.87 0 0 0 3.45-.17v-.13a4.82 4.82 0 0 1 4.26-3.17l2-.11a1.47 1.47 0 0 1 1.42.9c2.08 5 7.3 10.57 11.32 13.12 3-.07 6.62 2.38 6.62 5.36v.3c-3.31 5.31-11.28 4.88-16.48 2.66s-4.07-5.86-8.73-7.81a15.81 15.81 0 0 1-4.72-3 17.16 17.16 0 0 1 .05-4.72Z"/><path fill="#fff" d="M118.24 368.93a.66.66 0 0 1-.92.08.65.65 0 0 1-.11-.91 7.55 7.55 0 0 1 6.8-3c.27.35.56.69.85 1a7.27 7.27 0 0 0-6.62 2.83Zm-2.05-2.3a.66.66 0 0 1-.93.08.65.65 0 0 1-.1-.91 7.91 7.91 0 0 1 7.09-3.06q.38.56.78 1.11a7.32 7.32 0 0 0-6.84 2.78Zm4.18 4.54a.66.66 0 0 1-1-.82 7.51 7.51 0 0 1 6.62-3l1 1a7.27 7.27 0 0 0-6.62 2.82Zm11.1.83c3-.07 6.62 2.38 6.62 5.36v.3c-3.26 5.24-11 4.89-16.24 2.75.4-7.12 7.26-8.41 9.62-8.41Zm-8.9 1.32a.66.66 0 0 1-1-.83 7.54 7.54 0 0 1 6.63-3c.42.37.83.72 1.24 1.05a7.32 7.32 0 0 0-6.87 2.78Z"/><path fill="#37474f" d="m153.09 236.27-1 66.42-3.09 46.48c-7.93 5-16.13.26-16.13.26-3-22-3.13-35.63-1.49-44.8l-1-35.46-1.57 36.67-7.46 47c-8.14 5.27-17-.17-17-.17 0-16.88-1.74-36.94 2.92-49.12C104 265.9 109.54 237 109.54 237Z"/><path d="m133.68 255.83-3.28 13.34.46 17.13 4.92-27.59c7.08-2.77 8-6.67 8-6.67a21.82 21.82 0 0 1-10.1 3.79Z" opacity=".3"/><path fill="#0d83fd" d="m126.05 172.41 1.05-.64.29 5.03-1.34-4.39z"/><path fill="#fff" d="M106.23 244.5c5.61 5.74 32.55 6.8 46.3-7.16-1.32-9.85-.88-20.41 0-30.85s6.6-28.69-4.33-30.81c-14.59-3-22-.25-33.87 3.06-10.41 18.49-8.98 46.17-8.1 65.76Z"/><path fill="#0d83fd" d="M133.76 180.49a25.26 25.26 0 0 0-2.28 7.91l1.11 3.3c-4 5.56-5.47 13.25-5.87 20.26s.38 14 .78 21 .4 14.17-1.5 20.89c-7.86 2.9-19.34 1.77-22.51-1.08-.45-32.94-1.94-66.84 10.84-74.07 4-1.37 8.6-2.42 8.6-2.42l6.25 4.7Z"/><path fill="#fff" d="M133.76 180.49a25.26 25.26 0 0 0-2.28 7.91l1.11 3.3c-4 5.56-5.47 13.25-5.87 20.26s.38 14 .78 21 .4 14.17-1.5 20.89c-7.86 2.9-19.34 1.77-22.51-1.08-.45-32.94-1.94-66.84 10.84-74.07 4-1.37 8.6-2.42 8.6-2.42l6.25 4.7Z" opacity=".3"/><path d="M104.19 203.62c-.59 5.59-.86 11.82-1 18.4 3.43-5.45 9.14-16.15 10-28.19Z" opacity=".2"/><path fill="#0d83fd" d="M132 183.37a23.92 23.92 0 0 0-2.7 5.71 30.73 30.73 0 0 1-6.32-12.76l6.25 4.7 4.58-.53a28.29 28.29 0 0 0-2 6.11 13.45 13.45 0 0 1 .19-3.23Zm9.27-6.27c1.9 2.49 2.18 4.39 2.18 7.48l-.9 2.54c4 13.74 2.48 44.11 8.07 55.73l4.19-5c-4.4-19.19 1.64-39 .75-51.74-.75-10.74-8.07-11-11.29-11.4l-2.77-.3Z"/><path fill="#fff" d="M141.27 177.1c1.9 2.49 2.18 4.39 2.18 7.48l-.9 2.54c4 13.74 2.48 44.11 8.07 55.73l4.19-5c-4.4-19.19 1.64-39 .75-51.74-.75-10.74-8.07-11-11.29-11.4l-2.77-.3Z" opacity=".3"/><path fill="#0d83fd" d="m148.2 181.31-1.33 4.81-2.34-3.84 3.67-.97z"/><path fill="#0d83fd" d="M148.2 181.31a15.85 15.85 0 0 0-6.57-8.5l-.36 4.29c1.68 2 1.9 3.94 2.18 7.48 1.29-1.58 4.75-3.27 4.75-3.27Z"/><path fill="#fff" d="M148.2 181.31a15.85 15.85 0 0 0-6.57-8.5l-.36 4.29c1.68 2 1.9 3.94 2.18 7.48 1.29-1.58 4.75-3.27 4.75-3.27Z" opacity=".4"/><path fill="#824645" d="m141.84 170.35-.57 6.75a2.79 2.79 0 0 0 .36 1.49 4 4 0 0 1-.56 4.41 4.55 4.55 0 0 1-2.82 1 13.26 13.26 0 0 1-10.46-4.3 3.34 3.34 0 0 1-.83-2.31l.42-17.12Z"/><path fill="#612d2b" d="m127.38 160.29 14.46 10.06-.5 6c-3.07-.77-6.15-1.72-8.58-3.82-3.08-2.69-5.76-5.34-5.38-12.24Z"/><path fill="#263238" d="M150.43 142.84c-1-8.94-11.16-12.36-17.69-11.57s-12.52 5.75-13.93 12.18 1.53 12.85 4.85 18.46l8.43-1.64 2.35-13.27 10.33.83 4.44-2.26 1.22-2.76"/><path fill="#824645" d="M150.09 141c-2 2-13.31 2.58-16.05 1.82-.23 1.32-2.7 6-5.75 7.64a25 25 0 0 1 0 7.73 1.46 1.46 0 0 1-1 1.19c-.92.27-1.53-.68-2-1.44a6.23 6.23 0 0 0-2-2.23 3.14 3.14 0 0 0-2.89-.3 3 3 0 0 0-1.52 1.86 5.48 5.48 0 0 0-.12 2.45 7.38 7.38 0 0 0 1.59 3.74 5.07 5.07 0 0 0 3.56 1.84 3.69 3.69 0 0 0 3.42-1.69l.06.25a9.17 9.17 0 0 0 .38 1.19 10.2 10.2 0 0 0 7.47 6.4c1.73.36 3.66.71 5.62 1 1 .15 1.94.28 2.91.4a7 7 0 0 0 7.73-5.72c1.33-7.44 1.43-18.71-1.41-26.13Z"/><path fill="#f28f8f" d="m143.92 154.71 4.78 5.79-4.38 1.55-.4-7.34z"/><path fill="#612d2b" d="m143.92 154.71 4.78 5.79-4.38 1.55-.4-7.34z"/><path fill="#263238" d="M137.17 155.43a1.32 1.32 0 1 0 1.32-1.3 1.33 1.33 0 0 0-1.32 1.3Zm11.02-.35a1.32 1.32 0 1 0 1.32-1.3 1.32 1.32 0 0 0-1.32 1.3Zm-.69-5.83 3.51.4a1.86 1.86 0 0 0-1.47-1.54 2.21 2.21 0 0 0-2.04 1.14Zm-7.84 0-3.39 1a1.88 1.88 0 0 1 1.17-1.78 2.23 2.23 0 0 1 2.22.78Z"/><path fill="#f28f8f" d="m138.89 164 3.66 1.78a2.39 2.39 0 0 1-2.78.79 2.15 2.15 0 0 1-.88-2.57Z"/><path fill="#612d2b" d="m138.89 164 3.66 1.78a2.39 2.39 0 0 1-2.78.79 2.15 2.15 0 0 1-.88-2.57Z"/><path fill="#f28f8f" d="M141 166.64a2.18 2.18 0 0 1-1.27-.12 1.94 1.94 0 0 1-1-1.93 2.2 2.2 0 0 1 2.25 2Z"/><path fill="#0d83fd" d="M126.05 172.41c1.31 3.48 4.34 7 7.71 8.08a21.89 21.89 0 0 0-5.19 6.63 40.13 40.13 0 0 1-5.64-10.8Z"/><path fill="#fff" d="M126.05 172.41c1.31 3.48 4.34 7 7.71 8.08a21.89 21.89 0 0 0-5.19 6.63 40.13 40.13 0 0 1-5.64-10.8Z" opacity=".4"/><path fill="#824645" d="m102.63 254.6-16.25-28.52a11.44 11.44 0 0 1-.28-9.59l9-21.25a27.7 27.7 0 0 1 15.75-15.08l3.45-1.42c1.3 12.74-3.73 19.46-15.4 41.6 0 0 6.15 20.65 11 29.83a34.88 34.88 0 0 1 10.27 7.46 1.87 1.87 0 0 1 .11 2.45 1.74 1.74 0 0 1-2.15.46c-1.57-.81-3.12-1.64-4.7-2.43a50.87 50.87 0 0 0 6.1 10.09 1.91 1.91 0 0 1-.12 2.48 1.93 1.93 0 0 1-1.67.58l-5.09-.75a9.22 9.22 0 0 1-6.91-5.06 31.56 31.56 0 0 1-3.11-10.85Z"/><path fill="#0d83fd" d="M114.33 178.74c-9.89 3.39-16.66 6.21-24.51 27.51 3.93 6.07 14.74 5.25 14.74 5.25 14.06-21.22 9.77-32.76 9.77-32.76Z"/><path fill="#fff" d="M114.33 178.74c-9.89 3.39-16.66 6.21-24.51 27.51 3.93 6.07 14.74 5.25 14.74 5.25 14.06-21.22 9.77-32.76 9.77-32.76Z" opacity=".3"/><path fill="none" d="M295.46 48.8Z"/><path fill="#0d83fd" d="M302.07 47.6a5.29 5.29 0 0 0-1.95-2l-26.8-15.37c-2.35-1.35-7.91.48-7.91 4.25V50a5.23 5.23 0 0 0 2.64 4.54l20.68 11.82-3.57-2 1.71 4.86a.29.29 0 0 0 .36.18c.3-.16 1.65-.88 2.42-1.39h.05s.05 0 .07-.06l.42-.69 4.66 2.67a5.17 5.17 0 0 0 7.9-4.26V50.16a5.26 5.26 0 0 0-.68-2.56Z"/><path fill="#fff" d="m289.77 67.84-.07.06h-.05c-.77.51-2.12 1.23-2.42 1.39a.38.38 0 0 0 .17-.12l1.66-2.69-.33-.19 1.46.83Z" opacity=".2"/><path fill="#fff" d="M296.87 50.56a5.43 5.43 0 0 0-1.4-1.76 5.47 5.47 0 0 0-.63-.44L268 33a1.74 1.74 0 0 0-2.61 1.51c0-3.77 5.56-5.6 7.91-4.25l26.8 15.37a5.29 5.29 0 0 1 1.95 2Z" opacity=".4"/><path fill="#fff" d="M297.46 68.3V52.9a4.32 4.32 0 0 0 0-.62 5.47 5.47 0 0 0-.54-1.72l5.2-3a5.26 5.26 0 0 1 .68 2.56v15.4a5.17 5.17 0 0 1-7.9 4.26 1.75 1.75 0 0 0 2.56-1.48Z" opacity=".2"/><path fill="#fff" d="M274.68 46.46a4 4 0 0 1 1.94 3.32c0 1.3-.85 1.74-2 1.1a4.1 4.1 0 0 1-1.94-3.35c.04-1.33.89-1.71 2-1.07Zm6.17 3.6a4.07 4.07 0 0 1 1.95 3.33c0 1.3-.86 1.74-2 1.1a4.13 4.13 0 0 1-1.95-3.35c.04-1.33.89-1.71 2-1.08Zm6.15 3.61a4 4 0 0 1 2 3.33c0 1.3-.86 1.74-2 1.1a4.14 4.14 0 0 1-1.95-3.36c.01-1.32.87-1.74 1.95-1.07Z"/><path fill="#0d83fd" d="m133.52 80.66-27.39 15.71a5.39 5.39 0 0 0-2.68 4.64v19.93a5.27 5.27 0 0 0 8.07 4.34l4.76-2.72.43.7s.05 0 .07.06c.78.52 2.16 1.25 2.47 1.41a.28.28 0 0 0 .36-.18l1.76-5 17.48-10a5.38 5.38 0 0 0 2.75-4.55V85c0-3.85-5.68-5.72-8.08-4.34Z"/><path fill="none" d="M110.89 99.61Z"/><path fill="#fff" d="M116.71 123.26s.05 0 .07.06c.78.52 2.16 1.25 2.47 1.41a.26.26 0 0 1-.17-.12l-1.7-2.75.34-.19-1.5.85Z" opacity=".2"/><path fill="#fff" d="M109.46 101.41a5.53 5.53 0 0 1 1.43-1.79 5.7 5.7 0 0 1 .65-.44l27.39-15.71A1.78 1.78 0 0 1 141.6 85c0-3.85-5.68-5.72-8.08-4.34l-27.39 15.71a5.36 5.36 0 0 0-2 2Z" opacity=".4"/><path fill="#fff" d="M108.86 123.74v-19.93a4.26 4.26 0 0 1 0-.63 5.39 5.39 0 0 1 .56-1.77l-5.32-3a5.36 5.36 0 0 0-.69 2.62v19.93a5.27 5.27 0 0 0 8.07 4.34 1.77 1.77 0 0 1-2.62-1.56Z" opacity=".2"/><path fill="#0d83fd" d="M122.92 103.83c.41-.24.75 0 .75.43v7.44a1.64 1.64 0 0 1-.75 1.3l-3.72 2.15c-.41.24-.75 0-.75-.43v-7.45a1.67 1.67 0 0 1 .75-1.29Zm-1.4 9a1.74 1.74 0 0 0 .78-1.36c0-.5-.35-.7-.78-.45a1.72 1.72 0 0 0-.79 1.36c0 .5.36.7.79.45"/><path fill="#fff" d="M122.92 103.83c.41-.24.75 0 .75.43v7.44a1.64 1.64 0 0 1-.75 1.3l-3.72 2.15c-.41.24-.75 0-.75-.43v-7.45a1.67 1.67 0 0 1 .75-1.29Zm-1.4 9a1.74 1.74 0 0 0 .78-1.36c0-.5-.35-.7-.78-.45a1.72 1.72 0 0 0-.79 1.36c0 .5.36.7.79.45" opacity=".5"/><path fill="#fff" d="M126.71 93.43c1.63-.94 2.92-.11 2.83 1.82l-.16 3 4.33-2.5c1.48-.86 1.8 1.12.8 2.51 1 .29.72 2-.2 3.12.85.37.1 2.32-.93 3.12.68.28.1 2.36-1.09 3l-4.29 2.55-2.69 1.56c-.92.53-1.66.1-1.67-1v-6.18l1.7-4.13a16.6 16.6 0 0 0 1.34-6.24Z"/><path fill="#0d83fd" d="M357.89 141.66 334.65 155a4.41 4.41 0 0 0-1.69 1.71 4.49 4.49 0 0 0-.59 2.22v16.91a4.48 4.48 0 0 0 6.85 3.69l4-2.31.36.59a.34.34 0 0 0 .06.06c.67.44 1.84 1.07 2.1 1.2a.24.24 0 0 0 .3-.15l1.49-4.22 14.83-8.48a4.51 4.51 0 0 0 2.29-3.93v-17c.09-3.21-4.73-4.79-6.76-3.63Z"/><path fill="none" d="M338.69 157.75Z"/><path fill="#fff" d="M343.62 177.81a.34.34 0 0 0 .06.06c.67.44 1.84 1.07 2.1 1.2a.24.24 0 0 1-.15-.11l-1.44-2.33.28-.16-1.26.72Z" opacity=".2"/><path fill="#fff" d="M337.47 159.27a4.68 4.68 0 0 1 1.21-1.52 4.45 4.45 0 0 1 .55-.38L362.48 144a1.51 1.51 0 0 1 2.26 1.31c0-3.27-4.82-4.85-6.85-3.69L334.65 155a4.41 4.41 0 0 0-1.69 1.71Z" opacity=".4"/><path fill="#fff" d="M337 178.22v-16.91a4.89 4.89 0 0 1 0-.54 4.62 4.62 0 0 1 .48-1.5l-4.48-2.56a4.49 4.49 0 0 0-.59 2.22v16.91a4.48 4.48 0 0 0 6.85 3.69 1.51 1.51 0 0 1-2.26-1.31Z" opacity=".2"/><path fill="#0d83fd" d="M352.88 162.14c-.35.2-.63 0-.64-.37v-6.31a1.39 1.39 0 0 1 .63-1.1l3.16-1.82c.35-.21.64 0 .64.36v6.32a1.4 1.4 0 0 1-.64 1.09Zm1.19-7.61a1.47 1.47 0 0 0-.67 1.15c0 .42.3.59.67.38a1.47 1.47 0 0 0 .67-1.15c0-.42-.31-.6-.67-.38"/><path fill="#fff" d="M352.88 162.14c-.35.2-.63 0-.64-.37v-6.31a1.39 1.39 0 0 1 .63-1.1l3.16-1.82c.35-.21.64 0 .64.36v6.32a1.4 1.4 0 0 1-.64 1.09Zm1.19-7.61a1.47 1.47 0 0 0-.67 1.15c0 .42.3.59.67.38a1.47 1.47 0 0 0 .67-1.15c0-.42-.31-.6-.67-.38" opacity=".5"/><path fill="#fff" d="M349.66 171c-1.38.8-2.48.09-2.4-1.54l.13-2.59-3.67 2.13c-1.26.73-1.53-.94-.68-2.13-.86-.25-.61-1.71.17-2.64-.71-.32-.08-2 .79-2.66-.57-.23-.08-2 .92-2.58l3.61-2.08 2.29-1.32c.77-.45 1.41-.09 1.41.8v5.25l-1.44 3.5a14.18 14.18 0 0 0-1.14 5.29Z"/><path fill="#0d83fd" d="m169 120.31 22.66-13c2-1.14 6.69.41 6.69 3.6a1.48 1.48 0 0 0-2.21-1.28l-22.66 13a4.43 4.43 0 0 0-1.73 1.86l-4.4-2.5a4.41 4.41 0 0 1 1.65-1.68Zm2.72 4.17a4.43 4.43 0 0 0-.5 2v16.83a1.48 1.48 0 0 0 2.21 1.28 4.37 4.37 0 0 1-6.68-3.6v-16.85a4.46 4.46 0 0 1 .57-2.16Z"/><path fill="#fff" d="m169 120.31 22.66-13c2-1.14 6.69.41 6.69 3.6a1.48 1.48 0 0 0-2.21-1.28l-22.66 13a4.43 4.43 0 0 0-1.73 1.86l-4.4-2.5a4.41 4.41 0 0 1 1.65-1.68Z" opacity=".4"/><path fill="#fff" d="M171.72 124.48a4.43 4.43 0 0 0-.5 2v16.83a1.48 1.48 0 0 0 2.21 1.28 4.37 4.37 0 0 1-6.68-3.6v-16.85a4.46 4.46 0 0 1 .57-2.16Z" opacity=".2"/><path fill="#0d83fd" d="m196.11 109.62-22.66 13a4.42 4.42 0 0 0-2.23 3.84v16.83a1.48 1.48 0 0 0 2.21 1.28l22.66-12.95a4.42 4.42 0 0 0 2.23-3.84V110.9a1.48 1.48 0 0 0-2.21-1.28Z"/><path fill="#0d83fd" d="m165.77 135.05 5.45 1v-7l-5.64 5.33a.38.38 0 0 0 .19.67Z"/><path fill="#0d83fd" d="m171.22 129.08-4.47-2.56-5.63 5.39a.37.37 0 0 0 .07.59l4.45 2.5Z"/><path fill="#fff" d="m171.22 129.08-4.47-2.56-5.63 5.39a.37.37 0 0 0 .07.59l4.45 2.5Z" opacity=".2"/><path fill="#fff" d="M188.24 119.19a2.66 2.66 0 0 1 2.63-.27c1.46.83 1.47 3.53 0 6l-.85 1.47-5.24 9.08-5.28-3-.85-.49c-1.46-.83-1.47-3.54 0-6.05a7.63 7.63 0 0 1 2.63-2.76 2.63 2.63 0 0 1 2.63-.27l.86.48.84-1.46a7.58 7.58 0 0 1 2.63-2.73Z"/><path fill="#0d83fd" d="m389 216.26 22.89-13.14c2-1.15 6.76.41 6.76 3.64a1.5 1.5 0 0 0-2.24-1.3l-22.88 13.14a4.41 4.41 0 0 0-1.74 1.87l-4.45-2.47a4.44 4.44 0 0 1 1.66-1.74Z"/><path fill="#0d83fd" d="M391.79 220.47a4.34 4.34 0 0 0-.51 2v17a1.49 1.49 0 0 0 2.23 1.29 4.41 4.41 0 0 1-6.75-3.63v-17a4.45 4.45 0 0 1 .58-2.19Z"/><path fill="#fff" d="m389 216.26 22.89-13.14c2-1.15 6.76.41 6.76 3.64a1.5 1.5 0 0 0-2.24-1.3l-22.88 13.14a4.41 4.41 0 0 0-1.74 1.87l-4.45-2.47a4.44 4.44 0 0 1 1.66-1.74Z" opacity=".4"/><path fill="#fff" d="M391.79 220.47a4.34 4.34 0 0 0-.51 2v17a1.49 1.49 0 0 0 2.23 1.29 4.41 4.41 0 0 1-6.75-3.63v-17a4.45 4.45 0 0 1 .58-2.19Z" opacity=".2"/><path fill="#0d83fd" d="m416.42 205.46-22.89 13.14a4.48 4.48 0 0 0-2.25 3.88v17a1.49 1.49 0 0 0 2.23 1.29l22.89-13.08a4.46 4.46 0 0 0 2.26-3.88v-17.05a1.5 1.5 0 0 0-2.24-1.3Zm-30.65 25.69 5.5 1v-7.06l-5.69 5.39a.38.38 0 0 0 .19.67Z"/><path fill="#0d83fd" d="m391.27 225.12-4.51-2.58-5.69 5.46a.38.38 0 0 0 .07.6l4.5 2.53Z"/><path fill="#fff" d="m391.27 225.12-4.51-2.58-5.69 5.46a.38.38 0 0 0 .07.6l4.5 2.53Z" opacity=".2"/><path fill="#fff" d="M405.37 216.43c3.39-2 6.15-.39 6.16 3.52a13.48 13.48 0 0 1-6.12 10.61c-3.4 2-6.16.39-6.17-3.51a13.5 13.5 0 0 1 6.13-10.62Zm0 9.68a5.4 5.4 0 0 1 2.72-.85c-.28-1.27-1.39-1.71-2.72-.94a6.28 6.28 0 0 0-2.72 4.08 10.58 10.58 0 0 1 2.72-2.29m2.21-4.69a2.42 2.42 0 0 0 1.1-1.9c0-.69-.5-1-1.1-.62a2.4 2.4 0 0 0-1.1 1.89c0 .7.5 1 1.1.63m-5.54 1.94c0 .69.5 1 1.1.62a2.41 2.41 0 0 0 1.1-1.89c0-.7-.5-1-1.1-.63a2.42 2.42 0 0 0-1.1 1.9"/><path fill="#0d83fd" d="m242.21 75.78-22.9-13.14c-2-1.15-6.75.41-6.75 3.64a1.49 1.49 0 0 1 2.23-1.28l22.9 13.13a4.48 4.48 0 0 1 1.74 1.87l4.44-2.52a4.41 4.41 0 0 0-1.66-1.7Z"/><path fill="#0d83fd" d="M239.43 80a4.49 4.49 0 0 1 .5 2v17a1.49 1.49 0 0 1-2.23 1.3 4.42 4.42 0 0 0 6.75-3.64v-17a4.48 4.48 0 0 0-.58-2.19Z"/><path fill="#fff" d="m242.21 75.78-22.9-13.14c-2-1.15-6.75.41-6.75 3.64a1.49 1.49 0 0 1 2.23-1.28l22.9 13.13a4.48 4.48 0 0 1 1.74 1.87l4.44-2.52a4.41 4.41 0 0 0-1.66-1.7Z" opacity=".4"/><path fill="#fff" d="M239.43 80a4.49 4.49 0 0 1 .5 2v17a1.49 1.49 0 0 1-2.23 1.3 4.42 4.42 0 0 0 6.75-3.64v-17a4.48 4.48 0 0 0-.58-2.19Z" opacity=".2"/><path fill="#0d83fd" d="m214.79 65 22.9 13.13a4.47 4.47 0 0 1 2.24 3.87v17a1.49 1.49 0 0 1-2.23 1.3l-22.89-13.09a4.46 4.46 0 0 1-2.25-3.88v-17a1.49 1.49 0 0 1 2.23-1.33Zm30.65 25.68-5.5 1v-7l5.69 5.32a.38.38 0 0 1-.19.68Z"/><path fill="#0d83fd" d="m239.94 84.65 4.51-2.59 5.69 5.44a.37.37 0 0 1-.07.6l-4.5 2.53Z"/><path fill="#fff" d="m239.94 84.65 4.51-2.59 5.69 5.44a.37.37 0 0 1-.07.6l-4.5 2.53Z" opacity=".2"/><path fill="#fff" d="M232 86.57c0 3.9-2.78 5.47-6.17 3.51a13.49 13.49 0 0 1-6.13-10.61c0-3.9 2.77-5.48 6.17-3.52A13.54 13.54 0 0 1 232 86.57Zm-6.16-.94a10.79 10.79 0 0 1 2.72 2.29 6.23 6.23 0 0 0-2.71-4.08c-1.33-.77-2.45-.33-2.73.94a5.38 5.38 0 0 1 2.72.85m-2.21-4.69c.61.35 1.1.07 1.1-.63a2.43 2.43 0 0 0-1.09-1.89c-.61-.35-1.1-.07-1.1.63a2.38 2.38 0 0 0 1.09 1.89m5.54 1.94a2.43 2.43 0 0 0-1.09-1.9c-.61-.35-1.1-.07-1.1.63a2.41 2.41 0 0 0 1.09 1.89c.61.35 1.1.07 1.1-.62"/><path fill="#0d83fd" d="m83.52 156.72-27.63 15.84a5.45 5.45 0 0 0-2.71 4.68v20.1c0 3.62 3.08 6.08 7.13 3.77l3.84-2.2.79-.45.17-.09 5.19-3 17.63-10.07a5.4 5.4 0 0 0 2.72-4.69v-20.13c0-3.89-4.71-5.15-7.13-3.76Z"/><path fill="none" d="M59.67 175.22Z"/><path fill="#fff" d="M58.23 177a5.5 5.5 0 0 1 1.44-1.81 4.81 4.81 0 0 1 .66-.45L88 158.92a1.8 1.8 0 0 1 2.7 1.56c0-3.89-4.71-5.15-7.13-3.76l-27.68 15.84a5.46 5.46 0 0 0-2 2Z" opacity=".4"/><path fill="#fff" d="M57.62 199.55v-20.1a4.49 4.49 0 0 1 0-.64 5.71 5.71 0 0 1 .57-1.78l-4.35-2.43a5.45 5.45 0 0 0-.7 2.64v20.1c0 3.62 3.08 6.08 7.13 3.77a1.8 1.8 0 0 1-2.65-1.56Z" opacity=".2"/><path fill="none" d="m64.94 198.46.17-.09-.17.09z"/><path fill="#0d83fd" d="m64.15 198.91.79-.45-.79.45zm30.07-28.65-3.57-2.07v1.05l3.57 1.02z"/><path fill="#fff" d="m94.22 170.26-3.57-2.07v1.05l3.57 1.02z" opacity=".4"/><path fill="#0d83fd" d="m90 169.06 4 1.12a.87.87 0 0 1 .35 1.48l-4.16 3.85Z"/><path fill="#fff" d="M73.78 172.51c3.92-2.27 7.1-.45 7.12 4.05a15.57 15.57 0 0 1-7.07 12.24c-3.92 2.26-7.1.45-7.11-4.05a15.56 15.56 0 0 1 7.06-12.24Zm0 12a7.24 7.24 0 0 0 3.22-4.72 12.19 12.19 0 0 1-3.14 2.65 6.12 6.12 0 0 1-3.14 1c.32 1.48 1.61 2 3.15 1.09m-3.85-4c0 .81.57 1.13 1.27.72a2.78 2.78 0 0 0 1.22-2.25c0-.81-.57-1.13-1.27-.73a2.79 2.79 0 0 0-1.24 2.22m6.39-2.23a2.82 2.82 0 0 0 1.27-2.19c0-.8-.57-1.13-1.27-.72a2.78 2.78 0 0 0-1.27 2.18c0 .81.58 1.13 1.27.73"/><path fill="#0d83fd" d="m317.27 89.61 25.39 14.56a4.93 4.93 0 0 1 1.84 1.83 4.86 4.86 0 0 1 .65 2.43v18.47c0 3.32-2.83 5.58-6.55 3.46l-3.53-2-.72-.41-.16-.09-4.77-2.72-16.2-9.26a5 5 0 0 1-2.49-4.3V93.07c0-3.58 4.32-4.74 6.54-3.46Z"/><path fill="none" d="M339.18 106.61Z"/><path fill="#fff" d="M340.51 108.27a5.06 5.06 0 0 0-1.32-1.66 3.73 3.73 0 0 0-.6-.41L313.2 91.63a1.65 1.65 0 0 0-2.47 1.44c0-3.58 4.32-4.74 6.54-3.46l25.39 14.56a4.93 4.93 0 0 1 1.84 1.83Z" opacity=".4"/><path fill="#fff" d="M341.07 129v-18.51a3.77 3.77 0 0 0 0-.58 4.92 4.92 0 0 0-.52-1.64l4-2.23a4.86 4.86 0 0 1 .65 2.43v18.47c0 3.32-2.83 5.58-6.55 3.46a1.65 1.65 0 0 0 2.42-1.4Z" opacity=".2"/><path fill="none" d="m334.35 127.97-.16-.09.16.09z"/><path fill="#0d83fd" d="m335.07 128.38-.72-.41.72.41zm-27.63-26.32 3.29-1.91v.96l-3.29.95z"/><path fill="#fff" d="m307.44 102.06 3.29-1.91v.96l-3.29.95z" opacity=".4"/><path fill="#0d83fd" d="m311.3 101-3.67 1a.8.8 0 0 0-.33 1.36l3.82 3.54Z"/><path fill="#fff" d="M332.71 115.36c0 4.14-2.94 5.81-6.53 3.73a14.32 14.32 0 0 1-6.5-11.25c0-4.13 2.94-5.8 6.54-3.72a14.29 14.29 0 0 1 6.49 11.24Zm-6.52-.23c1.41.82 2.59.36 2.89-1a5.8 5.8 0 0 1-2.89-.9 11.27 11.27 0 0 1-2.88-2.43 6.59 6.59 0 0 0 2.88 4.32m3.53-3.67a2.55 2.55 0 0 0-1.16-2c-.64-.37-1.16-.07-1.17.67a2.57 2.57 0 0 0 1.16 2c.65.37 1.17.07 1.17-.66m-5.87-2.06c.64.37 1.16.07 1.16-.66a2.53 2.53 0 0 0-1.15-2c-.65-.37-1.17-.08-1.17.66a2.57 2.57 0 0 0 1.16 2"/></svg>