<svg xmlns="http://www.w3.org/2000/svg" fill="none" viewBox="0 0 177 87"><path fill="url(#a)" d="M165.515 2.763A19.84 19.84 0 0 0 156.82.77a19.84 19.84 0 0 0-8.694 1.993h17.389Z"/><path fill="url(#b)" d="M146.006 3.958c.211-.137.425-.27.641-.399h20.346a19.979 19.979 0 0 1 3.228 2.391H143.42c.148-.135.299-.268.451-.398h-19.923c.096-.083.194-.165.292-.245h-19.625a19.75 19.75 0 0 1 1.063-.797h19.596c.265-.19.534-.375.808-.552h19.924Z"/><path fill="url(#c)" d="M173.052 9.138a19.992 19.992 0 0 0-2.004-2.39h-28.456c-.128.13-.255.263-.38.398h-19.923c-.168.18-.332.364-.493.551h-19.68c-.228.26-.45.526-.665.797h19.693l-.187.246h19.923a17.25 17.25 0 0 0-.291.398h32.463Z"/><path fill="url(#d)" d="M139.799 10.333c.082-.133.165-.266.25-.398h33.543c.49.763.93 1.561 1.315 2.39h-36.173c.062-.133.125-.266.19-.398h-19.923l.122-.245H99.389c.14-.27.285-.535.437-.797h19.725c.106-.186.214-.37.325-.552h19.923Z"/><path fill="url(#e)" d="M176.064 15.514a19.8 19.8 0 0 0-.809-2.391h-36.869c-.054.132-.107.265-.159.398h-19.923c-.071.183-.139.367-.204.552H98.342c-.095.263-.185.529-.27.797h19.766l-.073.245h19.923c-.038.132-.075.265-.111.399h38.487Z"/><path fill="url(#f)" d="M137.295 16.709c.028-.133.056-.266.086-.399h38.879a19.8 19.8 0 0 1 .385 2.391h-39.65a25.8 25.8 0 0 1 .044-.398h-19.923c.009-.082.02-.164.03-.245H97.354c.038-.268.08-.534.129-.797h19.785c.032-.185.067-.37.104-.552h19.923Z"/><path fill="url(#g)" d="M176.744 20.694c0 .4-.012.8-.036 1.195h-39.776a17.51 17.51 0 0 1-.019-.398h-19.924a19.879 19.879 0 0 1-.008-.246H97.165a21.12 21.12 0 0 1 0-.797h19.81c.002-.184.007-.368.014-.551h19.924c.005-.133.011-.266.019-.399h39.776c.024.396.036.794.036 1.196Z"/><path fill="url(#h)" d="M176.645 22.686c-.08.812-.21 1.61-.385 2.39h-38.879c-.03-.132-.058-.264-.086-.398h-19.923l-.048-.245H97.483c-.048-.264-.091-.53-.129-.797h19.835a19.982 19.982 0 0 1-.073-.552h19.923a25.95 25.95 0 0 1-.044-.398h39.65Z"/><path fill="url(#i)" d="M138.227 27.866c.052.134.105.266.159.398h36.869a19.8 19.8 0 0 0 .809-2.39h-38.487c.036.133.073.266.111.398h-19.923c.054.185.11.37.17.552H98.073c.084.268.174.534.269.797h19.869c.03.082.061.164.093.245h19.923Z"/><path fill="url(#j)" d="M174.907 29.061c-.385.83-.825 1.628-1.315 2.391h-33.543a20.17 20.17 0 0 1-.25-.398h-19.923a12.81 12.81 0 0 1-.147-.245H99.826a19.93 19.93 0 0 1-.437-.797h19.893a21.63 21.63 0 0 1-.281-.552h19.923a19.374 19.374 0 0 1-.19-.399h36.173Z"/><path fill="url(#k)" d="M142.212 34.242c.125.134.252.267.38.398h28.456a19.987 19.987 0 0 0 2.004-2.39h-32.463c.095.133.192.266.291.398h-19.923c.14.186.283.37.43.551h-19.936c.215.272.437.538.665.797h19.949c.074.083.149.164.224.245h19.923Z"/><path fill="url(#l)" d="M170.221 35.437c-.99.9-2.071 1.702-3.228 2.39h-20.346a20.5 20.5 0 0 1-.641-.398h-19.924c-.124-.08-.247-.162-.369-.245h-20.035a19.75 19.75 0 0 1-1.063-.797h20.006a19.724 19.724 0 0 1-.673-.552h19.923a20.05 20.05 0 0 1-.451-.398h26.801Z"/><path fill="url(#m)" d="M148.126 38.625a19.84 19.84 0 0 0 8.694 1.992 19.84 19.84 0 0 0 8.695-1.992h-17.389Z"/><path fill="url(#n)" d="M123.897 2.119a19.882 19.882 0 0 0-6.813-1.196 19.87 19.87 0 0 0-6.813 1.196h13.626Z"/><path fill="url(#o)" d="M110.271 39.575a19.882 19.882 0 0 0 6.813 1.195c2.393 0 4.688-.422 6.813-1.195h-13.626Z"/><path fill="url(#p)" d="M136.897.77c2.776 0 5.42.568 7.821 1.594h-15.642A19.858 19.858 0 0 1 136.897.77Z"/><path fill="url(#q)" d="M136.897 40.617c-2.776 0-5.42-.568-7.821-1.594h15.642a19.859 19.859 0 0 1-7.821 1.594Z"/><path fill="#7D919C" d="M171.132 86.404v-7.088h1.041v7.088h-1.041Zm4.017 0-3.361-3.477v-.114l3.403-3.497h1.301l-3.757 3.861.104-.614 3.716 3.84h-1.406Zm-10.472 0v-7.088h2.603c.485 0 .909.104 1.269.312.368.201.653.475.854.822.201.347.302.736.302 1.166 0 .43-.101.819-.302 1.166a2.162 2.162 0 0 1-.854.822c-.36.201-.784.302-1.269.302h-1.749v-.979h1.572c.458 0 .825-.114 1.103-.343.277-.236.416-.559.416-.968 0-.437-.139-.767-.416-.989-.278-.222-.645-.333-1.103-.333h-1.582l.197-.24v6.35h-1.041Zm3.956 0-1.655-2.946h1.145l1.655 2.946h-1.145Zm-12.487-3.539c0-.527.091-1.013.271-1.457a3.503 3.503 0 0 1 1.946-1.916 3.92 3.92 0 0 1 1.468-.27c.52 0 1.003.09 1.447.27a3.46 3.46 0 0 1 1.155.76c.333.327.59.712.77 1.156a3.7 3.7 0 0 1 .281 1.457c0 .52-.093 1.003-.281 1.447a3.45 3.45 0 0 1-1.925 1.925 3.81 3.81 0 0 1-1.447.27 3.92 3.92 0 0 1-1.468-.27 3.564 3.564 0 0 1-1.165-.76 3.619 3.619 0 0 1-.781-1.165 3.816 3.816 0 0 1-.271-1.447Zm1.062 0c0 .507.114.961.343 1.364.229.395.542.707.937.936.396.23.843.344 1.343.344.499 0 .944-.115 1.332-.344a2.47 2.47 0 0 0 .916-.937c.229-.402.344-.856.344-1.363 0-.513-.115-.968-.344-1.364a2.47 2.47 0 0 0-.916-.936 2.573 2.573 0 0 0-1.332-.344c-.5 0-.947.115-1.343.344a2.533 2.533 0 0 0-.937.936c-.229.396-.343.85-.343 1.364Zm-4.52 3.539-1.947-6.318-.239-.77h1.02l1.988 6.567-.458-.104 1.728-6.463h1.051l-1.925 7.088h-1.218Zm-4.569 0-1.926-7.088h1.051l1.728 6.463-.458.104 1.988-6.567h1.02l-.239.77-1.947 6.318h-1.217Zm-5.597 0v-6.308h1.041v6.308h-1.041Zm-2.217-6.11v-.978h5.579v.978h-5.579Zm-4.15 3.039v-.978h2.863v.978h-2.863Zm-.031-3.039.24-.333v5.62l-.292-.166h3.56v.989h-4.309v-7.088h4.309v.978h-3.508Zm-3.458 6.11-4.58-5.943.583-.167v6.11h-1.041v-7.088h.885l4.424 5.735h-.427v-5.735h1.041v7.088h-.885Z"/><path fill="#283841" d="M80.57 52.797v19.155h5.72V52.797h-5.72Zm.392-8.5c-.6.627-.9 1.45-.9 2.468 0 .992.3 1.802.9 2.428.627.6 1.45.901 2.468.901s1.828-.3 2.429-.9c.626-.627.94-1.437.94-2.43 0-1.018-.314-1.84-.94-2.467-.601-.627-1.41-.94-2.429-.94-1.018 0-1.841.313-2.468.94Zm32.014 27.341c1.358.6 2.807.901 4.348.901 1.462 0 2.768-.261 3.917-.783s2.05-1.254 2.703-2.194c.653-.966.979-2.076.979-3.33 0-1.618-.522-2.911-1.567-3.877-1.018-.966-2.715-1.737-5.092-2.311-1.41-.34-2.35-.64-2.82-.901-.47-.261-.705-.588-.705-.98 0-.417.196-.73.587-.94.392-.209.862-.313 1.411-.313 1.018 0 1.932.183 2.742.548.809.366 1.501.81 2.076 1.332l3.525-3.016c-.836-.992-1.893-1.828-3.173-2.507-1.279-.705-2.833-1.058-4.661-1.058-1.541 0-2.873.288-3.996.862-1.123.575-1.984 1.345-2.585 2.311a5.697 5.697 0 0 0-.901 3.134c0 1.593.483 2.873 1.449 3.839.993.94 2.494 1.658 4.505 2.154 1.097.287 1.933.535 2.507.744.575.21.966.418 1.175.627.209.21.314.47.314.784 0 .365-.183.678-.549.94-.339.235-.796.352-1.371.352-.966 0-1.854-.196-2.663-.587-.81-.392-1.659-1.045-2.547-1.959l-3.251 3.134c1.097 1.462 2.311 2.493 3.643 3.094Zm34.195.314V52.797h4.231l.676 2.187a14.464 14.464 0 0 1 .773-.62 10.734 10.734 0 0 1 2.742-1.489 8.88 8.88 0 0 1 3.095-.548c1.279 0 2.298.222 3.055.666a4.107 4.107 0 0 1 1.763 1.763c.058.106.114.215.167.325.286-.248.583-.487.89-.717a10.945 10.945 0 0 1 2.703-1.489 8.88 8.88 0 0 1 3.094-.548c1.28 0 2.312.222 3.095.666a4.107 4.107 0 0 1 1.763 1.763c.391.757.666 1.619.822 2.585.157.94.235 1.92.235 2.938v11.673h-5.758v-11.36c0-1.097-.196-1.815-.587-2.154-.366-.366-.836-.549-1.411-.549-.835 0-1.645.248-2.428.744-.55.33-1.06.73-1.533 1.201.004.148.005.296.005.445v11.673h-5.719v-11.36c0-1.097-.196-1.815-.587-2.154-.392-.366-.875-.549-1.45-.549-.809 0-1.606.248-2.389.744a7.979 7.979 0 0 0-1.528 1.196v12.123h-5.719Zm-14.051.47c-1.41 0-2.559-.21-3.447-.627-.861-.418-1.54-.992-2.037-1.724a7.498 7.498 0 0 1-.979-2.546 19.043 19.043 0 0 1-.235-3.055V52.797h5.719v11.36c0 1.07.222 1.788.666 2.154.444.34.992.51 1.645.51.575 0 1.136-.092 1.685-.275a7.382 7.382 0 0 0 1.605-.862c.276-.206.537-.435.784-.685V52.797h5.758v19.155h-4.27l-.673-2.177a16.6 16.6 0 0 1-.737.61 10.695 10.695 0 0 1-2.585 1.488 7.732 7.732 0 0 1-2.899.549Z"/><path fill="#283841" fill-rule="evenodd" d="M99.839 72.422c-1.698 0-3.173-.38-4.426-1.136a7.07 7.07 0 0 1-.431-.298v8.406h-5.72V52.797h4.27l.565 1.908c.42-.447.884-.834 1.394-1.164 1.253-.81 2.716-1.214 4.387-1.214 1.75 0 3.277.43 4.583 1.293 1.332.835 2.363 2.01 3.095 3.525.757 1.515 1.136 3.264 1.136 5.249 0 1.959-.379 3.695-1.136 5.21-.758 1.514-1.802 2.702-3.134 3.564-1.332.836-2.86 1.254-4.583 1.254Zm-1.058-5.367c1.175 0 2.142-.43 2.899-1.292.783-.888 1.175-2.011 1.175-3.37 0-1.383-.392-2.506-1.175-3.368-.757-.888-1.724-1.332-2.899-1.332-1.149 0-2.115.444-2.898 1.332-.784.862-1.175 1.972-1.175 3.33 0 1.384.391 2.52 1.175 3.408.783.861 1.75 1.292 2.898 1.292Zm-30.178 5.367c-1.985 0-3.734-.418-5.249-1.254a9.073 9.073 0 0 1-3.525-3.564c-.836-1.515-1.254-3.251-1.254-5.21 0-1.985.418-3.734 1.254-5.249a8.81 8.81 0 0 1 3.525-3.525c1.515-.862 3.264-1.293 5.249-1.293 2.01 0 3.773.43 5.288 1.293a8.81 8.81 0 0 1 3.525 3.525c.862 1.515 1.293 3.264 1.293 5.249 0 1.959-.43 3.695-1.293 5.21a9.074 9.074 0 0 1-3.525 3.564c-1.515.836-3.277 1.254-5.288 1.254Zm0-5.563c1.28 0 2.311-.404 3.094-1.214.81-.836 1.215-1.92 1.215-3.251 0-1.358-.405-2.455-1.215-3.29-.783-.836-1.815-1.254-3.094-1.254-1.227 0-2.246.418-3.055 1.254-.784.809-1.175 1.893-1.175 3.25 0 1.359.391 2.455 1.175 3.291.81.81 1.828 1.214 3.055 1.214ZM43.951 79.316c1.071.313 2.116.47 3.134.47 2.063 0 3.826-.405 5.288-1.215 1.489-.81 2.625-2.01 3.408-3.603.783-1.593 1.175-3.513 1.175-5.758V52.797h-4.27l-.631 2.1a7.648 7.648 0 0 0-1.601-1.395c-1.202-.783-2.599-1.175-4.191-1.175-1.698 0-3.213.405-4.544 1.214-1.332.784-2.377 1.88-3.134 3.29-.731 1.385-1.097 2.99-1.097 4.819 0 1.802.379 3.408 1.136 4.818.783 1.41 1.828 2.507 3.134 3.29 1.332.783 2.86 1.175 4.583 1.175 1.619 0 3.016-.365 4.191-1.097a7.345 7.345 0 0 0 .705-.506v1.094c0 1.54-.379 2.69-1.136 3.447-.757.783-1.736 1.175-2.938 1.175-1.044 0-1.906-.222-2.585-.666-.653-.444-1.306-1.175-1.959-2.193l-4.112 2.115.313.666c.6 1.175 1.345 2.115 2.233 2.82a7.77 7.77 0 0 0 2.898 1.528Zm6.424-14.611c-.757.81-1.736 1.214-2.937 1.214-1.202 0-2.194-.404-2.977-1.214-.758-.81-1.136-1.828-1.136-3.055 0-1.28.378-2.325 1.136-3.134.783-.81 1.775-1.214 2.977-1.214 1.2 0 2.18.404 2.937 1.214.784.81 1.175 1.854 1.175 3.134 0 1.227-.391 2.245-1.175 3.055Zm-23.412 7.717c-1.985 0-3.735-.418-5.25-1.254a9.073 9.073 0 0 1-3.525-3.564c-.835-1.515-1.253-3.251-1.253-5.21 0-1.985.418-3.734 1.253-5.249a8.81 8.81 0 0 1 3.526-3.525c1.514-.862 3.264-1.293 5.249-1.293 2.01 0 3.773.43 5.288 1.293a8.81 8.81 0 0 1 3.525 3.525c.862 1.515 1.293 3.264 1.293 5.249 0 1.959-.431 3.695-1.293 5.21a9.074 9.074 0 0 1-3.525 3.564c-1.515.836-3.278 1.254-5.288 1.254Zm0-5.563c1.28 0 2.31-.404 3.094-1.214.81-.836 1.214-1.92 1.214-3.251 0-1.358-.404-2.455-1.214-3.29-.783-.836-1.815-1.254-3.094-1.254-1.228 0-2.246.418-3.056 1.254-.783.809-1.175 1.893-1.175 3.25 0 1.359.392 2.455 1.175 3.291.81.81 1.828 1.214 3.056 1.214Z" clip-rule="evenodd"/><path fill="#283841" d="M.355 71.952h16.217v-5.523H6.074V45.276H.355v26.676Z"/><defs><linearGradient id="a" x1="97.161" x2="174.641" y1="18.343" y2="18.343" gradientUnits="userSpaceOnUse"><stop stop-color="#0046F9"/><stop offset=".198" stop-color="#16DBF6"/><stop offset=".401" stop-color="#FFE713"/><stop offset=".604" stop-color="#FF7917"/><stop offset=".802" stop-color="#FB0000"/><stop offset="1" stop-color="#B30000"/></linearGradient><linearGradient id="b" x1="97.161" x2="174.641" y1="18.343" y2="18.343" gradientUnits="userSpaceOnUse"><stop stop-color="#0046F9"/><stop offset=".198" stop-color="#16DBF6"/><stop offset=".401" stop-color="#FFE713"/><stop offset=".604" stop-color="#FF7917"/><stop offset=".802" stop-color="#FB0000"/><stop offset="1" stop-color="#B30000"/></linearGradient><linearGradient id="c" x1="97.161" x2="174.641" y1="18.343" y2="18.343" gradientUnits="userSpaceOnUse"><stop stop-color="#0046F9"/><stop offset=".198" stop-color="#16DBF6"/><stop offset=".401" stop-color="#FFE713"/><stop offset=".604" stop-color="#FF7917"/><stop offset=".802" stop-color="#FB0000"/><stop offset="1" stop-color="#B30000"/></linearGradient><linearGradient id="d" x1="97.161" x2="174.641" y1="18.343" y2="18.343" gradientUnits="userSpaceOnUse"><stop stop-color="#0046F9"/><stop offset=".198" stop-color="#16DBF6"/><stop offset=".401" stop-color="#FFE713"/><stop offset=".604" stop-color="#FF7917"/><stop offset=".802" stop-color="#FB0000"/><stop offset="1" stop-color="#B30000"/></linearGradient><linearGradient id="e" x1="97.161" x2="174.641" y1="18.343" y2="18.343" gradientUnits="userSpaceOnUse"><stop stop-color="#0046F9"/><stop offset=".198" stop-color="#16DBF6"/><stop offset=".401" stop-color="#FFE713"/><stop offset=".604" stop-color="#FF7917"/><stop offset=".802" stop-color="#FB0000"/><stop offset="1" stop-color="#B30000"/></linearGradient><linearGradient id="f" x1="97.161" x2="174.641" y1="18.343" y2="18.343" gradientUnits="userSpaceOnUse"><stop stop-color="#0046F9"/><stop offset=".198" stop-color="#16DBF6"/><stop offset=".401" stop-color="#FFE713"/><stop offset=".604" stop-color="#FF7917"/><stop offset=".802" stop-color="#FB0000"/><stop offset="1" stop-color="#B30000"/></linearGradient><linearGradient id="g" x1="97.161" x2="174.641" y1="18.343" y2="18.343" gradientUnits="userSpaceOnUse"><stop stop-color="#0046F9"/><stop offset=".198" stop-color="#16DBF6"/><stop offset=".401" stop-color="#FFE713"/><stop offset=".604" stop-color="#FF7917"/><stop offset=".802" stop-color="#FB0000"/><stop offset="1" stop-color="#B30000"/></linearGradient><linearGradient id="h" x1="97.161" x2="174.641" y1="18.343" y2="18.343" gradientUnits="userSpaceOnUse"><stop stop-color="#0046F9"/><stop offset=".198" stop-color="#16DBF6"/><stop offset=".401" stop-color="#FFE713"/><stop offset=".604" stop-color="#FF7917"/><stop offset=".802" stop-color="#FB0000"/><stop offset="1" stop-color="#B30000"/></linearGradient><linearGradient id="i" x1="97.161" x2="174.641" y1="18.343" y2="18.343" gradientUnits="userSpaceOnUse"><stop stop-color="#0046F9"/><stop offset=".198" stop-color="#16DBF6"/><stop offset=".401" stop-color="#FFE713"/><stop offset=".604" stop-color="#FF7917"/><stop offset=".802" stop-color="#FB0000"/><stop offset="1" stop-color="#B30000"/></linearGradient><linearGradient id="j" x1="97.161" x2="174.641" y1="18.343" y2="18.343" gradientUnits="userSpaceOnUse"><stop stop-color="#0046F9"/><stop offset=".198" stop-color="#16DBF6"/><stop offset=".401" stop-color="#FFE713"/><stop offset=".604" stop-color="#FF7917"/><stop offset=".802" stop-color="#FB0000"/><stop offset="1" stop-color="#B30000"/></linearGradient><linearGradient id="k" x1="97.161" x2="174.641" y1="18.343" y2="18.343" gradientUnits="userSpaceOnUse"><stop stop-color="#0046F9"/><stop offset=".198" stop-color="#16DBF6"/><stop offset=".401" stop-color="#FFE713"/><stop offset=".604" stop-color="#FF7917"/><stop offset=".802" stop-color="#FB0000"/><stop offset="1" stop-color="#B30000"/></linearGradient><linearGradient id="l" x1="97.161" x2="174.641" y1="18.343" y2="18.343" gradientUnits="userSpaceOnUse"><stop stop-color="#0046F9"/><stop offset=".198" stop-color="#16DBF6"/><stop offset=".401" stop-color="#FFE713"/><stop offset=".604" stop-color="#FF7917"/><stop offset=".802" stop-color="#FB0000"/><stop offset="1" stop-color="#B30000"/></linearGradient><linearGradient id="m" x1="97.161" x2="174.641" y1="18.343" y2="18.343" gradientUnits="userSpaceOnUse"><stop stop-color="#0046F9"/><stop offset=".198" stop-color="#16DBF6"/><stop offset=".401" stop-color="#FFE713"/><stop offset=".604" stop-color="#FF7917"/><stop offset=".802" stop-color="#FB0000"/><stop offset="1" stop-color="#B30000"/></linearGradient><linearGradient id="n" x1="97.161" x2="174.641" y1="18.343" y2="18.343" gradientUnits="userSpaceOnUse"><stop stop-color="#0046F9"/><stop offset=".198" stop-color="#16DBF6"/><stop offset=".401" stop-color="#FFE713"/><stop offset=".604" stop-color="#FF7917"/><stop offset=".802" stop-color="#FB0000"/><stop offset="1" stop-color="#B30000"/></linearGradient><linearGradient id="o" x1="97.161" x2="174.641" y1="18.343" y2="18.343" gradientUnits="userSpaceOnUse"><stop stop-color="#0046F9"/><stop offset=".198" stop-color="#16DBF6"/><stop offset=".401" stop-color="#FFE713"/><stop offset=".604" stop-color="#FF7917"/><stop offset=".802" stop-color="#FB0000"/><stop offset="1" stop-color="#B30000"/></linearGradient><linearGradient id="p" x1="97.161" x2="174.641" y1="18.343" y2="18.343" gradientUnits="userSpaceOnUse"><stop stop-color="#0046F9"/><stop offset=".198" stop-color="#16DBF6"/><stop offset=".401" stop-color="#FFE713"/><stop offset=".604" stop-color="#FF7917"/><stop offset=".802" stop-color="#FB0000"/><stop offset="1" stop-color="#B30000"/></linearGradient><linearGradient id="q" x1="97.161" x2="174.641" y1="18.343" y2="18.343" gradientUnits="userSpaceOnUse"><stop stop-color="#0046F9"/><stop offset=".198" stop-color="#16DBF6"/><stop offset=".401" stop-color="#FFE713"/><stop offset=".604" stop-color="#FF7917"/><stop offset=".802" stop-color="#FB0000"/><stop offset="1" stop-color="#B30000"/></linearGradient></defs></svg>