<svg xmlns="http://www.w3.org/2000/svg" fill="none" viewBox="0 0 144 40"><path fill="#20185B" fill-rule="evenodd" d="M.042 3.792C.304.997 2.154 0 3.797 0c1.05 0 2.075.366 2.94.725 3.535 1.463 7.044 5.31 8.508 9.212.12-.027.242-.052.363-.077a2.18 2.18 0 0 1 2.158-1.908c.446 0 .882.14 1.244.392a2.176 2.176 0 0 1 1.268-.094c.724.164 1.446.503 2.156 1.013 1.546-3.563 4.97-7.188 8.23-8.538 1.19-.493 2.087-.712 2.909-.712 1.1 0 3.679.45 3.876 4.61.201 4.249-3.293 9.664-5.545 12.102 1.55 2.343 2.445 4.917 2.54 7.334.008.221-.004.514-.03.968.847.628 1.285 1.506 1.249 2.525a2.39 2.39 0 0 1-1.112 1.956c-.211.737-.607 1.328-.798 1.615-3.115 4.653-12.477 5.015-15.272 5.015-3.242 0-6.401-.406-8.895-1.142-3.22-.952-5.346-2.416-6.317-4.352a5.344 5.344 0 0 1-.431-1.14 2.286 2.286 0 0 1-.7-.743 2.693 2.693 0 0 1-.251-2.188c.192-.605.59-1.128 1.183-1.56-.036-.687-.052-1.15-.023-1.474.229-2.497 1.037-4.87 2.349-6.91a30.391 30.391 0 0 1-2.66-3.707C.696 9.558-.211 6.487.043 3.792Z" clip-rule="evenodd"/><path fill="#FFC0C0" d="M33.487 27.475c.032-.88-1.256-1.057-1.3-1.138-.051-.096.097-1.812.082-2.193-.216-5.517-5.572-11.344-9.465-11.578-.133-.008-1.381-1.826-3.006-2.193.189.55.12 1.12-.162 1.706l-1.87-1.95s1.229 3.145.326 4.306l-.406-2.68c-6.65.618-11.85 5.185-12.471 11.983-.04.443.12 2.398.08 2.518-.034.107-1.753.587-1.274 1.415.032.04.084.056.151.056.255 0 .725-.227 1.07-.227.118 0 .221.026.297.097-.651.83-.847 1.03-.325 2.071 1.44 2.872 7.328 4.294 13.267 4.294 5.805 0 11.661-1.359 13.463-4.05.29-.434.762-1.188.487-1.706-.065-.124-.777-.488-.528-.853.215.075.861.37 1.259.37.187 0 .319-.064.325-.248Z"/><path fill="#F6A7A8" d="M27.11 27.597c3.216-.275 3.833 3.066.812 3.25-2.993.182-3.76-2.998-.812-3.25Zm-17.387 0c2.915-.163 3.357 2.788.732 3.168-3.675.533-3.819-2.996-.732-3.168Z"/><path fill="#20185B" d="M20.691 13.054c.198.07-.389 1.08-.528 1.178l1.26-.447c-.05.704-2.732 1.499-2.885 1.178.874-.425 1.542-1.166 2.153-1.909Zm5.363 8.693c3.322-.544 4.24 5.27.568 5.525-3.651.253-3.098-5.11-.568-5.525Z"/><path fill="#fff" d="M26.46 22.803c1.274-.281 1.384 1.74.487 1.95-1.303.306-1.393-1.75-.487-1.95Z"/><path fill="#20185B" d="M10.536 21.747c3.652-.566 4.285 6.263 0 5.444-2.948-.564-2.272-5.092 0-5.444Z"/><path fill="#fff" d="M10.455 22.803c1.49-.365 1.418 2.364 0 1.95-.675-.197-.728-1.771 0-1.95Z"/><path fill="#20185B" d="M18.416 26.134c.81-.107 2.126.27 1.26 1.26-.343.39-.87.121-.731.812.13.651 1.382.7 1.787.162.111-.147 0-.922.488-.487.197.65-.601.981-.732 1.218-.157.287-.142.985-.406 1.381-.544.817-1.864.893-2.518.163-.414-.462-.321-1.134-.488-1.463-.113-.223-1.428-1.159-.528-1.422.245 1.278 1.94 1.364 2.072.04-.655-.231-1.096-.526-.975-1.299.097-.3.65-.35.771-.366v.001Z"/><path fill="#CC3A4D" d="M19.92 30.115c-.742-.248-1.603-.422-2.275.082-.17-.33-.216-.57-.244-.935.39.18 1.256-.528 1.381-.528.11 0 .178.26.61.406.465.157 1.06-.264.528.975Z"/><path fill="#EA767E" d="M19.92 30.115a1.252 1.252 0 0 1-2.275.081c.672-.503 1.533-.329 2.275-.08Z"/><path fill="#FFDEDE" d="M18.092 14.435c1.689-1.56-.325-4.306-.325-4.306s1.227 3.145.325 4.306Zm1.808-2.13c.634-1.006-.102-1.932-.102-1.932.188.55.12 1.12-.163 1.706 0 0 .154.14.265.226Zm-2.098.217-.117-.768c-3.621.337-6.81 1.848-9.067 4.25l-.01.034s4.038-3.483 9.194-3.516Zm5.002.044c-.133-.008 4.34 2.1 5.945 3.619-1.824-2.073-4.056-3.505-5.945-3.619Z"/><path fill="#F6A7A8" d="M18.761 33.46c-11.99.115-13.844-4.726-13.844-4.726v.053c.01.229.105.498.297.881 1.44 2.872 7.328 4.294 13.267 4.294 5.805 0 11.661-1.359 13.463-4.05.153-.23.355-.55.473-.876-3.02 3.64-9.162 4.386-13.656 4.424Z"/><path fill="#EA767E" d="M7.974 14.07c.15.156.299.31.427.446a14.265 14.265 0 0 1 2.12-1.63l-.008-.086c-.235-2.576-1.363-5.054-3.273-7.194a4.527 4.527 0 0 0-.669-.603L6.567 5c-.659-.493-1.286-.963-2.018-1.189-.735 4.148 1.706 8.081 2.815 9.608.06.084.365.398.61.651Z"/><path fill="#FFDEDE" d="m11.61 12.261-.059.021c-.43-3.21-1.823-5.403-4.387-7.271 1.998 2.104 3.397 4.76 3.684 7.673.248-.148.503-.288.762-.422Z"/><path fill="#FFC0C0" d="M8.152 14.758c-.371-.394-.955-.978-1.07-1.135C5.013 10.769 3.5 6.925 4.28 3.386c1.121.218 1.987.97 2.884 1.625 2.564 1.868 3.957 4.062 4.387 7.271l.059-.02c.59-.306 1.206-.577 1.847-.809-1.001-3.434-4.26-7.354-7.552-8.717-1.707-.707-3.47-1.147-3.697 1.259-.477 5.07 4.574 10.936 5.164 11.592.248-.287.508-.563.78-.83Z"/><path fill="#F6A7A8" d="M7.974 14.07c.152.157.303.314.431.451.273-.255.552-.503.846-.737-.295-2.626-1.814-6.957-4.717-6.877.44 2.902 2.004 5.375 2.83 6.512.06.084.365.398.61.651Zm.178.688c-.27-.286-.65-.671-.883-.922.233.25.613.636.883.922ZM4.196 6.934Zm1.966 5.282-.098-.165.098.165Zm.921 1.407Zm.086.103Zm-.544-.769-.121-.188.12.188Z"/><path fill="#EA767E" d="M29.488 14.07c-.15.156-.299.31-.427.446a14.265 14.265 0 0 0-2.12-1.63l.008-.086c.234-2.576 1.363-5.054 3.272-7.194.2-.225.429-.423.67-.603L30.895 5c.658-.493 1.286-.963 2.018-1.189.735 4.148-1.707 8.081-2.815 9.608-.06.084-.365.398-.61.651Z"/><path fill="#FFDEDE" d="m25.852 12.261.058.021c.43-3.21 1.823-5.403 4.388-7.271-1.999 2.104-3.397 4.76-3.685 7.673a14.86 14.86 0 0 0-.76-.422Z"/><path fill="#FFC0C0" d="M29.31 14.758c.37-.394.955-.978 1.069-1.135 2.071-2.854 3.584-6.698 2.803-10.237-1.122.218-1.987.97-2.884 1.625-2.564 1.868-3.957 4.062-4.388 7.271l-.058-.02a15.398 15.398 0 0 0-1.848-.809c1.002-3.434 4.26-7.354 7.553-8.717 1.707-.707 3.47-1.147 3.697 1.259.476 5.07-4.574 10.936-5.164 11.592a13.833 13.833 0 0 0-.78-.83Z"/><path fill="#F6A7A8" d="M29.488 14.07c-.152.157-.303.314-.431.451a13.768 13.768 0 0 0-.846-.737c.295-2.626 1.814-6.957 4.717-6.877-.441 2.902-2.005 5.375-2.83 6.512-.06.084-.365.398-.61.651Zm-.178.688c.27-.286.65-.671.883-.922-.233.25-.614.636-.883.922Zm3.956-7.824ZM31.3 12.216l.097-.165-.098.165Zm-.921 1.407Zm-.086.103Zm.544-.769.121-.188-.12.188Z"/><path fill="#20185B" d="M111.259 35.596v3.952h-.906v-.314h-2.437v.32h-.882v-3.958h4.225Zm-.912 2.82v-2.002h-2.436v2.002h2.436Zm5.979-2.698v4.032h-.923v-.29h-3.238v-.835h3.238v-2.072h-3.191v-.835h4.114Zm-.876-1.097c.238.192.539.534.696.737l-.395.325a5.096 5.096 0 0 0-.673-.755l.372-.307Zm.986-.087c.25.186.54.493.696.72l-.388.324a4.68 4.68 0 0 0-.673-.737l.365-.307Zm3.031 2.849c-.47.308-1.224.72-1.787.986a3.478 3.478 0 0 0-.534-.678c1.48-.644 3.221-1.834 4.091-2.873l.871.639c-.036.046-.099.075-.198.07-.452.434-.98.881-1.526 1.282l.209.07c-.017.057-.075.11-.185.127v2.983h-.94v-2.606h-.001Zm2.937-1.893h3.598l.052-.034.766.534a.365.365 0 0 1-.116.093c-.545 2.17-1.515 3.174-3.29 3.882a4.627 4.627 0 0 0-.569-.737c1.521-.569 2.501-1.544 2.768-2.884h-3.209v-.853Zm4.457-.933a.622.622 0 0 1 0 1.242.621.621 0 0 1 0-1.242Zm.389.62a.389.389 0 1 0-.778.001.389.389 0 0 0 .778 0Zm5.438 1.683h-1.004v.187c0 1.259-.441 2.286-1.804 2.953a4.772 4.772 0 0 0-.65-.615c1.265-.574 1.561-1.387 1.561-2.333v-.191h-1.317v1.242h-.882V36.86h-.941v-.842h.941v-1.114l1.067.064c-.006.064-.064.14-.185.163v.888h1.317v-1.19l1.079.058c-.006.07-.064.122-.186.145v.987h1.004v.841Zm4.656 3.036a7.03 7.03 0 0 0-.273-.639 56.535 56.535 0 0 1-3.563.325c-.017.064-.069.122-.134.128l-.29-1.021c.169 0 .372-.006.592-.012a53.09 53.09 0 0 0 1.05-3.76l1.115.284c-.018.064-.093.11-.192.116-.261.934-.673 2.24-1.044 3.331a39.514 39.514 0 0 0 2.065-.156 7.697 7.697 0 0 0-.679-1.01l.749-.406c.563.661 1.155 1.688 1.479 2.39l-.875.43Z"/><path fill="#20185B" fill-rule="evenodd" d="M140.945 17.15a2.782 2.782 0 1 0-2.305-4.341 3.215 3.215 0 0 0-.573-.051h-4.192a2.953 2.953 0 0 0-2.234.996 2.676 2.676 0 0 0-.173-.191c-.628-.628-1.406-.805-2.008-.805h-4.193a3.02 3.02 0 0 0-1.57.423c-.574-.36-1.18-.423-1.549-.423h-2.269a2.95 2.95 0 0 0-1.929.689c-.111.094-.21.193-.3.295l-.031-.037c-.703-.828-1.651-.947-2.155-.947h-2.268a2.95 2.95 0 0 0-1.93.69c-.213.18-.385.38-.523.587-1.174-1.038-2.833-1.6-4.92-1.6-2.615 0-4.483.943-5.737 2.17-1.334-1.464-3.335-1.847-5.28-1.847h-4.513l-.057.003a3.094 3.094 0 0 0-1.508.465c-.595-.399-1.236-.468-1.62-.468h-2.227a2.95 2.95 0 0 0-1.93.689c-.235.2-.42.421-.564.65a5.342 5.342 0 0 0-1.123-.835c-1.062-.595-2.346-.87-3.817-.87-2.836 0-4.84 1.021-6.159 2.463-1.114-1.618-3.034-2.462-5.588-2.462-2.856 0-4.869 1.035-6.187 2.492a5.125 5.125 0 0 0-.78-.9l-.233-.35-.023.13a5.441 5.441 0 0 0-.748-.503c-1.062-.595-2.346-.87-3.817-.87-3.05 0-5.139 1.181-6.446 2.797-1.218 1.504-1.593 3.181-1.73 4l-.75 4.261h-2.207l1.3-7.422c.102-.539.135-1.494-.57-2.323-.703-.827-1.65-.947-2.154-.947h-2.268a2.95 2.95 0 0 0-1.93.689c-.607.516-.88 1.18-.99 1.732l-.006.024-2.296 13.007-.003.02c-.09.563-.07 1.46.577 2.24.658.793 1.556.975 2.157.975h8c.572 0 1.307-.148 1.945-.69.093-.08.179-.163.257-.25.204.157.425.303.664.437 1.063.594 2.347.868 3.818.868 2.856 0 4.865-1.035 6.18-2.493a5.225 5.225 0 0 0 1.79 1.624c1.062.594 2.346.867 3.817.867 2.84 0 4.841-1.022 6.157-2.467a5.227 5.227 0 0 0 1.773 1.601c1.063.594 2.347.868 3.817.868 2.236 0 3.952-.634 5.223-1.609.058.09.123.18.196.268.658.794 1.556.976 2.157.976h2.227c.517 0 1.105-.123 1.642-.47.551.371 1.157.47 1.6.47h2.268c.573 0 1.308-.148 1.945-.69.626-.532.893-1.22.987-1.795l.358-1.974c1.08-.024 2.112-.172 3.06-.499.096.845.362 1.798.968 2.684 1.143 1.671 3.112 2.578 5.765 2.578 2.914 0 4.976-1.07 6.334-2.387a5.22 5.22 0 0 0 1.759 1.58c1.062.594 2.346.868 3.817.868 2.265 0 3.997-.651 5.273-1.648.058.095.124.19.199.282.673.837 1.608 1 2.184 1h2.269a3 3 0 0 0 1.748-.542c.59.437 1.242.543 1.715.543h1.336c.571 0 1.189-.148 1.746-.53l.016-.012c.578.43 1.231.542 1.702.542h2.268a2.97 2.97 0 0 0 1.966-.715c.599-.523.87-1.193.966-1.77l2.089-11.831c.114.014.23.021.348.021Z" clip-rule="evenodd"/><path fill="url(#a)" d="M41.355 15.013c.405 0 .587.203.506.608l-1.66 9.477c-.081.385.1.608.486.608h4.516c.405 0 .587.202.506.607l-.405 2.269c-.06.404-.304.607-.709.607h-8c-.384 0-.566-.223-.505-.607l2.288-12.962c.08-.405.324-.607.709-.607h2.268Z"/><path fill="url(#b)" d="M57.234 24.633c-.243 1.337-1.154 4.921-5.954 4.921s-4.456-3.584-4.213-4.921l.892-5.063c.222-1.337 1.154-4.922 5.953-4.922 4.8 0 4.435 3.585 4.213 4.922l-.891 5.063Zm-2.795-3.99c.283-1.56.344-2.51-1.154-2.51-1.499 0-1.762.95-2.046 2.51l-.506 2.916c-.283 1.56-.344 2.511 1.154 2.511 1.498 0 1.762-.951 2.046-2.51l.506-2.917Z"/><path fill="url(#c)" d="M59.746 19.57c.223-1.337 1.154-4.922 5.954-4.922 4.253 0 4.456 2.795 4.293 4.375-.06.364-.283.587-.647.668l-2.39.506c-.405.081-.608-.1-.567-.526.08-.973-.162-1.54-1.317-1.54-1.498 0-1.762.952-2.045 2.512l-.507 2.916c-.283 1.559-.344 2.51 1.154 2.51 1.499 0 1.762-.951 1.945-1.943h-1.175c-.384 0-.567-.224-.506-.608l.283-1.62c.081-.405.345-.608.73-.608H69c.405 0 .567.203.486.608l-.466 2.734c-.243 1.336-1.154 4.921-5.954 4.921s-4.455-3.585-4.212-4.921l.89-5.063h.001Z"/><path fill="url(#d)" d="M80.768 24.633c-.242 1.337-1.154 4.921-5.954 4.921s-4.455-3.584-4.212-4.921l.891-5.063c.223-1.337 1.154-4.922 5.954-4.922s4.435 3.585 4.212 4.922l-.89 5.063Zm-2.794-3.99c.283-1.56.344-2.51-1.155-2.51-1.498 0-1.762.95-2.045 2.51l-.506 2.916c-.284 1.56-.344 2.511 1.154 2.511 1.498 0 1.762-.951 2.046-2.51l.506-2.917Z"/><path fill="url(#e)" d="M87.108 15.013c.405 0 .588.203.507.608l-2.289 12.961c-.06.385-.303.607-.709.607H82.39c-.385 0-.567-.222-.507-.607l2.289-12.961c.08-.405.324-.608.709-.608h2.227Z"/><path fill="url(#f)" d="M94.805 15.013c3.605 0 4.8 1.54 4.212 4.86-.587 3.322-2.308 4.861-5.913 4.861h-.972c-.385 0-.648.202-.709.608l-.587 3.24c-.061.405-.304.607-.709.607h-2.268c-.385 0-.567-.222-.506-.607l2.288-12.94c.061-.406.304-.608.709-.629h4.455Zm-.972 6.238c.972 0 1.478-.122 1.7-1.377.224-1.256-.242-1.377-1.214-1.377h-1.094c-.385 0-.648.202-.709.607l-.283 1.54c-.06.384.122.607.506.607h1.094Z"/><path fill="url(#g)" d="M107.322 20.036c-.426.08-.588-.102-.588-.507 0-.83-.567-1.356-1.518-1.356-.79 0-1.357.465-1.357.931 0 1.58 6.399 1.54 5.589 6.197-.101.608-1.438 4.192-6.238 4.192-4.252 0-4.657-2.794-4.495-4.374.06-.365.283-.587.648-.668l2.389-.506c.405-.081.608.1.567.526-.08.972.568 1.54 1.52 1.54.992 0 1.822-.588 1.802-1.135-.081-1.721-6.258-1.337-5.428-5.994.081-.608 1.073-4.192 5.61-4.192 4.172 0 4.678 2.713 4.536 4.171-.04.365-.263.588-.648.669l-2.389.506Z"/><path fill="url(#h)" d="M115.464 15.013c.406 0 .587.203.507.608l-1.397 7.938c-.284 1.56-.345 2.511 1.154 2.511 1.498 0 1.762-.951 2.045-2.51l1.397-7.94c.081-.404.325-.607.709-.607h2.269c.405 0 .587.203.506.608l-1.58 9.012c-.243 1.337-1.154 4.921-5.954 4.921s-4.455-3.584-4.212-4.921l1.579-9.012c.081-.405.325-.608.709-.608h2.268Z"/><path fill="url(#i)" d="M129.46 15.013c.364 0 .546.203.567.547l.385 5.893c.02.202.182.202.243 0l2.491-5.893c.141-.344.364-.547.729-.547h4.192c.405 0 .587.203.506.608l-2.288 12.961c-.061.385-.304.607-.709.607h-2.268c-.385 0-.567-.222-.507-.607l1.418-7.98c.02-.14-.162-.161-.223-.02l-3.382 8.08c-.142.345-.405.527-.77.527h-1.336c-.365 0-.547-.182-.567-.526l-.547-8.08c-.02-.142-.203-.122-.223.02l-1.418 7.979c-.061.385-.303.607-.708.607h-2.269c-.405 0-.567-.222-.506-.607l2.288-12.961c.081-.405.304-.608.709-.608h4.193Z"/><path fill="url(#j)" d="M141.992 14.368a1.047 1.047 0 1 1-2.095 0 1.047 1.047 0 0 1 2.095 0Z"/><defs><linearGradient id="a" x1="89.035" x2="90.775" y1="13.32" y2="30.285" gradientUnits="userSpaceOnUse"><stop stop-color="#FFD4D4"/><stop offset=".501" stop-color="#FFD4D4"/><stop offset=".501" stop-color="#F6A7A8"/></linearGradient><linearGradient id="b" x1="89.035" x2="90.775" y1="13.32" y2="30.285" gradientUnits="userSpaceOnUse"><stop stop-color="#FFD4D4"/><stop offset=".501" stop-color="#FFD4D4"/><stop offset=".501" stop-color="#F6A7A8"/></linearGradient><linearGradient id="c" x1="89.035" x2="90.775" y1="13.32" y2="30.285" gradientUnits="userSpaceOnUse"><stop stop-color="#FFD4D4"/><stop offset=".501" stop-color="#FFD4D4"/><stop offset=".501" stop-color="#F6A7A8"/></linearGradient><linearGradient id="d" x1="89.035" x2="90.775" y1="13.32" y2="30.285" gradientUnits="userSpaceOnUse"><stop stop-color="#FFD4D4"/><stop offset=".501" stop-color="#FFD4D4"/><stop offset=".501" stop-color="#F6A7A8"/></linearGradient><linearGradient id="e" x1="89.035" x2="90.775" y1="13.32" y2="30.285" gradientUnits="userSpaceOnUse"><stop stop-color="#FFD4D4"/><stop offset=".501" stop-color="#FFD4D4"/><stop offset=".501" stop-color="#F6A7A8"/></linearGradient><linearGradient id="f" x1="89.035" x2="90.775" y1="13.32" y2="30.285" gradientUnits="userSpaceOnUse"><stop stop-color="#FFD4D4"/><stop offset=".501" stop-color="#FFD4D4"/><stop offset=".501" stop-color="#F6A7A8"/></linearGradient><linearGradient id="g" x1="89.035" x2="90.775" y1="13.32" y2="30.285" gradientUnits="userSpaceOnUse"><stop stop-color="#FFD4D4"/><stop offset=".501" stop-color="#FFD4D4"/><stop offset=".501" stop-color="#F6A7A8"/></linearGradient><linearGradient id="h" x1="89.035" x2="90.775" y1="13.32" y2="30.285" gradientUnits="userSpaceOnUse"><stop stop-color="#FFD4D4"/><stop offset=".501" stop-color="#FFD4D4"/><stop offset=".501" stop-color="#F6A7A8"/></linearGradient><linearGradient id="i" x1="89.035" x2="90.775" y1="13.32" y2="30.285" gradientUnits="userSpaceOnUse"><stop stop-color="#FFD4D4"/><stop offset=".501" stop-color="#FFD4D4"/><stop offset=".501" stop-color="#F6A7A8"/></linearGradient><linearGradient id="j" x1="89.035" x2="90.775" y1="13.32" y2="30.285" gradientUnits="userSpaceOnUse"><stop stop-color="#FFD4D4"/><stop offset=".501" stop-color="#FFD4D4"/><stop offset=".501" stop-color="#F6A7A8"/></linearGradient></defs></svg>