<svg xmlns="http://www.w3.org/2000/svg" fill="none" viewBox="0 0 415 109"><path fill="#E22935" fill-rule="evenodd" d="M63.579 23.258c-3.743 0-7.449.736-10.907 2.164a28.504 28.504 0 0 0-9.246 6.16 28.416 28.416 0 0 0-6.178 9.221 28.354 28.354 0 0 0-2.142 9.64 2.089 2.089 0 0 1-1.135 1.789l-9.184 4.58a1.915 1.915 0 0 0-1.081 1.789c.145 3.31.869 6.572 2.142 9.639a28.416 28.416 0 0 0 6.178 9.22 28.504 28.504 0 0 0 9.246 6.161 28.569 28.569 0 0 0 21.813 0 28.503 28.503 0 0 0 9.246-6.16 28.416 28.416 0 0 0 6.178-9.221 28.354 28.354 0 0 0 2.143-9.64c.033-.757.456-1.45 1.135-1.788l9.184-4.58c.679-.339 1.114-1.032 1.08-1.79a28.354 28.354 0 0 0-2.142-9.639 28.416 28.416 0 0 0-6.178-9.22 28.503 28.503 0 0 0-9.246-6.161 28.569 28.569 0 0 0-10.906-2.164Zm13.165 22.983a14.13 14.13 0 0 1 1.03 4.203c.067.755-.374 1.45-1.053 1.788l-9.184 4.58c-.68.338-1.096 1.032-1.162 1.788a14.178 14.178 0 0 1-4.12 8.812 14.283 14.283 0 0 1-20.153 0 14.21 14.21 0 0 1-4.12-8.812c-.065-.756.376-1.45 1.054-1.788l9.185-4.58c.679-.339 1.096-1.033 1.162-1.788a14.178 14.178 0 0 1 4.12-8.813 14.283 14.283 0 0 1 20.153 0 14.209 14.209 0 0 1 3.088 4.61Z" clip-rule="evenodd"/><path fill="#E22935" fill-rule="evenodd" d="M63.579.522a51.424 51.424 0 0 0-19.632 3.894 51.311 51.311 0 0 0-16.643 11.09 51.15 51.15 0 0 0-11.12 16.596 51.037 51.037 0 0 0-3.89 18.34 2.048 2.048 0 0 1-1.123 1.79l-9.185 4.58a1.954 1.954 0 0 0-1.092 1.79 51.037 51.037 0 0 0 3.89 18.339 51.148 51.148 0 0 0 11.12 16.597 51.294 51.294 0 0 0 16.643 11.089 51.423 51.423 0 0 0 39.264 0 51.295 51.295 0 0 0 16.642-11.09 51.147 51.147 0 0 0 11.12-16.596 51.033 51.033 0 0 0 3.891-18.34 2.048 2.048 0 0 1 1.122-1.79l9.185-4.58a1.954 1.954 0 0 0 1.093-1.789 51.035 51.035 0 0 0-3.89-18.34 51.151 51.151 0 0 0-11.12-16.597A51.311 51.311 0 0 0 83.21 4.415 51.424 51.424 0 0 0 63.579.523Zm25.63 58.08a2.068 2.068 0 0 1 1.127-1.79l9.185-4.58a1.935 1.935 0 0 0 1.087-1.79 36.863 36.863 0 0 0-2.8-12.902 36.939 36.939 0 0 0-8.03-11.986 37.057 37.057 0 0 0-12.02-8.01 37.139 37.139 0 0 0-28.357 0 37.057 37.057 0 0 0-12.02 8.01 36.939 36.939 0 0 0-8.032 11.986 36.859 36.859 0 0 0-2.8 12.902 2.067 2.067 0 0 1-1.128 1.79l-9.184 4.58a1.936 1.936 0 0 0-1.087 1.79 36.86 36.86 0 0 0 2.8 12.9 36.94 36.94 0 0 0 8.03 11.987A37.057 37.057 0 0 0 38 91.5a37.139 37.139 0 0 0 28.357 0 37.057 37.057 0 0 0 12.02-8.01 36.942 36.942 0 0 0 8.032-11.986 36.86 36.86 0 0 0 2.8-12.902Z" clip-rule="evenodd"/><path fill="#370808" d="M266.742 17.35c-1.519 0-2.803-.525-3.853-1.575-1.05-1.05-1.575-2.325-1.575-3.825 0-1.538.525-2.822 1.575-3.853 1.05-1.05 2.334-1.575 3.853-1.575 1.519 0 2.794.525 3.825 1.575 1.05 1.03 1.575 2.315 1.575 3.853 0 1.5-.525 2.775-1.575 3.825-1.031 1.05-2.306 1.575-3.825 1.575Zm-4.472 33.722V20.809h8.888v30.263h-8.888Z"/><path fill="#370808" fill-rule="evenodd" d="M276.172 59.976V20.809h8.437v3.01h.11a13.726 13.726 0 0 1 1.718-1.435c1.988-1.387 4.275-2.081 6.863-2.081 2.269 0 4.434.59 6.497 1.772 2.081 1.181 3.768 2.934 5.062 5.26 1.294 2.324 1.922 5.221 1.885 8.69.018 2.625-.347 4.912-1.097 6.862-.75 1.931-1.763 3.535-3.038 4.81-1.275 1.275-2.7 2.23-4.275 2.868-1.575.638-3.169.957-4.781.957-2.55 0-4.838-.713-6.863-2.138a14.608 14.608 0 0 1-1.449-1.181h-.182v6.694l-8.887 5.079Zm15.3-15.88c1.312-.018 2.465-.365 3.459-1.04.994-.675 1.772-1.631 2.334-2.869.563-1.237.835-2.681.816-4.331.019-1.688-.262-3.131-.844-4.331-.562-1.219-1.359-2.147-2.39-2.785-1.032-.656-2.213-.975-3.544-.956-1.256-.019-2.381.29-3.375.928-.994.638-1.781 1.566-2.363 2.785-.581 1.2-.871 2.653-.871 4.359 0 1.65.29 3.094.871 4.331.6 1.238 1.407 2.194 2.419 2.869 1.013.675 2.175 1.022 3.488 1.04Z" clip-rule="evenodd"/><path fill="#370808" d="M320.476 51.522c-1.8 0-3.525-.31-5.175-.929a13.72 13.72 0 0 1-4.331-2.615 11.225 11.225 0 0 1-2.84-3.994l6.975-3.066c.468.882 1.171 1.716 2.109 2.504.937.787 2.044 1.18 3.319 1.18.675 0 1.265-.112 1.772-.337.506-.243.9-.553 1.181-.928.3-.375.45-.778.45-1.21 0-.543-.216-1.012-.647-1.405-.431-.394-.984-.732-1.659-1.013a17.884 17.884 0 0 0-2.138-.731c-.731-.206-1.406-.394-2.025-.563a18.562 18.562 0 0 1-4.05-1.772 9.745 9.745 0 0 1-3.066-2.925c-.787-1.18-1.181-2.615-1.181-4.303 0-1.78.46-3.347 1.378-4.697.938-1.368 2.203-2.437 3.797-3.206 1.613-.769 3.45-1.153 5.513-1.153 2.568 0 4.875.59 6.918 1.772 2.063 1.181 3.525 2.747 4.388 4.697l-6.834 2.953c-.357-.6-.882-1.181-1.575-1.744-.675-.562-1.538-.844-2.588-.844-.881 0-1.612.225-2.194.675-.581.45-.872 1.013-.872 1.688s.291 1.219.872 1.631c.582.413 1.322.769 2.222 1.069.9.3 1.838.59 2.813.872.75.206 1.622.506 2.615.9.994.375 1.96.89 2.897 1.547a8.052 8.052 0 0 1 2.363 2.53c.637 1.032.956 2.298.956 3.798 0 1.894-.525 3.572-1.575 5.034-1.031 1.444-2.409 2.569-4.134 3.375-1.707.806-3.591 1.21-5.654 1.21Zm47.491-.45V20.809h8.466v3.853h.155a10.986 10.986 0 0 1 2.235-2.334c1.688-1.313 3.685-1.969 5.991-1.969 1.913 0 3.534.469 4.866 1.406 1.027.7 1.864 1.637 2.511 2.813h.159a10.283 10.283 0 0 1 3.489-2.869c1.781-.9 3.722-1.35 5.822-1.35 2.006 0 3.656.356 4.95 1.069 1.294.694 2.306 1.612 3.037 2.756a11.2 11.2 0 0 1 1.547 3.713c.3 1.33.45 2.625.45 3.88v19.295h-8.943V32.875c0-1.65-.347-2.916-1.041-3.797-.675-.9-1.669-1.35-2.981-1.35-.863 0-1.632.197-2.307.59-.656.375-1.181.947-1.575 1.716-.375.769-.562 1.716-.562 2.84v18.198h-8.888V32.875c0-1.65-.346-2.916-1.04-3.797-.694-.9-1.697-1.35-3.01-1.35-1.275 0-2.334.44-3.178 1.322-.843.862-1.265 2.156-1.265 3.88v18.142h-8.888Zm-27.43-.872c1.707.881 3.6 1.322 5.682 1.322 2.456 0 4.631-.6 6.525-1.8.958-.617 1.83-1.32 2.615-2.11h.226a4.75 4.75 0 0 0 1.181 1.631c1.031.938 2.662 1.697 4.893 2.279l3.15-7.425c-.975-.357-1.622-.779-1.94-1.266-.319-.488-.478-1.275-.478-2.363V20.81h-8.888v17.83c0 1.107-.216 2.063-.647 2.87a4.43 4.43 0 0 1-1.744 1.827c-.731.431-1.584.647-2.559.647-1.312 0-2.428-.45-3.347-1.35-.9-.919-1.35-2.25-1.35-3.994V20.81h-8.887v19.012c0 2.55.497 4.697 1.49 6.44 1.013 1.725 2.372 3.038 4.078 3.938Z"/><path fill="#370808" fill-rule="evenodd" d="M243.025 51.522c-2.907 0-5.56-.666-7.96-1.997a15.339 15.339 0 0 1-5.709-5.513c-1.406-2.344-2.109-5.044-2.109-8.1s.703-5.756 2.109-8.1c1.425-2.344 3.328-4.172 5.709-5.484 2.4-1.313 5.053-1.969 7.96-1.969 2.962 0 5.634.656 8.015 1.969a14.698 14.698 0 0 1 5.653 5.484c1.407 2.344 2.11 5.044 2.11 8.1s-.703 5.756-2.11 8.1c-1.387 2.344-3.281 4.181-5.681 5.513-2.381 1.33-5.044 1.997-7.987 1.997Zm0-7.594c1.387 0 2.634-.338 3.74-1.013 1.107-.675 1.978-1.612 2.616-2.812.637-1.2.956-2.597.956-4.19 0-1.538-.309-2.907-.928-4.107-.619-1.2-1.472-2.138-2.559-2.813-1.088-.693-2.344-1.04-3.769-1.04-1.406 0-2.672.337-3.797 1.012-1.106.657-1.978 1.585-2.616 2.785-.637 1.2-.956 2.587-.956 4.162 0 1.594.319 2.99.956 4.19.657 1.2 1.538 2.138 2.644 2.813 1.106.675 2.344 1.013 3.713 1.013Zm-35.164 19.406c-2.513 0-4.819-.31-6.919-.928-2.081-.6-3.722-1.219-4.922-1.856l2.925-6.975c1.05.637 2.269 1.181 3.656 1.631a13.43 13.43 0 0 0 4.275.703c1.238 0 2.522-.206 3.853-.619 1.332-.412 2.466-1.068 3.403-1.968.938-.882 1.407-2.044 1.407-3.488V46.91h-.135c-.55.543-1.143 1.04-1.778 1.49-2.006 1.407-4.294 2.11-6.862 2.11-1.594 0-3.178-.3-4.753-.9-1.575-.619-3.01-1.547-4.304-2.784-1.275-1.257-2.296-2.822-3.065-4.697-.769-1.875-1.153-4.078-1.153-6.61 0-3.374.656-6.178 1.968-8.409 1.332-2.25 3.038-3.937 5.119-5.062 2.081-1.144 4.247-1.716 6.497-1.716 2.606 0 4.884.666 6.834 1.997.626.423 1.208.892 1.745 1.406h.168v-2.953h8.072v28.547c0 2.306-.394 4.331-1.181 6.075a11.939 11.939 0 0 1-3.347 4.387c-1.425 1.182-3.113 2.063-5.063 2.644-1.95.6-4.097.9-6.44.9Zm1.096-20.053c1.35 0 2.541-.337 3.572-1.012 1.032-.675 1.847-1.613 2.447-2.813.6-1.219.9-2.625.9-4.219 0-1.612-.29-2.99-.872-4.134-.581-1.163-1.378-2.053-2.39-2.672-1.013-.619-2.185-.928-3.516-.928s-2.522.319-3.572.956c-1.05.619-1.875 1.51-2.475 2.672-.581 1.163-.872 2.531-.872 4.106 0 1.575.291 2.972.872 4.19.581 1.2 1.378 2.148 2.391 2.842 1.012.675 2.184 1.012 3.515 1.012Zm-33.504 8.241c-2.907 0-5.56-.666-7.96-1.997a15.339 15.339 0 0 1-5.709-5.513c-1.406-2.344-2.109-5.044-2.109-8.1s.703-5.756 2.109-8.1c1.425-2.344 3.328-4.172 5.709-5.484 2.4-1.313 5.053-1.969 7.96-1.969 2.962 0 5.634.656 8.015 1.969a14.698 14.698 0 0 1 5.653 5.484c1.407 2.344 2.11 5.044 2.11 8.1s-.703 5.756-2.11 8.1c-1.387 2.344-3.281 4.181-5.681 5.513-2.381 1.33-5.044 1.997-7.987 1.997Zm0-7.594c1.387 0 2.634-.338 3.74-1.013 1.107-.675 1.978-1.612 2.616-2.812.637-1.2.956-2.597.956-4.19 0-1.538-.309-2.907-.928-4.107-.619-1.2-1.472-2.138-2.559-2.813-1.088-.693-2.344-1.04-3.769-1.04-1.406 0-2.672.337-3.797 1.012-1.106.657-1.978 1.585-2.616 2.785-.637 1.2-.956 2.587-.956 4.162 0 1.594.319 2.99.956 4.19.657 1.2 1.538 2.138 2.644 2.813 1.106.675 2.344 1.013 3.713 1.013Z" clip-rule="evenodd"/><path fill="#370808" d="M135.648 51.072V9.615h9.225V42.86h14.934v8.213h-24.159Z"/><path fill="#AAA" fill-rule="evenodd" d="M276.184 65.97v8.314h-.253c-.367-.32-.751-.62-1.154-.9-1.968-1.387-4.237-2.081-6.806-2.081-2.269 0-4.444.59-6.525 1.772-2.081 1.181-3.769 2.934-5.062 5.26-1.294 2.324-1.913 5.221-1.857 8.69-.037 2.625.319 4.912 1.069 6.862.75 1.931 1.763 3.535 3.038 4.81 1.275 1.275 2.7 2.231 4.275 2.868 1.575.638 3.168.957 4.781.957 2.55 0 4.837-.713 6.862-2.138a14.464 14.464 0 0 0 2.727-2.531h.277a5.16 5.16 0 0 0 .962 1.547c.581.618 1.35 1.19 2.306 1.715.975.507 2.157.975 3.544 1.407l3.122-7.425c-.863-.32-1.481-.703-1.856-1.153-.375-.45-.563-1.229-.563-2.335V60.891l-8.887 5.078Zm-2.925 28.086c-1.013.675-2.175 1.022-3.488 1.04-1.294-.018-2.447-.365-3.459-1.04-1.013-.675-1.8-1.631-2.363-2.869-.543-1.237-.806-2.681-.787-4.331-.019-1.688.262-3.131.844-4.331.581-1.219 1.378-2.147 2.39-2.785 1.031-.656 2.213-.975 3.544-.956 1.256-.019 2.381.29 3.375.928.994.638 1.781 1.566 2.362 2.785.582 1.2.882 2.653.9 4.359-.018 1.65-.318 3.094-.9 4.331-.581 1.238-1.387 2.194-2.418 2.869Z" clip-rule="evenodd"/><path fill="#AAA" d="M386.512 102.072V71.809h8.607v3.966h.135c.238-.359.503-.696.793-1.013a9.985 9.985 0 0 1 3.769-2.531c1.462-.581 3.028-.872 4.696-.872 2.025 0 3.769.469 5.232 1.406 1.462.938 2.587 2.222 3.375 3.853.787 1.632 1.181 3.516 1.181 5.654v19.8h-8.888v-17.86c0-1.819-.431-3.178-1.293-4.078-.863-.919-2.035-1.378-3.516-1.378-.975 0-1.856.216-2.644.647-.787.412-1.415 1.031-1.884 1.856-.45.806-.675 1.819-.675 3.038v17.775h-8.888Z"/><path fill="#AAA" fill-rule="evenodd" d="M368.244 102.522c-2.907 0-5.56-.666-7.96-1.997a15.34 15.34 0 0 1-5.709-5.513c-1.406-2.344-2.11-5.043-2.11-8.1 0-3.056.704-5.756 2.11-8.1 1.425-2.343 3.328-4.172 5.709-5.484 2.4-1.313 5.053-1.969 7.96-1.969 2.962 0 5.634.656 8.015 1.969a14.706 14.706 0 0 1 5.653 5.484c1.407 2.344 2.11 5.044 2.11 8.1s-.703 5.756-2.11 8.1c-1.387 2.344-3.281 4.181-5.681 5.513-2.381 1.331-5.044 1.997-7.987 1.997Zm0-7.594c1.387 0 2.634-.338 3.74-1.013 1.106-.675 1.978-1.612 2.616-2.812.637-1.2.956-2.597.956-4.19 0-1.538-.309-2.907-.928-4.107-.619-1.2-1.472-2.138-2.559-2.813-1.088-.693-2.344-1.04-3.769-1.04-1.406 0-2.672.337-3.797 1.012-1.106.657-1.978 1.585-2.616 2.785-.637 1.2-.956 2.587-.956 4.162 0 1.594.319 2.99.956 4.19.657 1.2 1.538 2.138 2.644 2.813 1.106.675 2.344 1.013 3.713 1.013Z" clip-rule="evenodd"/><path fill="#AAA" d="M340.975 102.072V71.809h8.887v30.263h-8.887Zm.618-35.297c1.05 1.05 2.335 1.575 3.854 1.575 1.518 0 2.793-.525 3.825-1.575 1.05-1.05 1.575-2.325 1.575-3.825 0-1.538-.525-2.822-1.575-3.853-1.032-1.05-2.307-1.575-3.825-1.575-1.519 0-2.804.525-3.854 1.575-1.05 1.03-1.575 2.315-1.575 3.853 0 1.5.525 2.775 1.575 3.825Zm-16.947 32.653c1.819 2.062 4.594 3.094 8.325 3.094 1.144 0 2.269-.104 3.375-.31 1.125-.206 2.11-.515 2.954-.928l-2.869-7.003a5.37 5.37 0 0 1-1.097.422 4.79 4.79 0 0 1-1.266.169c-.918 0-1.697-.282-2.334-.844-.619-.581-.928-1.519-.928-2.813V79.178h7.003v-7.369h-7.003V63.09h-8.888v8.72h-5.062v7.368h5.062V91.44c0 3.244.91 5.907 2.728 7.988Z"/><path fill="#AAA" fill-rule="evenodd" d="M293.609 101.284c1.556.825 3.356 1.238 5.4 1.238 2.362 0 4.444-.469 6.244-1.407 1.455-.75 2.52-1.584 3.195-2.503h.137c.263.45.614.9 1.055 1.35.881.9 2.194 1.641 3.938 2.222l1.04.338 3.122-7.425-.675-.225c-.656-.207-1.116-.572-1.378-1.097-.244-.544-.366-1.332-.366-2.363V82.3c0-1.088-.131-2.26-.393-3.516-.244-1.275-.769-2.466-1.575-3.572-.807-1.125-2.044-2.044-3.713-2.756-1.669-.731-3.919-1.097-6.75-1.097-1.819 0-3.525.15-5.119.45-1.575.281-2.981.638-4.218 1.069-1.219.431-2.204.862-2.954 1.294l2.954 6.693c.693-.45 1.518-.843 2.475-1.18.956-.357 1.95-.629 2.981-.817a14.81 14.81 0 0 1 2.897-.309c.787 0 1.49.094 2.109.281.619.17 1.144.422 1.575.76.431.337.75.75.956 1.237.225.469.338.994.338 1.575v1.519h-5.71c-2.625 0-4.875.403-6.75 1.21-1.856.806-3.281 1.912-4.275 3.318-.975 1.406-1.462 3.019-1.462 4.838 0 1.725.431 3.28 1.294 4.668.881 1.388 2.09 2.494 3.628 3.319Zm8.634-11.784h5.063v1.884c0 1.106-.357 1.988-1.069 2.644a6.015 6.015 0 0 1-2.475 1.406c-.956.281-1.791.422-2.503.422-.769 0-1.463-.122-2.081-.366-.6-.262-1.069-.618-1.407-1.068-.337-.47-.506-1.032-.506-1.688 0-1.106.422-1.922 1.266-2.447.862-.525 2.1-.787 3.712-.787Z" clip-rule="evenodd"/><path fill="#AAA" d="M224.699 102.072V71.809h8.606v3.966h.136a8.17 8.17 0 0 1 .793-1.013 9.99 9.99 0 0 1 3.768-2.531c1.463-.581 3.028-.872 4.697-.872 2.025 0 3.769.469 5.231 1.406 1.463.938 2.588 2.222 3.375 3.853.788 1.632 1.182 3.516 1.182 5.654v19.8h-8.888v-17.86c0-1.819-.431-3.178-1.294-4.078-.862-.919-2.034-1.378-3.515-1.378-.975 0-1.856.216-2.644.647-.787.412-1.416 1.031-1.884 1.856-.45.806-.675 1.819-.675 3.038v17.775h-8.888Zm-20.912.45c-2.082 0-3.975-.441-5.682-1.322-1.706-.9-3.065-2.213-4.078-3.938-.994-1.743-1.49-3.89-1.49-6.44V71.809h8.887V89.64c0 1.744.45 3.075 1.35 3.994.919.9 2.034 1.35 3.347 1.35.975 0 1.828-.215 2.559-.647a4.43 4.43 0 0 0 1.744-1.828c.431-.806.647-1.762.647-2.869V71.81h8.887v19.659c0 1.087.16 1.875.479 2.362.318.487.965.91 1.94 1.266l-3.15 7.425c-2.231-.582-3.862-1.341-4.894-2.279a4.74 4.74 0 0 1-1.18-1.63h-.226a15.534 15.534 0 0 1-2.615 2.109c-1.894 1.2-4.069 1.8-6.525 1.8Z"/><path fill="#AAA" fill-rule="evenodd" d="M174.465 102.522c-2.907 0-5.56-.666-7.96-1.997a15.34 15.34 0 0 1-5.709-5.513c-1.406-2.344-2.11-5.043-2.11-8.1 0-3.056.704-5.756 2.11-8.1 1.425-2.343 3.328-4.172 5.709-5.484 2.4-1.313 5.053-1.969 7.96-1.969 2.962 0 5.634.656 8.015 1.969a14.706 14.706 0 0 1 5.653 5.484c1.407 2.344 2.11 5.044 2.11 8.1s-.703 5.756-2.11 8.1c-1.387 2.344-3.281 4.181-5.681 5.513-2.381 1.331-5.044 1.997-7.987 1.997Zm0-7.594c1.387 0 2.634-.338 3.74-1.013 1.106-.675 1.978-1.612 2.616-2.812.637-1.2.956-2.597.956-4.19 0-1.538-.309-2.907-.928-4.107-.619-1.2-1.472-2.138-2.559-2.813-1.088-.693-2.344-1.04-3.769-1.04-1.406 0-2.672.337-3.797 1.012-1.106.657-1.978 1.585-2.616 2.785-.637 1.2-.956 2.587-.956 4.162 0 1.594.319 2.99.956 4.19.657 1.2 1.538 2.138 2.644 2.813 1.106.675 2.344 1.013 3.713 1.013Z" clip-rule="evenodd"/><path fill="#AAA" d="M135.58 102.072V60.615h24.159v8.213h-14.934v9.534h12.431v8.213h-12.431v15.497h-9.225Z"/><path fill="#FF6670" d="M114.864 50.522h-14.255a1.94 1.94 0 0 1-1.087 1.71l-9.185 4.58a2.064 2.064 0 0 0-1.125 1.71h14.255a2.048 2.048 0 0 1 1.12-1.71l9.185-4.58a1.956 1.956 0 0 0 1.092-1.71Zm-113.97 8h14.255a1.94 1.94 0 0 1 1.088-1.71l9.185-4.58a2.064 2.064 0 0 0 1.124-1.71H12.29a2.046 2.046 0 0 1-1.12 1.71l-9.184 4.58a1.956 1.956 0 0 0-1.093 1.71Zm34.207-8a2.084 2.084 0 0 1-1.13 1.71l-9.184 4.58a1.922 1.922 0 0 0-1.083 1.71h14.274c-.03-.725.403-1.384 1.059-1.71l9.184-4.58c.656-.327 1.067-.986 1.154-1.71H35.101Zm42.679 0c.03.724-.403 1.383-1.058 1.71l-9.185 4.58c-.656.326-1.067.985-1.154 1.71h14.274a2.084 2.084 0 0 1 1.13-1.71l9.184-4.58a1.922 1.922 0 0 0 1.083-1.71H77.78Z"/></svg>