<svg xmlns="http://www.w3.org/2000/svg" viewBox="0 0 500 500"><ellipse cx="253.04" cy="335.01" fill="#f5f5f5" rx="233.2" ry="134.64"/><g fill="#e0e0e0"><ellipse cx="321.15" cy="262.37" rx="34.19" ry="19.74"/><path d="M373.94 285.12 441 323.83a6.67 6.67 0 0 0 6.06 0l10.18-5.83c1.68-1 1.68-2.53 0-3.5l-67.05-38.71a6.67 6.67 0 0 0-6.06 0l-10.19 5.88c-1.67.91-1.67 2.48 0 3.45ZM156.65 399.15l92.68 53.51a9.15 9.15 0 0 0 8.28 0l147-84.89c2.28-1.32 2.28-3.46 0-4.78L312 309.48a9.15 9.15 0 0 0-8.28 0l-147 84.89c-2.35 1.32-2.35 3.46-.07 4.78Zm-16.09-59.53-18.91-10.91a9.13 9.13 0 0 0-8.27 0l-61.62 35.57a9.15 9.15 0 0 1-8.28 0l-7.25-4.19c-2.29-1.32-2.29-3.46 0-4.78l193.63-111.79a9.15 9.15 0 0 1 8.28 0l7.25 4.19c2.29 1.32 2.29 3.46 0 4.78l-61.61 35.57c-2.29 1.32-2.29 3.46 0 4.78l18.9 10.91c2.29 1.32 2.29 3.46 0 4.78l-53.85 31.09a9.13 9.13 0 0 1-8.27 0Z"/></g><path fill="#061d44" d="m162.47 389.06 88.81 51.27a4.88 4.88 0 0 0 4.39 0l143.17-82.65a1.34 1.34 0 0 0 0-2.53L310 303.88a4.85 4.85 0 0 0-4.39 0l-143.14 82.65a1.34 1.34 0 0 0 0 2.53Zm132.17-75.2a3 3 0 0 1 3.16.35l83.33 48.1a1.14 1.14 0 0 1 0 2.17L267.28 430.2a4.15 4.15 0 0 1-3.76 0l-83.34-48.1a1.14 1.14 0 0 1 0-2.17Z"/><path d="m162.47 389.06 88.81 51.27a4.88 4.88 0 0 0 4.39 0l143.17-82.65a1.34 1.34 0 0 0 0-2.53L310 303.88a4.85 4.85 0 0 0-4.39 0l-143.14 82.65a1.34 1.34 0 0 0 0 2.53Zm132.17-75.2a3 3 0 0 1 3.16.35l83.33 48.1a1.14 1.14 0 0 1 0 2.17L267.28 430.2a4.15 4.15 0 0 1-3.76 0l-83.34-48.1a1.14 1.14 0 0 1 0-2.17Z" opacity=".35"/><path fill="#e6e6e6" d="M213.94 414.61a8.68 8.68 0 0 1-4.25-1 2.93 2.93 0 0 1 0-5.48 9.26 9.26 0 0 1 8.51 0 2.93 2.93 0 0 1 0 5.48 8.69 8.69 0 0 1-4.26 1Zm0-6.54a7.78 7.78 0 0 0-3.75.89 2 2 0 0 0 0 3.76 8.35 8.35 0 0 0 7.51 0 2 2 0 0 0 0-3.76 7.79 7.79 0 0 0-3.76-.89Z"/><path fill="#061d44" d="M399.1 355.31a4.92 4.92 0 0 1 1.94 3.63v2.9a4.87 4.87 0 0 1-2.2 3.81l-143.16 82.64a4 4 0 0 1-1.61.49 3.81 3.81 0 0 1-.59 0v-8a5.26 5.26 0 0 0 .89-.07 3.91 3.91 0 0 0 1.31-.45l143.17-82.65c1.15-.61 1.2-1.61.25-2.3Z"/><path d="M399.1 355.31a4.92 4.92 0 0 1 1.94 3.63v2.9a4.87 4.87 0 0 1-2.2 3.81l-143.16 82.64a4 4 0 0 1-1.61.49 3.81 3.81 0 0 1-.59 0v-8a5.26 5.26 0 0 0 .89-.07 3.91 3.91 0 0 0 1.31-.45l143.17-82.65c1.15-.61 1.2-1.61.25-2.3Z" opacity=".55"/><path fill="#061d44" d="M294.64 313.86a3 3 0 0 1 3.16.35l83.33 48.1a1.14 1.14 0 0 1 0 2.17L267.28 430.2a4.15 4.15 0 0 1-3.76 0l-83.34-48.1a1.14 1.14 0 0 1 0-2.17Z"/><path fill="#fff" d="M294.64 313.86a3 3 0 0 1 3.16.35l83.33 48.1a1.14 1.14 0 0 1 0 2.17L267.28 430.2a4.15 4.15 0 0 1-3.76 0l-83.34-48.1a1.14 1.14 0 0 1 0-2.17Z"/><path fill="#061d44" d="M162.18 386.72c-.91.71-.81 1.71.29 2.34l88.81 51.27a4.47 4.47 0 0 0 2.2.52v8a4.44 4.44 0 0 1-2.19-.53L162.47 397a4.82 4.82 0 0 1-2.19-3.8v-2.9a5 5 0 0 1 1.9-3.58Z"/><path d="M162.18 386.72c-.91.71-.81 1.71.29 2.34l88.81 51.27a4.47 4.47 0 0 0 2.2.52v8a4.44 4.44 0 0 1-2.19-.53L162.47 397a4.82 4.82 0 0 1-2.19-3.8v-2.9a5 5 0 0 1 1.9-3.58Z" opacity=".45"/><path fill="#263238" d="M348.63 333.13a1.48 1.48 0 0 0 1.33 0c.37-.21.37-.55 0-.77a1.48 1.48 0 0 0-1.33 0c-.37.22-.37.56 0 .77Zm2.13 6.04a3 3 0 0 0 2.66 0 .82.82 0 0 0 0-1.54 3 3 0 0 0-2.66 0c-.76.42-.76 1.11 0 1.54Zm-1.88-2.68c.49-.28.46-.75-.06-1.06l-8.76-5.05a2 2 0 0 0-1.83 0c-.49.28-.46.75.06 1l8.76 5.06a2 2 0 0 0 1.83.05Z"/><path fill="#fff" d="m253.47 342.96 77.66 44.84-31.07 17.93-77.65-44.83 31.06-17.94z"/><path fill="#061d44" d="M280.63 329c-2.15 1.24-2.15 3.25 0 4.48a8.56 8.56 0 0 0 7.76 0c2.15-1.23 2.15-3.24 0-4.48a8.56 8.56 0 0 0-7.76 0Z"/><path fill="#fff" d="M285.39 331.11a.69.69 0 0 0 0 1.31 2.5 2.5 0 0 0 2.26 0 .69.69 0 0 0 0-1.31 2.5 2.5 0 0 0-2.26 0Z"/><path fill="#455a64" d="M294.39 339.82a.13.13 0 0 1 .07.14.27.27 0 0 1-.15.17l-.79.45a.62.62 0 0 1-.28.09.55.55 0 0 1-.24 0l-3.67-2.12a.12.12 0 0 1-.07-.14.32.32 0 0 1 .15-.16l7.2-4.16a.51.51 0 0 1 .28-.08.39.39 0 0 1 .25 0l.67.39a.12.12 0 0 1 .08.14.32.32 0 0 1-.15.16l-6.11 3.53Zm7.38-.95a1.72 1.72 0 0 1 .65.59.94.94 0 0 1 .11.67 1.55 1.55 0 0 1-.34.71 3.44 3.44 0 0 1-.77.66l-.25.15-.31.18-.31.18-.26.14a6.36 6.36 0 0 1-1.15.44 5.57 5.57 0 0 1-1.2.2 5 5 0 0 1-1.17-.07 3.45 3.45 0 0 1-1-.37 1.76 1.76 0 0 1-.64-.59 1.07 1.07 0 0 1-.13-.67 1.49 1.49 0 0 1 .35-.7 3.74 3.74 0 0 1 .77-.67l.23-.15.31-.18a3.07 3.07 0 0 1 .31-.17l.27-.15a6.09 6.09 0 0 1 1.15-.44 5.66 5.66 0 0 1 1.21-.2 5 5 0 0 1 1.17.07 3 3 0 0 1 1 .37Zm-1.49 2a1.66 1.66 0 0 0 .45-.4.51.51 0 0 0 .12-.35.39.39 0 0 0-.12-.28 1.73 1.73 0 0 0-.29-.23 3 3 0 0 0-.4-.17 1.81 1.81 0 0 0-.49-.07 2.58 2.58 0 0 0-.6.07 3.37 3.37 0 0 0-.7.26l-.23.13-.29.15-.28.17-.2.13a1.68 1.68 0 0 0-.45.41.58.58 0 0 0-.13.34.48.48 0 0 0 .13.29 1.11 1.11 0 0 0 .29.22 1.71 1.71 0 0 0 .39.17 1.87 1.87 0 0 0 .5.08 2.26 2.26 0 0 0 .6-.08 3 3 0 0 0 .69-.26 1.29 1.29 0 0 0 .23-.12l.28-.16.28-.16Zm5.14 1.78a1.69 1.69 0 0 0-1-.25 2.93 2.93 0 0 0-1.19.43l-2.9 1.67a.62.62 0 0 1-.28.09.43.43 0 0 1-.24 0l-.64-.37a.13.13 0 0 1-.07-.14.26.26 0 0 1 .15-.16l5.19-3a.66.66 0 0 1 .28-.09.47.47 0 0 1 .25 0l.63.37a.1.1 0 0 1 .07.14.24.24 0 0 1-.14.16l-.26.15a4.14 4.14 0 0 1 .88 0 2.38 2.38 0 0 1 .79.29l.38.22a.12.12 0 0 1 .07.14.29.29 0 0 1-.15.16l-.73.43a.69.69 0 0 1-.28.08.38.38 0 0 1-.25 0Zm-.42 1.58a7.86 7.86 0 0 1 1.32-.6 6.41 6.41 0 0 1 1.37-.31 4.64 4.64 0 0 1 1.29 0 3 3 0 0 1 1.08.35 1.34 1.34 0 0 1 .62.63 1 1 0 0 1 0 .73 2 2 0 0 1-.49.76 4.53 4.53 0 0 1-.94.71l-.5.29a.83.83 0 0 1-.28.08.38.38 0 0 1-.25 0l-2.79-1.61a1.2 1.2 0 0 0-.37.3.53.53 0 0 0-.12.32.48.48 0 0 0 .11.29 1 1 0 0 0 .29.25 2.12 2.12 0 0 0 .51.21 2.49 2.49 0 0 0 .46.05h.27a.49.49 0 0 1 .19.07l.67.39a.13.13 0 0 1 .08.14.29.29 0 0 1-.15.16 2.12 2.12 0 0 1-.53.16 4.41 4.41 0 0 1-.85.06 5.1 5.1 0 0 1-1-.11 3.33 3.33 0 0 1-1-.38 1.49 1.49 0 0 1-.63-.61 1 1 0 0 1 0-.74 2 2 0 0 1 .64-.82 5.4 5.4 0 0 1 1-.77Zm3.73.22a1.52 1.52 0 0 0-.51-.19 2 2 0 0 0-.54 0 2.09 2.09 0 0 0-.51.09 2.66 2.66 0 0 0-.43.15l1.89 1.09.29-.23a.74.74 0 0 0 .18-.28.43.43 0 0 0 0-.31.86.86 0 0 0-.34-.32Zm4.75 1.95a3.57 3.57 0 0 1 1 0 2.05 2.05 0 0 1 .77.24 1.1 1.1 0 0 1 .6.65.93.93 0 0 1-.16.7 3.72 3.72 0 0 1 .67-.08 4.52 4.52 0 0 1 .64 0 3 3 0 0 1 .55.11 2 2 0 0 1 .44.18 1.23 1.23 0 0 1 .58.58.78.78 0 0 1-.05.63 2.12 2.12 0 0 1-.56.64 6.85 6.85 0 0 1-.91.62l-3 1.73a.57.57 0 0 1-.28.08.38.38 0 0 1-.25 0l-.64-.36a.14.14 0 0 1-.07-.15.32.32 0 0 1 .15-.16l2.94-1.7c.51-.29.79-.53.84-.73s0-.38-.31-.53a1.51 1.51 0 0 0-.86-.16 3.05 3.05 0 0 0-1.27.44l-3 1.73a.77.77 0 0 1-.28.08.36.36 0 0 1-.24 0l-.64-.37a.12.12 0 0 1-.07-.14.28.28 0 0 1 .15-.16l2.94-1.7c.51-.29.79-.54.84-.74s-.05-.37-.31-.52a1.52 1.52 0 0 0-.89-.16 3.14 3.14 0 0 0-1.3.46l-2.94 1.7a.62.62 0 0 1-.28.09.49.49 0 0 1-.25 0l-.63-.37a.11.11 0 0 1-.07-.14.24.24 0 0 1 .14-.16l5.2-3a.62.62 0 0 1 .28-.09.49.49 0 0 1 .25 0l.63.37c.06 0 .09.08.07.14a.24.24 0 0 1-.14.16Zm8.61 5.43c-.64.35-1.26.71-1.88 1.08-.82.51-1.28.95-1.36 1.34s.13.73.64 1a3.93 3.93 0 0 0 .7.31 3.18 3.18 0 0 0 .78.12 4.18 4.18 0 0 0 .89-.1 6.49 6.49 0 0 0 1.07-.34.56.56 0 0 1 .25-.07.33.33 0 0 1 .17 0l.16.1a.1.1 0 0 1 .07.11s0 .08-.11.12a6.31 6.31 0 0 1-1 .39 5 5 0 0 1-1.17.22 5.49 5.49 0 0 1-1.27-.06 3.64 3.64 0 0 1-1.24-.45 1.77 1.77 0 0 1-.75-.7 1 1 0 0 1-.05-.76 2 2 0 0 1 .55-.78 6 6 0 0 1 1.06-.79l1-.57c.35-.21.69-.39 1-.57a8.6 8.6 0 0 1 1.36-.61 6.23 6.23 0 0 1 1.36-.32 4.85 4.85 0 0 1 1.32 0 3.53 3.53 0 0 1 1.2.43 1.94 1.94 0 0 1 .79.72 1.05 1.05 0 0 1 .1.73 1.39 1.39 0 0 1-.38.67 3.69 3.69 0 0 1-.68.56.4.4 0 0 1-.21.07.36.36 0 0 1-.19 0l-.17-.1a.12.12 0 0 1-.07-.09s0-.09.12-.15a2.81 2.81 0 0 0 .6-.61.87.87 0 0 0 .16-.52.72.72 0 0 0-.21-.45 2.15 2.15 0 0 0-.53-.4 3 3 0 0 0-1.78-.37 5.78 5.78 0 0 0-2.3.84Zm7.76 3.25a1.51 1.51 0 0 1 .6.57.84.84 0 0 1 0 .64 1.59 1.59 0 0 1-.46.67 4.73 4.73 0 0 1-.86.66l-.21.13-.25.15-.27.15-.21.11a7.17 7.17 0 0 1-1.14.5 5.55 5.55 0 0 1-1.16.27 4.56 4.56 0 0 1-1.11 0 3 3 0 0 1-1-.35 1.44 1.44 0 0 1-.6-.57.79.79 0 0 1 0-.64 1.65 1.65 0 0 1 .45-.67 4.5 4.5 0 0 1 .87-.66l.2-.12.26-.16.26-.14.21-.12a7.17 7.17 0 0 1 1.14-.5 5.15 5.15 0 0 1 1.17-.26 3.68 3.68 0 0 1 1.1 0 2.77 2.77 0 0 1 1.01.34Zm-1.25 2.28c.62-.38 1-.73 1.06-1.07s-.06-.61-.45-.83a2.4 2.4 0 0 0-1.45-.27 6.86 6.86 0 0 0-2.27.85l-.41.24c-.62.38-1 .74-1.06 1.07s.07.61.46.84a2.46 2.46 0 0 0 1.45.26 4.73 4.73 0 0 0 1.85-.61l.42-.24Zm4.03.19a4.11 4.11 0 0 1 1 0 2.23 2.23 0 0 1 .9.3 1 1 0 0 1 .54.62.92.92 0 0 1-.25.75 4 4 0 0 1 1.33-.11 2.54 2.54 0 0 1 1.14.33 1.11 1.11 0 0 1 .46.45.7.7 0 0 1 0 .55 1.62 1.62 0 0 1-.42.62 4.58 4.58 0 0 1-.94.68l-3.24 1.87a.4.4 0 0 1-.43 0l-.14-.09q-.18-.11.06-.24l3.13-1.81a3.9 3.9 0 0 0 .82-.58 1.09 1.09 0 0 0 .33-.48.45.45 0 0 0-.06-.39 1.12 1.12 0 0 0-.34-.3 1.79 1.79 0 0 0-.48-.17 2.38 2.38 0 0 0-.67 0 3.74 3.74 0 0 0-.84.18 5.55 5.55 0 0 0-1 .47l-3.06 1.8a.42.42 0 0 1-.43 0l-.14-.08c-.12-.07-.1-.15.06-.25l3.13-1.8a3.86 3.86 0 0 0 .81-.59 1.17 1.17 0 0 0 .32-.48.47.47 0 0 0-.05-.39 1 1 0 0 0-.33-.29 1.79 1.79 0 0 0-.48-.17 2.32 2.32 0 0 0-.66 0 3.53 3.53 0 0 0-.84.18 4.86 4.86 0 0 0-1 .46l-3.14 1.82a.42.42 0 0 1-.43 0l-.14-.08c-.12-.07-.1-.15.06-.25l5.31-3.06a.4.4 0 0 1 .43 0l.14.08c.12.07.1.16-.06.25Zm3.48 8.1a1.19 1.19 0 0 1-.61-.65 1 1 0 0 1 .08-.67l-2.64 1.52a.4.4 0 0 1-.43 0l-.14-.08c-.12-.08-.1-.16.06-.25l7.43-4.29a.4.4 0 0 1 .43 0l.14.08c.12.07.1.15-.06.25l-.53.3a4.69 4.69 0 0 1 1.18-.05 2.63 2.63 0 0 1 1.11.35 1.21 1.21 0 0 1 .59.61.81.81 0 0 1-.05.66 2.15 2.15 0 0 1-.54.67 7.17 7.17 0 0 1-.85.62l-.36.22-.38.2a8.9 8.9 0 0 1-1.08.5 5.94 5.94 0 0 1-1.15.31 4.44 4.44 0 0 1-1.15 0 2.71 2.71 0 0 1-1.05-.3Zm2-2.78-.45.24a4.82 4.82 0 0 0-.42.26 3.36 3.36 0 0 0-.59.44 1.31 1.31 0 0 0-.36.49.67.67 0 0 0 0 .5.83.83 0 0 0 .42.44 1.89 1.89 0 0 0 .79.26 3.06 3.06 0 0 0 .85 0 4.15 4.15 0 0 0 .88-.25 6.79 6.79 0 0 0 .87-.39l.62-.36a5.45 5.45 0 0 0 .68-.5 1.88 1.88 0 0 0 .43-.5.68.68 0 0 0 .05-.5.86.86 0 0 0-.44-.46 1.92 1.92 0 0 0-.79-.24 3.63 3.63 0 0 0-.87 0 4.29 4.29 0 0 0-.87.23 4.69 4.69 0 0 0-.79.34Zm3.89 6.04q-.18-.11.06-.24l.53-.31a3.92 3.92 0 0 1-.51.07 3.77 3.77 0 0 1-.58 0 3.56 3.56 0 0 1-.62-.12 3.11 3.11 0 0 1-.66-.28 1.25 1.25 0 0 1-.44-.41.76.76 0 0 1-.13-.48 1.06 1.06 0 0 1 .2-.49 1.79 1.79 0 0 1 .54-.45 3.26 3.26 0 0 1 .8-.32 3.58 3.58 0 0 1 .87-.11 4.46 4.46 0 0 1 1.79.35l1.57.62.39-.23q.6-.35.66-.69c0-.24-.13-.47-.53-.7a2 2 0 0 0-1-.28 2.57 2.57 0 0 0-.84.12 1.22 1.22 0 0 1-.27.06.33.33 0 0 1-.17 0l-.11-.07a.11.11 0 0 1-.06-.12s.05-.09.12-.13a2.1 2.1 0 0 1 .47-.18 4.16 4.16 0 0 1 1.6-.05 2.62 2.62 0 0 1 .87.32 1.59 1.59 0 0 1 .64.57.69.69 0 0 1 0 .56 1.26 1.26 0 0 1-.38.51 3.53 3.53 0 0 1-.61.44l-3.64 2.13a.4.4 0 0 1-.43 0Zm-1.05-1.22a2.21 2.21 0 0 0 .67.24 3.21 3.21 0 0 0 .83 0 5 5 0 0 0 .95-.2 5.81 5.81 0 0 0 1-.47l.37-.22-1.27-.5a3 3 0 0 0-2.58-.12 1 1 0 0 0-.38.33.52.52 0 0 0-.09.33.56.56 0 0 0 .15.31 1.35 1.35 0 0 0 .34.3Zm6.55 4.12a.4.4 0 0 1-.43 0l-.14-.08c-.12-.07-.1-.16.06-.25l3.11-1.8a2.29 2.29 0 0 0 1.08-1c.12-.32 0-.61-.45-.85a2.38 2.38 0 0 0-1.46-.26 4.28 4.28 0 0 0-1.77.6l-3.11 1.8a.42.42 0 0 1-.43 0l-.14-.08c-.12-.07-.1-.15.06-.25l5.31-3.06a.4.4 0 0 1 .43 0l.14.09q.18.1-.06.24l-.52.31a4.69 4.69 0 0 1 1.17-.06 2.59 2.59 0 0 1 1.11.36 1.22 1.22 0 0 1 .56.54.8.8 0 0 1 0 .61 1.72 1.72 0 0 1-.47.64 4.66 4.66 0 0 1-.88.64Zm.09 2.59a.57.57 0 0 1-.18 0 .29.29 0 0 1-.18-.05l-.17-.09a.1.1 0 0 1-.05-.11.24.24 0 0 1 .11-.12l.27-.1 2.65-.78 3.42-3.82a.71.71 0 0 1 .18-.16.59.59 0 0 1 .2-.06.29.29 0 0 1 .19 0l.17.1c.06 0 .08.07.08.1a.54.54 0 0 1 0 .11l-3 3.36 5.85-1.72h.18a.37.37 0 0 1 .18 0l.17.1a.1.1 0 0 1 0 .11.19.19 0 0 1-.11.11 1 1 0 0 1-.27.1Z"/><path fill="#37474f" d="m381.13 362.31-83.33-48.1a3 3 0 0 0-3.16-.35l-11.44 6.6 87.08 50.29 10.85-6.27a1.14 1.14 0 0 0 0-2.17Z"/><path fill="#fff" d="m296.42 318.18.59-.33a.45.45 0 0 1 .4 0c.1.05.07.16-.06.23l-.58.34a.46.46 0 0 1-.41 0c-.09-.06-.06-.16.06-.24Zm.79.46 1-.59a.44.44 0 0 1 .4 0h.05c.1.05.07.15-.06.23l-1 .58a.45.45 0 0 1-.4 0h-.05c-.09-.05-.07-.15.06-.22Zm.79.45 1.44-.83a.46.46 0 0 1 .41 0c.1.06.07.16-.05.23l-1.44.84a.5.5 0 0 1-.41 0c-.11-.06-.08-.17.05-.24Zm.78.45 2.48-1.43a.47.47 0 0 1 .41 0c.1.06.07.16 0 .23l-2.49 1.44a.44.44 0 0 1-.4 0c-.15-.06-.13-.16 0-.24Zm1.95 1.33.06-.07.37-.21-.88-.5V320l.13-.08h.17l2.24-.21a.14.14 0 0 1 .09 0h.08l.12.07s.05.05.05.07 0 0-.06.06l-1.28.74.2.11s.05 0 .05.06l-.07.07-.09.05a.18.18 0 0 1-.2 0l-.2-.11-.36.21h-.22l-.15-.08s-.05-.07-.05-.09Zm.79-.42.91-.53-1.54.16Zm.48.89c0-.21.22-.42.58-.63a2.31 2.31 0 0 1 1.1-.34 1.94 1.94 0 0 1 1 .25 1.48 1.48 0 0 1 .3.23.56.56 0 0 1 .15.23h-.05l-.24.05h-.06a.74.74 0 0 0-.33-.33 1.3 1.3 0 0 0-.7-.17 1.78 1.78 0 0 0-.81.26c-.28.16-.43.32-.45.46s.07.28.27.4a1.75 1.75 0 0 0 .24.11l.23.06.59-.34-.36-.21s-.06 0-.05-.06 0 0 .06-.06h.09a.26.26 0 0 1 .1 0h.11l.58.34s.06.05.05.07 0 .05-.07.08l-.85.49h-.16a2.2 2.2 0 0 1-.88-.3c-.32-.18-.44-.38-.44-.59Zm73.9 40.27a.26.26 0 0 0-.15-.31l-2.63-1.52a1 1 0 0 0-.94.07l-1.28.74a.59.59 0 0 0-.31.36.22.22 0 0 0 0 .16.31.31 0 0 0 .14.16l2.63 1.52a1.09 1.09 0 0 0 .95-.08l1.28-.74a.62.62 0 0 0 .31-.36Zm-5.09-.68a.27.27 0 0 1 .15-.15l1.28-.74a.81.81 0 0 1 .76-.04l2.63 1.52a.15.15 0 0 1 .08.08v.05a.28.28 0 0 1-.15.16l-1.28.73a.81.81 0 0 1-.72.06l-2.63-1.52a.12.12 0 0 1-.12-.15Z"/><path fill="#fff" d="m374.14 360.93-1.51.87-1.42-.82h.05l1.15-.66a.62.62 0 0 1 .54-.05Zm1.57 1.12c.1.06 0 .23-.3.38l-.24.13c-.26.16-.56.24-.66.18l-.19-.09 1.21-.7Zm-68.5-37.91a1.14 1.14 0 0 1-1 0 .31.31 0 0 1 0-.59 1.14 1.14 0 0 1 1 0 .31.31 0 0 1 0 .59Z"/><path fill="#fff" d="M308.05 323.07a2.91 2.91 0 0 0-1.9-.27c-.14 0-.22.09-.2.17 0 .1.19.17.36.14a2.06 2.06 0 0 1 1.33.19c.37.21.48.51.34.77-.06.1.06.2.23.21a.34.34 0 0 0 .31-.11c.2-.38.04-.8-.47-1.1Z"/><path fill="#fff" d="M308.86 322.6a4.72 4.72 0 0 0-2.82-.48c-.15 0-.25.1-.23.18 0 .09.18.16.35.13a3.84 3.84 0 0 1 2.3.39c.63.36.85.87.67 1.33 0 .1.07.19.24.2a.31.31 0 0 0 .31-.13c.22-.56-.05-1.22-.82-1.62Zm25.84 17.81h-.18l-.13-.08a.06.06 0 0 1 0-.1l1.75-1-.9-.07h-.09a.06.06 0 0 1 0-.05v-.1l.05-.05a.13.13 0 0 1 .09 0l1.2.09h.12l.13.08a.07.07 0 0 1 0 .05Zm2.15-.41a.07.07 0 0 1 0 .05l-.21.13h-.17l-.22-.13a.05.05 0 0 1 0-.05l.22-.13h.17Zm-1.11.64a.07.07 0 0 1 0 .05l-.21.13h-.17l-.22-.13a.05.05 0 0 1 0-.05l.21-.13h.17Zm1.18 1.15v-.05a.05.05 0 0 1 0-.05l.43-.25-1-.58a.07.07 0 0 1 0-.05v-.05l.11-.06h.16l2.31-.18h.2l.12.07v.05a.05.05 0 0 1 0 .05l-1.32.76.27.16a.05.05 0 0 1 0 .05l-.11.07h-.17l-.27-.16-.44.25a.13.13 0 0 1-.09 0 .11.11 0 0 1-.08 0Zm.72-.52.89-.51-1.58.11Zm.91.84a.41.41 0 0 0-.05.09.11.11 0 0 0 0 .1.24.24 0 0 0 .09.12.89.89 0 0 0 .22.16.72.72 0 0 0 .2.09 1 1 0 0 0 .24.05.81.81 0 0 0 .22 0 .53.53 0 0 0 .22-.08.35.35 0 0 0 .14-.12.15.15 0 0 0 0-.13.31.31 0 0 0-.09-.12l-.17-.13-.27-.15a.05.05 0 0 1 0-.05v-.05l.12-.06h1.33l-.92-.53a.06.06 0 0 1 0-.1l.12-.06a.11.11 0 0 1 .08 0s.07 0 .09 0l1.25.72a.05.05 0 0 1 0 .05l-.12.07h-1.33a.69.69 0 0 1 .24.19.41.41 0 0 1 .1.21.27.27 0 0 1-.06.2.71.71 0 0 1-.22.18 1 1 0 0 1-.35.13 1.2 1.2 0 0 1-.38 0 1.78 1.78 0 0 1-.39-.07 1.54 1.54 0 0 1-.35-.15 1.26 1.26 0 0 1-.32-.24.4.4 0 0 1-.12-.22.31.31 0 0 1 0-.19.53.53 0 0 1 .15-.15h.14l.15.09s.06.14.04.15Z"/><path fill="#455a64" d="m298.25 321.74 69.64 40.2c1.14.66 1.2 1.71.13 2.35a4.4 4.4 0 0 1-4-.05L294.37 324c-1.14-.66-1.2-1.7-.13-2.32a4.46 4.46 0 0 1 4.01.06Z"/><path fill="#061d44" d="m299.9 354.21-7.51 4.34a1.26 1.26 0 0 0 0 2.39l7.51 4.33a4.58 4.58 0 0 0 4.14 0l7.51-4.33a1.26 1.26 0 0 0 0-2.39l-7.55-4.34a4.58 4.58 0 0 0-4.1 0Z"/><path fill="#fff" d="m305.78 362.59 1.11-.65c.07 0 .07-.1 0-.15l-.88-.64a.11.11 0 0 1 0-.18 2.59 2.59 0 0 0 .32-.44.29.29 0 0 1 .2-.13l1.49-.09a.15.15 0 0 0 .13-.15v-.83a.14.14 0 0 0-.13-.15l-1.49-.09a.27.27 0 0 1-.2-.14 2.59 2.59 0 0 0-.32-.44.11.11 0 0 1 0-.18l.88-.64a.08.08 0 0 0 0-.15l-1.11-.64a.31.31 0 0 0-.25 0l-1.13.52a.46.46 0 0 1-.26 0 6.27 6.27 0 0 0-.88-.21.19.19 0 0 1-.16-.16l-.15-.75a.16.16 0 0 0-.16-.13h-1.64a.18.18 0 0 0-.17.13l-.14.75a.2.2 0 0 1-.16.16 6 6 0 0 0-.88.21.46.46 0 0 1-.26 0l-1.13-.52a.31.31 0 0 0-.25 0l-1.12.64a.09.09 0 0 0 0 .15l.89.64a.12.12 0 0 1 0 .18 2.14 2.14 0 0 0-.32.44.29.29 0 0 1-.2.14l-1.49.09a.15.15 0 0 0-.14.15v.83a.15.15 0 0 0 .14.15l1.49.09a.31.31 0 0 1 .2.13 2.14 2.14 0 0 0 .32.44.12.12 0 0 1 0 .18l-.89.64a.09.09 0 0 0 0 .15l1.12.65a.31.31 0 0 0 .25 0l1.13-.53a.46.46 0 0 1 .26 0 6 6 0 0 0 .88.21.2.2 0 0 1 .16.16l.14.74a.18.18 0 0 0 .17.14h1.64a.16.16 0 0 0 .16-.14l.15-.74a.19.19 0 0 1 .16-.16 6.27 6.27 0 0 0 .88-.21.46.46 0 0 1 .26 0l1.13.53a.31.31 0 0 0 .25 0Zm-5.7-1.76a1.15 1.15 0 0 1 0-2.18 4.17 4.17 0 0 1 3.77 0c1 .61 1 1.58 0 2.18a4.17 4.17 0 0 1-3.77 0Z"/><path fill="#061d44" d="m280.46 343-7.46 4.35a1.26 1.26 0 0 0 0 2.39l7.51 4.34a4.58 4.58 0 0 0 4.14 0l7.51-4.34a1.26 1.26 0 0 0 0-2.39L284.6 343a4.58 4.58 0 0 0-4.14 0Z"/><path fill="#fff" d="m281.21 349.31-.96-.56-2.36 1.37-1.78-1.03 3.81-2.2-1.05-.6 7.59-.01-.02 4.38-1.05-.6-3.81 2.19-1.77-1.02 2.36-1.37-.96-.55z"/><path fill="#061d44" d="m319.3 365.43-7.51 4.33a1.26 1.26 0 0 0 0 2.39l7.51 4.34a4.58 4.58 0 0 0 4.14 0l7.51-4.34a1.26 1.26 0 0 0 0-2.39l-7.51-4.33a4.58 4.58 0 0 0-4.14 0Z"/><path fill="#fff" d="M328.25 372.05a.24.24 0 0 0-.11-.15l-7.88-4.54a.59.59 0 0 0-.35-.06l.76 4.36Zm-8.35-4.75a.65.65 0 0 0-.24.06l-5.66 3.25a.23.23 0 0 0-.12.16l6.06.31Z"/><path fill="#fff" d="M328.25 372.05h-6.42l.35 3.52-.78-3.52h-1a.47.47 0 0 1-.47-.47v-.2l-6.06-.64a.21.21 0 0 0 .12.19l7.88 4.56a.72.72 0 0 0 .61 0l5.65-3.27a.18.18 0 0 0 .12-.17Zm-8.35-4.76v.01h.01l-.01-.01zm8.37 4.76h-.02.02z"/><path fill="#061d44" d="m231.44 360.3 20.89-12.06 31.34 18.09-20.89 12.07-31.34-18.1z"/><path fill="#fff" d="m231.44 360.3 20.89-12.06 31.34 18.09-20.89 12.07-31.34-18.1z" opacity=".8"/><path fill="#061d44" d="M268.68 364.59a1.16 1.16 0 0 0 0 2.19 4.19 4.19 0 0 0 3.78 0 1.16 1.16 0 0 0 0-2.19 4.19 4.19 0 0 0-3.78 0Zm-37.24-4.29 7.83-4.52 15.83 1.97.15 12.93.88-4.88 8.39 1.44.44 9.9-2.18 1.26-31.34-18.1z"/><path fill="#455a64" d="m290.29 370.15 20.72 12c.77.44.81 1.14.09 1.56a3 3 0 0 1-2.7-.05l-20.72-12c-.77-.44-.81-1.14-.09-1.56a3 3 0 0 1 2.7.05Z"/><path fill="#e0e0e0" d="m284.51 372.85 31.17 18c.46.27.54.65.18.86a1.69 1.69 0 0 1-1.49-.1l-31.17-18c-.46-.26-.54-.65-.18-.86a1.66 1.66 0 0 1 1.49.1Zm-2.61 1.51 31.16 18c.46.27.55.65.19.86a1.69 1.69 0 0 1-1.49-.1l-31.17-18c-.46-.27-.54-.65-.18-.86a1.66 1.66 0 0 1 1.49.1Zm-2.62 1.5 31.17 18c.46.27.55.65.18.86a1.64 1.64 0 0 1-1.48-.11l-31.17-18c-.46-.27-.54-.65-.18-.86a1.67 1.67 0 0 1 1.48.11Zm-2.61 1.51L287 383.3c.47.26.55.65.19.86a1.66 1.66 0 0 1-1.49-.11l-10.28-5.92c-.46-.27-.55-.66-.18-.86a1.67 1.67 0 0 1 1.43.1Z"/><path fill="#061d44" d="m269.39 380.61 1.14-.65a3 3 0 0 1 2.78 0l7.67 4.42a.85.85 0 0 1 0 1.61l-1.14.65a3 3 0 0 1-2.78 0l-7.67-4.42a.85.85 0 0 1 0-1.61Zm24.95 12.86a.8.8 0 0 1 0 1.51 2.86 2.86 0 0 1-2.61 0 .8.8 0 0 1 0-1.51 2.92 2.92 0 0 1 2.61 0Zm2.66 2.45a2.16 2.16 0 0 1 1.06.25c.21.12.29.25.29.32s-.08.19-.29.32a2.27 2.27 0 0 1-1.06.24 2.12 2.12 0 0 1-1.05-.24c-.22-.12-.3-.25-.3-.32s.08-.2.3-.32a2.12 2.12 0 0 1 1.05-.25m0-.5a2.74 2.74 0 0 0-1.3.31c-.73.42-.73 1.1 0 1.51a2.63 2.63 0 0 0 1.3.31 2.67 2.67 0 0 0 1.31-.31.8.8 0 0 0 0-1.51 2.78 2.78 0 0 0-1.31-.31Zm3.87 2.76a2.12 2.12 0 0 1 1.05.25c.22.12.3.25.3.32s-.08.2-.3.32a2.12 2.12 0 0 1-1.05.25 2.16 2.16 0 0 1-1.06-.25c-.21-.12-.29-.25-.29-.32s.08-.2.29-.32a2.16 2.16 0 0 1 1.06-.25m0-.5a2.67 2.67 0 0 0-1.31.32.79.79 0 0 0 0 1.5 2.67 2.67 0 0 0 1.31.32 2.64 2.64 0 0 0 1.3-.32.79.79 0 0 0 0-1.5 2.64 2.64 0 0 0-1.3-.32Zm-81.11-33.83 75.18 43.41c.69.39.69 1 0 1.43l-5.28 3.05a2.73 2.73 0 0 1-2.49 0L212 368.34a.76.76 0 0 1 0-1.44l5.28-3a2.77 2.77 0 0 1 2.48-.05Z"/><path fill="#fff" d="m219.76 363.85 75.18 43.41c.69.39.69 1 0 1.43l-5.28 3.05a2.73 2.73 0 0 1-2.49 0L212 368.34a.76.76 0 0 1 0-1.44l5.28-3a2.77 2.77 0 0 1 2.48-.05Z" opacity=".6"/><path fill="#fff" d="M286.09 409.32c-1-.56-.7-1.61.58-2.35a4.56 4.56 0 0 1 4.07-.34c1 .56.7 1.61-.58 2.35a4.63 4.63 0 0 1-4.07.34Zm4.2-2.43a3.69 3.69 0 0 0-3.28.27c-1 .6-1.25 1.45-.47 1.9a3.75 3.75 0 0 0 3.29-.27c1.03-.6 1.24-1.45.46-1.9Z"/><path fill="#fff" d="m289 408.55-1.73-1c-.1-.05-.07-.15.05-.23a.48.48 0 0 1 .4 0l1.73 1c.09.06.07.16-.06.23a.42.42 0 0 1-.39 0Z"/><path fill="#fff" d="M287.21 408.63a.09.09 0 0 1 0-.12.41.41 0 0 1 .35-.17h1.51v-.87c0-.09.13-.18.29-.2s.27 0 .27.11v1.08a.2.2 0 0 1-.11.14.65.65 0 0 1-.24.06h-1.86a.33.33 0 0 1-.21-.03Zm-70.58-42.1a1.15 1.15 0 0 0 0 2.18 4.16 4.16 0 0 0 3.78 0 1.15 1.15 0 0 0 0-2.18 4.19 4.19 0 0 0-3.78 0Zm8.28 3.47 52.69 30.42c.78.45.92 1.1.31 1.45a2.81 2.81 0 0 1-2.52-.17l-52.69-30.41c-.78-.45-.91-1.1-.3-1.46a2.82 2.82 0 0 1 2.51.17Z"/><path fill="#061d44" d="M208.12 370.58 283.29 414a.76.76 0 0 1 0 1.44l-5.29 3.03a2.77 2.77 0 0 1-2.48 0l-75.18-43.41c-.69-.39-.69-1 0-1.43l5.28-3.05a2.73 2.73 0 0 1 2.5 0Z"/><path fill="#fff" d="M274.44 416c-1-.55-.7-1.61.58-2.35a4.59 4.59 0 0 1 4.07-.33c1 .55.71 1.61-.58 2.35a4.59 4.59 0 0 1-4.07.33Zm4.21-2.43a3.75 3.75 0 0 0-3.29.28c-1 .59-1.25 1.45-.47 1.89a3.72 3.72 0 0 0 3.29-.27c1.03-.56 1.24-1.41.47-1.86Z"/><path fill="#fff" d="m277.32 415.28-1.73-1c-.09-.06-.07-.16.05-.23a.44.44 0 0 1 .4 0l1.73 1c.1.05.07.16 0 .23a.48.48 0 0 1-.45 0Z"/><path fill="#fff" d="M275.56 415.36a.1.1 0 0 1-.05-.13.42.42 0 0 1 .35-.16h1.51v-.88c0-.08.13-.17.29-.19s.28 0 .27.11v1.07s0 .1-.11.14a.67.67 0 0 1-.24.07h-1.86a.33.33 0 0 1-.16-.03ZM205 373.25a1.16 1.16 0 0 0 0 2.19 4.19 4.19 0 0 0 3.78 0 1.15 1.15 0 0 0 0-2.18 4.16 4.16 0 0 0-3.78-.01Zm8.3 3.51 52.7 30.42c.78.45.92 1.1.31 1.45a2.82 2.82 0 0 1-2.51-.18L211.09 378c-.78-.45-.92-1.1-.31-1.45a2.84 2.84 0 0 1 2.52.21Z"/><path fill="#061d44" d="m196.47 377.31 75.18 43.4a.76.76 0 0 1 0 1.43l-5.29 3.05a2.71 2.71 0 0 1-2.48 0l-75.18-43.4a.76.76 0 0 1 0-1.44l5.29-3a2.71 2.71 0 0 1 2.48-.04Z"/><path d="m196.47 377.31 75.18 43.4a.76.76 0 0 1 0 1.43l-5.29 3.05a2.71 2.71 0 0 1-2.48 0l-75.18-43.4a.76.76 0 0 1 0-1.44l5.29-3a2.71 2.71 0 0 1 2.48-.04Z" opacity=".35"/><path fill="#fff" d="M262.79 422.77c-1-.56-.7-1.61.58-2.35a4.62 4.62 0 0 1 4.08-.34c1 .56.7 1.61-.58 2.35a4.65 4.65 0 0 1-4.08.34Zm4.21-2.43a3.72 3.72 0 0 0-3.29.27c-1 .6-1.25 1.45-.47 1.9a3.72 3.72 0 0 0 3.29-.27c1.03-.6 1.25-1.45.47-1.9Z"/><path fill="#fff" d="m265.68 422-1.74-1c-.09-.05-.07-.15.06-.22a.43.43 0 0 1 .39 0l1.73 1c.1.05.07.15-.05.22a.42.42 0 0 1-.39 0Z"/><path fill="#fff" d="M263.91 422.08c-.05 0-.07-.07 0-.12a.39.39 0 0 1 .34-.17h1.51v-.87c0-.09.13-.18.28-.2s.28 0 .28.12l-.05 1.07c0 .05 0 .1-.11.14a.48.48 0 0 1-.24.06h-1.86a.24.24 0 0 1-.15-.03ZM193.34 380a1.15 1.15 0 0 0 0 2.18 4.13 4.13 0 0 0 3.78 0 1.15 1.15 0 0 0 0-2.18 4.19 4.19 0 0 0-3.78 0Zm8.34 3.5 52.69 30.42c.78.45.92 1.1.31 1.46a2.84 2.84 0 0 1-2.52-.18l-52.69-30.42c-.78-.45-.91-1.1-.31-1.46a2.84 2.84 0 0 1 2.52.18Z"/><path fill="#37474f" d="m198.9 295.77-54.21 31.32-.13-.07-20.56-11.9a11.12 11.12 0 0 1-5-10.94l7.64-39.73 54.21-31.32-7.64 39.73a11.1 11.1 0 0 0 5 10.94Z"/><path fill="#263238" d="m126.61 264.45-7.58 39.39 54.21-31.29 7.01-36.43-3.42-.68-50.22 29.01z"/><path fill="#263238" d="m144.69 327.09-20.73-12a11.14 11.14 0 0 1-5-10.93l7.65-39.74-9-5.22-8.74 45.46c-1.15 6 2.24 13.43 7.54 16.49l28.32 16.35Z"/><path fill="#455a64" d="m198.9 295.77-54.21 31.32v10.44l54.21-31.32v-10.44zm53.03-257.44a10.35 10.35 0 0 1 4.52 8.17v166.34a10.66 10.66 0 0 1-4.82 8.35L44.28 340.9a10.3 10.3 0 0 1-9.34.17 10.35 10.35 0 0 1-4.52-8.17V166.56a10.66 10.66 0 0 1 4.82-8.35L242.59 38.5a10.3 10.3 0 0 1 9.34-.17Z"/><path fill="#263238" d="M43.71 341.19a10.37 10.37 0 0 1-8.77-.12 10.3 10.3 0 0 1-4.52-8.17V166.56a9.77 9.77 0 0 1 1.42-4.75l9 5.22a9.87 9.87 0 0 0-1.42 4.74v166.35c.04 2.88 1.9 4.13 4.29 3.07Z"/><path fill="#37474f" d="M256.45 212.84V46.5c0-3.07-2.16-4.32-4.82-2.78L44.29 163.43a10.63 10.63 0 0 0-4.82 8.35v166.34c0 3.07 2.16 4.32 4.82 2.78l207.34-119.71a10.66 10.66 0 0 0 4.82-8.35Z"/><path fill="#061d44" d="M245.86 52.21 47.84 166.6a8.48 8.48 0 0 0-3.84 6.67V321c0 2.46 1.72 3.46 3.85 2.23l198-114.39a8.54 8.54 0 0 0 3.85-6.67V54.44c.02-2.44-1.7-3.44-3.84-2.23Z"/><path d="M245.86 52.21 47.84 166.6a8.48 8.48 0 0 0-3.84 6.67V321c0 2.46 1.72 3.46 3.85 2.23l198-114.39a8.54 8.54 0 0 0 3.85-6.67V54.44c.02-2.44-1.7-3.44-3.84-2.23Z" opacity=".45"/><path fill="#fff" d="M51.38 308.59c0 2.54 1.79 3.57 4 2.3l183-105.64a8.82 8.82 0 0 0 4-6.91V75.17l-191 110.25Z"/><path fill="#e0e0e0" d="M241.33 76.9v121.44a7.85 7.85 0 0 1-3.49 6L54.87 310a2.7 2.7 0 0 1-1.28.42c-1.09 0-1.21-1.3-1.21-1.85V186l189-109.09m1-1.73-191 110.25v123.16c0 1.8.9 2.85 2.21 2.85a3.64 3.64 0 0 0 1.78-.55l183-105.64a8.82 8.82 0 0 0 4-6.91V75.17Z"/><path fill="#37474f" d="M51.38 177.06a8.83 8.83 0 0 1 4-6.92l183-105.63c2.2-1.28 4-.24 4 2.3v8.36l-191 110.25Z"/><path fill="#061d44" d="M219.86 79.48a4.16 4.16 0 0 0-1.86 3.25c0 1.19.84 1.68 1.87 1.08a4.13 4.13 0 0 0 1.87-3.24c-.01-1.2-.84-1.68-1.88-1.09Zm6.55-3.77a4.15 4.15 0 0 0-1.87 3.29c0 1.2.84 1.68 1.87 1.09a4.14 4.14 0 0 0 1.88-3.25c0-1.24-.84-1.73-1.88-1.13Zm6.59-3.77a4.14 4.14 0 0 0-1.88 3.24c0 1.2.84 1.68 1.88 1.08a4.14 4.14 0 0 0 1.84-3.26c0-1.17-.84-1.66-1.84-1.06ZM75.07 185.13c0 2.47 1.74 3.48 3.88 2.24a8.58 8.58 0 0 0 3.89-6.73c0-2.47-1.74-3.48-3.89-2.24a8.6 8.6 0 0 0-3.88 6.73Z"/><path fill="#fff" d="M79.32 182.08c0 .72.5 1 1.13.65a2.5 2.5 0 0 0 1.12-2c0-.72-.5-1-1.12-.65a2.49 2.49 0 0 0-1.13 2Z"/><path fill="#455a64" d="M91.36 178.64a.12.12 0 0 1 .16 0 .28.28 0 0 1 .06.2v.92a.71.71 0 0 1-.06.28.48.48 0 0 1-.16.2l-3.67 2.11a.11.11 0 0 1-.15 0 .25.25 0 0 1-.07-.21v-8.31a.62.62 0 0 1 .07-.29.38.38 0 0 1 .15-.19l.68-.39a.12.12 0 0 1 .16 0 .24.24 0 0 1 .07.2v7.06Zm2.87-6.87a1.54 1.54 0 0 1 .83-.26 1 1 0 0 1 .64.23 1.59 1.59 0 0 1 .44.65 2.93 2.93 0 0 1 .18 1 2.36 2.36 0 0 1 0 .29v.71a2.63 2.63 0 0 1 0 .3 5.73 5.73 0 0 1-.19 1.22 5.58 5.58 0 0 1-.43 1.14 4.66 4.66 0 0 1-.64 1 3.4 3.4 0 0 1-.83.7 1.69 1.69 0 0 1-.84.26 1 1 0 0 1-.64-.23 1.39 1.39 0 0 1-.43-.64 3.23 3.23 0 0 1-.19-1v-1.3a5.24 5.24 0 0 1 .19-1.22 5.9 5.9 0 0 1 .43-1.15 5.09 5.09 0 0 1 .64-1 3.07 3.07 0 0 1 .84-.7Zm1 2.31a1.89 1.89 0 0 0-.12-.59.57.57 0 0 0-.24-.28.47.47 0 0 0-.31 0 1.22 1.22 0 0 0-.34.14 1.67 1.67 0 0 0-.35.26 1.83 1.83 0 0 0-.31.39 3.13 3.13 0 0 0-.24.55 3.81 3.81 0 0 0-.12.74v1.16a2 2 0 0 0 .12.59.62.62 0 0 0 .24.28.42.42 0 0 0 .31 0 1.11 1.11 0 0 0 .35-.14 1.74 1.74 0 0 0 .65-.64 3.25 3.25 0 0 0 .24-.56 3.71 3.71 0 0 0 .12-.73v-.91c.02-.11.01-.2.01-.26Zm4.09-3.58a1.65 1.65 0 0 0-.72.76 2.89 2.89 0 0 0-.23 1.24v3.35a.71.71 0 0 1-.06.28.48.48 0 0 1-.16.2l-.64.36a.12.12 0 0 1-.16 0 .28.28 0 0 1-.06-.2v-6a.75.75 0 0 1 .06-.29.45.45 0 0 1 .16-.19l.64-.37a.13.13 0 0 1 .16 0 .31.31 0 0 1 .06.21v.29a4.29 4.29 0 0 1 .47-.74 2.06 2.06 0 0 1 .65-.54l.37-.22a.13.13 0 0 1 .16 0 .27.27 0 0 1 .07.21v.85a.58.58 0 0 1-.07.28.42.42 0 0 1-.16.2Zm1.18 1.12a7.81 7.81 0 0 1 .14-1.44 6.16 6.16 0 0 1 .41-1.34 4.91 4.91 0 0 1 .65-1.12 2.9 2.9 0 0 1 .85-.76 1.36 1.36 0 0 1 .84-.22 1 1 0 0 1 .65.33 2 2 0 0 1 .42.8 4.69 4.69 0 0 1 .14 1.17v.58a.75.75 0 0 1-.06.29.45.45 0 0 1-.16.19l-2.8 1.61a1.26 1.26 0 0 0 .08.48.58.58 0 0 0 .22.26.46.46 0 0 0 .31.05 1.22 1.22 0 0 0 .36-.13 1.87 1.87 0 0 0 .45-.37 2.47 2.47 0 0 0 .28-.38 1.33 1.33 0 0 1 .15-.22.42.42 0 0 1 .16-.13l.67-.39a.12.12 0 0 1 .16 0 .22.22 0 0 1 .06.21 1.88 1.88 0 0 1-.13.53 4.33 4.33 0 0 1-.36.77 5.27 5.27 0 0 1-.6.81 3.81 3.81 0 0 1-.82.67 1.5 1.5 0 0 1-.85.23.91.91 0 0 1-.65-.34 2 2 0 0 1-.41-.86 5.65 5.65 0 0 1-.16-1.28Zm2-3.11a1.43 1.43 0 0 0-.42.35 2.66 2.66 0 0 0-.29.45 4.09 4.09 0 0 0-.18.49 4.3 4.3 0 0 0-.08.45l1.89-1.09a2.2 2.2 0 0 0-.06-.37.61.61 0 0 0-.15-.3.39.39 0 0 0-.27-.13.82.82 0 0 0-.39.15Zm4.1-3.12a3.86 3.86 0 0 1 .49-.85 2.1 2.1 0 0 1 .59-.54 1.13 1.13 0 0 1 .86-.2 1 1 0 0 1 .53.49 3.76 3.76 0 0 1 .27-.62 4.13 4.13 0 0 1 .34-.54 3.19 3.19 0 0 1 .37-.43 2.91 2.91 0 0 1 .37-.29 1.24 1.24 0 0 1 .8-.21.77.77 0 0 1 .51.36 2 2 0 0 1 .28.8 7.41 7.41 0 0 1 .08 1.11v3.46a.58.58 0 0 1-.07.28.42.42 0 0 1-.16.2l-.63.36a.11.11 0 0 1-.16 0 .24.24 0 0 1-.07-.2v-3.4a1.74 1.74 0 0 0-.22-1.1c-.14-.15-.35-.14-.61 0a1.57 1.57 0 0 0-.57.66 3.27 3.27 0 0 0-.26 1.32v3.46a.75.75 0 0 1-.06.29.45.45 0 0 1-.16.19l-.64.37a.13.13 0 0 1-.16 0 .31.31 0 0 1-.06-.21v-3.4a1.81 1.81 0 0 0-.22-1.1c-.14-.14-.35-.14-.61 0a1.58 1.58 0 0 0-.59.69 3.16 3.16 0 0 0-.24 1.36v3.4a.71.71 0 0 1-.06.28.48.48 0 0 1-.16.2l-.64.36a.12.12 0 0 1-.16 0 .28.28 0 0 1-.07-.2v-6a.77.77 0 0 1 .07-.29.45.45 0 0 1 .16-.19l.64-.37a.12.12 0 0 1 .16 0 .29.29 0 0 1 .06.21Zm9.01-4.73v2.16a2.73 2.73 0 0 0 .47 1.85c.3.27.7.25 1.22 0a3.05 3.05 0 0 0 .61-.46 2.77 2.77 0 0 0 .5-.61 3.89 3.89 0 0 0 .36-.82 5.94 5.94 0 0 0 .23-1.09 1.05 1.05 0 0 1 .07-.26.28.28 0 0 1 .12-.12l.16-.1h.13c.03 0 .06.08 0 .16a5.87 5.87 0 0 1-.14 1 6 6 0 0 1-.39 1.12 5.13 5.13 0 0 1-.69 1.07 3.78 3.78 0 0 1-1 .85 1.78 1.78 0 0 1-1 .3 1 1 0 0 1-.68-.33 2.08 2.08 0 0 1-.41-.87 6.14 6.14 0 0 1-.15-1.31v-2.29a8.94 8.94 0 0 1 .15-1.48 6.16 6.16 0 0 1 .41-1.34 4.65 4.65 0 0 1 .68-1.12 3.41 3.41 0 0 1 1-.83 1.83 1.83 0 0 1 1-.32 1 1 0 0 1 .69.27 1.63 1.63 0 0 1 .39.67 3.59 3.59 0 0 1 .14.87.31.31 0 0 1 0 .21.28.28 0 0 1-.13.15l-.16.1h-.12c-.03 0 0-.08-.07-.18a2.62 2.62 0 0 0-.23-.82.84.84 0 0 0-.36-.4.7.7 0 0 0-.5-.05 2.53 2.53 0 0 0-.61.26 3.07 3.07 0 0 0-1.22 1.36 5.91 5.91 0 0 0-.47 2.4Zm6.7-5.11a1.4 1.4 0 0 1 .79-.23.83.83 0 0 1 .57.29 1.72 1.72 0 0 1 .36.73 4.84 4.84 0 0 1 .13 1.08 2.09 2.09 0 0 0 0 .24v.6a2.27 2.27 0 0 0 0 .24 7.35 7.35 0 0 1-.13 1.24 5.53 5.53 0 0 1-.36 1.13 3.93 3.93 0 0 1-.57.95 3 3 0 0 1-.79.69 1.43 1.43 0 0 1-.8.23.8.8 0 0 1-.57-.29 1.74 1.74 0 0 1-.36-.72 4.46 4.46 0 0 1-.13-1.09v-.53a2.81 2.81 0 0 1 0-.3v-.25a6.34 6.34 0 0 1 .13-1.23 5.63 5.63 0 0 1 .36-1.14 3.93 3.93 0 0 1 .57-.95 3.09 3.09 0 0 1 .8-.69Zm1.34 2.23a2.11 2.11 0 0 0-.39-1.46.73.73 0 0 0-1 0 2.5 2.5 0 0 0-1 1.12 4.91 4.91 0 0 0-.39 1.91v.95a2.22 2.22 0 0 0 .39 1.46.73.73 0 0 0 1 0 2.49 2.49 0 0 0 1-1.12 4.57 4.57 0 0 0 .39-1.91v-.48c0-.19.01-.35 0-.47Zm2.18-3.4a4.2 4.2 0 0 1 .49-.92 2.22 2.22 0 0 1 .7-.63 1 1 0 0 1 .81-.16 1 1 0 0 1 .53.6 4.21 4.21 0 0 1 .57-1.21 2.54 2.54 0 0 1 .85-.82 1.14 1.14 0 0 1 .62-.18.7.7 0 0 1 .49.24 1.66 1.66 0 0 1 .33.68 4.14 4.14 0 0 1 .13 1.15v3.75a.44.44 0 0 1-.19.39l-.14.08q-.18.1-.18-.18v-3.62a3.72 3.72 0 0 0-.1-1 1.09 1.09 0 0 0-.25-.53.42.42 0 0 0-.36-.14 1.08 1.08 0 0 0-.43.14 1.9 1.9 0 0 0-.39.33 2.46 2.46 0 0 0-.36.56 3.44 3.44 0 0 0-.26.82 5.26 5.26 0 0 0-.1 1.11v3.62a.42.42 0 0 1-.19.39l-.14.08q-.18.1-.18-.18v-3.61a4.28 4.28 0 0 0-.1-1 1.32 1.32 0 0 0-.26-.52.48.48 0 0 0-.37-.14 1 1 0 0 0-.41.14 1.57 1.57 0 0 0-.39.32 2.54 2.54 0 0 0-.36.57 3.35 3.35 0 0 0-.26.81 5.09 5.09 0 0 0-.1 1.1v3.63a.4.4 0 0 1-.19.39l-.14.08c-.12.07-.18 0-.18-.17v-6.13a.41.41 0 0 1 .18-.39l.14-.08c.13-.07.19 0 .19.17Zm8.75 1.04a1.13 1.13 0 0 1-.86.2 1 1 0 0 1-.54-.41v3a.4.4 0 0 1-.19.39l-.14.09q-.18.1-.18-.18V150a.44.44 0 0 1 .18-.4l.14-.08c.13-.07.19 0 .19.18v.61a5 5 0 0 1 .54-1.05 2.58 2.58 0 0 1 .86-.78 1.19 1.19 0 0 1 .83-.21.84.84 0 0 1 .54.37 2.14 2.14 0 0 1 .31.81 6.63 6.63 0 0 1 .11 1v.85a9.59 9.59 0 0 1-.11 1.18 5.5 5.5 0 0 1-.31 1.16 4.44 4.44 0 0 1-.54 1 2.67 2.67 0 0 1-.83.78Zm-1.4-3.13v1a3.4 3.4 0 0 0 .08.73 1.53 1.53 0 0 0 .25.56.73.73 0 0 0 .42.27.82.82 0 0 0 .6-.15 1.92 1.92 0 0 0 .62-.55 3.34 3.34 0 0 0 .4-.75 4.14 4.14 0 0 0 .22-.89 7.45 7.45 0 0 0 .09-.95v-.72a5.14 5.14 0 0 0-.09-.83 1.66 1.66 0 0 0-.22-.63.67.67 0 0 0-.4-.29.88.88 0 0 0-.62.15 2 2 0 0 0-.61.56 3.33 3.33 0 0 0-.41.77 5.69 5.69 0 0 0-.25.87 5.18 5.18 0 0 0-.08.85Zm7.17-.29q-.18.1-.18-.18v-.6a4.39 4.39 0 0 1-.2.47 3.5 3.5 0 0 1-.29.49 3.29 3.29 0 0 1-1 .91 1.22 1.22 0 0 1-.58.18.76.76 0 0 1-.47-.13.89.89 0 0 1-.33-.42 1.71 1.71 0 0 1-.12-.69 3.06 3.06 0 0 1 .12-.85 4.09 4.09 0 0 1 .34-.81 5.21 5.21 0 0 1 .52-.74 5.91 5.91 0 0 1 .68-.64l1.32-1v-.45a1.2 1.2 0 0 0-.27-.93q-.27-.22-.87.12a2 2 0 0 0-.72.69 2.26 2.26 0 0 0-.32.78 1.16 1.16 0 0 1-.08.26.27.27 0 0 1-.13.13l-.11.07a.1.1 0 0 1-.13 0 .22.22 0 0 1-.06-.17 2 2 0 0 1 .09-.5 2.82 2.82 0 0 1 .27-.68 3.23 3.23 0 0 1 .48-.72 2.44 2.44 0 0 1 .71-.6 1.59 1.59 0 0 1 .82-.27.69.69 0 0 1 .5.25 1.3 1.3 0 0 1 .26.58 4.42 4.42 0 0 1 .07.74v4.29a.4.4 0 0 1-.19.39Zm-1.58.29a2.07 2.07 0 0 0 .54-.46 3 3 0 0 0 .45-.7 4 4 0 0 0 .3-.92 5.52 5.52 0 0 0 .11-1.12v-.43l-1.08.85a2.94 2.94 0 0 0-1.39 2.17.94.94 0 0 0 .1.49.53.53 0 0 0 .24.25.59.59 0 0 0 .35 0 1.07 1.07 0 0 0 .38-.17Zm6.85-3.66a.41.41 0 0 1-.18.39l-.15.09q-.18.1-.18-.18v-3.59a2.29 2.29 0 0 0-.33-1.43c-.21-.27-.53-.28-.95 0a2.44 2.44 0 0 0-1 1.14 4.33 4.33 0 0 0-.36 1.83v3.59a.41.41 0 0 1-.18.39l-.15.08c-.12.07-.18 0-.18-.17v-6.17a.41.41 0 0 1 .18-.39l.15-.08c.12-.08.18 0 .18.17v.61a5.18 5.18 0 0 1 .54-1 2.6 2.6 0 0 1 .86-.78 1.2 1.2 0 0 1 .75-.21.74.74 0 0 1 .53.3 1.72 1.72 0 0 1 .32.72 5 5 0 0 1 .11 1.09Zm2.28 1.22a1.27 1.27 0 0 1-.06.18.4.4 0 0 1-.13.13l-.17.09a.07.07 0 0 1-.11 0 .17.17 0 0 1-.05-.15 1.15 1.15 0 0 1 .05-.28l.64-2.69-1.6-4.87a1.21 1.21 0 0 1-.05-.23.54.54 0 0 1 .05-.21.49.49 0 0 1 .12-.15l.18-.1h.12a.22.22 0 0 1 .07.09l1.4 4.29 1.44-5.95a.87.87 0 0 1 .07-.17.3.3 0 0 1 .12-.13l.17-.1a.1.1 0 0 1 .12 0 .21.21 0 0 1 .05.15 2.43 2.43 0 0 1-.05.29Z"/><path fill="#061d44" d="M187.67 118v8.67c0 1.32.93 1.85 2.07 1.19l7.51-4.33a4.57 4.57 0 0 0 2.07-3.59v-8.67c0-1.32-.92-1.85-2.07-1.19l-7.51 4.33a4.59 4.59 0 0 0-2.07 3.59Z"/><path fill="#fff" d="M197.87 117.11v-1.29a.09.09 0 0 0-.13-.08l-1 .45a.12.12 0 0 1-.17-.08 2.43 2.43 0 0 0-.22-.49.29.29 0 0 1 0-.24L197 114a.16.16 0 0 0-.06-.19l-.72-.42a.15.15 0 0 0-.2 0l-.83 1.24a.29.29 0 0 1-.21.11 2.05 2.05 0 0 0-.54 0 .12.12 0 0 1-.15-.1l-.11-1.09a.09.09 0 0 0-.13-.07l-1.12.65a.27.27 0 0 0-.13.21l-.11 1.24a.4.4 0 0 1-.12.23 5.56 5.56 0 0 0-.62.66.21.21 0 0 1-.22.06l-.72-.25a.18.18 0 0 0-.2.08l-.82 1.42a.17.17 0 0 0 0 .21l.57.49a.24.24 0 0 1 .06.23 5.31 5.31 0 0 0-.26.86.46.46 0 0 1-.14.22l-1 .72a.27.27 0 0 0-.12.22v1.29a.09.09 0 0 0 .13.08l1-.45a.12.12 0 0 1 .17.08 2.43 2.43 0 0 0 .22.49.26.26 0 0 1 0 .24l-.66 1.34a.15.15 0 0 0 .06.19l.72.42a.17.17 0 0 0 .2 0l.82-1.24a.28.28 0 0 1 .22-.11 2.59 2.59 0 0 0 .54-.05.11.11 0 0 1 .15.1l.11 1.09c0 .07.06.1.13.07l1.12-.65a.33.33 0 0 0 .13-.21l.11-1.24a.4.4 0 0 1 .12-.23 6.52 6.52 0 0 0 .62-.66.21.21 0 0 1 .22-.06l.72.25a.18.18 0 0 0 .2-.08l.82-1.42a.17.17 0 0 0 0-.21l-.57-.5a.21.21 0 0 1-.06-.22 6.54 6.54 0 0 0 .26-.86.42.42 0 0 1 .14-.22l1-.72a.27.27 0 0 0 .13-.13Zm-4.37 4.06c-1 .6-1.89.11-1.89-1.09a4.19 4.19 0 0 1 1.89-3.27c1-.6 1.89-.11 1.89 1.09a4.19 4.19 0 0 1-1.89 3.27Z"/><path fill="#061d44" d="M168.26 129.25v8.67c0 1.32.93 1.86 2.07 1.2l7.51-4.34a4.57 4.57 0 0 0 2.07-3.58v-8.68c0-1.32-.93-1.85-2.07-1.19l-7.51 4.33a4.59 4.59 0 0 0-2.07 3.59Z"/><path fill="#fff" d="m174.08 131.74-.95.56v2.73l-1.78 1.03v-4.4l-1.05.61 3.78-6.58 3.79 2.21-1.05.6v4.4l-1.78 1.03v-2.74l-.96.55z"/><path fill="#061d44" d="M207.09 106.82v8.67c0 1.32.93 1.86 2.07 1.2l7.51-4.34a4.57 4.57 0 0 0 2.07-3.58v-8.67c0-1.32-.93-1.86-2.07-1.2l-7.51 4.34a4.57 4.57 0 0 0-2.07 3.58Z"/><path fill="#fff" d="M217.3 102.38a.21.21 0 0 0-.18 0l-7.88 4.62a.71.71 0 0 0-.23.28l4.16 1.53Z"/><path fill="#fff" d="M209 107.23a.59.59 0 0 0-.07.25V114a.23.23 0 0 0 .08.19l3.29-5.1Z"/><path fill="#fff" d="m217.3 102.38-3.19 5.62 3.22 1.45-3.44-1.07-.48.84a.48.48 0 0 1-.65.18l-.17-.1-3.59 4.89a.22.22 0 0 0 .22 0l7.89-4.55a.69.69 0 0 0 .3-.52v-6.53a.19.19 0 0 0-.11-.21Zm-8.3 4.85h.01-.01zm8.31-4.86-.01.01.01-.01zM75.07 198.58l143.67-82.95v44.84L75.07 243.41v-44.83z"/><path fill="#061d44" d="M82.83 234.44v-35.86l46.6-26.9v35.86l-46.6 26.9z"/><path fill="#fff" d="M82.83 234.44v-35.86l46.6-26.9v35.86l-46.6 26.9z" opacity=".8"/><path fill="#061d44" d="M116 189.69c0 1.79 1.26 2.51 2.81 1.62a6.2 6.2 0 0 0 2.81-4.87c0-1.79-1.25-2.52-2.81-1.62a6.22 6.22 0 0 0-2.81 4.87Zm-33.17 44.75v-13.45l14.31-18.91 16.76 9.42-5.64-4.76 8.1-9.73 13.07 6.79v3.74l-46.6 26.9z"/><path fill="#455a64" d="m139.27 166 30.8-17.79c1.15-.66 2.07-.19 2.07 1a4.41 4.41 0 0 1-2.07 3.43l-30.8 17.79c-1.15.66-2.07.19-2.07-1a4.42 4.42 0 0 1 2.07-3.43Z"/><path fill="#e0e0e0" d="m138.44 175.44 71.29-41.16c.69-.39 1.24-.21 1.24.41a2.47 2.47 0 0 1-1.24 1.83l-71.29 41.16c-.69.4-1.24.22-1.24-.4a2.48 2.48 0 0 1 1.24-1.84Zm0 4.49 71.29-41.16c.69-.4 1.24-.22 1.24.4a2.48 2.48 0 0 1-1.24 1.84l-71.29 41.16c-.69.39-1.24.21-1.24-.41a2.45 2.45 0 0 1 1.24-1.83Zm0 4.48 71.29-41.16c.69-.4 1.24-.22 1.24.4a2.48 2.48 0 0 1-1.24 1.84l-71.29 41.16c-.69.4-1.24.22-1.24-.4a2.46 2.46 0 0 1 1.24-1.84Zm0 4.48 40.23-23.24c.68-.39 1.24-.21 1.24.41a2.49 2.49 0 0 1-1.24 1.83l-40.23 23.24c-.69.4-1.24.22-1.24-.4a2.48 2.48 0 0 1 1.24-1.84Z"/><path fill="#061d44" d="M137.2 200.67v-1.95a4.55 4.55 0 0 1 2.07-3.58l11.39-6.58c1.14-.66 2.07-.12 2.07 1.2v1.94a4.59 4.59 0 0 1-2.07 3.59l-11.39 6.57c-1.15.66-2.07.14-2.07-1.19Zm60.18-36.84c1.07-.62 1.94-.12 1.94 1.12a4.29 4.29 0 0 1-1.94 3.36c-1.07.62-1.94.12-1.94-1.12a4.29 4.29 0 0 1 1.94-3.36Zm6.69-3.13c.52 0 .58.62.58.89a3.82 3.82 0 0 1-1.69 2.93 1.31 1.31 0 0 1-.62.2.47.47 0 0 1-.39-.18 1.18 1.18 0 0 1-.19-.71 3.8 3.8 0 0 1 1.7-2.93 1.25 1.25 0 0 1 .61-.2m0-.5a1.75 1.75 0 0 0-.86.27 4.27 4.27 0 0 0-2 3.36c0 .88.44 1.39 1.08 1.39a1.81 1.81 0 0 0 .87-.27 4.29 4.29 0 0 0 1.94-3.36c0-.88-.44-1.39-1.08-1.39Zm5.83-2.86c.51 0 .57.62.57.88a3.78 3.78 0 0 1-1.69 2.93 1.31 1.31 0 0 1-.62.2.44.44 0 0 1-.38-.17 1.2 1.2 0 0 1-.19-.71 3.79 3.79 0 0 1 1.69-2.93 1.28 1.28 0 0 1 .62-.2m0-.5a1.76 1.76 0 0 0-.87.26 4.31 4.31 0 0 0-1.94 3.37c0 .87.44 1.38 1.07 1.38a1.76 1.76 0 0 0 .87-.26 4.31 4.31 0 0 0 1.94-3.37c0-.87-.44-1.38-1.07-1.38ZM77.14 251.18l38.57-22.26c1.14-.66 2.07-.13 2.07 1.19v35.57a4.57 4.57 0 0 1-2.07 3.59l-38.57 22.27c-1.14.66-2.07.12-2.07-1.2v-35.57a4.59 4.59 0 0 1 2.07-3.59Z"/><path fill="#fff" d="m77.14 251.18 38.57-22.26c1.14-.66 2.07-.13 2.07 1.19v35.57a4.57 4.57 0 0 1-2.07 3.59l-38.57 22.27c-1.14.66-2.07.12-2.07-1.2v-35.57a4.59 4.59 0 0 1 2.07-3.59Z" opacity=".6"/><path fill="#fff" d="M82.89 252.35c2.17-1.25 3.93-.26 3.93 2.21a8.64 8.64 0 0 1-3.94 6.76c-2.17 1.25-3.93.26-3.93-2.22a8.62 8.62 0 0 1 3.94-6.75Zm9.78-5.65 19.16-11.06c1.14-.66 2.07-.19 2.07 1.05a4.43 4.43 0 0 1-2.07 3.43l-19.16 11.06c-1.14.66-2.07.2-2.07-1a4.45 4.45 0 0 1 2.07-3.48Zm-.83 7.2 13-7.53c.69-.39 1.24-.21 1.24.4a2.46 2.46 0 0 1-1.24 1.84l-13 7.54c-.68.39-1.24.21-1.24-.41a2.51 2.51 0 0 1 1.24-1.84Zm-11.65 13.46 32.47-18.75c.68-.39 1.24-.21 1.24.41a2.47 2.47 0 0 1-1.24 1.83L80.19 269.6c-.68.39-1.24.21-1.24-.41a2.47 2.47 0 0 1 1.24-1.83Zm0 4.48 32.47-18.74c.68-.4 1.24-.22 1.24.4a2.51 2.51 0 0 1-1.24 1.84l-32.47 18.74c-.68.4-1.24.22-1.24-.4a2.51 2.51 0 0 1 1.24-1.84Zm0 4.48 32.47-18.74c.68-.4 1.24-.21 1.24.4a2.49 2.49 0 0 1-1.24 1.84l-32.47 18.74c-.68.4-1.24.22-1.24-.4a2.51 2.51 0 0 1 1.24-1.84Zm32.46-7.1c-1 .55-1.74-.2-1.74-1.68a4.62 4.62 0 0 1 1.74-3.7c1-.56 1.75.2 1.75 1.68a4.64 4.64 0 0 1-1.75 3.7Zm0-4.86a3.7 3.7 0 0 0-1.41 3c0 1.2.63 1.81 1.41 1.36a3.73 3.73 0 0 0 1.41-3c0-1.2-.63-1.81-1.41-1.36Z"/><path fill="#fff" d="m113.43 266.34-1.73 1c-.1.05-.17 0-.17-.16a.42.42 0 0 1 .17-.36l1.73-1c.1-.06.17 0 .17.16a.45.45 0 0 1-.17.36Z"/><path fill="#fff" d="M112.62 267.9a.09.09 0 0 1-.13 0 .4.4 0 0 1 0-.38l.74-1.32-.74-.47c-.07 0-.08-.2 0-.34s.16-.23.23-.18l.91.57s.06.09.06.17a.57.57 0 0 1-.06.24l-.91 1.62a.27.27 0 0 1-.1.09Z"/><path fill="#061d44" d="m127.59 222 38.57-22.27c1.15-.66 2.07-.12 2.07 1.2v35.57a4.55 4.55 0 0 1-2.07 3.58l-38.54 22.27c-1.15.66-2.07.13-2.07-1.19v-35.57a4.59 4.59 0 0 1 2.04-3.59Z"/><path fill="#fff" d="M133.36 223.21c2.17-1.26 3.93-.26 3.93 2.21a8.62 8.62 0 0 1-3.93 6.75c-2.17 1.26-3.93.27-3.93-2.21a8.64 8.64 0 0 1 3.93-6.75Zm9.79-5.65 19.16-11.06c1.14-.66 2.07-.19 2.07 1a4.45 4.45 0 0 1-2.07 3.44L143.15 222c-1.14.66-2.07.19-2.07-1a4.45 4.45 0 0 1 2.07-3.44Zm-.83 7.2 13.05-7.53c.68-.4 1.24-.22 1.24.4a2.51 2.51 0 0 1-1.24 1.84L142.32 227c-.68.4-1.24.22-1.24-.4a2.48 2.48 0 0 1 1.24-1.84Zm-11.65 13.45 32.47-18.74c.68-.4 1.24-.22 1.24.4a2.49 2.49 0 0 1-1.24 1.84l-32.47 18.74c-.68.4-1.24.22-1.24-.4a2.51 2.51 0 0 1 1.24-1.84Zm0 4.49 32.47-18.7c.68-.39 1.24-.21 1.24.41a2.51 2.51 0 0 1-1.24 1.84l-32.47 18.74c-.68.39-1.24.21-1.24-.41a2.47 2.47 0 0 1 1.24-1.88Zm0 4.48 32.47-18.74c.68-.4 1.24-.22 1.24.4a2.51 2.51 0 0 1-1.24 1.84l-32.47 18.74c-.68.4-1.24.22-1.24-.4a2.51 2.51 0 0 1 1.24-1.84Zm32.46-7.11c-1 .56-1.75-.2-1.75-1.68a4.6 4.6 0 0 1 1.75-3.69c1-.56 1.75.19 1.75 1.68a4.6 4.6 0 0 1-1.75 3.69Zm0-4.86a3.73 3.73 0 0 0-1.41 3c0 1.19.63 1.8 1.41 1.35a3.69 3.69 0 0 0 1.41-3c0-1.19-.63-1.79-1.41-1.35Z"/><path fill="#fff" d="m163.91 237.19-1.74 1c-.09.06-.16 0-.16-.16a.43.43 0 0 1 .16-.35l1.74-1c.09 0 .17 0 .17.17a.44.44 0 0 1-.17.34Z"/><path fill="#fff" d="M163.1 238.76a.11.11 0 0 1-.14 0 .44.44 0 0 1 0-.38l.74-1.32-.74-.47c-.07 0-.08-.2 0-.35s.17-.22.24-.18l.91.58s.06.08.06.16a.5.5 0 0 1-.06.24l-.91 1.62a.32.32 0 0 1-.1.1Z"/><path fill="#061d44" d="m178 192.9 38.57-22.27c1.15-.66 2.07-.13 2.07 1.19v35.58a4.55 4.55 0 0 1-2.07 3.58l-38.47 22.27c-1.15.66-2.08.13-2.08-1.19l-.02-35.58a4.57 4.57 0 0 1 2-3.58Z"/><path d="m178 192.9 38.57-22.27c1.15-.66 2.07-.13 2.07 1.19v35.58a4.55 4.55 0 0 1-2.07 3.58l-38.47 22.27c-1.15.66-2.08.13-2.08-1.19l-.02-35.58a4.57 4.57 0 0 1 2-3.58Z" opacity=".35"/><path fill="#fff" d="M183.84 194.06c2.17-1.25 3.93-.26 3.93 2.22a8.64 8.64 0 0 1-3.93 6.75c-2.17 1.26-3.93.26-3.93-2.21a8.65 8.65 0 0 1 3.93-6.76Zm9.79-5.65 19.16-11.06c1.14-.66 2.07-.19 2.07 1.05a4.45 4.45 0 0 1-2.07 3.44l-19.16 11.06c-1.15.66-2.07.19-2.07-1.05a4.42 4.42 0 0 1 2.07-3.44Zm-.83 7.21 13-7.54c.68-.39 1.24-.21 1.24.41a2.51 2.51 0 0 1-1.24 1.84l-13 7.53c-.69.4-1.24.21-1.24-.4a2.46 2.46 0 0 1 1.24-1.84Zm-11.65 13.45 32.46-18.74c.69-.4 1.25-.22 1.25.4a2.5 2.5 0 0 1-1.25 1.84l-32.46 18.74c-.69.4-1.24.22-1.24-.4a2.46 2.46 0 0 1 1.24-1.84Zm0 4.48 32.46-18.74c.69-.4 1.25-.22 1.25.4a2.48 2.48 0 0 1-1.25 1.84l-32.46 18.74c-.69.4-1.24.22-1.24-.4a2.48 2.48 0 0 1 1.24-1.84Zm0 4.45 32.46-18.75c.69-.39 1.25-.21 1.25.41a2.5 2.5 0 0 1-1.25 1.84l-32.46 18.74c-.69.39-1.24.21-1.24-.41a2.45 2.45 0 0 1 1.24-1.83Zm32.46-7.07c-1 .55-1.75-.2-1.75-1.68a4.61 4.61 0 0 1 1.75-3.7c1-.55 1.74.2 1.74 1.68a4.63 4.63 0 0 1-1.74 3.7Zm0-4.86a3.72 3.72 0 0 0-1.41 3c0 1.2.63 1.81 1.41 1.36a3.75 3.75 0 0 0 1.41-3c-.02-1.2-.64-1.81-1.41-1.36Z"/><path fill="#fff" d="m214.39 208.05-1.74 1c-.09 0-.17 0-.17-.16a.48.48 0 0 1 .17-.36l1.74-1c.09-.05.17 0 .17.16a.45.45 0 0 1-.17.36Z"/><path fill="#fff" d="M213.57 209.61h-.13a.4.4 0 0 1 0-.38l.74-1.32-.74-.46a.31.31 0 0 1 0-.35c.06-.15.16-.22.24-.18l.91.57a.21.21 0 0 1 .06.17.5.5 0 0 1-.06.24l-.91 1.62a.29.29 0 0 1-.11.09Z"/><path fill="#061d44" d="M447.43 289.41a43.76 43.76 0 0 1 2.28-12.68c2.27-6.6 7-13.36 12.67-14.9s8.38 2.23 7.37 6.12c-.88 3.35-5 6.32-8.15 9.37s-8.84 10.32-10.18 17.12l-3.25.53Z"/><path d="M447.43 289.41a43.76 43.76 0 0 1 2.28-12.68c2.27-6.6 7-13.36 12.67-14.9s8.38 2.23 7.37 6.12c-.88 3.35-5 6.32-8.15 9.37s-8.84 10.32-10.18 17.12l-3.25.53Z" opacity=".15"/><path fill="#fff" d="M449.82 292.31a.37.37 0 0 0 .35-.37c-.29-16.91 15.71-27.22 15.87-27.33a.36.36 0 1 0-.39-.61c-.16.1-16.51 10.64-16.21 28a.35.35 0 0 0 .37.35Z"/><path fill="#061d44" d="m450.74 315.49.08.1a3.43 3.43 0 0 0 2.32 1 9.2 9.2 0 0 0 6.26-2 17 17 0 0 0 4.27-5.13 14.25 14.25 0 0 1 1.76-2.68c1.5-1.63 4.09-1.73 6.11-2.28a7.82 7.82 0 0 0 5.62-5.42c.63-2.66.15-5.84-2.37-7.39l2-1.44a13.26 13.26 0 0 0 2.55-2.17 4.54 4.54 0 0 0 1.18-3.05 4.39 4.39 0 0 0-2.93-3.65 9.27 9.27 0 0 0-4.88-.23 22 22 0 0 0-4.78 1.39 3.26 3.26 0 0 1-1.34.38 3.52 3.52 0 0 1-1.7-.67c-3.67-2.15-9.44-1.67-11.11 2.85-.24.66-.37 1.37-.64 2-1 2.44-4.12 1.89-6.06 3.11a5.08 5.08 0 0 0-2.14 3.76c-.27 2.37.53 5 1.09 7.32s1.22 4.43 2 6.61q.92 2.69 2 5.32a10.73 10.73 0 0 0 .71 2.27Z"/><path fill="#fff" d="M448.45 310.07a32.72 32.72 0 0 1 7.79-13.21.37.37 0 0 1 .19-.2 43 43 0 0 1 3.28-3.09 17.57 17.57 0 0 0-1.66-9.18.36.36 0 0 1 .64-.34 18.06 18.06 0 0 1 1.81 8.86 56.19 56.19 0 0 1 15.5-8.85.37.37 0 0 1 .46.23.36.36 0 0 1-.23.46 54.29 54.29 0 0 0-18.39 11.47c5.16-1.19 11.52 1 11.81 1.09a.38.38 0 0 1 .23.47.37.37 0 0 1-.33.24.36.36 0 0 1-.14 0c-.07 0-7.54-2.59-12.62-.72a32.07 32.07 0 0 0-7.68 13 .36.36 0 0 1-.33.26h-.12a.37.37 0 0 1-.21-.49Z"/><path fill="#061d44" d="M379.21 144.76v136.07a4.88 4.88 0 0 0 2.19 3.8l60.34 34.83c1.21.7 2.19.14 2.19-1.26V182.13a4.88 4.88 0 0 0-2.19-3.81l-60.34-34.83c-1.2-.7-2.19-.13-2.19 1.27Zm3.16 16.24c0-1.2.84-1.69 1.88-1.08l54.86 31.66a4.17 4.17 0 0 1 1.88 3.26v106.6c0 1.2-.84 1.68-1.88 1.08l-54.86-31.67a3 3 0 0 1-1.88-2.56Z"/><path d="M379.21 144.76v136.07a4.88 4.88 0 0 0 2.19 3.8l60.34 34.83c1.21.7 2.19.14 2.19-1.26V182.13a4.88 4.88 0 0 0-2.19-3.81l-60.34-34.83c-1.2-.7-2.19-.13-2.19 1.27Zm3.16 16.24c0-1.2.84-1.69 1.88-1.08l54.86 31.66a4.17 4.17 0 0 1 1.88 3.26v106.6c0 1.2-.84 1.68-1.88 1.08l-54.86-31.67a3 3 0 0 1-1.88-2.56Z" opacity=".45"/><path fill="#061d44" d="M442 319.6a4.94 4.94 0 0 0 4.12-.13l2.51-1.45a4.85 4.85 0 0 0 2.2-3.81V178.15a4.12 4.12 0 0 0-.38-1.64 4.32 4.32 0 0 0-.26-.53l-6.91 4c.14.27.27.54.38.81a4.14 4.14 0 0 1 .26 1.36V318.2c.01 1.29-.82 1.87-1.92 1.4Z"/><path d="M442 319.6a4.94 4.94 0 0 0 4.12-.13l2.51-1.45a4.85 4.85 0 0 0 2.2-3.81V178.15a4.12 4.12 0 0 0-.38-1.64 4.32 4.32 0 0 0-.26-.53l-6.91 4c.14.27.27.54.38.81a4.14 4.14 0 0 1 .26 1.36V318.2c.01 1.29-.82 1.87-1.92 1.4Z" opacity=".55"/><path fill="#e6e6e6" d="M412.6 299.06a3.64 3.64 0 0 1-1.8-.54 8.1 8.1 0 0 1-3.71-6.43 2.94 2.94 0 0 1 1.26-2.68 2.9 2.9 0 0 1 2.95.25 8.1 8.1 0 0 1 3.71 6.43 2.92 2.92 0 0 1-1.26 2.68 2.29 2.29 0 0 1-1.15.29Zm-3.09-8.94a1.29 1.29 0 0 0-.66.16 2 2 0 0 0-.76 1.81 7.13 7.13 0 0 0 3.21 5.57 1.63 1.63 0 0 0 2.71-1.57 7.13 7.13 0 0 0-3.21-5.57 2.65 2.65 0 0 0-1.29-.4Z"/><path d="M411.57 163.84c-.81-.47-1.47-.09-1.47.85a3.26 3.26 0 0 0 1.47 2.55c.81.47 1.47.09 1.47-.85a3.26 3.26 0 0 0-1.47-2.55Zm5.68 8.95-11.36-6.56c-.67-.39-1.22-.11-1.22.62a2.64 2.64 0 0 0 1.22 2l11.36 6.56c.68.39 1.23.11 1.23-.62a2.62 2.62 0 0 0-1.23-2Z"/><path fill="#061d44" d="M382.37 268.29a3 3 0 0 0 1.88 2.56l54.86 31.67c1 .6 1.88.12 1.88-1.08v-106.6a4.17 4.17 0 0 0-1.88-3.26l-54.86-31.66c-1-.61-1.88-.12-1.88 1.08Z"/><path fill="#fff" d="M382.37 268.29a3 3 0 0 0 1.88 2.56l54.86 31.67c1 .6 1.88.12 1.88-1.08v-106.6a4.17 4.17 0 0 0-1.88-3.26l-54.86-31.66c-1-.61-1.88-.12-1.88 1.08Z"/><path fill="#061d44" d="M379.23 144.41c.16-1.14 1.07-1.55 2.17-.92l60.34 34.83a4.46 4.46 0 0 1 1.55 1.64l6.91-4a4.46 4.46 0 0 0-1.56-1.63l-60.33-34.84a4.85 4.85 0 0 0-4.39 0L381.4 141a4.92 4.92 0 0 0-2.17 3.41Z"/><path d="M379.23 144.41c.16-1.14 1.07-1.55 2.17-.92l60.34 34.83a4.46 4.46 0 0 1 1.55 1.64l6.91-4a4.46 4.46 0 0 0-1.56-1.63l-60.33-34.84a4.85 4.85 0 0 0-4.39 0L381.4 141a4.92 4.92 0 0 0-2.17 3.41Z" opacity=".35"/><path fill="#263238" d="m439.11 191.58-54.86-31.66c-1-.61-1.88-.12-1.88 1.08v12.31L441 207.15v-12.31a4.17 4.17 0 0 0-1.89-3.26Z"/><path fill="#455a64" d="M389.67 172.9a4.34 4.34 0 0 0 2.06 3.31l34.7 20.28c1.14.66 2.07.2 2.07-1a4.43 4.43 0 0 0-2.07-3.43l-34.69-20c-1.15-.73-2.07-.32-2.07.84Z"/><path fill="#061d44" d="M406.64 209.42v10a4.72 4.72 0 0 0 1.79 3.79l6.5 3.76c1 .57 1.8-.21 1.8-1.73v-10a4.75 4.75 0 0 0-1.8-3.8l-6.5-3.75c-.99-.56-1.79.21-1.79 1.73Z"/><path fill="#fff" d="M415.46 220.27v-1.49a.32.32 0 0 0-.11-.24l-.86-.64a.53.53 0 0 1-.14-.29 8.09 8.09 0 0 0-.19-.82.54.54 0 0 1 0-.3l.58-.77a.38.38 0 0 0-.05-.29l-.63-1.32c-.05-.12-.13-.2-.17-.18l-.71.47s-.12 0-.19-.13a6.54 6.54 0 0 0-.46-.56.48.48 0 0 1-.13-.3l-.1-1.38a.32.32 0 0 0-.11-.23l-1-.56c-.06 0-.11 0-.12.08l-.09 1.31c0 .08-.06.14-.1.13a1.38 1.38 0 0 0-.54 0s-.13-.07-.19-.19l-.62-1.12c-.07-.12-.14-.18-.18-.15l-.71.68v.29l.5 1.24a.6.6 0 0 1 .05.32 3.38 3.38 0 0 0-.22.7c0 .07-.07.11-.13.08l-.88-.36c-.06 0-.1 0-.1.12v1.49a.36.36 0 0 0 .11.25l.86.64a.49.49 0 0 1 .14.28 7.72 7.72 0 0 0 .2.83.48.48 0 0 1 0 .29l-.58.77a.49.49 0 0 0 .06.3l.62 1.32c.06.12.13.2.17.17l.71-.47s.13 0 .19.13a6.62 6.62 0 0 0 .47.56.63.63 0 0 1 .13.3l.09 1.38a.35.35 0 0 0 .12.24l1 .56c.05 0 .1 0 .11-.09l.1-1.3c0-.09.05-.14.1-.14a1.39 1.39 0 0 0 .54 0s.12.07.19.18l.62 1.13c.06.11.14.18.17.15l.71-.69v-.28l-.5-1.25a.59.59 0 0 1-.05-.32 3.38 3.38 0 0 0 .23-.7.09.09 0 0 1 .12-.08l.89.36c.04.03.08-.02.08-.11Zm-3.78-.41a4.31 4.31 0 0 1-1.63-3.46c0-1.39.73-2.09 1.63-1.57a4.32 4.32 0 0 1 1.64 3.46c0 1.39-.74 2.09-1.64 1.57Z"/><path fill="#061d44" d="M389.82 199.74v10a4.73 4.73 0 0 0 1.8 3.79l6.5 3.76c1 .57 1.79-.2 1.79-1.73v-10a4.74 4.74 0 0 0-1.79-3.8l-6.5-3.75c-.99-.56-1.8.21-1.8 1.73Z"/><path fill="#fff" d="m394.87 209.42-.83-.48v3.16l-1.54-.89v-5.08l-.91-.52 3.28-3.19 3.28 6.97-.91-.52v5.08l-1.54-.89v-3.16l-.83-.48z"/><path fill="#061d44" d="M423.45 219.15v10a4.72 4.72 0 0 0 1.79 3.79l6.51 3.76c1 .57 1.79-.2 1.79-1.73V225a4.72 4.72 0 0 0-1.79-3.79l-6.51-3.76c-.99-.6-1.79.17-1.79 1.7Z"/><path fill="#fff" d="M432.29 225.93a.36.36 0 0 0-.16-.18l-6.81-3.94a.14.14 0 0 0-.2.06l3.6 6.61Zm-7.17-4.06a.26.26 0 0 0-.07.19v7.52a.87.87 0 0 0 .07.31l2.86-2Z"/><path fill="#fff" d="m432.3 225.93-2.77 2.71 2.79 5.44-3-5.26-.42.42c-.11.11-.36-.14-.56-.55l-.15-.32-3.1 1.52a.53.53 0 0 0 .19.24l6.83 4c.15.08.27 0 .27-.25v-7.58a.79.79 0 0 0-.08-.37Zm-7.19-4.08.01.02-.01-.02zm7.19 4.08zm-47.58-60.57v-.78c0-.17.06-.27.15-.22a.51.51 0 0 1 .15.39v.78c0 .17-.07.27-.15.22a.47.47 0 0 1-.15-.39Zm.68.39v-1.35c0-.17.06-.27.14-.22a.52.52 0 0 1 .15.39V166c0 .16-.07.26-.15.22a.5.5 0 0 1-.14-.47Zm.68.39v-1.92c0-.17.06-.27.14-.22.08 0 .14.22.14.39v1.92c0 .17-.06.27-.14.22-.08-.04-.14-.22-.14-.39Zm.67.39v-3.31c0-.17.07-.27.15-.22h.05a.53.53 0 0 1 .14.4v3.31c0 .17-.06.27-.15.22a.53.53 0 0 1-.19-.4Zm1.84 1.29a.37.37 0 0 1 0-.12v-.49l-.76-.44s-.06-.07-.06-.14v-.17a.22.22 0 0 1 0-.09.14.14 0 0 1 0-.06l.81-1.28h.05l.11.07a.16.16 0 0 1 .07.07.52.52 0 0 1 0 .14V167l.17.09a.27.27 0 0 1 .07.08.45.45 0 0 1 0 .13v.11a.22.22 0 0 1 0 .1s0 0-.07 0l-.17-.1v.49a.22.22 0 0 1 0 .1s0 0-.07 0l-.13-.07a.27.27 0 0 1-.02-.11Zm0-1v-1.22l-.55.9Zm.91 1.23a3.17 3.17 0 0 1-.23-1.25 1.55 1.55 0 0 1 .23-1q.22-.27.63 0a1.33 1.33 0 0 1 .3.23 1.36 1.36 0 0 1 .24.31.19.19 0 0 1 0 .07l-.07.17a1.21 1.21 0 0 0-.39-.39c-.18-.1-.32-.1-.43 0a1.25 1.25 0 0 0-.15.74 2.44 2.44 0 0 0 .15.93 1 1 0 0 0 .41.51 1 1 0 0 0 .19.08.27.27 0 0 0 .15 0v-.79l-.32-.19a.11.11 0 0 1-.06-.07.25.25 0 0 1 0-.13v-.21c0-.01 0 0 .06 0l.51.3a.24.24 0 0 1 .08.09.49.49 0 0 1 0 .15v1.12a.25.25 0 0 1 0 .1.64.64 0 0 1-.6-.1 1.56 1.56 0 0 1-.7-.67Zm48.5 25.36a.86.86 0 0 0-.3-.45l-2.28-1.32c-.2-.11-.35.12-.35.52v1.71a2.1 2.1 0 0 0 .13.69 2 2 0 0 0 .12.25.6.6 0 0 0 .18.2l2.28 1.32c.2.11.35-.12.35-.52v-1.71a1.87 1.87 0 0 0-.13-.69Zm-2.72 1a.93.93 0 0 1 0-.31v-1.7c0-.3.12-.48.26-.4l2.28 1.32a.32.32 0 0 1 .1.1.3.3 0 0 1 0 .08.91.91 0 0 1 .05.31v1.7c0 .3-.12.48-.27.4l-2.28-1.32a.38.38 0 0 1-.16-.15Z"/><path fill="#fff" d="M436.7 193.05v2l-1.22-.71v-1.6c0-.22.09-.35.19-.29Zm1.53 1.13a1.22 1.22 0 0 1 .15.72v.32c0 .35-.07.6-.15.56l-.16-.08v-1.61Zm-44.38-23.86c0 .38-.19.57-.44.43a1.18 1.18 0 0 1-.44-.94c0-.37.2-.56.44-.42a1.14 1.14 0 0 1 .44.93Z"/><path fill="#fff" d="M393.41 168.27a.68.68 0 0 0-1 .36.48.48 0 0 0 .05.36c.09.15.21.19.26.07a.47.47 0 0 1 .72-.25 1.86 1.86 0 0 1 .73 1.09c.05.17.17.28.25.23a.29.29 0 0 0 .05-.31 2.68 2.68 0 0 0-1.06-1.55Z"/><path fill="#fff" d="M393.41 167.18a1.05 1.05 0 0 0-1.58.43.48.48 0 0 0 0 .38c.08.15.2.18.26.08a.85.85 0 0 1 1.28-.35 3.36 3.36 0 0 1 1.29 1.83c.06.17.17.27.25.22.08-.05.09-.19 0-.34a4.14 4.14 0 0 0-1.5-2.25Zm15.31 12.18a.08.08 0 0 1 0 .07h-.05l-.11-.06a.13.13 0 0 1-.05-.07.16.16 0 0 1 0-.09v-2.33l-.44.27h-.06v-.07l-.06-.17a.29.29 0 0 1 0-.09.16.16 0 0 1 0-.06l.59-.36h.05l.11.07a.1.1 0 0 1 .05.06.15.15 0 0 1 0 .09Zm.65-1.5a.1.1 0 0 1 .05.06.19.19 0 0 1 0 .1v.28a.09.09 0 0 1 0 .07h-.05l-.18-.11a.1.1 0 0 1-.05-.06.16.16 0 0 1 0-.09v-.29a.06.06 0 0 1 0-.06s0 0 .05 0Zm0 1.48a.1.1 0 0 1 .05.06.16.16 0 0 1 0 .09v.29a.06.06 0 0 1 0 .06s0 0-.05 0l-.18-.11a.1.1 0 0 1-.05-.06.16.16 0 0 1 0-.09v-.29a.06.06 0 0 1 0-.06s0 0 .05 0Zm1.35 1.29a.1.1 0 0 1-.05-.07.29.29 0 0 1 0-.09v-.58l-.86-.5a.17.17 0 0 1-.06-.06.3.3 0 0 1 0-.1v-.27l.87-1.25a.07.07 0 0 1 .05 0h.05l.11.07a.17.17 0 0 1 .06.06.29.29 0 0 1 0 .09v1.77l.23.14a.17.17 0 0 1 .06.06.29.29 0 0 1 0 .09v.15a.12.12 0 0 1 0 .07h-.06l-.23-.14v.58a.12.12 0 0 1 0 .07h-.06Zm-.07-1.12v-1.19l-.6.84Zm1.03.96a.83.83 0 0 0 0 .15.61.61 0 0 0 .07.17.83.83 0 0 0 .13.16 1 1 0 0 0 .21.15.29.29 0 0 0 .16.06.17.17 0 0 0 .14 0 .35.35 0 0 0 .09-.11.65.65 0 0 0 0-.22 1 1 0 0 0 0-.25.72.72 0 0 0-.09-.2.7.7 0 0 0-.13-.16.66.66 0 0 0-.17-.12l-.23-.14a.1.1 0 0 1 0-.06.29.29 0 0 1 0-.09v-.26l.5-.53-.79-.46-.06-.06a.29.29 0 0 1 0-.09v-.15a.1.1 0 0 1 0-.07h.06l1.08.63v.06a.29.29 0 0 1 0 .09v.16a.13.13 0 0 1 0 .06.1.1 0 0 1 0 .05l-.48.53a1 1 0 0 1 .25.21 1.38 1.38 0 0 1 .19.28 1.33 1.33 0 0 1 .13.35 1.58 1.58 0 0 1 0 .38 1.25 1.25 0 0 1-.05.36.46.46 0 0 1-.15.2.3.3 0 0 1-.21 0 .48.48 0 0 1-.27-.09 1.31 1.31 0 0 1-.32-.25 1.29 1.29 0 0 1-.22-.3 1.37 1.37 0 0 1-.13-.31 1.77 1.77 0 0 1 0-.3l.13.08a.26.26 0 0 1 .16.09Z"/><path fill="#061d44" d="M389.82 260.65v-42.02l43.74 25.25v42.02l-43.74-25.25z"/><path fill="#fff" d="M389.82 260.65v-42.02l43.74 25.25v42.02l-43.74-25.25z" opacity=".8"/><path fill="#061d44" d="M421 246.63c0 2.24 1.18 4.74 2.64 5.58s2.64-.3 2.64-2.54-1.18-4.74-2.64-5.58-2.64.29-2.64 2.54Zm-31.18 14.02v-16.83l13.43-5.59 15.73 32.98-5.29-13.08 7.6-1.94 12.27 25.02v4.69l-43.74-25.25zm15.57 12a4.64 4.64 0 0 1 1.95 3.71c0 1.43-.87 2.09-1.94 1.47a4.64 4.64 0 0 1-1.95-3.71c0-1.43.87-2.12 1.94-1.47Zm5.06 3.13v.5a1.18 1.18 0 0 1 .52.16 4.16 4.16 0 0 1 1.69 3.28 1.7 1.7 0 0 1-.23 1 .53.53 0 0 1-.44.24 1.18 1.18 0 0 1-.52-.16 4.16 4.16 0 0 1-1.69-3.28c0-.55.17-1.2.67-1.2v-.5m0 0c-.69 0-1.17.63-1.17 1.7a4.66 4.66 0 0 0 1.94 3.71 1.51 1.51 0 0 0 .77.23c.69 0 1.17-.63 1.17-1.7a4.66 4.66 0 0 0-1.94-3.71 1.54 1.54 0 0 0-.77-.23Zm5.82 3.82a1 1 0 0 1 .52.17 4.16 4.16 0 0 1 1.69 3.27 1.7 1.7 0 0 1-.23 1 .49.49 0 0 1-.44.24 1.06 1.06 0 0 1-.52-.16 4.19 4.19 0 0 1-1.69-3.28c0-.55.18-1.2.67-1.2m0-.5c-.69 0-1.17.64-1.17 1.7a4.66 4.66 0 0 0 1.94 3.71 1.56 1.56 0 0 0 .77.23c.69 0 1.17-.63 1.17-1.7a4.66 4.66 0 0 0-1.94-3.71 1.61 1.61 0 0 0-.77-.23Zm-28.46-93.73c0 2.1 1.11 4.43 2.47 5.22s2.46-.28 2.46-2.37-1.1-4.43-2.46-5.22-2.47.28-2.47 2.37Z"/><path fill="#fff" d="M390.51 186.5a1.91 1.91 0 0 0 .71 1.52c.4.23.72-.08.72-.69a1.85 1.85 0 0 0-.72-1.51c-.39-.23-.71.08-.71.68Z"/><path fill="#455a64" d="M398.15 193.88a.32.32 0 0 1 .1.15.85.85 0 0 1 0 .23v.74a.4.4 0 0 1 0 .18s-.07.06-.1 0l-2.33-1.34a.27.27 0 0 1-.1-.14.62.62 0 0 1 0-.23v-7a.3.3 0 0 1 0-.18.07.07 0 0 1 .1 0l.43.25a.27.27 0 0 1 .1.14.64.64 0 0 1 0 .23v6Zm1.85-3.36a1.64 1.64 0 0 1 .53.49 3.36 3.36 0 0 1 .41.75 5 5 0 0 1 .28.92 6.79 6.79 0 0 1 .12 1v1.1a4.21 4.21 0 0 1-.13.86 1.52 1.52 0 0 1-.27.6.65.65 0 0 1-.41.27.8.8 0 0 1-.53-.12 1.6 1.6 0 0 1-.52-.49 3.08 3.08 0 0 1-.41-.74 4.37 4.37 0 0 1-.27-.91 6.8 6.8 0 0 1-.13-1v-1.1a3.65 3.65 0 0 1 .12-.87 1.67 1.67 0 0 1 .28-.6.71.71 0 0 1 .41-.28.76.76 0 0 1 .52.12Zm.65 2.82a3.23 3.23 0 0 0-.08-.6 2.05 2.05 0 0 0-.15-.44 1.2 1.2 0 0 0-.2-.3.87.87 0 0 0-.22-.17.6.6 0 0 0-.21-.08.26.26 0 0 0-.2.07.56.56 0 0 0-.15.27 1.94 1.94 0 0 0-.08.51 1.62 1.62 0 0 1 0 .21v.55a2 2 0 0 1 0 .22 3.35 3.35 0 0 0 .08.61 2.05 2.05 0 0 0 .15.44 1.13 1.13 0 0 0 .2.29 1.68 1.68 0 0 0 .21.18.7.7 0 0 0 .22.07.25.25 0 0 0 .2-.06.68.68 0 0 0 .15-.27 2.11 2.11 0 0 0 .08-.52v-1Zm2.54.46q-.31-.18-.45 0a1.63 1.63 0 0 0-.14.86v2.83a.3.3 0 0 1-.05.18.07.07 0 0 1-.1 0l-.4-.23a.3.3 0 0 1-.1-.15.59.59 0 0 1 0-.23v-5.07a.36.36 0 0 1 0-.19s.06-.05.1 0l.4.23a.27.27 0 0 1 .1.14.64.64 0 0 1 .05.23v.26a.63.63 0 0 1 .29-.24.55.55 0 0 1 .41.1l.24.14a.27.27 0 0 1 .1.14.62.62 0 0 1 0 .23v.72a.3.3 0 0 1 0 .18.07.07 0 0 1-.1 0Zm.75 1.96a6.12 6.12 0 0 1 .09-1.1 2.63 2.63 0 0 1 .26-.78.85.85 0 0 1 .41-.39.6.6 0 0 1 .54.08 1.6 1.6 0 0 1 .54.53 3.86 3.86 0 0 1 .41.84 6.2 6.2 0 0 1 .26 1 6.14 6.14 0 0 1 .1 1.12v.49a.3.3 0 0 1-.05.18.07.07 0 0 1-.1 0l-1.77-1a2.42 2.42 0 0 0 .05.47 2.35 2.35 0 0 0 .14.4 1.35 1.35 0 0 0 .19.31 1 1 0 0 0 .23.19.45.45 0 0 0 .28.09.25.25 0 0 0 .17-.08l.1-.06a.14.14 0 0 1 .1 0l.42.25a.27.27 0 0 1 .11.15.57.57 0 0 1 0 .22 1.06 1.06 0 0 1-.09.35.76.76 0 0 1-.23.33.71.71 0 0 1-.38.18.87.87 0 0 1-.52-.14 1.77 1.77 0 0 1-.54-.52 4 4 0 0 1-.41-.85A6.11 6.11 0 0 1 404 197a8.22 8.22 0 0 1-.06-1.24Zm1.3-.88a.34.34 0 0 0-.26-.06.32.32 0 0 0-.18.13.89.89 0 0 0-.12.26c0 .11 0 .21-.05.32l1.2.69v-.37a2.34 2.34 0 0 0-.09-.38 1.83 1.83 0 0 0-.18-.34.84.84 0 0 0-.32-.25Zm2.57.83a.62.62 0 0 1 .31-.31.44.44 0 0 1 .38 0 1.49 1.49 0 0 1 .54.57 3.15 3.15 0 0 1 .34.86.92.92 0 0 1 .17-.29.78.78 0 0 1 .21-.17.41.41 0 0 1 .24 0 .55.55 0 0 1 .24.07 1.49 1.49 0 0 1 .5.5 3.21 3.21 0 0 1 .33.75 4.9 4.9 0 0 1 .17.91 8.27 8.27 0 0 1 .05 1v2.93a.3.3 0 0 1 0 .18.07.07 0 0 1-.1 0l-.4-.23a.22.22 0 0 1-.1-.15.59.59 0 0 1 0-.23v-2.87a3.52 3.52 0 0 0-.13-1.12.92.92 0 0 0-.39-.51.24.24 0 0 0-.36.07 1.65 1.65 0 0 0-.17.9v2.93a.3.3 0 0 1 0 .18.07.07 0 0 1-.1 0l-.4-.24a.27.27 0 0 1-.1-.14.64.64 0 0 1-.05-.23v-2.88a3.49 3.49 0 0 0-.13-1.11 1 1 0 0 0-.39-.52.26.26 0 0 0-.37.09 1.83 1.83 0 0 0-.16.94v2.87a.3.3 0 0 1 0 .18s-.06.06-.1 0l-.4-.23a.26.26 0 0 1-.1-.15.59.59 0 0 1-.05-.23v-5.07a.3.3 0 0 1 .05-.18.07.07 0 0 1 .1 0l.4.23a.26.26 0 0 1 .1.15.59.59 0 0 1 0 .23Zm5.72 3.69v1.83a5.7 5.7 0 0 0 .3 2 1.89 1.89 0 0 0 .77 1 1 1 0 0 0 .39.14.36.36 0 0 0 .31-.1.8.8 0 0 0 .23-.38 3.29 3.29 0 0 0 .15-.73.3.3 0 0 1 0-.15.08.08 0 0 1 .08 0l.1.07a.22.22 0 0 1 .09.1.36.36 0 0 1 0 .18 3.2 3.2 0 0 1-.09.75 1.54 1.54 0 0 1-.25.61.72.72 0 0 1-.43.32.87.87 0 0 1-.64-.15 1.9 1.9 0 0 1-.62-.58 3.21 3.21 0 0 1-.43-.87 4.75 4.75 0 0 1-.26-1.08 9.57 9.57 0 0 1-.1-1.23v-2a7.28 7.28 0 0 1 .1-1.12 2.15 2.15 0 0 1 .26-.79.72.72 0 0 1 .43-.36.8.8 0 0 1 .62.13 2 2 0 0 1 .64.6 3.49 3.49 0 0 1 .43.81 4.32 4.32 0 0 1 .25.9 4.49 4.49 0 0 1 .09.86.19.19 0 0 1 0 .14.06.06 0 0 1-.09 0l-.1-.06a.15.15 0 0 1-.08-.09.69.69 0 0 1 0-.2 6 6 0 0 0-.15-.9 3.07 3.07 0 0 0-.23-.65 1.76 1.76 0 0 0-.3-.4 2.31 2.31 0 0 0-.39-.31c-.33-.18-.58-.15-.77.12a3.12 3.12 0 0 0-.31 1.59Zm4.25 1.4a1.79 1.79 0 0 1 .5.49 3.31 3.31 0 0 1 .36.73 4.77 4.77 0 0 1 .22.92 5.8 5.8 0 0 1 .09 1 1.7 1.7 0 0 0 0 .21v.5a1.56 1.56 0 0 0 0 .2 4.31 4.31 0 0 1-.09.93 1.88 1.88 0 0 1-.22.66.68.68 0 0 1-.36.32.61.61 0 0 1-.5-.11 1.55 1.55 0 0 1-.51-.48 3.31 3.31 0 0 1-.36-.73 5.62 5.62 0 0 1-.23-.92 6.93 6.93 0 0 1-.08-1v-.2a2.17 2.17 0 0 1 0-.26 2 2 0 0 1 0-.25v-.2a5.12 5.12 0 0 1 .08-.93 2.1 2.1 0 0 1 .23-.66.58.58 0 0 1 .87-.22Zm.85 3a4.56 4.56 0 0 0-.25-1.57 1.59 1.59 0 0 0-.6-.83.41.41 0 0 0-.61.13 2.52 2.52 0 0 0-.25 1.28v.81a4.55 4.55 0 0 0 .25 1.56 1.54 1.54 0 0 0 .61.83.4.4 0 0 0 .6-.13 2.49 2.49 0 0 0 .25-1.28v-.8Zm1.37-.98a.68.68 0 0 1 .31-.35.48.48 0 0 1 .45.06 1.47 1.47 0 0 1 .51.56 3.59 3.59 0 0 1 .33 1 1 1 0 0 1 .36-.54.5.5 0 0 1 .55 0 1.27 1.27 0 0 1 .39.38 2.64 2.64 0 0 1 .31.63 4.59 4.59 0 0 1 .21.85 7.2 7.2 0 0 1 .08 1.08v3.17c0 .16 0 .21-.12.17h-.09a.34.34 0 0 1-.12-.31v-3.12a6.21 6.21 0 0 0-.05-.92 4 4 0 0 0-.16-.66 1.89 1.89 0 0 0-.23-.43 1.07 1.07 0 0 0-.28-.25.42.42 0 0 0-.24 0 .31.31 0 0 0-.23.17 1.26 1.26 0 0 0-.17.47 4.73 4.73 0 0 0-.06.85v3.06c0 .16 0 .21-.12.17l-.09-.05a.34.34 0 0 1-.12-.31v-3.06a6.07 6.07 0 0 0-.06-.92 4.14 4.14 0 0 0-.16-.67 1.89 1.89 0 0 0-.23-.43 1 1 0 0 0-.27-.24.42.42 0 0 0-.24 0 .31.31 0 0 0-.23.17 1.2 1.2 0 0 0-.17.46 4.73 4.73 0 0 0-.06.85v3.07c0 .16 0 .21-.12.17l-.09-.05a.34.34 0 0 1-.12-.31v-5.18q0-.24.12-.18l.09.06q.12.06.12.3Zm5.56 8.36a1.49 1.49 0 0 1-.54-.57 3.4 3.4 0 0 1-.35-.8v2.58c0 .16 0 .21-.12.17l-.09-.05c-.08 0-.11-.15-.11-.31V205c0-.16 0-.22.11-.17l.09.05c.08 0 .12.15.12.3v.52a.83.83 0 0 1 .35-.42.53.53 0 0 1 .54.07 1.39 1.39 0 0 1 .52.53 3.08 3.08 0 0 1 .35.78 5.59 5.59 0 0 1 .19.94 8.42 8.42 0 0 1 .08 1v.72a6.55 6.55 0 0 1-.08.9 2.52 2.52 0 0 1-.19.71.75.75 0 0 1-.35.39.57.57 0 0 1-.52-.14Zm-.89-3.85v.85a4.2 4.2 0 0 0 .06.69 3.66 3.66 0 0 0 .15.69 2.58 2.58 0 0 0 .27.58 1.09 1.09 0 0 0 .38.39.42.42 0 0 0 .39.06.52.52 0 0 0 .25-.29 2 2 0 0 0 .15-.56 5.58 5.58 0 0 0 .05-.73v-.61a6.81 6.81 0 0 0-.05-.78 3.82 3.82 0 0 0-.15-.72 2.44 2.44 0 0 0-.25-.59 1 1 0 0 0-.39-.4.44.44 0 0 0-.39 0 .71.71 0 0 0-.26.3 2 2 0 0 0-.15.53 3.39 3.39 0 0 0-.06.59Zm4.55 5.85q-.12-.06-.12-.3v-.51a1 1 0 0 1-.12.23.49.49 0 0 1-.19.16.44.44 0 0 1-.26.05.72.72 0 0 1-.36-.13 1.24 1.24 0 0 1-.37-.33 2.84 2.84 0 0 1-.3-.52 2.91 2.91 0 0 1-.21-.63 3.17 3.17 0 0 1-.07-.69 2.25 2.25 0 0 1 .07-.62 1 1 0 0 1 .22-.39.6.6 0 0 1 .33-.18.94.94 0 0 1 .43 0l.83.24v-.38a2.57 2.57 0 0 0-.17-1 1.26 1.26 0 0 0-.55-.65c-.2-.11-.35-.12-.46 0a.66.66 0 0 0-.2.39.28.28 0 0 1-.05.15.06.06 0 0 1-.08 0h-.07a.23.23 0 0 1-.08-.12.41.41 0 0 1 0-.19 1.72 1.72 0 0 1 .05-.35 1 1 0 0 1 .18-.34.55.55 0 0 1 .3-.2.57.57 0 0 1 .45.1 1.67 1.67 0 0 1 .52.47 2.56 2.56 0 0 1 .32.64 3.47 3.47 0 0 1 .16.71 5.6 5.6 0 0 1 .05.69v3.62q0 .24-.12.18Zm-1-1.1a.41.41 0 0 0 .62-.14 1.34 1.34 0 0 0 .2-.52 5 5 0 0 0 .06-.85v-.37l-.68-.2c-.59-.17-.88 0-.88.65a2 2 0 0 0 .06.5 1.92 1.92 0 0 0 .16.42 1.2 1.2 0 0 0 .21.31 1 1 0 0 0 .25.2Zm4.34 2.79c0 .16 0 .22-.11.18l-.09-.06q-.12-.06-.12-.3v-3a4.65 4.65 0 0 0-.21-1.49 1.46 1.46 0 0 0-.6-.84.4.4 0 0 0-.61.14 2.46 2.46 0 0 0-.23 1.24v3c0 .15 0 .21-.12.17l-.09-.06c-.08 0-.11-.14-.11-.3v-5.18c0-.16 0-.22.11-.18l.09.06q.12.06.12.3v.51a1 1 0 0 1 .34-.42.55.55 0 0 1 .55.08 1.29 1.29 0 0 1 .47.46 2.68 2.68 0 0 1 .34.7 4.65 4.65 0 0 1 .2.89 6.67 6.67 0 0 1 .07 1Zm1.44 2.99a.2.2 0 0 1 0 .08.05.05 0 0 1-.08 0l-.11-.06a.23.23 0 0 1-.07-.11.51.51 0 0 1 0-.17 1.06 1.06 0 0 1 0-.2l.41-1.73-1-5.48a1.84 1.84 0 0 1 0-.24.25.25 0 0 1 0-.13.05.05 0 0 1 .08 0l.11.06a.21.21 0 0 1 .08.1.57.57 0 0 1 0 .14l.89 4.82.91-3.78a.19.19 0 0 1 .05-.09s0 0 .08 0l.1.06a.24.24 0 0 1 .08.11.55.55 0 0 1 0 .17 1.06 1.06 0 0 1 0 .2Z"/><path fill="#ffa8a7" d="M362.52 119.1c-3.45-2.73-4.41-1.39-4.39 2.06a15.44 15.44 0 0 1-.52 4.28 7.86 7.86 0 0 0-.83-2 1.49 1.49 0 0 0-1.93-.68c-.29.16.17.83.28 2.16.15 1.69-.29 2.69.32 4.43a2.9 2.9 0 0 1-.06 2c-1.18 3-5.3 7.93-8.48 12.21-2.45-2.83-8.72-10.09-11.13-13.05-4.16-5.09-5.43-7.3-10.15-7.69a12.46 12.46 0 0 1 3.61 3c1.88 2.16-.25 12.55-.25 12.55s14.29 14 15.77 15.34a6.88 6.88 0 0 0 1.4.93 4 4 0 0 0 4.72-1.51 129.22 129.22 0 0 0 9.26-17.13c1.13-2.64 2.36-4.72 3-6.46 2.19-6.02 1.54-8.72-.62-10.44Z"/><path fill="#061d44" d="M326.15 122.63a8.13 8.13 0 0 1 6.22 2.58c2.43 2.51 12.49 15.1 12.49 15.1a10.6 10.6 0 0 1-7 8.25L325 136.18Z"/><path d="M326.15 122.63a8.13 8.13 0 0 1 6.22 2.58c2.43 2.51 12.49 15.1 12.49 15.1a10.6 10.6 0 0 1-7 8.25L325 136.18Z" opacity=".15"/><path fill="#ffa8a7" d="M304.25 252.82h6.17v11.01h-6.17zm21.41-.58 6.17.22.31-11.65-6.48-.23v11.66z"/><path fill="#37474f" d="M303.38 157.51c0 6.14.91 55.56.91 55.56-.15 1.76-1.74 5-1.39 11.81.47 9.22 1.09 33.45 1.09 33.45a7.84 7.84 0 0 0 6.87.14s5.84-33.56 6.95-42.69c1-8 2.6-34.83 2.6-34.83l3.35 31.22a37.84 37.84 0 0 0-.76 10.22c.28 4.23 2.27 26.24 2.27 26.24a8.15 8.15 0 0 0 7.13.56s3.51-33.14 3.58-37c.08-4.42-2.05-54.73-2.05-54.73Z"/><path fill="#263238" d="M310.43 260.66v-.92c.59.27 2 5.72 4.41 8.05 2 1.85 4.61 4 5.28 6s-3.7 3.33-5.52 3c-2.11-.39-5.78-1.94-6.7-3.38s-1.35-3.55-2.1-4.61-2.47-2.23-2.87-3.45a8.11 8.11 0 0 1 .35-3.37c.29-1.14.6-2.39 1-2.28v.7a4.78 4.78 0 0 0 3.09 1.09c.87.07 3.06-.12 3.06-.83Zm21.47-10.19c.32 0 .58.49 1.29 1.28a13.12 13.12 0 0 0 3.63 2.72c2.31 1.21 6.81 3.06 8.84 4 1.27.6 1.21 2.19-.1 3.1s-4.49 1.57-8.3.68c-2.07-.48-4.77-2.48-6.48-2.37s-4.91.08-6.17-.82-.76-2.84-.4-4.51.87-4.64 1.45-4.52v.63c.74 1.17 4.57 1.65 6.2.79ZM320.41 181a22.48 22.48 0 0 0 8.6-5.13s-1.66 3.24-6.59 6.25l1.06 27.87Z"/><path fill="#061d44" d="M306.38 123.73s-4.62.72-4.27 9.93l1.07 14.66-.11 22c4.55 5.15 24.67 4.77 31.57-.41 0 0-.71-26-1.18-36.06-.33-7.12-2-10.71-9-11.5l-8.91-.7Z"/><path fill="#37474f" d="M315 102.48a9.2 9.2 0 1 0 9.2-9.57 9.4 9.4 0 0 0-9.2 9.57Zm-6.36 4.39a82 82 0 0 0 2 8 3 3 0 0 0 1.74 1.46l-.1-4.85Z"/><path fill="#37474f" d="M310.41 97s-1-.25-2.09 1.42c-.92 1.44-1.13 4.67.32 8.46l2.65.32Z"/><path fill="#ffa8a7" d="M312.09 107.19c-.53.33-1.29-.73-1.95-1.45a2.27 2.27 0 0 0-3.87.66c-1.09 2.39 1 5.41 2.63 6.1a2.61 2.61 0 0 0 3.35-1l.22 12.07c3.86 6 12.61 5.75 9.46-.29v-4.47a17.39 17.39 0 0 0 3.92.21c2.14-.34 3.48-2.1 4.13-4.51 1-3.88 1.44-7 .55-14.62-1-8.35-10.29-8.44-15.32-5.14s-3.12 12.44-3.12 12.44Z"/><path fill="#37474f" d="M312.09 108.13c-.27 0-1.29-1.76-1.95-2.39-.92-.87.27-8.75.27-8.75a3.84 3.84 0 0 1 .88-4c1.26-1.44 3.37-1.6 7-2.19a38.23 38.23 0 0 0 4.21-.8 25.36 25.36 0 0 0 4.26-2 2.09 2.09 0 0 1 1.44-.33 1.4 1.4 0 0 1 .91 1 4.15 4.15 0 0 1 0 1.45 2.34 2.34 0 0 1 3.31.12 3.37 3.37 0 0 1 .51 3.48 6.24 6.24 0 0 1-2.41 2.76c-4.51 3-9.83 2.2-14.89 1.6a1.26 1.26 0 0 0-.72 0c-.79.35-1 2.81-1.09 3.52-.44 2.45-.82 6.51-1.73 6.53Z"/><path fill="#37474f" d="m310.41 97.4-3.22-1.8a1.75 1.75 0 0 1 2.44-.84 2 2 0 0 1 .78 2.64Z"/><path fill="#f28f8f" d="M321.93 118.82s-4.78-1-6.45-1.93a5.6 5.6 0 0 1-2.31-2.37 8.16 8.16 0 0 0 1.31 2.8c1.23 1.63 7.45 2.82 7.45 2.82Z"/><path fill="#263238" d="M320.2 105.66a1 1 0 1 1-1-1 1 1 0 0 1 1 1Zm-1.64-4.14-2.05 1.18a1.31 1.31 0 0 1 .49-1.7 1.13 1.13 0 0 1 1.56.52Z"/><path fill="#f28f8f" d="m321.49 112.83 2.19.86a1.14 1.14 0 0 1-1.49.75 1.29 1.29 0 0 1-.7-1.61Z"/><path fill="#263238" d="m329.76 102.48-2.15-1a1.1 1.1 0 0 1 1.52-.61 1.32 1.32 0 0 1 .63 1.61Zm-1.07 3.18a1 1 0 0 1-.95 1 1 1 0 0 1 0-2.07 1 1 0 0 1 .95 1.07Z"/><path fill="#f28f8f" d="m322.92 104.92.11 6.05 3.43-.79-3.54-5.26z"/><path fill="#263238" d="M318.9 103.2a2.55 2.55 0 0 0 0 5.09h.46a2.55 2.55 0 0 0 0-5.09Zm-3 2.54a3 3 0 0 1 3-3.06h.46a3.06 3.06 0 0 1 0 6.12h-.46a3 3 0 0 1-3-3.06Zm12.16-2.54a2.55 2.55 0 0 0 0 5.09h.46a2.55 2.55 0 0 0 0-5.09Zm-3 2.54a3 3 0 0 1 3-3.06h.46a3.06 3.06 0 0 1 0 6.12h-.46a3 3 0 0 1-3-3.06Z"/><path fill="#263238" d="M322.33 105.14a2 2 0 0 1 1.59-.83 1.58 1.58 0 0 1 1.38.54l.41-.32a2.09 2.09 0 0 0-1.82-.73 2.42 2.42 0 0 0-2 1.07Zm-12.52.31h6.35V105h-7.43a3 3 0 0 1 1.08.45Z"/><path fill="#ffa8a7" d="M291.82 144.68c1.94-4.9 3.63-8.78 5.82-13.41 2.33-4.92 3.66-7.13 8.17-7.31a29.9 29.9 0 0 1 .81 9.25c-.1 2.86-3 7.62-3 7.62s-6.68 11.29-8.05 12.75a5.21 5.21 0 0 1-2 1.69"/><path fill="#061d44" d="M306.38 123.73s-5-.3-6.84 3c-2.33 4.16-7 14.83-7 14.83s3.79 4.37 8.27 5.53c0 0 4.38-8.24 5.59-11a21.3 21.3 0 0 0-.02-12.36Z"/><path d="M306.38 123.73s-5-.3-6.84 3c-2.33 4.16-7 14.83-7 14.83s3.79 4.37 8.27 5.53c0 0 4.38-8.24 5.59-11a21.3 21.3 0 0 0-.02-12.36Z" opacity=".1"/><path fill="#ffa8a7" d="M293.52 155.27a4 4 0 0 1-4.79-1.28c-3.18-4.21-9.28-13.78-11.91-18a53.2 53.2 0 0 1-3.44-6.19c-2.49-5.92-2-8.66.1-10.47 3.32-2.89 4.34-1.6 4.48 1.84a15.4 15.4 0 0 0 .74 4.25 8 8 0 0 1 .72-2 1.51 1.51 0 0 1 1.9-.77c.3.15-.13.85-.18 2.17-.06 1.7.42 2.68-.1 4.45a3 3 0 0 0 .41 2c1.45 3.21 7.47 10 11.5 14.13"/><path fill="#455a64" d="M351.09 126.62h-66.37a.75.75 0 0 1 0-1.5h66.37a.75.75 0 0 1 0 1.5Z"/><path fill="#455a64" d="M346.92 130.46a.75.75 0 0 1-.44-1.36l4.48-3.23-4.48-3.24a.75.75 0 0 1-.17-1 .76.76 0 0 1 1.05-.17l5.32 3.85a.77.77 0 0 1 .31.61.75.75 0 0 1-.31.6l-5.32 3.85a.74.74 0 0 1-.44.09Zm-56.92 0a.74.74 0 0 1-.44-.14l-5.32-3.85a.75.75 0 0 1-.31-.6.77.77 0 0 1 .31-.61l5.32-3.85a.76.76 0 0 1 1 .17.75.75 0 0 1-.17 1l-4.39 3.29 4.48 3.23a.75.75 0 0 1-.44 1.36Z"/></svg>