<svg xmlns="http://www.w3.org/2000/svg" viewBox="0 0 500 500"><ellipse cx="250" cy="355.58" fill="#f5f5f5" rx="242.75" ry="140.15"/><g fill="#e0e0e0"><path d="m347.58 448.75 95.14-55c1.59-.91 1.59-2.4 0-3.31L266.05 288.08a6.33 6.33 0 0 0-5.75 0l-95.14 55c-1.58.92-1.58 2.4 0 3.32l176.68 102.35a6.31 6.31 0 0 0 5.74 0Z"/><path d="m124.38 413.15 80.15-46.32c1.33-.77 1.33-2 0-2.79L115 312.13a5.3 5.3 0 0 0-4.84 0L30 358.45c-1.33.77-1.33 2 0 2.79l89.51 51.91a5.3 5.3 0 0 0 4.87 0Z"/><ellipse cx="138.08" cy="410.95" rx="79.79" ry="46.07"/><path d="M443.43 425.22a9.52 9.52 0 0 1-1.53 3.57 17 17 0 0 1-5.76 5.11c-10 5.75-26.11 5.75-36.07 0a16.9 16.9 0 0 1-5.76-5.11 9.69 9.69 0 0 1-1.53-3.57c-.89-4.32 1.54-8.83 7.29-12.14 10-5.76 26.11-5.76 36.07 0 5.75 3.31 8.18 7.82 7.29 12.14Z"/></g><path fill="#f0f0f0" d="M72 63a13.14 13.14 0 0 0-5.82-6.26A10.07 10.07 0 0 0 58.5 56L45 60.25c-5.16 1.65-8.14 7.43-7 13.55l1 4.86 35.1-11.21Zm-20.15-7.53a10 10 0 1 0-7.65-.64 10 10 0 0 0 7.65.64ZM471 160.34a14.34 14.34 0 0 0-1.49-9.21 11 11 0 0 0-6.54-5.36l-14.84-4.28c-5.68-1.63-11.89 1.81-14.56 8.07l-2.11 5 38.69 11.13Zm-13.77-19a11 11 0 1 0-6.56-5.23 11 11 0 0 0 6.54 5.19Z"/><path fill="#e0e0e0" d="M40.71 155.49a19.53 19.53 0 0 1-3.19.59 19.78 19.78 0 0 1-3.26.06 1 1 0 0 1-1-.94l-.26-2.7a15.92 15.92 0 0 1-4.23-1.28l-1.77 2.1a1 1 0 0 1-1.32.25 19.63 19.63 0 0 1-5-4.1 1.06 1.06 0 0 1 0-1.35l1.73-2.12a15.71 15.71 0 0 1-2.09-3.89l-2.71.27a1 1 0 0 1-1.11-.76 20.48 20.48 0 0 1-.59-3.2 20.88 20.88 0 0 1-.05-3.26 1 1 0 0 1 .94-1l2.7-.27a16.15 16.15 0 0 1 1.28-4.23l-2.1-1.66a1 1 0 0 1-.25-1.32 19.53 19.53 0 0 1 4.11-5 1 1 0 0 1 1.35 0l2.1 1.72a15.77 15.77 0 0 1 3.9-2.09l-.27-2.71a1 1 0 0 1 .76-1.11 19.52 19.52 0 0 1 3.19-.58 19.8 19.8 0 0 1 3.26-.06 1 1 0 0 1 1 .94l.27 2.71a15.75 15.75 0 0 1 4.23 1.27l1.72-2.1a1 1 0 0 1 1.32-.24 19.63 19.63 0 0 1 5 4.1 1.06 1.06 0 0 1 0 1.35l-1.73 2.1a15.77 15.77 0 0 1 2.09 3.9l2.71-.27a1 1 0 0 1 1.11.75 20.26 20.26 0 0 1 .64 6.46 1 1 0 0 1-.94 1l-2.7.27a16 16 0 0 1-1.28 4.23l2.1 1.72a1 1 0 0 1 .24 1.32 19.29 19.29 0 0 1-4.1 5 1 1 0 0 1-1.35 0l-2.1-1.72a15.71 15.71 0 0 1-3.9 2.08l.27 2.72a1 1 0 0 1-.72 1.05Zm-12.23-5.35a.46.46 0 0 1 .36 0 15 15 0 0 0 4.67 1.4.52.52 0 0 1 .43.45l.31 3.09a14.88 14.88 0 0 0 3.13 0 19 19 0 0 0 3-.56l-.28-3.15a.51.51 0 0 1 .33-.52 14.9 14.9 0 0 0 4.31-2.3.5.5 0 0 1 .61 0l2.4 2a17.46 17.46 0 0 0 4-4.77l-2.42-2a.5.5 0 0 1-.13-.6 15.25 15.25 0 0 0 1.42-4.66.49.49 0 0 1 .44-.43l3.08-.31h.05a18.67 18.67 0 0 0-.61-6.14l-3.14.28a.51.51 0 0 1-.52-.33 15.43 15.43 0 0 0-2.3-4.31.48.48 0 0 1 0-.61l2-2.4a17.57 17.57 0 0 0-4.77-4l-2 2.42a.51.51 0 0 1-.6.13 14.84 14.84 0 0 0-4.67-1.41.5.5 0 0 1-.43-.44l-.3-3.09a15 15 0 0 0-3.14 0 19 19 0 0 0-3 .55l.28 3.16a.51.51 0 0 1-.34.52 15 15 0 0 0-4.3 2.29.48.48 0 0 1-.61 0l-2.4-2a17.41 17.41 0 0 0-4 4.76l2.42 2a.5.5 0 0 1 .13.6 15.4 15.4 0 0 0-1.42 4.67.5.5 0 0 1-.44.43l-3.08.3a15 15 0 0 0 0 3.14 18.51 18.51 0 0 0 .57 3l3.14-.27a.5.5 0 0 1 .52.33 15.38 15.38 0 0 0 2.3 4.3.48.48 0 0 1 0 .61l-2 2.41a17.36 17.36 0 0 0 4.77 4l2-2.41a.49.49 0 0 1 .23-.13Zm10-4.63a9.53 9.53 0 0 1-8.95-1.69 9.65 9.65 0 0 1-3.14-10 9 9 0 0 1 4.72-5.82 9.56 9.56 0 0 1 13.57 11.11 9 9 0 0 1-4.74 5.78 10.86 10.86 0 0 1-1.48.62Zm-5.58-17.13a10.08 10.08 0 0 0-1.34.53 8 8 0 0 0-4.21 5.15 8.57 8.57 0 0 0 12.18 10 8 8 0 0 0 4.21-5.15A8.54 8.54 0 0 0 32.9 128.4Zm29.64-26.5a7.33 7.33 0 0 0-3.85 4.71 7.74 7.74 0 0 0 8.81 9.74 9.07 9.07 0 0 0 1-.24 9 9 0 0 0 1.21-.48 7.34 7.34 0 0 0 3.85-4.7 7.77 7.77 0 0 0-11-9Zm10.1 8.79a6.37 6.37 0 0 1-3.35 4.08 6.81 6.81 0 0 1-9.68-7.93 6.32 6.32 0 0 1 3.39-4.08 7.41 7.41 0 0 1 1.07-.42 8.89 8.89 0 0 1 .89-.22 6.81 6.81 0 0 1 5.49 1.42 6.89 6.89 0 0 1 2.19 7.15Zm8.85-6.08a.92.92 0 0 0-1-.67l-2.11.21a13 13 0 0 0-1.63-3l1.35-1.64a.92.92 0 0 0 0-1.18 15.76 15.76 0 0 0-4-3.32.92.92 0 0 0-1.17.22l-1.39 1.59a12.9 12.9 0 0 0-3.31-1L68 93.69a.91.91 0 0 0-.85-.83 15.35 15.35 0 0 0-2.62 0 15.58 15.58 0 0 0-2.59.47.91.91 0 0 0-.67 1l.21 2.12a12.73 12.73 0 0 0-3 1.63l-1.64-1.34a.92.92 0 0 0-1.19 0 16 16 0 0 0-3.32 4 .92.92 0 0 0 .22 1.17l1.64 1.34a13.74 13.74 0 0 0-1 3.31l-2.11.21a.91.91 0 0 0-.82.84 15.39 15.39 0 0 0 0 2.63 15.6 15.6 0 0 0 .47 2.6.91.91 0 0 0 1 .66l2.11-.21a13.14 13.14 0 0 0 1.64 3l-1.35 1.65a.91.91 0 0 0 0 1.18 15.81 15.81 0 0 0 4.06 3.32.91.91 0 0 0 1.16-.22l1.35-1.64a12.87 12.87 0 0 0 3.3 1l.21 2.12a.93.93 0 0 0 .85.82 15.46 15.46 0 0 0 2.63 0c.4 0 .8-.09 1.19-.16s.94-.19 1.4-.31a.91.91 0 0 0 .63-1l-.17-2.05a13.34 13.34 0 0 0 3.05-1.63l1.64 1.34a.91.91 0 0 0 1.18 0 15.85 15.85 0 0 0 3.32-4.06.91.91 0 0 0-.22-1.16l-1.64-1.35a13.11 13.11 0 0 0 1-3.3l2.11-.21a.91.91 0 0 0 .83-.85 16.31 16.31 0 0 0-.52-5.21Zm-.49 2.68a15.23 15.23 0 0 1 0 2.44l-2.45.24a.48.48 0 0 0-.43.41 11.93 11.93 0 0 1-1.13 3.73.49.49 0 0 0 .13.58l1.89 1.59A14.25 14.25 0 0 1 76 120l-1.88-1.54a.47.47 0 0 0-.59 0 11.85 11.85 0 0 1-3.44 1.83.49.49 0 0 0-.32.5l.22 2.47a16.53 16.53 0 0 1-2.37.43 12.35 12.35 0 0 1-2.43 0l-.25-2.43a.47.47 0 0 0-.41-.42 12 12 0 0 1-3.73-1.13.47.47 0 0 0-.35 0 .44.44 0 0 0-.23.15l-1.59 1.89a13.82 13.82 0 0 1-3.7-3.09l1.54-1.88a.48.48 0 0 0 0-.59 12 12 0 0 1-1.84-3.43.48.48 0 0 0-.5-.32l-2.46.21a14.56 14.56 0 0 1-.44-2.37 12.43 12.43 0 0 1 0-2.44l2.42-.24a.46.46 0 0 0 .39-.4 12 12 0 0 1 1.13-3.73.47.47 0 0 0-.12-.58l-1.9-1.59a14 14 0 0 1 3.09-3.7l1.88 1.53a.47.47 0 0 0 .59 0 11.75 11.75 0 0 1 3.44-1.83.48.48 0 0 0 .32-.5l-.22-2.47a15.45 15.45 0 0 1 2.37-.42 11.76 11.76 0 0 1 2.44 0l.24 2.43a.46.46 0 0 0 .41.42 11.93 11.93 0 0 1 3.73 1.13.49.49 0 0 0 .58-.13l1.59-1.89a14 14 0 0 1 3.71 3.09l-1.54 1.88a.47.47 0 0 0 0 .59 12.54 12.54 0 0 1 1.84 3.44.46.46 0 0 0 .5.31l2.46-.21a15 15 0 0 1 .42 2.3Zm400.61 129.29a15.36 15.36 0 0 1-.28 2.41 14.69 14.69 0 0 1-.67 2.34.76.76 0 0 1-.88.48l-2-.39a12.2 12.2 0 0 1-1.83 2.75l1.12 1.69a.77.77 0 0 1-.11 1 14.64 14.64 0 0 1-4 2.69.76.76 0 0 1-1-.28l-1.13-1.69a12.42 12.42 0 0 1-3.25.65l-.39 2a.79.79 0 0 1-.78.63 15.2 15.2 0 0 1-2.43-.28 14.85 14.85 0 0 1-2.34-.67.77.77 0 0 1-.48-.88l.4-2a12.47 12.47 0 0 1-2.75-1.84l-1.69 1.13a.79.79 0 0 1-1-.11 14.55 14.55 0 0 1-2.69-4 .76.76 0 0 1 .28-1l1.69-1.13a11.66 11.66 0 0 1-.65-3.24l-2-.4a.77.77 0 0 1-.63-.79 14.37 14.37 0 0 1 .28-2.41 14.67 14.67 0 0 1 .66-2.34.77.77 0 0 1 .88-.48l2 .39a12 12 0 0 1 1.84-2.75l-1.13-1.69a.79.79 0 0 1 .11-1 14.64 14.64 0 0 1 4-2.69.78.78 0 0 1 1 .28l1.12 1.69a12.59 12.59 0 0 1 3.25-.65l.4-2a.78.78 0 0 1 .78-.63 14.89 14.89 0 0 1 4.76 1 .77.77 0 0 1 .48.88l-.39 2a12.64 12.64 0 0 1 2.74 1.84l1.69-1.12a.76.76 0 0 1 1 .11 14.6 14.6 0 0 1 2.7 4 .78.78 0 0 1-.28 1l-1.69 1.13a12.25 12.25 0 0 1 .64 3.24l2 .4a.78.78 0 0 1 .65.73Zm-6.5 7.59a.35.35 0 0 1 .1-.26 11.3 11.3 0 0 0 2-3 .36.36 0 0 1 .41-.21l2.28.45a10.51 10.51 0 0 0 .68-2.24 13 13 0 0 0 .27-2.3l-2.32-.49a.36.36 0 0 1-.29-.35 11.45 11.45 0 0 0-.71-3.58.36.36 0 0 1 .14-.43l1.93-1.29a13 13 0 0 0-2.55-3.88l-2 1.29a.36.36 0 0 1-.45 0 11.41 11.41 0 0 0-3-2 .36.36 0 0 1-.21-.41l.45-2.27a.08.08 0 0 0 0-.05 14.83 14.83 0 0 0-2.23-.63 13 13 0 0 0-2.29-.27l-.49 2.31a.38.38 0 0 1-.35.3 11.28 11.28 0 0 0-3.58.71.38.38 0 0 1-.44-.14l-1.29-1.93a13 13 0 0 0-3.87 2.54l1.28 2a.36.36 0 0 1 0 .46 11.14 11.14 0 0 0-2 3 .36.36 0 0 1-.41.21l-2.28-.45a11.12 11.12 0 0 0-.68 2.24 15.17 15.17 0 0 0-.27 2.3l2.32.49a.37.37 0 0 1 .3.35 11.07 11.07 0 0 0 .71 3.58.37.37 0 0 1-.15.43l-1.92 1.29a12.78 12.78 0 0 0 2.54 3.88l2-1.29a.36.36 0 0 1 .45 0 11.63 11.63 0 0 0 3 2 .38.38 0 0 1 .21.41l-.46 2.27a11 11 0 0 0 2.25.69 13.61 13.61 0 0 0 2.3.26l.49-2.31a.37.37 0 0 1 .35-.3 11.22 11.22 0 0 0 3.57-.71.38.38 0 0 1 .44.14l1.29 1.93a13 13 0 0 0 3.88-2.54l-1.29-2a.36.36 0 0 1-.11-.2ZM474 236a7.13 7.13 0 0 1-11 6.09 6.71 6.71 0 0 1-3.11-4.65 7.15 7.15 0 0 1 10.91-7.28 6.71 6.71 0 0 1 3.11 4.65A8 8 0 0 1 474 236Zm-13.47.25a7.87 7.87 0 0 0 .09 1.08 6 6 0 0 0 2.76 4.13 6.41 6.41 0 0 0 9.8-6.54 6 6 0 0 0-2.76-4.13 6.39 6.39 0 0 0-9.89 5.46ZM448 209.26a5.46 5.46 0 0 0 2.52 3.78 5.86 5.86 0 0 0 6.37 0 5.77 5.77 0 0 0 2.52-4.13 6.49 6.49 0 0 0 .05-.77 6.35 6.35 0 0 0-.08-1 5.49 5.49 0 0 0-2.52-3.78 5.81 5.81 0 0 0-8.86 5.92Zm8.48-5.31a4.74 4.74 0 0 1 2.2 3.28 5.09 5.09 0 0 1-7.79 5.2 4.74 4.74 0 0 1-2.19-3.28 6.23 6.23 0 0 1-.07-.86 5.17 5.17 0 0 1 0-.68 5.07 5.07 0 0 1 7.81-3.66Zm-2.42-7.66a.69.69 0 0 0-.69.55l-.31 1.56a10 10 0 0 0-2.53.5l-.88-1.32a.71.71 0 0 0-.86-.24 11.7 11.7 0 0 0-3.25 2.17.7.7 0 0 0-.1.88l.88 1.32a9.93 9.93 0 0 0-1.43 2.15l-1.56-.31a.69.69 0 0 0-.78.43 11.74 11.74 0 0 0-.54 1.89 11.88 11.88 0 0 0-.22 1.95.68.68 0 0 0 .55.69l1.56.31a9.69 9.69 0 0 0 .5 2.54l-1.32.88a.67.67 0 0 0-.24.85 12 12 0 0 0 2.17 3.26.68.68 0 0 0 .88.09l1.32-.88a10 10 0 0 0 2.15 1.44l-.31 1.55a.68.68 0 0 0 .42.78 12.69 12.69 0 0 0 1.89.54 11.65 11.65 0 0 0 2 .22.67.67 0 0 0 .69-.55l.31-1.56a9.54 9.54 0 0 0 2.53-.5l.89 1.32a.68.68 0 0 0 .85.25 11.93 11.93 0 0 0 3.26-2.18.68.68 0 0 0 .11-.87l-.88-1.32a9.47 9.47 0 0 0 1.43-2.15l1.57.31a.67.67 0 0 0 .77-.42 12 12 0 0 0 .54-1.89c.06-.3.11-.59.14-.89a9.86 9.86 0 0 0 .09-1.07.71.71 0 0 0-.56-.67l-1.56-.31A9.39 9.39 0 0 0 463 205l1.32-.88a.7.7 0 0 0 .25-.85 11.93 11.93 0 0 0-2.18-3.26.7.7 0 0 0-.88-.1l-1.32.88a9.7 9.7 0 0 0-2.15-1.43l.31-1.56a.66.66 0 0 0-.43-.77 10.68 10.68 0 0 0-1.89-.54 11.91 11.91 0 0 0-1.96-.2Zm1.81.93a11.25 11.25 0 0 1 1.76.49l-.36 1.81a.34.34 0 0 0 .2.39 9.24 9.24 0 0 1 2.42 1.62.35.35 0 0 0 .44 0l1.55-1a10.2 10.2 0 0 1 2 3l-1.51 1a.36.36 0 0 0-.13.42 8.92 8.92 0 0 1 .56 2.86.36.36 0 0 0 .29.34l1.81.38a11 11 0 0 1-.21 1.79 8.91 8.91 0 0 1-.52 1.74l-1.79-.35a.36.36 0 0 0-.39.2 9.13 9.13 0 0 1-1.62 2.43.4.4 0 0 0-.1.24.66.66 0 0 0 .06.2l1 1.55a10.52 10.52 0 0 1-3 2l-1-1.52a.34.34 0 0 0-.42-.13 9.32 9.32 0 0 1-2.86.57.34.34 0 0 0-.33.28l-.39 1.81a10.79 10.79 0 0 1-1.79-.21 9.06 9.06 0 0 1-1.74-.52l.35-1.79a.36.36 0 0 0-.21-.37 9.16 9.16 0 0 1-2.42-1.62.36.36 0 0 0-.44 0l-1.55 1a10.45 10.45 0 0 1-2-3l1.51-1a.34.34 0 0 0 .13-.42 9 9 0 0 1-.56-2.86.35.35 0 0 0-.29-.33l-1.81-.39a10.8 10.8 0 0 1 .21-1.78 8.55 8.55 0 0 1 .53-1.75l1.78.36a.37.37 0 0 0 .4-.21A8.89 8.89 0 0 1 447 202a.35.35 0 0 0 0-.44l-1-1.55a10.45 10.45 0 0 1 3-2l1 1.51a.36.36 0 0 0 .42.14 8.77 8.77 0 0 1 2.86-.57.37.37 0 0 0 .34-.29l.38-1.81a11.09 11.09 0 0 1 1.88.23ZM239.91 58.63a21.06 21.06 0 0 1-1.51-3.26 22 22 0 0 1-1-3.46 1.13 1.13 0 0 1 .74-1.29l2.82-1a17.7 17.7 0 0 1 .2-4.88l-2.73-1.26a1.17 1.17 0 0 1-.63-1.35 21.74 21.74 0 0 1 3-6.5 1.16 1.16 0 0 1 1.43-.4l2.77 1.19a17.36 17.36 0 0 1 3.59-3.31l-1-2.82a1.16 1.16 0 0 1 .5-1.4 23.63 23.63 0 0 1 3.27-1.52 22 22 0 0 1 3.47-.95 1.15 1.15 0 0 1 1.29.74l1 2.82a17.83 17.83 0 0 1 4.89.2l1.26-2.73a1.14 1.14 0 0 1 1.34-.63 21.76 21.76 0 0 1 6.5 3 1.14 1.14 0 0 1 .39 1.44L270.23 34a17.39 17.39 0 0 1 3.31 3.6l2.83-1a1.13 1.13 0 0 1 1.39.51 21.06 21.06 0 0 1 1.51 3.26 22 22 0 0 1 1 3.46 1.14 1.14 0 0 1-.73 1.29l-2.83 1a17.39 17.39 0 0 1-.2 4.88l2.73 1.26a1.18 1.18 0 0 1 .63 1.35 21.74 21.74 0 0 1-3 6.5 1.16 1.16 0 0 1-1.43.4l-2.73-1.27a17.88 17.88 0 0 1-3.59 3.31l1 2.82a1.15 1.15 0 0 1-.5 1.4 22.71 22.71 0 0 1-3.27 1.51 23.58 23.58 0 0 1-3.46 1 1.16 1.16 0 0 1-1.3-.74l-1-2.82a17.74 17.74 0 0 1-4.88-.2l-1.26 2.72a1.15 1.15 0 0 1-1.35.63 21.52 21.52 0 0 1-6.5-3 1.13 1.13 0 0 1-.39-1.43l1.26-2.72a17.72 17.72 0 0 1-3.31-3.6l-2.83 1a1.14 1.14 0 0 1-1.42-.49Zm2.35-14.58a.61.61 0 0 1 .07.4 16.5 16.5 0 0 0-.22 5.39.55.55 0 0 1-.35.58l-3.23 1.18a16.5 16.5 0 0 0 .87 3.4 20.87 20.87 0 0 0 1.43 3.1l3.3-1.16a.55.55 0 0 1 .65.21 16.45 16.45 0 0 0 3.65 4 .56.56 0 0 1 .16.66l-1.44 3.11a19.44 19.44 0 0 0 6.19 2.93l1.51-3.15a.54.54 0 0 1 .6-.3 16.82 16.82 0 0 0 5.39.22.55.55 0 0 1 .58.36l1.18 3.21a.06.06 0 0 0 .06 0 21.46 21.46 0 0 0 3.3-.92 20.87 20.87 0 0 0 3.1-1.43l-1.16-3.29a.54.54 0 0 1 .21-.64 17.25 17.25 0 0 0 4-3.66.53.53 0 0 1 .65-.16l3.11 1.45a19.61 19.61 0 0 0 2.94-6.2l-3.15-1.51a.54.54 0 0 1-.31-.6 16.57 16.57 0 0 0 .22-5.39.55.55 0 0 1 .35-.58l3.23-1.18a16.5 16.5 0 0 0-.87-3.35 20.87 20.87 0 0 0-1.43-3.1l-3.3 1.16a.55.55 0 0 1-.65-.21 16.2 16.2 0 0 0-3.65-4 .56.56 0 0 1-.16-.66l1.44-3.11a19.36 19.36 0 0 0-6.19-2.94L262.81 31a.55.55 0 0 1-.6.31 16.91 16.91 0 0 0-5.4-.22.53.53 0 0 1-.57-.36l-1.19-3.22a16.47 16.47 0 0 0-3.35.87 19.92 19.92 0 0 0-3.11 1.44l1.17 3.29a.54.54 0 0 1-.22.64 16.81 16.81 0 0 0-4 3.66.54.54 0 0 1-.65.16l-3.12-1.45a19.61 19.61 0 0 0-2.94 6.2l3.17 1.53a.59.59 0 0 1 .26.2Zm7.74 9.41a10.54 10.54 0 0 1-.66-10.05 10.67 10.67 0 0 1 9.84-6.12 10 10 0 0 1 7.5 3.47 10.57 10.57 0 0 1-8.14 17.6 10 10 0 0 1-7.5-3.48 10.75 10.75 0 0 1-1.04-1.42Zm16.79-10.7a10.61 10.61 0 0 0-.94-1.29 8.86 8.86 0 0 0-6.67-3.09 9.48 9.48 0 0 0-7.31 15.8 8.89 8.89 0 0 0 6.67 3.09 9.59 9.59 0 0 0 8.85-5.5 9.47 9.47 0 0 0-.63-9.01Zm36.52 24.42a8.09 8.09 0 0 0-6.1-2.83 8.66 8.66 0 0 0-8 5 8.57 8.57 0 0 0 0 7.16 8.06 8.06 0 0 0 .54 1 8.79 8.79 0 0 0 .84 1.16 8.06 8.06 0 0 0 6.09 2.82 8.57 8.57 0 0 0 6.62-14.28Zm.43 8.86a7.63 7.63 0 0 1-7.05 4.37A7 7 0 0 1 291.4 78a7.52 7.52 0 0 1 5.81-12.55 7 7 0 0 1 5.3 2.44 11.69 11.69 0 0 1 .75 1 9.67 9.67 0 0 1 .48.9 7.56 7.56 0 0 1 0 6.21Zm9.62.35-2.12-1a13.91 13.91 0 0 0 .15-3.81l2.2-.81a1 1 0 0 0 .66-1.14 16.57 16.57 0 0 0-.78-2.79 18.67 18.67 0 0 0-1.21-2.64 1 1 0 0 0-1.23-.45l-2.21.81a14.37 14.37 0 0 0-2.59-2.81l1-2.12a1 1 0 0 0-.35-1.27 17.69 17.69 0 0 0-5.25-2.43 1 1 0 0 0-1.19.55l-1 2.13a14.39 14.39 0 0 0-3.82-.15l-.8-2.2a1 1 0 0 0-1.14-.65 17 17 0 0 0-5.44 2 1 1 0 0 0-.44 1.24l.8 2.2a14.55 14.55 0 0 0-2.8 2.58l-2.14-1a1 1 0 0 0-1.26.34 17.92 17.92 0 0 0-2.4 5.27 1 1 0 0 0 .56 1.19l2.13 1a14.28 14.28 0 0 0-.16 3.81l-2.23.76a1 1 0 0 0-.64 1.14 15.68 15.68 0 0 0 .78 2.79c.15.42.32.83.49 1.23a15.6 15.6 0 0 0 .73 1.41 1 1 0 0 0 1.21.42l2.21-.82a14.17 14.17 0 0 0 2.59 2.82l-1 2.12a1 1 0 0 0 .34 1.26 17.31 17.31 0 0 0 5.27 2.43 1 1 0 0 0 1.18-.55l1-2.13a14.74 14.74 0 0 0 3.81.16l.81 2.2a1 1 0 0 0 1.14.65 19.93 19.93 0 0 0 2.8-.77 17.18 17.18 0 0 0 2.64-1.23 1 1 0 0 0 .44-1.13l-.81-2.2a14.71 14.71 0 0 0 2.81-2.6l2.13 1a1 1 0 0 0 1.26-.34 17.64 17.64 0 0 0 2.44-5.26 1 1 0 0 0-.57-1.21Zm-2.75 5.8-2.44-1.13a.51.51 0 0 0-.63.15 13.51 13.51 0 0 1-3.17 2.92.5.5 0 0 0-.2.62l.9 2.58a16.67 16.67 0 0 1-2.42 1.1 14.89 14.89 0 0 1-2.6.72l-.94-2.55a.51.51 0 0 0-.55-.34 13.51 13.51 0 0 1-4.3-.18.54.54 0 0 0-.58.3l-1.19 2.45a15.21 15.21 0 0 1-4.81-2.27l1.12-2.44a.52.52 0 0 0-.15-.63 13.58 13.58 0 0 1-2.92-3.17.51.51 0 0 0-.62-.21l-2.59.92a17.7 17.7 0 0 1-1.1-2.42 14.06 14.06 0 0 1-.69-2.61l2.54-.93a.53.53 0 0 0 .34-.55 13.46 13.46 0 0 1 .16-4.3.53.53 0 0 0-.06-.39.69.69 0 0 0-.22-.2L281 68.45a15.49 15.49 0 0 1 2.28-4.82l2.44 1.13a.53.53 0 0 0 .64-.16 13.46 13.46 0 0 1 3.16-2.91.52.52 0 0 0 .2-.62l-.9-2.58a14.31 14.31 0 0 1 2.42-1.11 12.38 12.38 0 0 1 2.6-.69l.93 2.52a.5.5 0 0 0 .55.3 13.89 13.89 0 0 1 4.31.18.5.5 0 0 0 .57-.29l1.21-2.4a15.84 15.84 0 0 1 4.82 2.28l-1.12 2.45a.51.51 0 0 0 .15.63 13.1 13.1 0 0 1 2.91 3.17.54.54 0 0 0 .63.21l2.57-.92a17.25 17.25 0 0 1 1.12 2.42 14.11 14.11 0 0 1 .68 2.6l-2.53.93a.53.53 0 0 0-.34.56 13.22 13.22 0 0 1-.17 4.3.53.53 0 0 0 .29.59l2.47 1.18a15.72 15.72 0 0 1-2.28 4.79Zm-13.4-17.84a8.66 8.66 0 0 0-8 5 8.57 8.57 0 0 0 0 7.16 8.06 8.06 0 0 0 .54 1 8.79 8.79 0 0 0 .84 1.16 8.06 8.06 0 0 0 6.09 2.82 8.57 8.57 0 0 0 6.62-14.28 8.09 8.09 0 0 0-6.09-2.86ZM303.74 76a7.63 7.63 0 0 1-7.05 4.37A7 7 0 0 1 291.4 78a7.52 7.52 0 0 1 5.81-12.55 7 7 0 0 1 5.3 2.44 11.69 11.69 0 0 1 .75 1 9.67 9.67 0 0 1 .48.9 7.56 7.56 0 0 1 0 6.21Zm-.43-8.86a8.09 8.09 0 0 0-6.1-2.83 8.66 8.66 0 0 0-8 5 8.57 8.57 0 0 0 0 7.16 8.06 8.06 0 0 0 .54 1 8.79 8.79 0 0 0 .84 1.16 8.06 8.06 0 0 0 6.09 2.82 8.57 8.57 0 0 0 6.62-14.28Zm.43 8.86a7.63 7.63 0 0 1-7.05 4.37A7 7 0 0 1 291.4 78a7.52 7.52 0 0 1 5.81-12.55 7 7 0 0 1 5.3 2.44 11.69 11.69 0 0 1 .75 1 9.67 9.67 0 0 1 .48.9 7.56 7.56 0 0 1 0 6.21Zm167.99-27.64a7.33 7.33 0 0 0-5.52-2.56 7.83 7.83 0 0 0-7.21 4.5 7.74 7.74 0 0 0 0 6.47 6.66 6.66 0 0 0 .49.91 7.79 7.79 0 0 0 .76 1 7.29 7.29 0 0 0 5.51 2.55 7.76 7.76 0 0 0 6-12.92Zm.38 8a6.89 6.89 0 0 1-6.37 3.95 6.36 6.36 0 0 1-4.74-2.2 6.81 6.81 0 0 1 5.26-11.35A6.31 6.31 0 0 1 471 49a8.49 8.49 0 0 1 .68.93 7.82 7.82 0 0 1 .43.81 6.8 6.8 0 0 1 0 5.64Zm8.71.31-1.92-.89a12.87 12.87 0 0 0 .14-3.45l2-.73a.91.91 0 0 0 .59-1 15.35 15.35 0 0 0-.7-2.53 16.8 16.8 0 0 0-1.1-2.39.91.91 0 0 0-1.11-.4l-2 .73a13.11 13.11 0 0 0-2.34-2.54l.89-1.92a.92.92 0 0 0-.31-1.15 15.94 15.94 0 0 0-4.75-2.2.93.93 0 0 0-1.08.5l-.89 1.93a12.87 12.87 0 0 0-3.45-.14l-.73-2a.9.9 0 0 0-1-.59 15.77 15.77 0 0 0-2.53.69 16.68 16.68 0 0 0-2.39 1.11.92.92 0 0 0-.4 1.12l.73 2a13.11 13.11 0 0 0-2.54 2.34l-1.93-.9a.91.91 0 0 0-1.14.31 16.17 16.17 0 0 0-2.2 4.75.93.93 0 0 0 .5 1.08l1.93.89a12.84 12.84 0 0 0-.14 3.45l-2 .73a.91.91 0 0 0-.58 1A14.67 14.67 0 0 0 451 59q.21.57.45 1.11a14 14 0 0 0 .66 1.28.91.91 0 0 0 1.09.38l2-.74a12.9 12.9 0 0 0 2.34 2.55l-.89 1.92a.91.91 0 0 0 .31 1.14 15.41 15.41 0 0 0 4.76 2.2.91.91 0 0 0 1.07-.5l.89-1.93a13.3 13.3 0 0 0 3.45.15l.73 2a.92.92 0 0 0 1 .59 17.47 17.47 0 0 0 2.53-.7 15.8 15.8 0 0 0 2.39-1.11.91.91 0 0 0 .4-1.11l-.73-2a13.13 13.13 0 0 0 2.54-2.35l1.93.9a.92.92 0 0 0 1.14-.31 16.11 16.11 0 0 0 2.2-4.76.93.93 0 0 0-.44-1.02Zm-2.49 5.25-2.21-1a.46.46 0 0 0-.57.13 12.24 12.24 0 0 1-2.87 2.65.46.46 0 0 0-.18.56l.82 2.33a15.07 15.07 0 0 1-2.19 1 14.05 14.05 0 0 1-2.35.65l-.85-2.31a.48.48 0 0 0-.5-.31 12.1 12.1 0 0 1-3.89-.16.48.48 0 0 0-.53.27L461.94 68a13.78 13.78 0 0 1-4.36-2.06l1-2.2a.48.48 0 0 0-.14-.57 12.45 12.45 0 0 1-2.64-2.87.46.46 0 0 0-.56-.19l-2.34.83a16.12 16.12 0 0 1-1-2.19 12 12 0 0 1-.62-2.36l2.29-.84a.47.47 0 0 0 .31-.5 12.07 12.07 0 0 1 .15-3.89.47.47 0 0 0-.06-.35.49.49 0 0 0-.2-.18l-2.23-1.07a14 14 0 0 1 2.06-4.36l2.21 1a.48.48 0 0 0 .58-.14 12 12 0 0 1 2.86-2.64.47.47 0 0 0 .18-.56l-.82-2.33a13.57 13.57 0 0 1 2.19-1 12 12 0 0 1 2.36-.62l.84 2.28a.46.46 0 0 0 .49.27 12.47 12.47 0 0 1 3.9.16.46.46 0 0 0 .52-.26l1.09-2.24a14.36 14.36 0 0 1 4.36 2.07l-1 2.21a.47.47 0 0 0 .14.57 12 12 0 0 1 2.63 2.87.49.49 0 0 0 .57.19l2.3-.83a15.62 15.62 0 0 1 1 2.19 12.83 12.83 0 0 1 .62 2.35l-2.29.84a.48.48 0 0 0-.31.51 12.11 12.11 0 0 1-.12 3.91.47.47 0 0 0 .26.53l2.23 1.07a14.21 14.21 0 0 1-2.06 4.34ZM466.21 45.8a7.83 7.83 0 0 0-7.21 4.5 7.74 7.74 0 0 0 0 6.47 6.66 6.66 0 0 0 .49.91 7.79 7.79 0 0 0 .76 1 7.29 7.29 0 0 0 5.51 2.55 7.76 7.76 0 0 0 6-12.92 7.33 7.33 0 0 0-5.55-2.51Zm5.9 10.58a6.89 6.89 0 0 1-6.37 3.95 6.36 6.36 0 0 1-4.74-2.22 6.81 6.81 0 0 1 5.26-11.35A6.31 6.31 0 0 1 471 49a8.49 8.49 0 0 1 .68.93 7.82 7.82 0 0 1 .43.81 6.8 6.8 0 0 1 0 5.64Zm-.38-8a7.33 7.33 0 0 0-5.52-2.56A7.83 7.83 0 0 0 459 50.3a7.74 7.74 0 0 0 0 6.47 6.66 6.66 0 0 0 .49.91 7.79 7.79 0 0 0 .76 1 7.29 7.29 0 0 0 5.51 2.55 7.76 7.76 0 0 0 6-12.92Zm.38 8a6.89 6.89 0 0 1-6.37 3.95 6.36 6.36 0 0 1-4.74-2.22 6.81 6.81 0 0 1 5.26-11.35A6.31 6.31 0 0 1 471 49a8.49 8.49 0 0 1 .68.93 7.82 7.82 0 0 1 .43.81 6.8 6.8 0 0 1 0 5.64Z"/><path fill="#f0f0f0" d="M212.19 68.81a10.2 10.2 0 0 0 .13-3.35.41.41 0 0 1 .27-.43l2-.73a11.73 11.73 0 0 0-.54-2 14 14 0 0 0-.86-1.88l-2 .71a.43.43 0 0 1-.49-.16 10.21 10.21 0 0 0-2.26-2.47.4.4 0 0 1-.12-.49l.88-1.9a12.46 12.46 0 0 0-3.75-1.78l-.92 1.93a.39.39 0 0 1-.45.22 11.09 11.09 0 0 0-3.35-.14.38.38 0 0 1-.42-.23l-.72-2a9.82 9.82 0 0 0-2 .53 12 12 0 0 0-1.89.87l.71 2a.4.4 0 0 1-.16.48 10.38 10.38 0 0 0-2.45 2.27.41.41 0 0 1-.5.12l-1.9-.87a11.76 11.76 0 0 0-1.77 3.75l1.91.92a.35.35 0 0 1 .17.15.4.4 0 0 1 .06.3 10.16 10.16 0 0 0-.13 3.35.42.42 0 0 1-.27.43l-2 .72a11.52 11.52 0 0 0 .53 2 16.09 16.09 0 0 0 .86 1.88l2-.71a.4.4 0 0 1 .48.16 10.69 10.69 0 0 0 2.24 2.54.41.41 0 0 1 .12.49l-.88 1.89a11.87 11.87 0 0 0 3.75 1.77l.92-1.91a.43.43 0 0 1 .46-.23 10.4 10.4 0 0 0 3.34.14.4.4 0 0 1 .43.26l.73 2a12 12 0 0 0 2-.56 13 13 0 0 0 1.89-.86l-.71-2a.39.39 0 0 1 .15-.48 10.5 10.5 0 0 0 2.47-2.28.39.39 0 0 1 .49-.11l1.9.87a12 12 0 0 0 1.77-3.75l-1.91-.92a.39.39 0 0 1-.21-.51Zm-5.15.26a5.7 5.7 0 0 1-5.27 3.28 5.32 5.32 0 0 1-4-1.86 5.88 5.88 0 0 1-.55-.76 5.38 5.38 0 0 1-.36-.67 5.65 5.65 0 0 1 0-4.71 5.71 5.71 0 0 1 5.27-3.28 5.33 5.33 0 0 1 4 1.87 5.68 5.68 0 0 1 .87 6.13Z"/><path fill="#37474f" d="m335.05 325.39-4.93-2.86 1.62 103.99 3.31 1.91V325.39z"/><path fill="#263238" d="m335.05 325.39 4.93-2.86-1.63 103.99-3.3 1.91V325.39z"/><path fill="#37474f" d="m202.85 249.07-4.93-2.86 1.63 103.99 3.3 1.9V249.07z"/><path fill="#263238" d="m202.85 249.07 4.94-2.86-1.63 103.99-3.31 1.9V249.07z"/><path fill="#37474f" d="m401.14 287.23-4.93-2.86 1.62 103.99 3.31 1.91V287.23z"/><path fill="#263238" d="m401.14 287.23 4.93-2.86-1.63 103.99-3.3 1.91V287.23z"/><path fill="#37474f" d="m268.94 210.91-4.93-2.86 1.63 103.99 3.3 1.9V210.91z"/><path fill="#263238" d="m268.94 210.91 4.94-2.86-1.63 103.99-3.31 1.9V210.91z"/><path fill="#061d44" d="M442 277.43v-4.25a2.41 2.41 0 0 0-1.1-1.89L262.08 168.05a2.42 2.42 0 0 0-2.19 0l-94.24 54.52a2.43 2.43 0 0 0-1.09 1.9v4.25a2.43 2.43 0 0 0 1.09 1.89l178.78 103.24a2.42 2.42 0 0 0 2.19 0l94.23-54.52a2.42 2.42 0 0 0 1.15-1.9Z"/><path fill="#fff" d="M442 277.43v-4.25a2.41 2.41 0 0 0-1.1-1.89L262.08 168.05a2.42 2.42 0 0 0-2.19 0l-94.24 54.52a2.43 2.43 0 0 0-1.09 1.9v4.25a2.43 2.43 0 0 0 1.09 1.89l178.78 103.24a2.42 2.42 0 0 0 2.19 0l94.23-54.52a2.42 2.42 0 0 0 1.15-1.9Z" opacity=".2"/><path fill="#061d44" d="M345.52 327.34v6.77a2.32 2.32 0 0 0 1.1-.26l94.23-54.52a2.4 2.4 0 0 0 1.1-1.89v-4.26a2.42 2.42 0 0 0-.9-1.75c.4.34.33.81-.2 1.12l-94.23 54.53a2.32 2.32 0 0 1-1.1.26Z"/><path fill="#061d44" d="m440.85 272.55-94.23 54.52a2.42 2.42 0 0 1-2.19 0L165.65 223.83a.67.67 0 0 1 0-1.26l94.24-54.52a2.42 2.42 0 0 1 2.19 0l178.77 103.24a.66.66 0 0 1 0 1.26Z"/><path fill="#fff" d="m440.85 272.55-94.23 54.52a2.42 2.42 0 0 1-2.19 0L165.65 223.83a.67.67 0 0 1 0-1.26l94.24-54.52a2.42 2.42 0 0 1 2.19 0l178.77 103.24a.66.66 0 0 1 0 1.26Z" opacity=".5"/><path d="m332.77 273.86 37.55-21.41a3.2 3.2 0 0 1 2.86 0L411 274.28a.88.88 0 0 1 0 1.66l-37.4 21.62a3.17 3.17 0 0 1-2.86 0l-38-22a.87.87 0 0 1 .03-1.7Z" opacity=".2"/><path fill="#455a64" d="m333.55 266.62 36.98-21.36 13.31 7.69-36.98 21.36-13.31-7.69z"/><path fill="#263238" d="m344.73 271.44-7.09-4.1a.59.59 0 0 1 0-1.11l7.14-4.12a2.1 2.1 0 0 1 1.92 0l7.05 4.11a.59.59 0 0 1 0 1.11l-7.1 4.1a2.16 2.16 0 0 1-1.92.01Z"/><path fill="#37474f" d="m344.78 263.5-6.9 4 6.85 4a2.16 2.16 0 0 0 1.92 0l6.86-4-6.81-4a2.13 2.13 0 0 0-1.92 0Z"/><path fill="#263238" d="m370 256.87-7.09-4.1a.59.59 0 0 1 0-1.11l7.14-4.12a2.1 2.1 0 0 1 1.92 0l7.05 4.11a.59.59 0 0 1 0 1.11l-7.09 4.1a2.16 2.16 0 0 1-1.93.01Z"/><path fill="#37474f" d="m371.89 256.87 6.86-4-6.81-4a2.1 2.1 0 0 0-1.92 0l-6.9 4 6.85 4a2.16 2.16 0 0 0 1.92 0Z"/><path fill="#263238" d="m373.41 253.81-2.25 3.28a2.28 2.28 0 0 1-.37 0 1.7 1.7 0 0 1-.82-.22l-2.27-1.31-2.76-1.6-.82-.47 2-3.67.09-.18.11.06 3 1.74Z"/><path fill="#455a64" d="M378.81 250.25a.52.52 0 0 0-.07-.22.38.38 0 0 0-.07-.17 1.75 1.75 0 0 0-.29-.42l-.15-.14a3.36 3.36 0 0 0-.43-.31l-.28-.15-6.45-3.73-.2-.12h-.06l-.37-.18c-.8-.34-2.86-.18-5.53 1.34S346 257 346 257a21.19 21.19 0 0 0-5.86 5.14 6.23 6.23 0 0 0-1.28 3v2.88l5.85 3.38a2 2 0 0 0 1 .23 2.06 2.06 0 0 0 .94-.21l7-4 .28-1.1.27-1.1a7.22 7.22 0 0 1 3.12-3.69l9.86-5.69a3.83 3.83 0 0 1 .57-.29c1.21-.51 2.32-.39 2.62.34l.47 1.19a2.28 2.28 0 0 0 .37 0 2 2 0 0 0 .71-.2l6.95-4v-2.27a1.79 1.79 0 0 0-.06-.36Z"/><path fill="#37474f" d="M378.84 250.59v2.27l-6.95 4a2 2 0 0 1-.71.2 2.28 2.28 0 0 1-.37 0l-.47-1.19c-.3-.73-1.41-.85-2.62-.34a3.83 3.83 0 0 0-.57.29l-9.86 5.69a7.22 7.22 0 0 0-3.12 3.69l-.27 1.1-.28 1.1-7 4a2.06 2.06 0 0 1-.94.21v-2.51a6 6 0 0 1 1.28-3 18 18 0 0 1 2.29-2.49 19.92 19.92 0 0 1 3.57-2.65l12.11-7 4.36-2.52c1.1-.64 1.95-1.13 2.41-1.38a12.55 12.55 0 0 1 2.58-1.14 4.8 4.8 0 0 1 2.95-.2l.28.12.28.15a3.36 3.36 0 0 1 .43.31l.15.14a1.75 1.75 0 0 1 .29.42.38.38 0 0 1 .07.17.52.52 0 0 1 .07.22 1.79 1.79 0 0 1 .04.34Z"/><path fill="#263238" d="M335 270.89v2.45a1.67 1.67 0 0 0 .84 1.45l35.29 20.39a1.68 1.68 0 0 0 1.68 0l33.83-19.53a1.67 1.67 0 0 0 .84-1.45v-2.45l-34.67 20a1.68 1.68 0 0 1-1.68 0Z"/><path fill="#455a64" d="M408.98 260.64v6.84l-36.99 21.35-25.15-14.52 23.67-13.67 13.31-14.52 25.16 14.52z"/><path fill="#37474f" d="M395.66 275.16 372 288.83l-38.44-22.21v2.44a1.69 1.69 0 0 0 .84 1.46l36.76 21.24a1.68 1.68 0 0 0 1.68 0l35.31-20.38a1.68 1.68 0 0 0 .84-1.45v-9.29Z"/><path fill="#263238" d="m371.83 288.74-38.28-22.12v2.44a1.69 1.69 0 0 0 .84 1.46l36.76 21.24a1.56 1.56 0 0 0 .68.22Z"/><path d="M371.15 291.76 335 270.89v2.45a1.67 1.67 0 0 0 .84 1.45l35.29 20.39a1.7 1.7 0 0 0 .68.22V292a1.56 1.56 0 0 1-.66-.24Z"/><path fill="#fff" d="m408.98 260.64-25.14-13.49-13.33 13.49 13.31-14.52 25.16 14.52zm-13.32 14.52-19.62-11.32 20.13 10.77-.51.55z" opacity=".1"/><path fill="#263238" d="m370.51 260.64-23.65 13.67-.48-.28 24.13-13.39z"/><path fill="#061d44" d="m398.87 265.23-18.02-10.41 4.36-4.77 17.97 10.38-4.31 4.8z"/><path d="m402.78 260.88.4-.45-17.97-10.38-4.36 4.77.54.31 3.95-4.32 17.44 10.07z" opacity=".15"/><path d="m385.34 250.81-.13-.76-4.36 4.77.54.31 3.95-4.32z" opacity=".15"/><path fill="#fff" d="m382.9 264.86-6.2-3.6 1.06-1.14 6.17 3.58a.36.36 0 0 1 .09.56l-.44.49a.58.58 0 0 1-.68.11Z"/><path fill="#061d44" d="M378.19 259.89a.21.21 0 0 0-.11-.14l-1.07-.61a.38.38 0 0 0-.43.07l-.92 1a.21.21 0 0 0-.06.19c0 .06.08.35.09.41a.29.29 0 0 0 .12.15l1.06.6a.36.36 0 0 0 .43-.06l.93-1a.25.25 0 0 0 .06-.2c-.02-.06-.08-.3-.1-.41Z"/><path d="M377.13 261.6a.39.39 0 0 0 .17-.09l.93-1a.25.25 0 0 0 .06-.2c0-.06-.08-.34-.1-.41a.21.21 0 0 0-.11-.14l-1.07-.61a.31.31 0 0 0-.23 0Z" opacity=".15"/><path d="M376.78 259.11a.35.35 0 0 0-.2.1l-.92 1a.21.21 0 0 0-.06.19c0 .06.08.35.09.41a.29.29 0 0 0 .12.15l1.06.6a.34.34 0 0 0 .26 0Z" opacity=".3"/><path fill="#061d44" d="m377.21 261.1.92-1a.21.21 0 0 0-.05-.34l-1.06-.61a.4.4 0 0 0-.44.07l-.92 1a.21.21 0 0 0 0 .34l1.07.61a.38.38 0 0 0 .48-.07Z"/><path fill="#fff" d="m385.35 262.18-6.19-3.6 1-1.14 6.18 3.58a.34.34 0 0 1 .08.55l-.44.5a.57.57 0 0 1-.63.11Z"/><path fill="#061d44" d="M380.65 257.21a.19.19 0 0 0-.12-.14l-1.06-.61a.35.35 0 0 0-.43.07l-.92 1a.24.24 0 0 0-.07.2c0 .06.08.35.1.41a.23.23 0 0 0 .11.15l1.07.6a.35.35 0 0 0 .43-.07l.92-1a.2.2 0 0 0 .06-.2c-.01-.06-.08-.34-.09-.41Z"/><path d="M379.59 258.92a.42.42 0 0 0 .17-.1l.92-1a.2.2 0 0 0 .06-.2c0-.06-.08-.34-.09-.41a.19.19 0 0 0-.12-.14l-1.06-.61a.33.33 0 0 0-.24 0Z" opacity=".15"/><path d="M379.23 256.43a.3.3 0 0 0-.19.1l-.92 1a.24.24 0 0 0-.07.2c0 .06.08.35.1.41a.23.23 0 0 0 .11.15l1.07.6a.33.33 0 0 0 .26 0Z" opacity=".3"/><path fill="#061d44" d="m379.66 258.42.93-1a.21.21 0 0 0-.06-.34l-1.06-.61a.35.35 0 0 0-.43.07l-.92 1a.21.21 0 0 0 .05.35l1.06.6a.36.36 0 0 0 .43-.07Z"/><path fill="#fff" d="m393.21 270.81-6.19-3.6 1.05-1.15 6.17 3.59a.35.35 0 0 1 .09.55l-.44.5a.58.58 0 0 1-.68.11Z"/><path fill="#061d44" d="M388.5 265.84a.23.23 0 0 0-.11-.15l-1.06-.6a.37.37 0 0 0-.44.07l-.92 1a.25.25 0 0 0-.06.2c0 .06.08.35.09.41a.29.29 0 0 0 .12.15l1.06.6a.35.35 0 0 0 .43-.07l.93-1a.26.26 0 0 0 .06-.2c-.02-.06-.08-.34-.1-.41Z"/><path d="M387.44 267.55a.32.32 0 0 0 .17-.1l.93-1a.26.26 0 0 0 .06-.2c0-.06-.08-.34-.1-.41a.23.23 0 0 0-.11-.15l-1.06-.6a.4.4 0 0 0-.24 0Z" opacity=".15"/><path d="M387.09 265.05a.36.36 0 0 0-.2.11l-.92 1a.25.25 0 0 0-.06.2c0 .06.08.35.09.41a.29.29 0 0 0 .12.15l1.06.6a.39.39 0 0 0 .26 0Z" opacity=".3"/><path fill="#061d44" d="m387.52 267 .92-1a.22.22 0 0 0-.05-.35l-1.06-.6a.37.37 0 0 0-.44.07l-.92 1a.22.22 0 0 0 .06.35l1.06.6a.35.35 0 0 0 .43-.07Z"/><path fill="#fff" d="m395.66 268.12-6.19-3.59 1-1.15 6.23 3.62a.34.34 0 0 1 .08.55l-.44.5a.56.56 0 0 1-.68.07Z"/><path fill="#061d44" d="M391 263.16a.22.22 0 0 0-.12-.15l-1.06-.6a.35.35 0 0 0-.43.07l-.92 1a.2.2 0 0 0-.06.2c0 .06.07.34.09.41a.19.19 0 0 0 .11.14l1.07.61a.35.35 0 0 0 .43-.07l.92-1a.21.21 0 0 0 .06-.2c-.09-.06-.09-.35-.09-.41Z"/><path d="M389.9 264.87a.42.42 0 0 0 .17-.1l.92-1a.21.21 0 0 0 .06-.2c0-.06-.08-.35-.09-.41a.22.22 0 0 0-.12-.15l-1.06-.6a.4.4 0 0 0-.24 0Z" opacity=".15"/><path d="M389.54 262.37a.37.37 0 0 0-.19.11l-.92 1a.2.2 0 0 0-.06.2c0 .06.07.34.09.41a.19.19 0 0 0 .11.14l1.07.61a.38.38 0 0 0 .26 0Z" opacity=".3"/><path fill="#061d44" d="m390 264.36.92-1a.22.22 0 0 0-.06-.35l-1.06-.6a.35.35 0 0 0-.43.07l-.92 1a.22.22 0 0 0 .05.35l1.06.6a.37.37 0 0 0 .44-.07Zm-19-.89-2.2 1.26a.57.57 0 0 0 0 1.07l1 .56a2.05 2.05 0 0 0 1.84 0l2.2-1.27a.56.56 0 0 0 0-1.06l-1-.56a2 2 0 0 0-1.84 0Z"/><path fill="#061d44" d="M374 264.93a1 1 0 0 1-.22.16l-2.2 1.27a2.05 2.05 0 0 1-1.84 0l-1-.57a.83.83 0 0 1-.21-.16.51.51 0 0 1-.17-.34v.71a.65.65 0 0 0 .38.53l1 .56a2 2 0 0 0 1.84 0l2.2-1.27a.65.65 0 0 0 .39-.54v-.73a.53.53 0 0 1-.17.38Zm3.21 2.14-2.2 1.27a.56.56 0 0 0 0 1.06l1 .56a2.05 2.05 0 0 0 1.84 0l2.21-1.27c.51-.29.51-.76 0-1.06l-1-.56a2 2 0 0 0-1.85 0Z"/><path fill="#061d44" d="M380.24 268.53a.83.83 0 0 1-.21.16l-2.2 1.27a2.05 2.05 0 0 1-1.84 0l-1-.56a1.92 1.92 0 0 1-.21-.16.55.55 0 0 1-.17-.35v.71a.66.66 0 0 0 .38.54l1 .55a2 2 0 0 0 1.84 0l2.2-1.27a.66.66 0 0 0 .38-.53v-.74a.53.53 0 0 1-.17.38Zm1.85 1.36-2.2 1.27a.56.56 0 0 0 0 1.06l1 .56a2 2 0 0 0 1.84 0l2.21-1.27a.56.56 0 0 0 0-1.06l-1-.57a2.05 2.05 0 0 0-1.85.01Z"/><path fill="#061d44" d="M385.12 271.35a1 1 0 0 1-.22.17l-2.2 1.26a2 2 0 0 1-1.84 0l-1-.56a1.92 1.92 0 0 1-.21-.16.53.53 0 0 1-.17-.34v.71a.65.65 0 0 0 .38.53l1 .56a2 2 0 0 0 1.84 0l2.2-1.27a.65.65 0 0 0 .39-.53V271a.51.51 0 0 1-.17.35Zm1.79 1.36-2.2 1.27a.56.56 0 0 0 0 1.06l1 .56a2 2 0 0 0 1.84 0l2.2-1.26a.57.57 0 0 0 0-1.07l-1-.56a2.05 2.05 0 0 0-1.84 0Z"/><path fill="#061d44" d="M389.93 274.17a.74.74 0 0 1-.21.17l-2.2 1.26a2.05 2.05 0 0 1-1.84 0l-1-.56a1.92 1.92 0 0 1-.21-.16.55.55 0 0 1-.17-.35v.72a.66.66 0 0 0 .38.53l1 .56a2.05 2.05 0 0 0 1.84 0l2.2-1.27a.64.64 0 0 0 .38-.53v-.73a.49.49 0 0 1-.17.36Zm-24.18-7.7-2.2 1.27c-.51.29-.51.76 0 1.06l1 .56a2.05 2.05 0 0 0 1.84 0l2.2-1.27a.56.56 0 0 0 0-1.06l-1-.56a2 2 0 0 0-1.84 0Z"/><path fill="#061d44" d="M368.78 267.93a.73.73 0 0 1-.22.16l-2.2 1.27a2.05 2.05 0 0 1-1.84 0l-1-.56a1.92 1.92 0 0 1-.21-.16.55.55 0 0 1-.17-.35v.71a.65.65 0 0 0 .38.53l1 .56a2 2 0 0 0 1.84 0l2.2-1.27a.65.65 0 0 0 .39-.53v-.74a.53.53 0 0 1-.17.38Zm3.22 2.14-2.2 1.27a.56.56 0 0 0 0 1.06l1 .56a2.08 2.08 0 0 0 1.85 0l2.2-1.26a.57.57 0 0 0 0-1.07l-1-.56a2.05 2.05 0 0 0-1.85 0Z"/><path fill="#061d44" d="M375 271.53a1.2 1.2 0 0 1-.21.17l-2.2 1.26a2.05 2.05 0 0 1-1.84 0l-1-.56a1.92 1.92 0 0 1-.21-.16.61.61 0 0 1-.17-.35v.71a.66.66 0 0 0 .38.54l1 .55a2 2 0 0 0 1.84 0l2.2-1.27a.66.66 0 0 0 .38-.53v-.74a.53.53 0 0 1-.17.38Zm1.89 1.36-2.2 1.27c-.51.3-.51.77 0 1.06l1 .57a2.05 2.05 0 0 0 1.84 0l2.21-1.27a.56.56 0 0 0 0-1.06l-1-.57a2.05 2.05 0 0 0-1.85 0Z"/><path fill="#061d44" d="M379.92 274.36a1.4 1.4 0 0 1-.22.16l-2.2 1.27a2.05 2.05 0 0 1-1.84 0l-1-.57a1.16 1.16 0 0 1-.21-.16.53.53 0 0 1-.17-.34v.71a.65.65 0 0 0 .38.53l1 .56a2 2 0 0 0 1.84 0l2.2-1.27a.64.64 0 0 0 .39-.53V274a.55.55 0 0 1-.17.36Zm1.79 1.35-2.2 1.27a.56.56 0 0 0 0 1.06l1 .56a2 2 0 0 0 1.84 0l2.2-1.26c.51-.3.51-.77 0-1.06l-1-.57a2.05 2.05 0 0 0-1.84 0Z"/><path fill="#061d44" d="M384.73 277.17a.74.74 0 0 1-.21.17l-2.2 1.26a2 2 0 0 1-1.84 0l-1-.56a1.92 1.92 0 0 1-.21-.16.55.55 0 0 1-.17-.35v.72a.66.66 0 0 0 .38.53l1 .56a2.05 2.05 0 0 0 1.84 0l2.2-1.27a.65.65 0 0 0 .39-.53v-.73a.5.5 0 0 1-.18.36Zm-24.18-7.7-2.2 1.27a.56.56 0 0 0 0 1.06l1 .56a2.05 2.05 0 0 0 1.84 0l2.2-1.27a.56.56 0 0 0 0-1.06l-1-.56a2 2 0 0 0-1.84 0Z"/><path fill="#061d44" d="M363.58 270.93a.73.73 0 0 1-.22.16l-2.2 1.27a2.05 2.05 0 0 1-1.84 0l-1-.56a1.92 1.92 0 0 1-.21-.16.55.55 0 0 1-.17-.35v.71a.65.65 0 0 0 .38.53l1 .56a2 2 0 0 0 1.84 0l2.2-1.27a.65.65 0 0 0 .39-.53v-.74a.53.53 0 0 1-.17.38Zm3.23 2.14-2.2 1.27a.56.56 0 0 0 0 1.06l1 .56a2 2 0 0 0 1.85 0l2.2-1.26c.51-.3.51-.77 0-1.06l-1-.57a2.05 2.05 0 0 0-1.85 0Z"/><path fill="#061d44" d="M369.84 274.53a1.2 1.2 0 0 1-.21.17l-2.2 1.26a2.05 2.05 0 0 1-1.84 0l-1-.56a1.92 1.92 0 0 1-.21-.16.61.61 0 0 1-.17-.35v.72a.66.66 0 0 0 .38.53l1 .56a2.05 2.05 0 0 0 1.84 0l2.2-1.27a.66.66 0 0 0 .38-.53v-.73a.53.53 0 0 1-.17.36Zm1.85 1.37-2.2 1.26a.57.57 0 0 0 0 1.07l1 .56a2.05 2.05 0 0 0 1.84 0l2.21-1.27a.56.56 0 0 0 0-1.06l-1-.56a2 2 0 0 0-1.85 0Z"/><path fill="#061d44" d="M374.72 277.36a1 1 0 0 1-.22.16l-2.2 1.27a2.05 2.05 0 0 1-1.84 0l-1-.57a.83.83 0 0 1-.21-.16.51.51 0 0 1-.17-.34v.71a.65.65 0 0 0 .38.53l1 .56a2 2 0 0 0 1.84 0l2.2-1.27a.67.67 0 0 0 .39-.54V277a.53.53 0 0 1-.17.36Zm1.79 1.35-2.2 1.27a.56.56 0 0 0 0 1.06l1 .56a2 2 0 0 0 1.84 0l2.2-1.27a.56.56 0 0 0 0-1.06l-1-.57a2.05 2.05 0 0 0-1.84.01Z"/><path fill="#061d44" d="M379.54 280.17a1 1 0 0 1-.22.17l-2.2 1.26a2 2 0 0 1-1.84 0l-1-.56a1.92 1.92 0 0 1-.21-.16.53.53 0 0 1-.17-.34v.71a.65.65 0 0 0 .38.53l1 .56a2 2 0 0 0 1.84 0l2.2-1.27a.65.65 0 0 0 .39-.53v-.73a.51.51 0 0 1-.17.36Zm-24.19-7.7-2.2 1.27a.56.56 0 0 0 0 1.06l1 .56a2.05 2.05 0 0 0 1.84 0l2.21-1.26a.57.57 0 0 0 0-1.07l-1-.56a2.05 2.05 0 0 0-1.85 0Z"/><path fill="#061d44" d="M358.38 273.93a1 1 0 0 1-.22.17l-2.2 1.26a2.05 2.05 0 0 1-1.84 0l-1-.56a1.92 1.92 0 0 1-.21-.16.55.55 0 0 1-.17-.35v.71a.66.66 0 0 0 .38.54l1 .55a2 2 0 0 0 1.84 0l2.2-1.27a.65.65 0 0 0 .39-.53v-.74a.53.53 0 0 1-.17.38Zm3.23 2.14-2.2 1.27a.56.56 0 0 0 0 1.06l1 .56a2 2 0 0 0 1.85 0l2.2-1.26a.56.56 0 0 0 0-1.06l-1-.57a2.05 2.05 0 0 0-1.85 0Z"/><path fill="#061d44" d="M364.64 277.53a.92.92 0 0 1-.21.17l-2.2 1.26a2 2 0 0 1-1.84 0l-1-.56a1.92 1.92 0 0 1-.21-.16.61.61 0 0 1-.17-.34v.71a.65.65 0 0 0 .38.53l1 .56a2.05 2.05 0 0 0 1.84 0l2.2-1.27a.66.66 0 0 0 .38-.53v-.73a.53.53 0 0 1-.17.36Zm1.85 1.37-2.2 1.26a.57.57 0 0 0 0 1.07l1 .56a2.05 2.05 0 0 0 1.84 0l2.21-1.27a.56.56 0 0 0 0-1.06l-1-.56a2 2 0 0 0-1.85 0Z"/><path fill="#061d44" d="M369.52 280.36a.73.73 0 0 1-.22.16l-2.2 1.27a2.05 2.05 0 0 1-1.84 0l-1-.57a1.13 1.13 0 0 1-.21-.15.55.55 0 0 1-.17-.35v.71a.65.65 0 0 0 .38.53l1 .56a2 2 0 0 0 1.84 0l2.2-1.27a.65.65 0 0 0 .39-.53V280a.53.53 0 0 1-.17.36Zm1.79 1.35-2.2 1.27c-.51.3-.51.77 0 1.06l1 .57a2.05 2.05 0 0 0 1.84 0l2.2-1.27a.56.56 0 0 0 0-1.06l-1-.57a2.05 2.05 0 0 0-1.84 0Z"/><path fill="#061d44" d="M374.34 283.18a1.4 1.4 0 0 1-.22.16l-2.2 1.27a2.05 2.05 0 0 1-1.84 0l-1-.57a1.16 1.16 0 0 1-.21-.16.53.53 0 0 1-.17-.34v.71a.65.65 0 0 0 .38.53l1 .56a2 2 0 0 0 1.84 0l2.2-1.27a.64.64 0 0 0 .39-.53v-.73a.55.55 0 0 1-.17.37Z"/><path d="M374 264.93a1 1 0 0 1-.22.16l-2.2 1.27a2.05 2.05 0 0 1-1.84 0l-1-.57a.83.83 0 0 1-.21-.16.51.51 0 0 1-.17-.34v.71a.65.65 0 0 0 .38.53l1 .56a2 2 0 0 0 1.84 0l2.2-1.27a.65.65 0 0 0 .39-.54v-.73a.53.53 0 0 1-.17.38Zm6.24 3.6a.83.83 0 0 1-.21.16l-2.2 1.27a2.05 2.05 0 0 1-1.84 0l-1-.56a1.92 1.92 0 0 1-.21-.16.55.55 0 0 1-.17-.35v.71a.66.66 0 0 0 .38.54l1 .55a2 2 0 0 0 1.84 0l2.2-1.27a.66.66 0 0 0 .38-.53v-.74a.53.53 0 0 1-.17.38Zm4.88 2.82a1 1 0 0 1-.22.17l-2.2 1.26a2 2 0 0 1-1.84 0l-1-.56a1.92 1.92 0 0 1-.21-.16.53.53 0 0 1-.17-.34v.71a.65.65 0 0 0 .38.53l1 .56a2 2 0 0 0 1.84 0l2.2-1.27a.65.65 0 0 0 .39-.53V271a.51.51 0 0 1-.17.35Zm4.81 2.82a.74.74 0 0 1-.21.17l-2.2 1.26a2.05 2.05 0 0 1-1.84 0l-1-.56a1.92 1.92 0 0 1-.21-.16.55.55 0 0 1-.17-.35v.72a.66.66 0 0 0 .38.53l1 .56a2.05 2.05 0 0 0 1.84 0l2.2-1.27a.64.64 0 0 0 .38-.53v-.73a.49.49 0 0 1-.17.36Zm-21.15-6.24a.73.73 0 0 1-.22.16l-2.2 1.27a2.05 2.05 0 0 1-1.84 0l-1-.56a1.92 1.92 0 0 1-.21-.16.55.55 0 0 1-.17-.35v.71a.65.65 0 0 0 .38.53l1 .56a2 2 0 0 0 1.84 0l2.2-1.27a.65.65 0 0 0 .39-.53v-.74a.53.53 0 0 1-.17.38Zm6.22 3.6a1.2 1.2 0 0 1-.21.17l-2.2 1.26a2.05 2.05 0 0 1-1.84 0l-1-.56a1.92 1.92 0 0 1-.21-.16.61.61 0 0 1-.17-.35v.71a.66.66 0 0 0 .38.54l1 .55a2 2 0 0 0 1.84 0l2.2-1.27a.66.66 0 0 0 .38-.53v-.74a.53.53 0 0 1-.17.38Zm4.92 2.83a1.4 1.4 0 0 1-.22.16l-2.2 1.27a2.05 2.05 0 0 1-1.84 0l-1-.57a1.16 1.16 0 0 1-.21-.16.53.53 0 0 1-.17-.34v.71a.65.65 0 0 0 .38.53l1 .56a2 2 0 0 0 1.84 0l2.2-1.27a.64.64 0 0 0 .39-.53V274a.55.55 0 0 1-.17.36Zm4.81 2.81a.74.74 0 0 1-.21.17l-2.2 1.26a2 2 0 0 1-1.84 0l-1-.56a1.92 1.92 0 0 1-.21-.16.55.55 0 0 1-.17-.35v.72a.66.66 0 0 0 .38.53l1 .56a2.05 2.05 0 0 0 1.84 0l2.2-1.27a.65.65 0 0 0 .39-.53v-.73a.5.5 0 0 1-.18.36Zm-21.15-6.24a.73.73 0 0 1-.22.16l-2.2 1.27a2.05 2.05 0 0 1-1.84 0l-1-.56a1.92 1.92 0 0 1-.21-.16.55.55 0 0 1-.17-.35v.71a.65.65 0 0 0 .38.53l1 .56a2 2 0 0 0 1.84 0l2.2-1.27a.65.65 0 0 0 .39-.53v-.74a.53.53 0 0 1-.17.38Zm6.26 3.6a1.2 1.2 0 0 1-.21.17l-2.2 1.26a2.05 2.05 0 0 1-1.84 0l-1-.56a1.92 1.92 0 0 1-.21-.16.61.61 0 0 1-.17-.35v.72a.66.66 0 0 0 .38.53l1 .56a2.05 2.05 0 0 0 1.84 0l2.2-1.27a.66.66 0 0 0 .38-.53v-.73a.53.53 0 0 1-.17.36Zm4.88 2.83a1 1 0 0 1-.22.16l-2.2 1.27a2.05 2.05 0 0 1-1.84 0l-1-.57a.83.83 0 0 1-.21-.16.51.51 0 0 1-.17-.34v.71a.65.65 0 0 0 .38.53l1 .56a2 2 0 0 0 1.84 0l2.2-1.27a.67.67 0 0 0 .39-.54V277a.53.53 0 0 1-.17.36Zm4.82 2.81a1 1 0 0 1-.22.17l-2.2 1.26a2 2 0 0 1-1.84 0l-1-.56a1.92 1.92 0 0 1-.21-.16.53.53 0 0 1-.17-.34v.71a.65.65 0 0 0 .38.53l1 .56a2 2 0 0 0 1.84 0l2.2-1.27a.65.65 0 0 0 .39-.53v-.73a.51.51 0 0 1-.17.36Zm-21.16-6.24a1 1 0 0 1-.22.17l-2.2 1.26a2.05 2.05 0 0 1-1.84 0l-1-.56a1.92 1.92 0 0 1-.21-.16.55.55 0 0 1-.17-.35v.71a.66.66 0 0 0 .38.54l1 .55a2 2 0 0 0 1.84 0l2.2-1.27a.65.65 0 0 0 .39-.53v-.74a.53.53 0 0 1-.17.38Zm6.26 3.6a.92.92 0 0 1-.21.17l-2.2 1.26a2 2 0 0 1-1.84 0l-1-.56a1.92 1.92 0 0 1-.21-.16.61.61 0 0 1-.17-.34v.71a.65.65 0 0 0 .38.53l1 .56a2.05 2.05 0 0 0 1.84 0l2.2-1.27a.66.66 0 0 0 .38-.53v-.73a.53.53 0 0 1-.17.36Zm4.88 2.83a.73.73 0 0 1-.22.16l-2.2 1.27a2.05 2.05 0 0 1-1.84 0l-1-.57a1.13 1.13 0 0 1-.21-.15.55.55 0 0 1-.17-.35v.71a.65.65 0 0 0 .38.53l1 .56a2 2 0 0 0 1.84 0l2.2-1.27a.65.65 0 0 0 .39-.53V280a.53.53 0 0 1-.17.36Zm4.82 2.82a1.4 1.4 0 0 1-.22.16l-2.2 1.27a2.05 2.05 0 0 1-1.84 0l-1-.57a1.16 1.16 0 0 1-.21-.16.53.53 0 0 1-.17-.34v.71a.65.65 0 0 0 .38.53l1 .56a2 2 0 0 0 1.84 0l2.2-1.27a.64.64 0 0 0 .39-.53v-.73a.55.55 0 0 1-.17.37Z" opacity=".35"/><path d="m297.07 243.76-24.13 14.05a2.86 2.86 0 0 1-2.58 0l-67.88-39.14a.79.79 0 0 1 0-1.49l24.13-14.05a2.86 2.86 0 0 1 2.58 0l67.88 39.14a.79.79 0 0 1 0 1.49Z" opacity=".2"/><path fill="#263238" d="M204.34 214.31a.88.88 0 0 1 .53-.74l21.48-12.4a2.82 2.82 0 0 1 2.56 0l65.55 37.91a.9.9 0 0 1 .53.74v2.25a.91.91 0 0 1-.53.74L273 255.21a2.87 2.87 0 0 1-2.57 0l-65.55-37.84a.9.9 0 0 1-.53-.74Z"/><path fill="#37474f" d="m273 252.9 21.47-12.35a.78.78 0 0 0 0-1.47l-65.55-37.91a2.82 2.82 0 0 0-2.56 0l-21.48 12.4a.78.78 0 0 0 0 1.48l65.55 37.84a2.87 2.87 0 0 0 2.57.01Z"/><path fill="#263238" d="M271.79 253.2v2.3a2.63 2.63 0 0 0 1.2-.29l21.46-12.4a.91.91 0 0 0 .54-.74v-2.26a.91.91 0 0 1-.54.74L273 252.9a2.63 2.63 0 0 1-1.21.3Z"/><path fill="#061d44" d="m208.32 214.47 2.13-1.23 2.88 1.67-2.14 1.26-2.88-1.66Zm3.32-1.92 2.12-1.23 2.27 1.31-2.14 1.27-2.26-1.31Zm.7 4.25 2.13-1.22 2.26 1.3-2.14 1.27-2.26-1.3Zm2.63-6.17 2.12-1.22 3.66 2.11-2.14 1.27-3.61-2.14Zm.08 3.89 2.12-1.23 1.8 1-2.14 1.27-1.79-1Zm.7 4.25 2.13-1.22 2.26 1.3-2.14 1.24-2.26-1.3Zm2.25-2.55 2.13-1.22 1.8 1-2.14 1.27-1.8-1Zm.3-7.51 2.12-1.22 2.89 1.66-2.14 1.27-2.89-1.66Zm.86 12 2.13-1.23 16.36 9.45-2.14 1.27-16.36-9.45Zm.62-7.33 2.13-1.23 1.8 1-2.14 1.27-1.8-1Zm1.16 4.51 2.12-1.22 1.8 1-2.12 1.33-1.79-1Zm.69-11.13 2.13-1.23 1.8 1-2.14 1.27-1.8-1Zm.7 4.25 2.13-1.23 1.8 1-2.14 1.27-1.8-1Zm.39 4.07 2.12-1.23 1.8 1-2.14 1.27-1.79-1Zm1.17 4.51 2.13-1.22 1.8 1-2.14 1.27-1.8-1Zm.68-11.13 2.12-1.23 1.8 1-2.14 1.27-1.79-1Zm.7 4.25 2.12-1.23 1.8 1-2.14 1.27-1.79-1Zm.39 4.07 2.13-1.23 1.8 1-2.15 1.27-1.79-1Zm0-12.35 2.13-1.23 2.26 1.31-2.14 1.27-2.26-1.31Zm1.16 16.86 2.12-1.22 1.8 1-2.14 1.27-1.79-1Zm.69-11.13 2.13-1.23 1.8 1-2.14 1.27-1.8-1Zm.7 4.25 2.13-1.23 1.8 1-2.14 1.31-1.8-1Zm.39 4.07 2.12-1.23 1.8 1-2.14 1.27-1.8-1Zm1.17 4.51 2.13-1.22 1.8 1-2.14 1.27-1.8-1Zm.58-15.85 2.13-1.23 1.8 1-2.14 1.27-1.8-1Zm.1 4.72 2.12-1.23 1.8 1-2.14 1.27-1.79-1Zm.7 4.25 2.12-1.23 1.8 1-2.07 1.31-1.79-1Zm.39 4.07 2.16-1.18 1.79 1-2.14 1.27-1.79-1Zm1.17 4.51 2.12-1.23 1.8 1-2.14 1.27-1.79-1Zm.58-15.85 2.12-1.23 1.8 1-2.14 1.27-1.79-1Zm.11 4.72 2.13-1.23 1.8 1-2.14 1.27-1.8-1Zm.7 4.25 2.13-1.23 1.8 1-2.14 1.27-1.8-1Zm.39 4.07 2.13-1.23 1.8 1-2.12 1.35-1.8-1Zm1.17 4.51 2.13-1.23 1.8 1-2.14 1.27-1.8-1Zm.58-15.85 2.13-1.23 1.8 1-2.14 1.27-1.8-1Zm.1 4.72 2.12-1.23 1.8 1-2.14 1.27-1.79-1Zm.33 15.56 2.13-1.23 2.26 1.31-2.14 1.27-2.26-1.3Zm.37-11.31 2.12-1.23 1.8 1-2.14 1.27-1.79-1Zm.39 4.07 2.13-1.23 1.79 1-2.14 1.27-1.79-1Zm1.17 4.51 2.12-1.22 1.8 1-2.14 1.27-1.8-1Zm.58-15.85 2.12-1.23 1.8 1-2.1 1.31-1.79-1Zm.11 4.72 2.13-1.23 1.8 1-2.12 1.27-1.8-1Zm.7 4.25 2.13-1.23 1.8 1-2.14 1.27-1.8-1Zm.09 11.58 2.13-1.23 2.26 1.31-2.14 1.27-2.26-1.31Zm.3-7.51 2.13-1.23 1.8 1-2.14 1.27-1.8-1Zm1.16 4.51 2.13-1.22 1.79 1-2.13 1.27-1.8-1Zm.69-11.13 2.13-1.23 1.8 1-2.16 1.31-1.8-1Zm.7 4.25 2.12-1.23 1.8 1-2.11 1.32-1.74-1Zm.39 4.07 2.13-1.23 1.79 1-2.14 1.27-1.79-1Zm.09-12.3 2.13-1.23 1.8 1-2.14 1.27-1.8-1Zm.08 20.08 2.13-1.23 2.26 1.31-2.14 1.27-2.26-1.31Zm1-3.27 2.13-1.23 1.8 1-2.14 1.27-1.8-1Zm.68-11.13 2.13-1.22 1.8 1-2.1 1.3-1.79-1Zm.71 4.25 2.13-1.23 1.8 1-2.14 1.27-1.8-1Zm.39 4.07 2.13-1.23 1.8 1-2.14 1.27-1.8-1Zm.08-12.3 2.12-1.23 1.8 1-2.14 1.27-1.79-1Zm.55 20.35 2.13-1.23 2.88 1.67-2.14 1.26-2.88-1.66Zm.53-3.54 2.13-1.23 5.67 3.27-2.14 1.27-5.67-3.27Zm.69-11.13 2.13-1.22 1.8 1-2.14 1.27-1.8-1Zm.7 4.25 2.12-1.23 1.8 1-2.14 1.27-1.79-1Zm.39 4.07 2.12-1.23 1.8 1-2.13 1.31-1.79-1Zm.09-12.3 2.13-1.23 1.8 1-2.14 1.27-1.8-1Zm1.76 5.68 2.13-1.23 1.79 1-2.14 1.27-1.79-1Zm.48 15.65 2.13-1.23 1.8 1-2.15 1.27-1.79-1Zm.23-11.4 2.13-1.23 1.8 1-2.14 1.27-1.8-1Zm.39 4.07 2.13-1.23 1.64 1a1.09 1.09 0 0 0 .52.11 1.22 1.22 0 0 0 .55-.11l2.79-1.62 2.11 1.22-5.47 3.19-4.28-2.47Zm.08-12.3 2.12-1.23 1.8 1-2.14 1.27-1.79-1Zm1.77 5.68 2.13-1.22 1.8 1-2.14 1.27-1.8-1Zm.48 15.65 2.12-1.23 1.8 1-2.14 1.27-1.8-1Zm.22-11.4 2.12-1.23 1.8 1-2.14 1.27-1.8-1Zm1.76-7.49 2.13-1.23 1.8 1-2.14 1.27-1.8-1Zm.48 4.94 2.12-1.22 1.8 1-2.14 1.27-1.79-1Zm.48 15.65 2.13-1.23 1.79 1-2.14 1.27-1.79-1Zm.39-3.62L260 238l1.8 1-2.14 1.27-1.8-1Zm1.6-15.19 2.12-1.23 1.8 1-2.12 1.23-1.79-1Zm.49 4.94 2.13-1.22 3.19 1.84-2.14 1.27-3.19-1.84Zm1.1 16 2.13-1.23 4.74 2.74-2.14 1.27-4.74-2.81Zm.53-11.22 2.13-1.23 1.8 1-2.14 1.27-1.8-1Zm.83-8 2.13-1.23 1.8 1-2.14 1.27-1.8-1Zm2 17.33 2.13-1.23 1.8 1-2.16 1.18-1.8-1Zm.14-7.6 2.12-1.23 1.8 1-2.14 1.27-1.79-1Zm.39-3.63 2.1-1.32 1.8 1-2.14 1.27-1.8-1Zm.44-4.4 2.12-1.23 1.8 1-2.14 1.27-1.79-1Zm1.59 21L269 247l1.8 1-2.14 1.27-1.8-1Zm.38-3.62 2.12-1.23 1.8 1-2.14 1.27-1.79-1Zm.15-7.6 2.13-1.23 1.8 1-2.14 1.27-1.8-1Zm.24 4 2.13-1.23 1.79 1-2.13 1.27-1.8-1Zm.14-7.61 2.16-1.39 1.8 1-2.14 1.27-1.79-1Zm1.1-4 2.13-1.22 1.8 1-2.14 1.26-1.8-1Zm.93 20.58 5.45-3.15 1.8 1-5.47 3.19-1.79-1Zm.39-3.62 2.13-1.23 1.8 1-2.19 1.11-1.8-1Zm.38-3.62 2.12-1.23 1.8 1-2.14 1.27-1.8-1Zm.15-7.61 2.13-1.23 1.8 1-2.14 1.27-1.8-1Zm.23 4 2.12-1.23 1.8 1-2.14 1.27-1.79-1Zm.86-8 2.12-1.22 1.8 1-2.14 1.26-1.79-1Zm1.71 13.34 2.13-1.23 1.79 1-2.13 1.27-1.8-1Zm.38-3.63 2.13-1.23 1.8 1-2.14 1.27-1.8-1Zm.38-3.62 2.12-1.22 1.8 1-2.14 1.26-1.79-1Zm.48-4.39 2.13-1.22 1.8 1-2.14 1.26-1.8-1Zm1.7 13.34L282 243l1.8 1-5.47 3.19-1.8-1Zm.38-3.63 2.12-1.23 1.8 1-2.14 1.27-1.79-1Zm.39-3.62 2.13-1.23 1.8 1-2.16 1.12-1.8-1Zm2-4.52.9-.53 1.8 1-.92.57-1.79-1Zm1 6.22 2.12-1.22 1.8 1-2.22 1.08-1.79-1Zm2-4.52.9-.53 1.8 1-.93.57-1.79-1Zm1 6.22 2.13-1.22 1.8 1-2.23 1.08-1.8-1Zm1.95-4.52.9-.53 1.8 1-.92.58-1.79-1Zm2.94 1.7.9-.53 1.8 1-.93.57-1.79-1Z"/><path d="m349.11 243.58 11.76-6.79c1.76-1 1.76-2.67 0-3.69l-84.38-48.72a7.08 7.08 0 0 0-6.4 0l-11.76 6.79c-1.77 1-1.77 2.68 0 3.7l84.38 48.71a7.08 7.08 0 0 0 6.4 0Z" opacity=".2"/><path fill="#37474f" d="m294.5 228.37-13-7.5a3.4 3.4 0 0 1-2-2.79v-1.8l12.2-6.93a2.85 2.85 0 0 0 1.29-2.23v-16l22.64 13.08v16a2.89 2.89 0 0 1-1.29 2.24l-10.19 5.93a10.72 10.72 0 0 1-9.65 0Z"/><path fill="#263238" d="M310.22 223v1.8l4.15-2.4a2.84 2.84 0 0 0 1.29-2.23v-16l-4.31-2.49c-.09 1.1-.19 2.23-.28 3.33l3 1.75v12.54a2.85 2.85 0 0 1-1.29 2.23Z"/><path fill="#455a64" d="M314.1 219.3a2.89 2.89 0 0 1-1.29 2.24l-8.63 5a10.67 10.67 0 0 1-9.67 0l-13-7.5c-2.67-1.54-2.67-4 0-5.58l8.63-5a2.85 2.85 0 0 0 1.29-2.23v-12.5l22.64 13.08Z"/><path fill="#37474f" d="m287.54 210 2.63-1.52a2.85 2.85 0 0 0 1.29-2.23v-12.52l22.64 13.08v12.49a2.89 2.89 0 0 1-1.29 2.24l-2.58 1.46Z"/><path fill="#37474f" d="M350.45 236.54a3.46 3.46 0 0 1-3.13-.06l-87.55-50.54a3.58 3.58 0 0 1-1.61-2.8v-67.55a3 3 0 0 1 4.64-2.67l87.55 50.54a3.58 3.58 0 0 1 1.61 2.8v67.54a3.47 3.47 0 0 1-1.51 2.74Z"/><path fill="#455a64" d="m347.32 236.48-87.55-50.55a3.55 3.55 0 0 1-1.61-2.79v-67.55c0-1 .72-1.44 1.61-.93l87.55 50.55a3.55 3.55 0 0 1 1.61 2.79v67.55c.01 1.03-.72 1.45-1.61.93Z"/><path fill="#e6e6e6" d="M345.91 226.1V169a2.13 2.13 0 0 0-1-1.68l-82.79-47.8c-.53-.31-1-.06-1 .56v57.1a2.16 2.16 0 0 0 1 1.68l82.79 47.79c.57.35 1 .07 1-.55Z"/><path fill="#061d44" d="M301.74 204.19a3.34 3.34 0 0 1 1.52 2.62c0 1-.68 1.36-1.52.88a3.37 3.37 0 0 1-1.51-2.62c0-.97.68-1.36 1.51-.88Z"/><path fill="#263238" d="m351.49 164.66-3 1.75a3.44 3.44 0 0 1 .48 1.59v67.75c0 .94-.6 1.36-1.38 1.05A3 3 0 0 0 352 234v-67.74a3.35 3.35 0 0 0-.51-1.6Z"/><path d="M287.78 266.24 296 271a9.08 9.08 0 0 0 9.12-.48l13.62-9.94c2.43-1.77 2.29-4.43-.31-5.93l-4.14-2.4a11.22 11.22 0 0 0-9.57-.29l-16.82 9.11c-2.65 1.35-2.72 3.66-.12 5.17Z" opacity=".2"/><path fill="#37474f" d="m319 256.25-9.43 7.37-7 5.44a6.09 6.09 0 0 1-2.22.54 6 6 0 0 1-3.29-.7l-7.4-4.27a5.23 5.23 0 0 1-1.49-7.48l.22-.3a9.83 9.83 0 0 1 5.94-3.77l3.74-.75c6.07-1.23 11-1.83 11.62-1.43l9.26 5.36Z"/><path fill="#061d44" d="m313.74 260.38.53-.42-8.32-4.8 7.28-2.25-.74-.42-7.27 2.25-5-2.87-.94.18Z"/><path fill="#263238" d="m303.44 268.62 6.61-4.77 8.94-6.46v-1a.1.1 0 0 0 0-.08h-.06c-.66-.23-4.54.94-9.22 2.8l-3.1 1.23a9.37 9.37 0 0 0-2.64 1.57 9.83 9.83 0 0 0-3.59 7.61v.16a6.09 6.09 0 0 0 2.22-.54Z"/><path d="M267.38 160.4c0 1.54 1.09 2.53 2.43 3.3l28.61 16.53c1.33.77 2.43.15 2.43-1.41v-12.16a4.85 4.85 0 0 0-2.42-4.19l-28.62-16.55a1.62 1.62 0 0 0-2.43 1.4Z" opacity=".2"/><path fill="#061d44" d="M264.3 150.43a3.33 3.33 0 0 1 1.48-2.49l.55-.31a3.28 3.28 0 0 1 3 0l28.21 16.3a3.3 3.3 0 0 1 1.49 2.59v13.85a3.27 3.27 0 0 1-1.49 2.58l-.55.32a3.26 3.26 0 0 1-3 0l.12.06-12.37-7.11a3 3 0 0 0-.67-.29l-2.26 2-.17.12-1.25.71-2.3 1.33a1.86 1.86 0 0 1-1.72-.1 3 3 0 0 1-1.16-2.4v-5.2a3.29 3.29 0 0 0-1.49-2.58l-5-2.86a3.33 3.33 0 0 1-1.49-2.59v-13.82s.07-.07.07-.11Z"/><path d="M264.3 150.43a3.33 3.33 0 0 1 1.48-2.49l.55-.31a3.28 3.28 0 0 1 3 0l28.21 16.3a3.3 3.3 0 0 1 1.49 2.59v13.85a3.27 3.27 0 0 1-1.49 2.58l-.55.32a3.26 3.26 0 0 1-3 0l.12.06-12.37-7.11a3 3 0 0 0-.67-.29l-2.26 2-.17.12-1.25.71-2.3 1.33a1.86 1.86 0 0 1-1.72-.1 3 3 0 0 1-1.16-2.4v-5.2a3.29 3.29 0 0 0-1.49-2.58l-5-2.86a3.33 3.33 0 0 1-1.49-2.59v-13.82s.07-.07.07-.11Z" opacity=".25"/><path fill="#061d44" d="M264.29 150.53c0-.95.67-1.34 1.49-.86L294 166a3 3 0 0 1 .93.91l3.53-2a3 3 0 0 0-.93-.93l-28.21-16.3a3.26 3.26 0 0 0-3 0l-.56.31a3.33 3.33 0 0 0-1.47 2.54Z"/><path fill="#fff" d="M264.29 150.53c0-.95.67-1.34 1.49-.86L294 166a3 3 0 0 1 .93.91l3.53-2a3 3 0 0 0-.93-.93l-28.21-16.3a3.26 3.26 0 0 0-3 0l-.56.31a3.33 3.33 0 0 0-1.47 2.54Z" opacity=".45"/><path fill="#fafafa" d="M294.66 183.17c.48 0 .53-.54.53-.77v-13.85a3 3 0 0 0-1.34-2.33l-28.22-16.29a1.11 1.11 0 0 0-.52-.16c-.48 0-.53.54-.53.77v13.85a3 3 0 0 0 1.35 2.33l4.94 2.86a3.58 3.58 0 0 1 1.64 2.84v5.2a2.73 2.73 0 0 0 1 2.15 1.84 1.84 0 0 0 .86.23 1 1 0 0 0 .69-.23l4.24-3.92a1.39 1.39 0 0 1 1-.33 3.27 3.27 0 0 1 1.57.44l12.25 7a1.18 1.18 0 0 0 .54.21Z"/><path fill="#e6e6e6" d="M265.11 150.06a.86.86 0 0 1 .38.13l28.21 16.28a2.74 2.74 0 0 1 1.2 2.08v13.85c0 .18 0 .48-.24.48a.82.82 0 0 1-.37-.13l-12.25-7a3.57 3.57 0 0 0-1.72-.49 1.74 1.74 0 0 0-1.21.42l-4.23 3.92a.73.73 0 0 1-.49.14 1.48 1.48 0 0 1-.71-.19 2.4 2.4 0 0 1-.88-1.89v-5.2a3.88 3.88 0 0 0-1.78-3.09l-4.95-2.86a2.74 2.74 0 0 1-1.2-2.08v-13.89c0-.18 0-.48.24-.48m0-.58c-.49 0-.82.39-.82 1.06v13.85a3.33 3.33 0 0 0 1.49 2.59l5 2.86a3.29 3.29 0 0 1 1.49 2.58v5.2a3 3 0 0 0 1.16 2.4 2.1 2.1 0 0 0 1 .27 1.26 1.26 0 0 0 .9-.31l4.23-3.92a1.16 1.16 0 0 1 .8-.25 3 3 0 0 1 1.43.41l12.25 7a1.28 1.28 0 0 0 .66.2c.49 0 .83-.39.83-1.06v-13.81A3.31 3.31 0 0 0 294 166l-28.21-16.28a1.34 1.34 0 0 0-.67-.2Z"/><path fill="#455a64" d="M273.08 160.82c-.95-.55-1.72-.11-1.72 1a3.8 3.8 0 0 0 1.72 3c.94.54 1.71.1 1.71-1a3.78 3.78 0 0 0-1.71-3Zm6.86 3.95c-.95-.55-1.72-.1-1.72 1a3.8 3.8 0 0 0 1.72 3c.94.55 1.71.1 1.71-1a3.81 3.81 0 0 0-1.71-3Zm6.86 3.96c-.95-.55-1.72-.11-1.72 1a3.8 3.8 0 0 0 1.72 3c.94.54 1.71.1 1.71-1a3.78 3.78 0 0 0-1.71-3Z"/><path d="M267.44 133.86c0 1.54 1.08 2.53 2.43 3.3l71.73 41.42c1.34.78 2.43.15 2.43-1.4v-26.89a4.84 4.84 0 0 0-2.42-4.19l-71.74-41.44a1.62 1.62 0 0 0-2.43 1.4Z" opacity=".2"/><path fill="#061d44" d="m340.16 181.63.55-.32a3.29 3.29 0 0 0 1.5-2.58v-28.58a3.28 3.28 0 0 0-1.5-2.58l-71.34-41.21a3.33 3.33 0 0 0-3 0l-.55.32a3.31 3.31 0 0 0-1.49 2.59v28.57a3.29 3.29 0 0 0 1.49 2.58l48 27.74a6.45 6.45 0 0 1 2.22 2.42l5.53 11.7a5.79 5.79 0 0 0 1.9 2.23 3 3 0 0 0 2.66-.19l.37-.21a3.33 3.33 0 0 0 1.49-2.59v-3.45c0-.95.67-1.34 1.49-.86l7.66 4.42a3.33 3.33 0 0 0 3.02 0Z"/><path d="m340.16 181.63.55-.32a3.29 3.29 0 0 0 1.5-2.58v-28.58a3.28 3.28 0 0 0-1.5-2.58l-71.34-41.21a3.33 3.33 0 0 0-3 0l-.55.32a3.31 3.31 0 0 0-1.49 2.59v28.57a3.29 3.29 0 0 0 1.49 2.58l48 27.74a6.45 6.45 0 0 1 2.22 2.42l5.53 11.7a5.79 5.79 0 0 0 1.9 2.23 3 3 0 0 0 2.66-.19l.37-.21a3.33 3.33 0 0 0 1.49-2.59v-3.45c0-.95.67-1.34 1.49-.86l7.66 4.42a3.33 3.33 0 0 0 3.02 0Z" opacity=".25"/><path fill="#061d44" d="M264.35 109.27c0-1 .66-1.34 1.49-.86l71.34 41.2a2.88 2.88 0 0 1 .93.91l3.53-2a2.72 2.72 0 0 0-.93-.92l-71.34-41.21a3.33 3.33 0 0 0-3 0l-.55.32a3.3 3.3 0 0 0-1.47 2.56Z"/><path fill="#fff" d="M264.35 109.27c0-1 .66-1.34 1.49-.86l71.34 41.2a2.88 2.88 0 0 1 .93.91l3.53-2a2.72 2.72 0 0 0-.93-.92l-71.34-41.21a3.33 3.33 0 0 0-3 0l-.55.32a3.3 3.3 0 0 0-1.47 2.56Z" opacity=".45"/><path fill="#fafafa" d="M323.93 184.34a.32.32 0 0 0 .29-.18 1.27 1.27 0 0 0 .16-.7v-7.33c0-.81.45-1.35 1.12-1.35a1.6 1.6 0 0 1 .81.24l11 6.36a1.11 1.11 0 0 0 .52.16c.48 0 .53-.54.53-.77v-28.58a3 3 0 0 0-1.35-2.33l-71.34-41.2a1 1 0 0 0-.52-.17c-.48 0-.53.54-.53.78v28.57a3 3 0 0 0 1.35 2.33l48 27.74a6.78 6.78 0 0 1 2.35 2.55l5.52 11.69a5.64 5.64 0 0 0 1.79 2.11.63.63 0 0 0 .3.08Z"/><path fill="#e6e6e6" d="M265.17 108.79a.83.83 0 0 1 .38.12l71.34 41.21a2.72 2.72 0 0 1 1.2 2.07v28.58c0 .18 0 .48-.24.48a.8.8 0 0 1-.38-.13l-11-6.36a2 2 0 0 0-1-.28 1.48 1.48 0 0 0-1.41 1.65v7.33c0 .39-.11.57-.15.59a.26.26 0 0 1-.14-.05 5.39 5.39 0 0 1-1.66-2l-5.53-11.7a7 7 0 0 0-2.46-2.67l-48-27.74a2.74 2.74 0 0 1-1.2-2.08v-28.54c0-.18 0-.48.24-.48m0-.59c-.49 0-.82.39-.82 1.07v28.57a3.29 3.29 0 0 0 1.49 2.58l48 27.74a6.45 6.45 0 0 1 2.22 2.42l5.53 11.7a5.79 5.79 0 0 0 1.9 2.23.82.82 0 0 0 .42.13c.44 0 .75-.45.75-1.18v-7.33c0-.67.33-1.06.82-1.06a1.34 1.34 0 0 1 .67.2l11 6.36a1.34 1.34 0 0 0 .67.2c.49 0 .82-.39.82-1.06v-28.58a3.29 3.29 0 0 0-1.49-2.58l-71.3-41.21a1.45 1.45 0 0 0-.67-.2Z"/><path fill="#455a64" d="M270 124.46v-8c0-.27.16-.31.48-.13l.34.2a.78.78 0 0 1 .47.67v3.11l1.39.8V118c0-.27.16-.31.48-.13l.33.19a.79.79 0 0 1 .48.68v8c0 .27-.16.31-.48.13l-.33-.19a.79.79 0 0 1-.48-.68v-3.28l-1.39-.8v3.28c0 .27-.16.31-.47.13l-.34-.2a.78.78 0 0 1-.48-.67Zm5.09 2.93v-5.83c0-.26.16-.31.49-.12l.22.14a.78.78 0 0 1 .49.68v5.82c0 .27-.16.31-.49.12l-.22-.13a.81.81 0 0 1-.49-.68Zm.05-7.26v-.76c0-.27.19-.3.55-.09s.57.47.57.74v.75c0 .27-.18.3-.55.09s-.57-.47-.57-.73Zm2.18 8.54v-1.15c0-.27.15-.32.47-.13l.27.15a.8.8 0 0 1 .47.68v1.15c0 .27-.16.32-.47.13l-.27-.15a.78.78 0 0 1-.47-.68Zm.24-2.36a.8.8 0 0 1-.08-.36v-5.23c0-.27.16-.31.47-.13l.38.22a1.13 1.13 0 0 1 .35.29.56.56 0 0 1 .12.33l-.41 5c0 .14-.05.23-.1.26s-.16 0-.32-.09h-.07a1 1 0 0 1-.34-.29ZM270 136.34v-8.05c0-.27.16-.31.48-.13l.34.2a.78.78 0 0 1 .47.67v3.1l1.39.81v-3.11c0-.26.16-.31.48-.12l.33.19a.79.79 0 0 1 .48.68v8c0 .27-.16.31-.48.13l-.33-.19a.79.79 0 0 1-.48-.68v-3.24l-1.39-.81v3.29c0 .26-.16.31-.47.13l-.34-.2a.79.79 0 0 1-.48-.67Zm5.36 2.66a7.62 7.62 0 0 1-.43-2.76 4.4 4.4 0 0 1 .42-2.28c.28-.41.7-.46 1.25-.14a2.94 2.94 0 0 1 1.25 1.59 7.84 7.84 0 0 1 .42 2.75 4.4 4.4 0 0 1-.42 2.28c-.29.42-.7.47-1.25.15a2.88 2.88 0 0 1-1.24-1.59Zm1.58-.11a6.24 6.24 0 0 0 .11-1.43 8.07 8.07 0 0 0-.11-1.55.86.86 0 0 0-.34-.62c-.16-.09-.27 0-.34.23a6.26 6.26 0 0 0-.1 1.42 8.27 8.27 0 0 0 .1 1.55 1 1 0 0 0 .34.64c.16.11.28.03.34-.22Zm2.9 3.45a.43.43 0 0 1-.1-.25l-.86-6.35a1.09 1.09 0 0 1 0-.19c0-.22.16-.23.5 0s.58.42.58.6l.22 3.23.08 1.44c0-.46.08-.92.13-1.38l.34-2.84c0-.08.05-.13.13-.13a.65.65 0 0 1 .3.11l.21.12a1 1 0 0 1 .29.24.44.44 0 0 1 .14.27l.34 3.26c0 .35.08.85.12 1.51v-1.35l.22-3c0-.17.19-.15.54 0s.5.4.5.62a1 1 0 0 1 0 .18l-.85 5.36c0 .16-.12.19-.33.07l-.26-.15a.84.84 0 0 1-.26-.21.92.92 0 0 1-.09-.25l-.51-3.61v-.51a2.91 2.91 0 0 0 0-.49v.93l-.51 3q0 .13-.09.15a.36.36 0 0 1-.24-.08l-.27-.15a.72.72 0 0 1-.27-.15Zm5.75.09q0-3.41 1.76-2.38a2.57 2.57 0 0 1 .57.44 3.36 3.36 0 0 1 .45.58 1.16 1.16 0 0 1 .17.53 1.37 1.37 0 0 1-.13.51c-.08.2-.16.27-.24.23a.7.7 0 0 1-.16-.19 3.47 3.47 0 0 0-.26-.33.87.87 0 0 0-.27-.23.3.3 0 0 0-.49.16 3.64 3.64 0 0 0-.17 1.37 5.71 5.71 0 0 0 .16 1.57 1.1 1.1 0 0 0 .48.72.69.69 0 0 0 .27.1h.46c.08.05.16.21.24.5a2.65 2.65 0 0 1 .12.66.33.33 0 0 1-.21.33 1 1 0 0 1-.49 0 1.53 1.53 0 0 1-.53-.2q-1.72-.99-1.73-4.37Zm3.86 5.07a4 4 0 0 1-.29-1.61c0-1.57.63-2 1.9-1.24v-.2a1.64 1.64 0 0 0-.12-.67.88.88 0 0 0-.38-.41.65.65 0 0 0-.32-.11 1.1 1.1 0 0 0-.31 0 .24.24 0 0 1-.17 0 .71.71 0 0 1-.18-.29 5.52 5.52 0 0 1-.17-.53 1.84 1.84 0 0 1-.07-.43.3.3 0 0 1 .19-.3.9.9 0 0 1 .5 0 2.44 2.44 0 0 1 .62.25 2.93 2.93 0 0 1 1.23 1.29 4.09 4.09 0 0 1 .39 1.82v3.88a1.78 1.78 0 0 1 0 .29c0 .13-.11.17-.33.11a2.43 2.43 0 0 1-.59-.24.4.4 0 0 1-.18-.25 4.59 4.59 0 0 1-.11-.56.61.61 0 0 1-.34.31.62.62 0 0 1-.54-.09 2 2 0 0 1-.73-1.02Zm1.43-.1a.33.33 0 0 0 .18-.2v-1.47c-.54-.31-.82-.1-.82.65a1.71 1.71 0 0 0 .11.62.73.73 0 0 0 .29.38.23.23 0 0 0 .24.02Zm2.51 2.43v-5.78c0-.05.11-.2.34-.14a2.35 2.35 0 0 1 .6.24.41.41 0 0 1 .2.26 2 2 0 0 1 .07.39 2.6 2.6 0 0 0 0 .37.91.91 0 0 1 .45-.42.68.68 0 0 1 .62.08 1.75 1.75 0 0 1 .68.84 4 4 0 0 1 .23 1.44v4.55c0 .27-.16.31-.47.13l-.28-.16a.78.78 0 0 1-.47-.68v-4.12a1.76 1.76 0 0 0-.07-.52.51.51 0 0 0-.24-.3c-.14-.08-.28 0-.41.17v4.36c0 .14 0 .21-.11.24a.52.52 0 0 1-.35-.1l-.29-.17a.77.77 0 0 1-.5-.68Zm5.48 3.17v-8c0-.28.16-.33.47-.15l.34.2a.8.8 0 0 1 .47.69v8c0 .28-.16.33-.47.15l-.34-.2a.8.8 0 0 1-.47-.69Zm3.66 2.11v-8.71c0-.26.15-.31.47-.12l.28.16a.78.78 0 0 1 .47.67v3.26a.89.89 0 0 1 .44-.36.67.67 0 0 1 .58.09 1.7 1.7 0 0 1 .69.85 3.73 3.73 0 0 1 .23 1.43v4.56c0 .26-.15.31-.47.12l-.28-.16a.78.78 0 0 1-.47-.67v-4.13a1.52 1.52 0 0 0-.07-.52.5.5 0 0 0-.25-.3c-.15-.09-.28 0-.4.17v4.36c0 .27-.16.31-.47.13l-.28-.16a.78.78 0 0 1-.47-.67Zm4.47 2.21a7.38 7.38 0 0 1-.45-2.76 4.14 4.14 0 0 1 .45-2.39c.29-.35.71-.37 1.25-.06a2.67 2.67 0 0 1 1.16 1.54 8.7 8.7 0 0 1 .36 2.72.59.59 0 0 1-.17.35c-.11.13-.19.18-.25.15l-1.55-.87a2.72 2.72 0 0 0 .19 1 1.19 1.19 0 0 0 .47.54.87.87 0 0 0 .32.11.93.93 0 0 0 .29 0 .34.34 0 0 1 .17 0 .68.68 0 0 1 .18.29 2.64 2.64 0 0 1 .17.52 1.58 1.58 0 0 1 .07.4c0 .19-.07.31-.22.35a.88.88 0 0 1-.51 0 2 2 0 0 1-.53-.21 3.23 3.23 0 0 1-1.4-1.68Zm1.67-2a6.94 6.94 0 0 0-.1-1.33.83.83 0 0 0-.33-.58c-.14-.08-.26 0-.34.17a4.67 4.67 0 0 0-.15 1.21Zm1.93 3.01v-7.27c0-.26.16-.3.49-.12l.22.14a.78.78 0 0 1 .49.68v7.29a1 1 0 0 0 .05.34.32.32 0 0 0 .15.19s.05 0 .09 0a.12.12 0 0 1 .09 0c.07 0 .13.18.17.43a4.29 4.29 0 0 1 .07.63c0 .2-.08.31-.24.31a1 1 0 0 1-.53-.16 2.66 2.66 0 0 1-1.05-2.46Zm2.4 5.4v-7.44c0-.21 0-.43-.05-.69a1.91 1.91 0 0 1 0-.28c0-.13.11-.17.33-.11a2.43 2.43 0 0 1 .59.24.48.48 0 0 1 .22.33 5 5 0 0 1 .11.63.74.74 0 0 1 .35-.43.52.52 0 0 1 .52.05 1.7 1.7 0 0 1 .63.76 5.32 5.32 0 0 1 .43 1.42 10.54 10.54 0 0 1 .16 1.95 5.12 5.12 0 0 1-.36 2.27.64.64 0 0 1-1 .3 1.83 1.83 0 0 1-.67-.75v2.45c0 .27-.16.31-.49.12l-.23-.13a.81.81 0 0 1-.54-.69Zm1.9-2.91a5.43 5.43 0 0 0 .12-1.41 7.72 7.72 0 0 0-.1-1.47c-.07-.34-.17-.54-.31-.62s-.29 0-.4.27v3.1a1 1 0 0 0 .33.37q.28.15.38-.24Zm6.48-.82v.22l-1.38 7.66c0 .16-.18.16-.45 0l-.16-.1c-.31-.17-.46-.35-.46-.53a.88.88 0 0 1 0-.21l.46-2.37a.63.63 0 0 1-.19-.17.57.57 0 0 1-.1-.26l-.94-5.78v-.29c0-.2.14-.21.41-.06l.35.21a.88.88 0 0 1 .29.22.59.59 0 0 1 .13.31l.3 2.72c0 .32.08.82.13 1.49 0-.28 0-.46.05-.54 0-.38.06-.65.09-.79l.32-2.39c0-.17.17-.17.43 0l.24.14c.32.19.48.38.48.52Zm.93 6.14a8 8 0 0 1-.42-2.77 4.33 4.33 0 0 1 .42-2.27c.28-.42.7-.47 1.25-.15a3 3 0 0 1 1.25 1.59 7.86 7.86 0 0 1 .42 2.76 4.35 4.35 0 0 1-.42 2.27c-.29.42-.7.47-1.25.16a3 3 0 0 1-1.25-1.59Zm1.59-.12a6.24 6.24 0 0 0 .11-1.43 8 8 0 0 0-.11-1.54.92.92 0 0 0-.34-.63c-.16-.09-.27 0-.34.23a6.36 6.36 0 0 0-.1 1.43 8.14 8.14 0 0 0 .1 1.54 1 1 0 0 0 .34.64c.16.09.27.01.34-.26Zm2.43 2.87a3.8 3.8 0 0 1-.24-1.44v-4.56c0-.27.16-.31.47-.13l.28.16a.79.79 0 0 1 .47.67v4.15a1.46 1.46 0 0 0 .07.51.53.53 0 0 0 .23.3c.15.08.29 0 .41-.17V164q0-.21.12-.24a.53.53 0 0 1 .35.1l.28.17a.78.78 0 0 1 .47.67v5.81c0 .06-.11.19-.34.13a2.78 2.78 0 0 1-.6-.25.41.41 0 0 1-.2-.26 2 2 0 0 1-.07-.39v-.37a1 1 0 0 1-.43.43.63.63 0 0 1-.6-.07 1.71 1.71 0 0 1-.67-.84Zm4.42.01a.52.52 0 0 1-.1-.33 3.23 3.23 0 0 1 .12-.93 2.73 2.73 0 0 1 .35-.73l.18-.22a3.5 3.5 0 0 0 .33-.48.82.82 0 0 0 .1-.4 1.08 1.08 0 0 0-.53-1 .46.46 0 0 0-.29-.09 1.09 1.09 0 0 0-.26 0h-.16a.62.62 0 0 1-.22-.32 4.63 4.63 0 0 1-.21-.56 1.63 1.63 0 0 1-.08-.44.42.42 0 0 1 .21-.42.87.87 0 0 1 .54 0 1.87 1.87 0 0 1 .63.24 3.21 3.21 0 0 1 1.2 1.25 3.69 3.69 0 0 1 .45 1.82 3 3 0 0 1-.1.82 1.53 1.53 0 0 1-.23.48 2.59 2.59 0 0 1-.37.39 2.36 2.36 0 0 0-.43.49 1.71 1.71 0 0 0-.21.7c0 .11-.06.18-.13.19a.53.53 0 0 1-.3-.1l-.19-.11a.88.88 0 0 1-.3-.25Zm-.2 2.38v-1.15c0-.27.16-.31.49-.12l.26.15a.83.83 0 0 1 .49.68V172c0 .27-.17.31-.49.12l-.3-.12a.81.81 0 0 1-.45-.72Z"/><path fill="#061d44" d="m258.71 357.31 15.15-8.76h.06l.11-.06c7.35-4.16 17.46-3.52 28.62 2.93 22.46 13 40.67 44.5 40.67 70.44 0 12.89-4.5 22-11.78 26.25l-.12.06h-.05l-15.16 8.76-2.58-6.81a43 43 0 0 1-11.25-4.66c-22.46-13-40.67-44.51-40.67-70.44a43.33 43.33 0 0 1 1.56-12Z"/><path fill="#fff" d="m258.71 357.31 15.15-8.76h.06l.11-.06c7.35-4.16 17.46-3.52 28.62 2.93 22.46 13 40.67 44.5 40.67 70.44 0 12.89-4.5 22-11.78 26.25l-.12.06h-.05l-15.16 8.76-2.58-6.81a43 43 0 0 1-11.25-4.66c-22.46-13-40.67-44.51-40.67-70.44a43.33 43.33 0 0 1 1.56-12Z" opacity=".4"/><path fill="#061d44" d="M343 415.49a59.45 59.45 0 0 1 .36 6.34c0 12.89-4.5 22-11.78 26.25l-.12.06h-.05l-15.16 8.76-2.58-6.81c-.85-.21-1.71-.46-2.57-.74l-3.85-13.26Z" opacity=".4"/><ellipse cx="287.33" cy="407.2" fill="#061d44" rx="33.21" ry="57.52" transform="rotate(-30 287.334 407.19)"/><ellipse cx="287.33" cy="407.2" fill="#fff" opacity=".6" rx="33.21" ry="57.52" transform="rotate(-30 287.334 407.19)"/><path fill="#061d44" d="M256.47 368.41c5-8.74 15.38-9.72 27.66-2.64 20.31 11.73 37.47 41.45 37.47 64.91 0 6.14-1.18 11.44-3.42 15.31-5 8.73-15.38 9.71-27.65 2.63-20.32-11.73-37.48-41.45-37.48-64.91 0-6.14 1.18-11.44 3.42-15.3Z"/><path fill="#061d44" d="M255.9 368.73c5.72-9.12 16.78-10.53 29.6-3.75 21.22 11.21 38.38 40.93 37.48 64.9-.24 6.28-1.7 11.74-4.23 15.78-5.72 9.12-16.78 10.53-29.6 3.75-21.22-11.2-38.38-40.92-37.48-64.9.24-6.28 1.7-11.74 4.23-15.78Z"/><path fill="#fff" d="M255.9 368.73c5.72-9.12 16.78-10.53 29.6-3.75 21.22 11.21 38.38 40.93 37.48 64.9-.24 6.28-1.7 11.74-4.23 15.78-5.72 9.12-16.78 10.53-29.6 3.75-21.22-11.2-38.38-40.92-37.48-64.9.24-6.28 1.7-11.74 4.23-15.78Z" opacity=".4"/><path fill="#fafafa" d="M293.28 447.09c8.16 4.31 15.61 5.3 21.42 3.1a17.42 17.42 0 0 0 4.05-4.53c2.53-4 4-9.5 4.23-15.78.9-24-16.26-53.69-37.48-64.9-8.16-4.31-15.6-5.3-21.41-3.1a17.09 17.09 0 0 0-4 4.53c-2.53 4-4 9.49-4.23 15.78-.95 23.97 16.21 53.69 37.42 64.9Z"/><path fill="#061d44" d="M289.82 370.88a2 2 0 0 1 .86 1.57v4.4c0 .59-.38.85-.86.57a2 2 0 0 1-.85-1.56v-4.41c.03-.59.38-.84.85-.57Zm-29.22 16.88a2 2 0 0 0 .92 1.52l3.82 2.21c.51.29.92.09.91-.46a2 2 0 0 0-.92-1.53l-3.82-2.2c-.51-.3-.92-.09-.91.46Zm59.51 35.59a2 2 0 0 0-.92-1.52l-3.82-2.21c-.51-.29-.92-.09-.91.46a2 2 0 0 0 .92 1.53l3.81 2.2c.51.3.92.09.92-.46Zm-29.22 16.87a2 2 0 0 1-.86-1.56v-4.41c0-.58.38-.84.86-.56a2 2 0 0 1 .85 1.56v4.41c.01.59-.38.84-.85.56Zm-2.8-31.44 21.56-3.09H286.4l1.69 3.09z"/><path fill="#37474f" d="M287.26 382s-2 18.53-2.62 22.82a3 3 0 0 0-.09.76 6.12 6.12 0 0 0 2.78 4.81 2 2 0 0 0 2 .2l1.48-.86a1.93 1.93 0 0 0 .84-1.81c.25-4.43-1.4-25.75-1.4-25.75l-1.45-1Z"/><path fill="#455a64" d="M284.55 405.59a6.12 6.12 0 0 0 2.78 4.81c1.53.89 2.77.17 2.77-1.6.26-4.44-1.39-25.75-1.39-25.75l-1.45-1s-2.7 21.76-2.71 23.54Z"/><path fill="#263238" d="M286.07 406.47a2.75 2.75 0 0 0 1.26 2.17c.69.41 1.25.08 1.25-.72a2.77 2.77 0 0 0-1.25-2.17c-.7-.4-1.26-.08-1.26.72Z"/><path fill="#37474f" d="m264.863 405.175.044-.367 4.468.539-.045.367zm13.117 22.744 1.768-4.138.34.145-1.768 4.138zm21.772-41.811 1.755-4.14.34.144-1.755 4.14zm11.466 19.855.044-.367 4.468.54-.044.367zm-49.609-31.355.276-.246 4.014 4.5-.276.246zm15.947-9.295.351-.117 1.894 5.725-.35.116zm21.714 76.488.35-.114 1.87 5.728-.351.115zm15.57-9.487.276-.247 4.013 4.501-.276.246z"/><path fill="#263238" d="m190.39 367.83-12.95-74.66-8.19-.42 17 75.07a1.09 1.09 0 0 0 .54.74 3.23 3.23 0 0 0 2.92.14 1 1 0 0 0 .64-.87Z"/><path fill="#37474f" d="M68.63 280.91h-8.2l-19.27 77.55a1 1 0 0 0 .59.9 3.2 3.2 0 0 0 2.92 0 1.13 1.13 0 0 0 .59-.7Zm56.71 122.5-.34-83.62-8.19-.41 4.43 84a1.14 1.14 0 0 0 .55.74 3.23 3.23 0 0 0 2.92.14 1 1 0 0 0 .64-.87Z"/><path fill="#263238" d="M118.25 248.78h-8.2l-12.73 80.15a1 1 0 0 0 .59.9 3.26 3.26 0 0 0 2.92 0 1.12 1.12 0 0 0 .59-.71Z"/><path fill="#061d44" d="M45 190.34a46.36 46.36 0 0 0-3.27 14.39c-.94 11 2.8 46.77 5 62.75 3.25 26.7 7.23 26.75 13 31.22 9.95 7.69 38.57 22.75 48 26.47 17.13 6.75 31.13-3.65 41.58-8.81A242 242 0 0 0 177 300c2.61-1.91 4-3.82 3.93-5.85v-4.92c0-2.58-2.27-5.34-7.06-8.45-8.85-5.74-40.83-24.39-53.22-31.25a.12.12 0 0 0-.1-.1c-9.53-5.79-15.27-45.13-21.87-66.06-.14-.45-.28-.88-.43-1.3s-.23-.66-.34-1c-.42-1.14-.85-2.18-1.3-3.14"/><path fill="#061d44" d="M181 289.21c0-2.58-2.27-5.34-7.07-8.45-8.84-5.74-40.82-24.39-53.21-31.25a.12.12 0 0 0-.1-.1c-9.53-5.79-15.27-45.13-21.87-66.06a37.9 37.9 0 0 0-1.39-3.85 2.36 2.36 0 0 0-.12-.28c-.11-.28-.24-.56-.37-.85s-.13-.29-.19-.43a20.17 20.17 0 0 0-4.41-6.36 9.32 9.32 0 0 0-2.16-1.52c-1.07-.6-3.32-1.86-3.88-2.19-6.48-3.87-15 .78-25.56 6.58-6.58 3.61-12.2 7.9-15.62 15.89a46.36 46.36 0 0 0-3.27 14.39c-.94 11 2.8 46.77 5 62.75 3.25 26.7 7.23 26.75 13 31.22 9.95 7.69 38.57 22.75 48 26.47 17.13 6.75 31.13-3.65 41.58-8.81A242 242 0 0 0 177 300c2.61-1.91 4-3.82 3.93-5.85.07-.81.07-4.1.07-4.94Z"/><path fill="#fff" d="M181 289.21c0-2.58-2.27-5.34-7.07-8.45-8.84-5.74-40.82-24.39-53.21-31.25a.12.12 0 0 0-.1-.1c-9.53-5.79-15.27-45.13-21.87-66.06a37.9 37.9 0 0 0-1.39-3.85 2.36 2.36 0 0 0-.12-.28c-.11-.28-.24-.56-.37-.85s-.13-.29-.19-.43a20.17 20.17 0 0 0-4.41-6.36 9.32 9.32 0 0 0-2.16-1.52c-1.07-.6-3.32-1.86-3.88-2.19-6.48-3.87-15 .78-25.56 6.58-6.58 3.61-12.2 7.9-15.62 15.89a46.36 46.36 0 0 0-3.27 14.39c-.94 11 2.8 46.77 5 62.75 3.25 26.7 7.23 26.75 13 31.22 9.95 7.69 38.57 22.75 48 26.47 17.13 6.75 31.13-3.65 41.58-8.81A242 242 0 0 0 177 300c2.61-1.91 4-3.82 3.93-5.85.07-.81.07-4.1.07-4.94Z" opacity=".25"/><path fill="#061d44" d="M149.38 311.39A241.8 241.8 0 0 0 177 295c5.94-4.32 5.39-8.73-3.12-14.25-11.82-7.67-60-35-60-35S53 281.7 55.6 288.34s40.33 27.18 52.21 31.86c17.13 6.74 31.19-3.66 41.57-8.81Z"/><path fill="#fff" d="M149.38 311.39A241.8 241.8 0 0 0 177 295c5.94-4.32 5.39-8.73-3.12-14.25-11.82-7.67-60-35-60-35S53 281.7 55.6 288.34s40.33 27.18 52.21 31.86c17.13 6.74 31.19-3.66 41.57-8.81Z" opacity=".6"/><path fill="#061d44" d="M90.08 170.06c-6.41-3.36-14.74 1.21-25 6.86-6.61 3.62-12.23 7.91-15.65 15.94L45 190.34c3.42-8 9-12.28 15.62-15.89 10.59-5.8 19.08-10.45 25.56-6.58.58.33 2.82 1.59 3.9 2.19Z"/><path fill="#fff" d="M90.08 170.06c-6.41-3.36-14.74 1.21-25 6.86-6.61 3.62-12.23 7.91-15.65 15.94L45 190.34c3.42-8 9-12.28 15.62-15.89 10.59-5.8 19.08-10.45 25.56-6.58.58.33 2.82 1.59 3.9 2.19Z" opacity=".5"/><path fill="#061d44" d="M98.73 183.35c-.14-.45-2.35-8.13-6.49-11.77a10.42 10.42 0 0 0-7-2.67c-5.6 0-12.32 3.7-20.2 8q-1 .54-2 1.11c-.25.14-.49.29-.73.44l-.88.55-.64.41a36.3 36.3 0 0 0-4 3 7.65 7.65 0 0 0-.6.55 26.13 26.13 0 0 0-2.19 2.36l-.38.45-.45.55c-.15.19-.28.38-.43.58l-.42.58a27.72 27.72 0 0 0-1.56 2.51c-.06.11-.13.22-.18.33s-.25.47-.37.71-.35.71-.51 1.06a45.52 45.52 0 0 0-3.57 15.09c-1.53 18.13 4.68 78 10.91 83.21 0 0-1-5.87 11.58-13.76 8.52-5.36 14.51-9.86 23.6-14.33 22.17-10.88 28.38-12.92 28.38-12.92-9.53-5.77-15.27-45.11-21.87-66.04Z"/><path fill="#fff" d="M98.73 183.35c-.14-.45-2.35-8.13-6.49-11.77a10.42 10.42 0 0 0-7-2.67c-5.6 0-12.32 3.7-20.2 8q-1 .54-2 1.11c-.25.14-.49.29-.73.44l-.88.55-.64.41a36.3 36.3 0 0 0-4 3 7.65 7.65 0 0 0-.6.55 26.13 26.13 0 0 0-2.19 2.36l-.38.45-.45.55c-.15.19-.28.38-.43.58l-.42.58a27.72 27.72 0 0 0-1.56 2.51c-.06.11-.13.22-.18.33s-.25.47-.37.71-.35.71-.51 1.06a45.52 45.52 0 0 0-3.57 15.09c-1.53 18.13 4.68 78 10.91 83.21 0 0-1-5.87 11.58-13.76 8.52-5.36 14.51-9.86 23.6-14.33 22.17-10.88 28.38-12.92 28.38-12.92-9.53-5.77-15.27-45.11-21.87-66.04Z" opacity=".4"/><path fill="#263238" d="m159.9 395.08 4.25-2.19-4.25-1.12v3.31z"/><path fill="#263238" d="M202.56 402.35s-51-22.17-51.55-18.73a5 5 0 0 0 .06 2.06l-.14-.18 1 6.38s3.67 3.05 7.93 3.2v-3.31a25.88 25.88 0 0 1 4.5 2.32c3.28 2.1 5.42 5.85 8.94 10.18 2.56 3.16 7.06 4.58 13.7 5.42 7.15.91 13.41-.57 15.15-2.52 1.43-1.56.68-4.37.41-4.82Z"/><path fill="#ffbda7" d="M201.15 401.19c-.5-.51-2.33-2.48-4.81-4.62-2.17-1.87-4.7-4.24-7.4-6.14a27.41 27.41 0 0 1-3.68-3 37.68 37.68 0 0 1-2.56-2.94 54.93 54.93 0 0 1-6.28-10.32c-.82-1.73-2.32-5.54-2-12.64.45-10.77 1.26-14.66 1.18-21.65l-24.08 3.69c.76 3.87 1.65 12.5 2.09 16.9.67 6.69 1.66 7.31-.83 14-.73 2-1.85 3.89-1.91 6-.11 3.43 2.62 6.35 5.63 8 2.51 1.35 5.37 1.9 7.8 3.34a24.87 24.87 0 0 1 6.4 6.13c1.74 2.16 3.15 4.73 5.56 6.23 2.68 1.67 5.21 2.16 8.29 2.74a44.22 44.22 0 0 0 11.09.39c5.23-.45 9.11-2.43 5.51-6.11Z"/><path fill="#37474f" d="M198.19 397.49c-2.21-1.81-5.35-4.4-9.13-7.31a9.43 9.43 0 0 0-7.84.84c-7.45 4.09-8.65 9.75-8.65 9.75a10.85 10.85 0 0 0 6.23 5.3c8.75 3.68 24.27 2.23 24.36-1.8.06-2.57-2.29-4.58-4.97-6.78Zm-45-24.41s-.49 1.33-1.77 3.94-1.5 5.2.2 7.76c2.23 3.39 4.94 4.4 7.69 5.09 2.32-7.68-3.05-15.18-6.09-16.79Z"/><path fill="#263238" d="M109.54 392.72c0 2.77-.65 11-.44 17.16.19 5.63 1.16 14.41-.35 21-1.54 6.71-7.28 13.73-14.89 7.42-4.71-3.92-6.56-8.55-7-16.65-.34-5.63 2-13.36 4.11-20.21 2.41-8 3.35-12.29 3.35-12.29Z"/><path fill="#ffbda7" d="M94.49 351c-.81 13.09.53 22.32.45 30.71A59.38 59.38 0 0 1 93.53 393c-1.21 5.33-3.22 12.74-4.08 16.19-1.19 4.83-2.08 7.87-.52 13.34a6.62 6.62 0 0 0 .53 1.23c2.25 4.53 8.13 8 10.05 7.53a3.27 3.27 0 0 0 3.32 1.23 3.88 3.88 0 0 0 .64-.14 4.16 4.16 0 0 0 .64-.24 6.54 6.54 0 0 0 3.25-4.06c.12-.36.23-.76.33-1.18 1.51-6.72.6-11.1.52-13.74-.09-3 .16-6.92.53-11.83s1.84-20.32 3.69-27.67c1.37-5.12 3.08-11.55 4.88-18.4Z"/><path fill="#37474f" d="M88.17 415.47c4.73-2 18.33-2 20.37 4.67-.07 6.23-.11 10.46-4.16 15.8-5.37 7.11-12-.67-14.56-5.57s-2.36-11.56-1.65-14.9Zm28.91-248.9c-6.86 11.74-16.11 28.07-17 54.66-1.08 35.45-1.84 60.85-2.08 65.12s-3.16 12-5.92 33 .26 61.16.26 61.16 2.35 4.78 10.38 5.72c7.41.86 10.89-2.61 10.89-2.61s11.74-56.2 14.9-68.81 13.94-67.75 13.94-67.75l3.94 34s-2.58 11.55-.81 30.08 7.62 54.27 7.62 54.27 3.36 3.55 11.25 3.24c7.21-.29 10.84-4.28 10.84-4.28s6.91-70.53 7.48-91.46 0-73.2-5.77-104.36Z"/><path fill="#263238" d="m148.89 213.61-6.46 33.5 3.94 34 .14-32.24 6.4-31.91c5.08-1.08 18.14-9.91 19.26-18.42-7.05 11.01-23.28 15.07-23.28 15.07ZM111.13 339.5q-3.15 16.32-5.89 32.71 4-16.14 7.6-32.35c2.42-10.82 4.71-21.61 7-32.49s4.91-35.6 6.12-46.62 2.18-22.05 3-33.1c-1.67 10.95-3.19 21.92-4.72 32.88s-4.43 35.58-6.59 46.4-4.45 21.7-6.52 32.57Zm62-78.53c.09 4.81.25 9.64 0 14.39s-.65 9.58-1 14.38L171 304.16q-1.14 14.43-1.93 28.89 2.08-14.34 3.66-28.72c1-9.61 2-19.17 2.64-28.88.23-9.75-.34-19.36-.94-29s-1.53-19.25-2.76-28.83l1 28.92c.14 4.8.33 9.62.41 14.46ZM121.21 48.16c-6.62 3.54-9.49 8.5-9.83 21.88-.13 5.19 0 9.8-4.42 13.29-2.36 1.86-5.16 3.22-7.18 5.46-3.36 3.7-3.72 10.12 0 13.52a8.2 8.2 0 0 0-5.19 6.69 12.13 12.13 0 0 0 2.33 8.38 13.72 13.72 0 0 0 7.76 5.53c2.42.57 4.71-.37 7.17-.37 4.45 0 8.91.11 13.36.16l17.84.2c5.34.06 10.53 1 15-2.45a7.26 7.26 0 0 0 3.08-6c3.74-.56 7.67-1.78 10-4.79 3.15-4.16 2-10.34-1.13-14.54-1.46-2-3.28-3.69-4.71-5.7-3.09-4.34-1.9-9.47-1.63-14.46.07-1.35-.5-6.34.4-7.44 0 0 4.91-6 4.7-12.35a20.07 20.07 0 0 0-15.53-19.14c-9.8-2.53-28.85-.38-32.02 12.13Z"/><path fill="#ffbda7" d="M219.38 110.62a34 34 0 0 0 2.16-7.29c1-6.41 2.79-8.07 6.76-13 .68-.85 1.37-1.69 2.06-2.53a11.62 11.62 0 0 0 1-1.25c.26-.42.5-.77 1.11-.6a1.83 1.83 0 0 1 1 .85 5.35 5.35 0 0 1 .32 4.28 26.13 26.13 0 0 1-1.86 4c-.51 1 .76.78 1.35.59 2.86-1 5.94-4.63 7.87-6.89a38 38 0 0 1 3.73-4.48 6 6 0 0 1 3.22-1.54c.82-.08 1.6.12 1.6 1.14a4.21 4.21 0 0 1-.62 1.79c-.59 1.18-1.1 2.24-.66 3.57a9.92 9.92 0 0 1 .78 2.5c.07 1.12-.51 2.18-.56 3.29.57.25.84 1.22.41 2.37a28.43 28.43 0 0 1-4.46 8.22 27.4 27.4 0 0 1-7.38 6.45 15.16 15.16 0 0 0-5.76 6.37c-1.87 3.81-3.43 8.18-7.22 17.07-5.36 12.57-6.9 17.88-11.89 21-3.71 2.31-7.68.28-17.65-4.45a239.69 239.69 0 0 1-29.46-16.81L163 101.49c5.73 1.27 11.38 6.67 19.44 14 15 13.67 20.56 18.09 20.56 18.09s15-19.86 16.38-22.96Z"/><path fill="#f0997a" d="M231.07 97.51c1.91 7-.77 11-2.39 13.49 0 0 3.61-2.26 4.23-5.86a9.21 9.21 0 0 0-1.84-7.63Z"/><path fill="#f0f0f0" d="m210.92 122.29 2.64-3.8a23.89 23.89 0 0 0 5.36 7.62 16 16 0 0 0 8.05 4.13l-2.12 4.8a19.45 19.45 0 0 1-8.06-3.23c-3.51-2.63-5.87-9.52-5.87-9.52Z"/><path fill="#061d44" d="M160.9 99.82c8.11 1 13.19 6.51 18.31 11.18 7.15 6.52 23.31 20.77 23.31 20.77l9.31-11.23a16.57 16.57 0 0 0 5 7.74 22.44 22.44 0 0 0 9 4.66s-5.14 13-8.47 19-6.79 9.52-16.25 6c-5.56-2.06-38.17-21.8-38.17-21.8Z"/><path d="M202.52 131.77c-1.79 2.55-2.76 8.28-2.49 11.61-1.17-3.41-1.31-9.11 1.16-12.79Z" opacity=".15"/><path fill="#fafafa" d="M109.5 179.74c.74-5.39 4.5-6.19 2.67-19.06-.9-6.38-4.1-22.86-4.1-22.86s11-8.46 7.44-33.11L127.3 100l6.43-2.27 18 .75 9.23 2.52c3.16 2.73 8.95 7 13.61 13.6 6.73 9.49 7.94 20 1.07 27.76-.08 1.52.2 25 2 30.74.7 2.27 1.66 5.37.18 8.42-6.68 10.82-45.91 21.88-68.32-1.78Z"/><path fill="#061d44" d="m151.7 98.45 9.2 1.37c8.85 6.69 19.37 18.74 20 28a25.06 25.06 0 0 1-4.13 15.55s-.13 18.86 2 28.82 4.54 36.62 4.54 36.62.19 1.66-7.2 3.74c-2.26-12.78-7.87-59.66-7.56-70.91s.51-29.01-16.85-43.19Z"/><path d="m151.7 98.45 9.2 1.37c8.85 6.69 19.37 18.74 20 28a25.06 25.06 0 0 1-4.13 15.55s-.13 18.86 2 28.82 4.54 36.62 4.54 36.62.19 1.66-7.2 3.74c-2.26-12.78-7.87-59.66-7.56-70.91s.51-29.01-16.85-43.19Z" opacity=".3"/><path d="M169.92 146.89c.73-3 1.53-5.95 2.35-8.92s1.59-5.93 2.33-8.9a35.3 35.3 0 0 0 .84-4.46c.22-1.41-.78-2.58-1.77-3.69a41.15 41.15 0 0 0-7.07-5.7l-.23-.16v-.28a15.08 15.08 0 0 0 0-4.88 12.62 12.62 0 0 0-1.7-4.59 14.53 14.53 0 0 0-3.46-3.54 22.67 22.67 0 0 0-4.34-2.55 20.91 20.91 0 0 1 4.53 2.28 13.53 13.53 0 0 1 3.74 3.5 13.31 13.31 0 0 1 2 4.77 14.76 14.76 0 0 1 .1 5.18l-.19-.43a39.75 39.75 0 0 1 7.3 5.78 11.07 11.07 0 0 1 1.44 1.92 3 3 0 0 1 .27.57 2.5 2.5 0 0 1 .2.62 4.29 4.29 0 0 1 0 1.28 35.87 35.87 0 0 1-.91 4.57c-.75 3-1.7 5.93-2.61 8.86s-1.86 5.88-2.82 8.77Z" opacity=".2"/><path fill="#061d44" d="M127.3 100s3.87 5 9 16.69 10.07 22.36 10 33.2-3.64 66.95-3.64 66.95-15.55 2.34-29.64-3.33l1.15-21.72-5.33 20.7s-6.74-2.42-9.23-4.66c3.67-22.6 11.89-33.32 12.3-41.65.28-5.73-4.58-21.61-5.51-35.92a109.32 109.32 0 0 1 1.71-25.06Z"/><path d="M127.3 100s3.87 5 9 16.69 10.07 22.36 10 33.2-3.64 66.95-3.64 66.95-15.55 2.34-29.64-3.33l1.15-21.72-5.33 20.7s-6.74-2.42-9.23-4.66c3.67-22.6 11.89-33.32 12.3-41.65.28-5.73-4.58-21.61-5.51-35.92a109.32 109.32 0 0 1 1.71-25.06Z" opacity=".3"/><path d="M144.23 153.1a25.08 25.08 0 0 0-4.28-7.5 86.19 86.19 0 0 0-5.62-6.62c-1-1.08-2-2.14-2.94-3.19l-1.5-1.59c-.25-.28-.5-.53-.76-.84a2.21 2.21 0 0 1-.19-.26c-.07-.13-.13-.27-.19-.41a3.79 3.79 0 0 1-.08-.73 13.16 13.16 0 0 1 1.52-4.33c.69-1.31 1.43-2.57 2.23-3.81l.08.72-4.45-4.49-2.21-2.27-.55-.57-.27-.28a2.68 2.68 0 0 1-.38-.46 2.3 2.3 0 0 1-.11-1 7.53 7.53 0 0 1 .08-.83 49.51 49.51 0 0 1 1.52-6.22c.62-2 1.26-4.05 2-6-.51 2.06-1 4.11-1.49 6.18a61.63 61.63 0 0 0-1.18 6.18 3.78 3.78 0 0 0 0 1.33c-.08-.11 0 .06.15.14l.28.27.58.55 2.29 2.22 4.56 4.47.32.32-.25.4c-.76 1.21-1.47 2.47-2.12 3.74a12.89 12.89 0 0 0-1.44 3.83 3.06 3.06 0 0 0 0 .35.14.14 0 0 1 0 .09s.09.12.13.18c.2.25.46.52.7.79l1.47 1.6c1 1.08 2 2.16 2.91 3.26 1.89 2.23 3.72 4.52 5.38 6.93a34.73 34.73 0 0 1 2.25 3.77 15.81 15.81 0 0 1 1.56 4.08Z" opacity=".2"/><path fill="#f0997a" d="M98 213.06c-1.48-1.55-3.37-2.9-4-5a3.68 3.68 0 0 1 .45-3.28 1.74 1.74 0 0 0 .38-.6 1.46 1.46 0 0 0 0-.59 4.05 4.05 0 0 1 .1-2.44 2.5 2.5 0 0 1 1.53-1.35 5.86 5.86 0 0 1 0-3.68c.45-1.41 1.87-2.56 2.85-1a12.77 12.77 0 0 1 1.15 2.42 28.92 28.92 0 0 1 1.53 6.49c.28 2.31 1 8.84-2.6 9.23-.39-.01-1.17.02-1.39-.2Z"/><path fill="#ffbda7" d="M111.44 106.48c-13.73 2.9-15 7.25-23 18.73-7.86 11.33-18 27.15-20.39 32.71-3 6.88-3.65 9.51 3.8 16.61 3.84 3.66 9.18 8 14.61 12.92 4.3 3.89 9.46 8 13.62 12a3.74 3.74 0 0 1 1.35 3.74 24.44 24.44 0 0 0-.67 2.78 23.77 23.77 0 0 0 .37 3.65 3.18 3.18 0 0 1-1.38 3.19 3.54 3.54 0 0 1-1.74.24 12.27 12.27 0 0 0 3.41 1.76 5.11 5.11 0 0 0 3.75-.2c1.11-.57 1.93-1.65 3.12-2 .64-.21 1.33-.19 2-.37a3.27 3.27 0 0 0 1.68-1.15c.66-.88.92-2.11 1.87-2.66a13.58 13.58 0 0 1 1.48-.52 3.31 3.31 0 0 0 1.79-2.5 9 9 0 0 0-.14-3.19 80.58 80.58 0 0 0-1.92-8.41 8.31 8.31 0 0 0-1.42-2.57c-.66-.91-1.3-1.86-2-2.74-4.86-5.93-20.31-25.75-20.31-25.75l17-22.35s12.47-14.4 3.12-33.92Z"/><path fill="#f28f8f" d="M91.28 162.73c-4.1 4.2-10.6 4.67-13 4.57a13.73 13.73 0 0 0 14.4-2.78Z"/><path fill="#f0f0f0" d="m82.6 184.09 3.86 3.36a15 15 0 0 0 9.47-5.45c4.3-5.15 4-8.92 4-8.92L95.41 168Z"/><path fill="#061d44" d="M111.59 104.24c-9.86 2.16-11.69 3.47-18.74 13.34s-18.95 28.71-22 33.57-7.72 13.28-5 17.5 17.33 16.57 17.33 16.57 5-.23 9.81-5.22c5-5.18 4.62-10.46 4.62-10.46l-5.43-6.82s15.21-19.6 18-23.23 8.71-15.85 1.41-35.25Z"/><path d="M92.09 162.72c-2-2.23-6.8-5.84-10.33-6.46 3.7-.64 9.21 2 11.81 4.44Z" opacity=".15"/><path fill="#ffbda7" d="M119.26 69.86c1.73-2 5.28-2.9 7-.18 1.1 1.68 1.42 4.52 3.05 4.08 1-.27 1.34-1.46.95-3.63 2.11-.54 3.62-3.56 3.16-7-1.13-8.24 3.69-13.84 10.75-11.22 2.86-4.06 8.44-5.37 14-2.49 3.59 1.86 7.05 6.31 7.35 21.8.26 13.09-1.63 16.56-4.36 18.83-2.34 2-6.43 2.75-10.72 2.74v7.45s4.12 4.55 1.12 11.37a44.38 44.38 0 0 1-12.2-3.4c-8.68-4.22-10.36-8.54-10.36-8.54V80s-2.41 4.34-7 .86c-3.76-2.86-5.32-7.99-2.74-11Z"/><path fill="#f0997a" d="M150.46 92.82c-8.22.05-15.3-2-17.75-5.71 0 0 .28 2.1 3.77 4.67 3.79 2.79 14 3.64 14 3.64Z"/><path fill="#263238" d="M141.61 66a2.12 2.12 0 1 0 2.39-1.82 2.12 2.12 0 0 0-2.39 1.82Zm15.39.15a2.13 2.13 0 1 0 1.4-2.66 2.13 2.13 0 0 0-1.4 2.66Zm-13.51-6.43-4.3 2.9a2.72 2.72 0 0 1 .73-3.7 2.53 2.53 0 0 1 3.57.8Zm13.82-.52 4.6 2.4a2.72 2.72 0 0 0-1.14-3.6 2.53 2.53 0 0 0-3.46 1.2Z"/><path fill="#b16668" d="m154.25 80.38-7.22-2a3.93 3.93 0 0 0 2.67 4.75 3.66 3.66 0 0 0 4.55-2.75Z"/><path fill="#f28f8f" d="M152 83a4.37 4.37 0 0 0-4.48-3.3 4.85 4.85 0 0 0-.55.09 3.88 3.88 0 0 0 2.76 3.31A3.51 3.51 0 0 0 152 83Z"/><path fill="#f0997a" d="m149.67 63.64 2.14 12.05 6.49-2.87-8.63-9.18z"/><path fill="#455a64" d="M126.87 66.68 120 67s-1.46-7.07-2.14-11.12c-.14-.78-.23-1.46-.27-2 0-.23 0-.46-.05-.69-.19-2.88.17-6.94 3.1-9.6a16.86 16.86 0 0 1 6.66-3.76 14.49 14.49 0 0 0-2.52 2.27c-.78.81-2.31 2.66-2.53 4.26a7.88 7.88 0 0 0 0 1.66c.09.74.23 1.62.44 2.58 1.14 5.64 4.18 16.08 4.18 16.08Z"/><path fill="#37474f" d="M130.7 78.46a16.26 16.26 0 0 0-3.48-14.27 7 7 0 0 0-3-2 4.16 4.16 0 0 0-2.18-.06l-2.4.58c-1.64.41-3 1.89-3.64 4.18a16.27 16.27 0 0 0 3.49 14.27 6.89 6.89 0 0 0 3 2 4.1 4.1 0 0 0 2.19.07l2.37-.58c1.64-.42 2.95-1.89 3.65-4.19Z"/><path fill="#263238" d="M122.49 83.15a6.89 6.89 0 0 1-3-2A16.27 16.27 0 0 1 116 66.93c1-3.25 3.24-4.87 5.83-4.11a7 7 0 0 1 3 1.95A16.26 16.26 0 0 1 128.31 79c-.94 3.29-3.23 4.91-5.82 4.15Z"/><path fill="#f0f0f0" d="M127.81 78.89a15.65 15.65 0 0 0-3.36-13.76c-1.56-1.63-3.23-2.23-4.67-1.87l-1.19.29c-1.44.35-2.65 1.65-3.28 3.82a15.69 15.69 0 0 0 3.36 13.76c1.57 1.63 3.23 2.23 4.67 1.87l1.2-.29c1.46-.35 2.64-1.65 3.27-3.82Z"/><path fill="#e0e0e0" d="M123.25 65.43a15.63 15.63 0 0 1 3.37 13.75c-1.27 4.34-4.82 5.21-8 1.95a15.69 15.69 0 0 1-3.36-13.76c1.31-4.37 4.87-5.21 7.99-1.94Z"/><path fill="#061d44" d="M126.62 79.18a15.63 15.63 0 0 0-3.37-13.75c-1.56-1.63-3.22-2.23-4.66-1.88-.4.1-1.14.33-1.54.43-1.44.35-2.64 1.65-3.27 3.81a15.64 15.64 0 0 0 3.36 13.76c1.56 1.63 3.23 2.23 4.66 1.88.41-.1 1.14-.33 1.54-.43 1.44-.35 2.66-1.65 3.28-3.82Z"/><path fill="#fff" d="M121.72 65.85a15.69 15.69 0 0 1 3.37 13.76c-1.27 4.34-4.83 5.21-8 1.94a15.64 15.64 0 0 1-3.36-13.76c1.27-4.33 4.87-5.2 7.99-1.94Z" opacity=".15"/><path fill="#263238" d="M119.77 69.94a8.22 8.22 0 0 1 1.77 7.22c-.66 2.28-2.53 2.74-4.17 1A8.23 8.23 0 0 1 115.6 71c.67-2.32 2.53-2.78 4.17-1.06Z"/><path fill="#455a64" d="m121.11 72.61-2.72 1.49-1.25-5.1a2.59 2.59 0 0 1 2.45 1 7.31 7.31 0 0 1 1.52 2.61Z"/><path fill="#37474f" d="M121.36 77.21a2.61 2.61 0 0 1-1.72 2l-1.25-5.11 2.72-1.49a8 8 0 0 1 .25 4.6Z"/><path fill="#455a64" d="M119.64 79.21a2.62 2.62 0 0 1-2.46-1 7.4 7.4 0 0 1-1.52-2.63l2.73-1.5Z"/><path fill="#37474f" d="m118.39 74.1-2.73 1.5a7.93 7.93 0 0 1-.24-4.6 2.58 2.58 0 0 1 1.72-2Z"/><path d="M165.56 73.72a24.12 24.12 0 0 1 4.51 2.81 4.22 4.22 0 0 1 .76 5.86l-1.77-.58s1.19-2 .24-3.27-3.77-2.54-3.77-2.54.03-1.64.03-2.28Z"/><path fill="#061d44" d="M170.21 81.12c-1.38-.89-2.19-.06-3.53 2.3s-.71 3.13.49 3.78 2.27-.07 3.29-2c1.16-2.2 1.24-3.12-.25-4.08Z"/><path d="M170.21 81.12c-1.38-.89-2.19-.06-3.53 2.3s-.71 3.13.49 3.78 2.27-.07 3.29-2c1.16-2.2 1.24-3.12-.25-4.08Z" opacity=".1"/><path fill="#37474f" d="M441.05 402.35h-45.89l4.74 19.76c.36 2.39 2.11 4.71 5.27 6.54 7.14 4.12 18.71 4.12 25.85 0 3.4-2 5.16-4.51 5.32-7.08Z"/><path fill="#263238" d="M435.45 415.9a18.49 18.49 0 0 0 2.75-1.9l2.59-10.56a18.64 18.64 0 0 1-4.65 3.69c-9.68 5.59-25.19 5.73-35.2.45l1.16-4.71-.35-.49h-6.59l4.74 19.76c.36 2.39 2.11 4.71 5.27 6.54 5.09 2.93 12.41 3.76 18.79 2.52-11.43.85-19.28-4.15-20.45-8.76-.47-1.84-1.29-5.9-1.29-5.9 9.56 4.82 24.11 4.62 33.23-.64Z"/><path fill="#455a64" d="M443.43 396.51a9.55 9.55 0 0 1-1.53 3.56 16.91 16.91 0 0 1-5.76 5.12c-10 5.75-26.11 5.75-36.07 0a16.81 16.81 0 0 1-5.76-5.12 9.72 9.72 0 0 1-1.53-3.56c-.89-4.32 1.54-8.83 7.29-12.15 10-5.75 26.11-5.75 36.07 0 5.75 3.32 8.18 7.83 7.29 12.15Z"/><path fill="#37474f" d="M441.9 400.07a16.91 16.91 0 0 1-5.76 5.12c-10 5.75-26.11 5.75-36.07 0a16.81 16.81 0 0 1-5.76-5.12 9.72 9.72 0 0 1-1.53-3.56l1.13 7.77c.52 3.14 2.85 6.18 7 8.58 9.49 5.48 24.88 5.48 34.37 0 4.1-2.37 6.43-5.38 7-8.46l.06-.4 1.09-7.49a9.55 9.55 0 0 1-1.53 3.56Z"/><path fill="#263238" d="M433.14 386.09c-8.31-4.79-21.77-4.79-30.06 0-4.7 2.72-6.74 6.38-6.12 9.92.47 2.72 2.51 5.36 6.12 7.44 8.29 4.79 21.75 4.79 30.06 0 3.59-2.08 5.64-4.72 6.11-7.43.62-3.55-1.41-7.21-6.11-9.93Z"/><path fill="#fafafa" d="M398.36 399.3a14.24 14.24 0 0 0 4.72 4.15c8.29 4.79 21.75 4.79 30.06 0a14.3 14.3 0 0 0 4.71-4.15c-.06-2.87-2-5.73-5.78-7.92-7.71-4.46-20.22-4.46-27.93 0-3.79 2.19-5.72 5.05-5.78 7.92Z"/><path fill="#061d44" d="M419.69 390.38c-3.81-1-4.46-9.3-2.32-18 2.08-8.49 8.73-21.21 10.15-20.93s3.18 14.11 2.19 23.24c-1.21 11.04-6.2 16.72-10.02 15.69Z"/><path d="M419.69 390.38c-3.81-1-4.46-9.3-2.32-18 2.08-8.49 8.73-21.21 10.15-20.93s3.18 14.11 2.19 23.24c-1.21 11.04-6.2 16.72-10.02 15.69Z" opacity=".3"/><path fill="#061d44" d="M421.55 363.66c.69 1.08 1.11 2.91 2.71 2.92 1.29 0 2-1.36 3.12-1.67a3.12 3.12 0 0 1 2.56.76v-1a4 4 0 0 0-2.22-.78 3.16 3.16 0 0 0-1.84.84c-.6.46-1.33 1.16-2.15.82s-1.23-1.55-1.73-2.32a3.08 3.08 0 0 0-1-1c-.1.23-.21.46-.31.7a2.1 2.1 0 0 1 .86.73Zm4.53-3.41c.55-.26.86-.81 1.29-1.22a1.86 1.86 0 0 1 2-.38h.07c0-.3-.07-.58-.11-.87-.12 0-.24-.07-.37-.09a2.18 2.18 0 0 0-1.59.35c-.53.38-.82 1-1.38 1.36-1 .6-1.79-.49-2.08-1.31-.14-.36-.24-.74-.36-1.11l-.31.59c.07.26.14.52.22.77.29 1.11 1.31 2.53 2.62 1.91Zm-.13 11a9.13 9.13 0 0 1-2.08 1.37c-2 .56-2.42-2.48-3.67-3.37a2.68 2.68 0 0 0-1.79-.47c-.08.24-.15.47-.23.7a2.41 2.41 0 0 1 1 0 2.71 2.71 0 0 1 1.72 1.52c.63 1.13 1.43 2.74 3 2.43a4.83 4.83 0 0 0 1.83-1 3.28 3.28 0 0 1 2.66-.71 3.52 3.52 0 0 1 1.49.79c0-.29 0-.59.05-.9a3.8 3.8 0 0 0-1.82-.8 3.41 3.41 0 0 0-2.11.47Zm1.2 6.67a3.9 3.9 0 0 0-2.6.34c-.91.45-1.57 1.33-2.53 1.69-2.07.79-2.39-2.22-3.92-3a3.09 3.09 0 0 0-1.57-.3c0 .23-.07.47-.09.7a3 3 0 0 1 .6 0 2.8 2.8 0 0 1 2.14 1.65c.74 1.38 1.7 2.49 3.38 1.67.9-.44 1.55-1.26 2.47-1.66a2.94 2.94 0 0 1 3.1.29 4.51 4.51 0 0 1 .58.71c.08-.29.15-.6.22-.9a3.32 3.32 0 0 0-1.78-1.11Z" opacity=".5"/><path d="M419.69 390.38c3.82 1 8.81-4.65 10-15.71a65.63 65.63 0 0 0 .21-9.49c-3.12 2.56-6.24 7.78-6.24 7.78a83.52 83.52 0 0 0-3.71-8.34 57.73 57.73 0 0 0-2.6 7.74c-2.12 8.72-1.47 16.98 2.34 18.02Z" opacity=".1"/><path fill="#061d44" d="M416.58 395c-5 3.22-9.69-8.24-12.19-16.88s-.86-31.25 1.66-32.49c1.79-.88 11.27 19.38 13.13 29.24 1.35 7.13 1.4 17.53-2.6 20.13Z"/><path d="M416.58 395c-5 3.22-9.69-8.24-12.19-16.88s-.86-31.25 1.66-32.49c1.79-.88 11.27 19.38 13.13 29.24 1.35 7.13 1.4 17.53-2.6 20.13Z" opacity=".1"/><path fill="#061d44" d="M405.75 361.55c1.58.78 2.83.78 4.06-.55s2-2.79 3.77-2.59c-.17-.4-.35-.79-.52-1.18a2.57 2.57 0 0 0-.87.08c-1.55.42-2.25 2-3.34 3.06-1.69 1.58-3.48-.49-5.39-.37h-.17c0 .34 0 .69-.05 1a4.75 4.75 0 0 1 2.51.55Zm13.8 15.55a5.64 5.64 0 0 0-.83-.23 3 3 0 0 0-2.37.53c-1.52 1.12-1.58 3.59-4 3-1.87-.5-3.27-1.73-5.23-.74a6.54 6.54 0 0 0-1.8 1.35c.09.29.19.58.28.87a5.56 5.56 0 0 1 2.45-1.52c2.11-.54 3.7 1.59 5.81 1.24 1.71-.28 1.9-2.16 3.09-3.1a2.68 2.68 0 0 1 2.78-.17c-.08-.45-.13-.84-.18-1.23Zm-13.71-23.76c.59.81 1.41 1.7 2.5 1.14s1.26-2 2-2.93l-.4-.78c-.73 1-1.09 3.09-2.48 3-1.09-.06-1.52-1.68-2.43-2.14a1.6 1.6 0 0 0-.91-.18c0 .22-.07.44-.1.66h.21c.77.03 1.21.68 1.61 1.23Zm3.78 17.16c2 .43 2.95-1.93 3.84-3.24a6 6 0 0 1 2.76-2.32l-.41-1.07a3.66 3.66 0 0 0-1 .39 6.69 6.69 0 0 0-2.15 2.18 8.81 8.81 0 0 1-2 2.69c-1.06.68-2.3-.39-3.4-.59a5.86 5.86 0 0 0-3 .25 5.63 5.63 0 0 0-.93.44c0 .49 0 1 .08 1.46a4.7 4.7 0 0 1 3.21-1.09c1.06.03 1.92.67 3 .9Z"/><path d="M416.55 365.85a28.18 28.18 0 0 0-4.06 6.66s-5.45-7.39-9.28-10.74c-.21 6.14.09 12.54 1.18 16.31 2.5 8.64 7.17 20.1 12.19 16.88 4-2.56 3.95-13 2.6-20.13a61.78 61.78 0 0 0-2.63-8.98Z" opacity=".1"/><path fill="#061d44" d="M416.24 400.85c-9.18.49-17.75-5.06-23.31-12.07s-9.91-21.47-8.65-22.36 16.06 8.24 21.62 14.82c7.29 8.64 10.34 19.61 10.34 19.61Z"/><path d="M416.24 400.85c-9.18.49-17.75-5.06-23.31-12.07s-9.91-21.47-8.65-22.36 16.06 8.24 21.62 14.82c7.29 8.64 10.34 19.61 10.34 19.61Z" opacity=".2"/><path fill="#061d44" d="M396.21 377.86c.54-.86.23-1.9.11-2.84a2.65 2.65 0 0 1 .37-1.78l-1-.73a3.75 3.75 0 0 0-.38 2.49c.16 1.06.41 2.37-1 2.57s-3.68-1.17-4.91.36c-.6.74-.37 1.68-.39 2.55a2.54 2.54 0 0 1-.34 1.12l.51 1a3.19 3.19 0 0 0 .69-1.56c.13-1.07-.29-2.44 1.15-2.67a12.73 12.73 0 0 1 2.94.37 2.34 2.34 0 0 0 2.25-.88Zm-5.12-7.66a2.1 2.1 0 0 1 .4-.44l-.82-.5c-.67.88-.67 2.1-1.36 3a1.55 1.55 0 0 1-1.73.49 3 3 0 0 0-1.91.07 2.36 2.36 0 0 0-.38.22c.07.22.13.44.21.66a2 2 0 0 1 1-.26c.69 0 1.34.34 2 .29a1.83 1.83 0 0 0 1.22-.62c.75-.84.78-2 1.37-2.91Zm10.17 12.3a4.56 4.56 0 0 0 1.39-2.36 16 16 0 0 0 .24-1.95c-.28-.26-.57-.51-.87-.77a9.63 9.63 0 0 1-.64 3.17 2.88 2.88 0 0 1-2.86 1.5 3 3 0 0 0-2.45.78 4.63 4.63 0 0 0-.92 2.46c-.19 1.28-.38 2.46-1.57 3.18a3.29 3.29 0 0 1-.63.3c.21.27.44.53.66.8a3.71 3.71 0 0 0 1.32-1c1.54-1.82.29-5.44 3.55-5.44a4 4 0 0 0 2.78-.67Zm4.93.92a4.68 4.68 0 0 1 .69-1l-.79-1a6 6 0 0 0-1.47 2.89 8.59 8.59 0 0 1-1.2 3.42c-.8 1-2.07.91-3.12 1.5a4.49 4.49 0 0 0-2 2.29 11.31 11.31 0 0 0-.49 2.31c.32.27.64.54 1 .8v-.14a5.77 5.77 0 0 1 1.37-3.59c1-.91 2.31-.77 3.34-1.5 2.02-1.35 1.68-4.03 2.67-5.98Zm4 3.83a6.06 6.06 0 0 0-.75.68c-1.56 1.72-1.37 3.95-1.94 6.06a3.74 3.74 0 0 1-2 2.62c-.88.36-1.87 0-2.63.7 0 0 0 .06-.07.08.45.26.91.51 1.37.74a4.91 4.91 0 0 1 .83-.13 3.41 3.41 0 0 0 1.43-.34 4.09 4.09 0 0 0 1.74-1.91c.95-2 .53-4.36 1.71-6.24a5.55 5.55 0 0 1 1-1.15Z"/><path d="M395.57 372.45c.87 7.6 4.92 28 20.67 28.4 0 0-3.05-11-10.34-19.61a57.76 57.76 0 0 0-10.33-8.79Z" opacity=".2"/><path fill="#061d44" d="M416.24 400.85c-7.22-1.05-13.41-5.62-16.6-19.22s-3.66-19.74-1.48-21.09c2.52-1.55 12.37 12.15 15.54 18.18 7.96 15.15 2.54 22.13 2.54 22.13Z"/><path fill="#fff" d="M402.85 375.72c1.8.57 4.14 1.17 5.49-.61a17.18 17.18 0 0 0 1.3-3l-1-1.39c-.79 1.28-.77 3.17-2.17 3.91a4.45 4.45 0 0 1-3.34-.13 7.82 7.82 0 0 0-3.31-.5 4.58 4.58 0 0 0-1.73.61c.08.4.17.82.25 1.23a5.23 5.23 0 0 1 .72-.34 5.59 5.59 0 0 1 3.79.22Zm-2.13-7a2.86 2.86 0 0 0 1.67.32c1.1-.23 1.67-1.29 2.23-2.15a4.86 4.86 0 0 1 .56-.71l-.68-.82a1.85 1.85 0 0 0-.14.14c-.68.83-1.26 2.51-2.53 2.54a8.58 8.58 0 0 1-1.8-.53 4 4 0 0 0-1.55 0 3.86 3.86 0 0 0-1.48.49c0 .31.08.64.12 1a4.34 4.34 0 0 1 1.94-.59 3.82 3.82 0 0 1 1.66.28Zm7.87 15.1a10.24 10.24 0 0 1 2.21-2.88 4.82 4.82 0 0 1 3.68-.65c-.25-.5-.5-1-.78-1.54a6.2 6.2 0 0 0-2.49.16 5.26 5.26 0 0 0-2.75 2 16 16 0 0 1-1.85 2.66c-1.47 1.34-3.46.17-5.1-.16a6.36 6.36 0 0 0-1.44-.11c.13.47.26.94.39 1.39a5.9 5.9 0 0 1 1.9.29c2.45.75 4.64 1.2 6.23-1.19Zm8.32 2.64c-.13 0-.25.06-.37.11a5.6 5.6 0 0 0-2.44 1.83c-.7.91-1.07 2-1.73 2.93a2.28 2.28 0 0 1-2.88 1 4.88 4.88 0 0 0-3.17-.24 5.3 5.3 0 0 0-2 1.26c.25.36.5.7.75 1a4.53 4.53 0 0 1 1.55-.91 3.53 3.53 0 0 1 2.49.31 3.89 3.89 0 0 0 5.11-1.55c.62-.9 1-2 1.67-2.83a3.92 3.92 0 0 1 1.49-1.14c-.14-.6-.29-1.23-.47-1.8Z" opacity=".2"/><path d="M413.7 378.72c-.57-1.09-1.36-2.43-2.29-3.89-3.12 9.65-4.13 23.73 4.83 26 0 .02 5.42-6.96-2.54-22.11Z" opacity=".15"/><path fill="#061d44" d="M420 400.85c9.18.49 17.75-5.06 23.32-12.07s9.9-21.47 8.64-22.36-16.06 8.24-21.62 14.82C423 389.88 420 400.85 420 400.85Z"/><path d="M420 400.85c9.18.49 17.75-5.06 23.32-12.07s9.9-21.47 8.64-22.36-16.06 8.24-21.62 14.82C423 389.88 420 400.85 420 400.85Z" opacity=".2"/><path fill="#061d44" d="M442.29 378.78a12.8 12.8 0 0 1 2.94-.37c1.44.23 1 1.6 1.16 2.67a3.09 3.09 0 0 0 .68 1.56l.51-1a2.4 2.4 0 0 1-.33-1.12c0-.87.2-1.81-.4-2.55-1.23-1.53-3.37-.15-4.91-.36s-1.17-1.51-1-2.57a3.75 3.75 0 0 0-.38-2.49l-1 .73a2.65 2.65 0 0 1 .37 1.78c-.12.94-.43 2 .11 2.84a2.34 2.34 0 0 0 2.25.88Zm4.21-5.69a1.79 1.79 0 0 0 1.21.62c.7.05 1.35-.31 2-.29a2 2 0 0 1 1 .26q.12-.33.21-.66a2.36 2.36 0 0 0-.38-.22 3 3 0 0 0-1.91-.07 1.55 1.55 0 0 1-1.73-.49c-.69-.88-.68-2.1-1.36-3l-.82.5a2.1 2.1 0 0 1 .4.44c.59.93.62 2.09 1.38 2.91Zm-8.77 10.1c3.26 0 2 3.62 3.55 5.44a3.71 3.71 0 0 0 1.32 1c.22-.27.45-.53.66-.8a3.29 3.29 0 0 1-.63-.3c-1.19-.72-1.38-1.9-1.57-3.18a4.63 4.63 0 0 0-.92-2.46 3 3 0 0 0-2.45-.78 2.88 2.88 0 0 1-2.86-1.5 9.63 9.63 0 0 1-.64-3.17l-.87.77a18.21 18.21 0 0 0 .24 1.95 4.56 4.56 0 0 0 1.44 2.34 4 4 0 0 0 2.73.69Zm-5.08 6.26c1 .73 2.37.59 3.34 1.5a5.77 5.77 0 0 1 1.37 3.59v.14c.33-.26.65-.53 1-.8a10.68 10.68 0 0 0-.49-2.31 4.44 4.44 0 0 0-2-2.29c-1.05-.59-2.32-.48-3.12-1.5a8.74 8.74 0 0 1-1.2-3.42 6 6 0 0 0-1.47-2.89l-.79 1a4.68 4.68 0 0 1 .69 1c1.02 1.9.69 4.58 2.67 5.98Zm-7.29-1.05a5.55 5.55 0 0 1 1 1.15c1.18 1.88.76 4.27 1.71 6.24a4.09 4.09 0 0 0 1.74 1.91 3.41 3.41 0 0 0 1.43.34 4.91 4.91 0 0 1 .77.09c.46-.23.92-.48 1.37-.74 0 0 0-.06-.07-.08-.76-.69-1.75-.34-2.63-.7a3.74 3.74 0 0 1-1.95-2.62c-.57-2.11-.38-4.34-1.94-6.06a6.06 6.06 0 0 0-.75-.68Z"/><path d="M440.64 372.45c-.87 7.6-4.92 28-20.67 28.4 0 0 3-11 10.34-19.61a57.76 57.76 0 0 1 10.33-8.79Z" opacity=".2"/><path fill="#061d44" d="M420 400.85c7.22-1.05 13.41-5.62 16.6-19.22s3.67-19.74 1.48-21.09c-2.52-1.55-12.37 12.15-15.54 18.18-7.99 15.15-2.54 22.13-2.54 22.13Z"/><path fill="#fff" d="M437.12 375.54a4.74 4.74 0 0 1 .72.34c.08-.41.17-.83.25-1.23a4.52 4.52 0 0 0-1.73-.61 7.82 7.82 0 0 0-3.31.5 4.45 4.45 0 0 1-3.34.13c-1.4-.74-1.38-2.63-2.17-3.91l-1 1.39a17.18 17.18 0 0 0 1.3 3c1.35 1.78 3.69 1.18 5.49.61a5.59 5.59 0 0 1 3.79-.22Zm0-7.16a4.31 4.31 0 0 1 1.94.59c0-.33.08-.66.12-1a3.82 3.82 0 0 0-1.44-.55 4.09 4.09 0 0 0-1.56 0 8.41 8.41 0 0 1-1.8.53c-1.27 0-1.85-1.71-2.53-2.54l-.14-.14-.68.82a4.86 4.86 0 0 1 .56.71c.56.86 1.13 1.92 2.23 2.15a2.86 2.86 0 0 0 1.67-.32 3.82 3.82 0 0 1 1.63-.25ZM433.85 385a5.9 5.9 0 0 1 1.9-.29c.13-.45.26-.92.39-1.39a6.36 6.36 0 0 0-1.44.11c-1.64.33-3.63 1.5-5.1.16a16 16 0 0 1-1.85-2.66 5.26 5.26 0 0 0-2.75-2 6.2 6.2 0 0 0-2.49-.16c-.28.53-.53 1-.78 1.54a4.82 4.82 0 0 1 3.68.65 10.24 10.24 0 0 1 2.21 2.88c1.64 2.34 3.78 1.89 6.23 1.16Zm-15 3.23a3.92 3.92 0 0 1 1.49 1.14c.69.85 1.05 1.93 1.67 2.83a3.89 3.89 0 0 0 5.11 1.55 3.53 3.53 0 0 1 2.49-.31 4.43 4.43 0 0 1 1.55.91c.25-.34.5-.68.75-1a5.23 5.23 0 0 0-2-1.26 4.88 4.88 0 0 0-3.17.24 2.28 2.28 0 0 1-2.88-1c-.66-.93-1-2-1.73-2.93a5.6 5.6 0 0 0-2.44-1.83c-.12-.05-.24-.07-.37-.11-.2.54-.32 1.17-.48 1.74Z" opacity=".2"/><path d="M422.51 378.72c.57-1.09 1.36-2.43 2.29-3.89 3.12 9.65 4.13 23.73-4.83 26 .03.02-5.42-6.96 2.54-22.11Z" opacity=".15"/><path fill="#061d44" d="M418.11 402.35c6.08 0 8.11-8.29 7.5-15s-4.82-19.35-7.5-19.35-6.9 12.69-7.51 19.36 1.4 14.99 7.51 14.99Z"/><path fill="#fff" d="M418.11 402.35c6.08 0 8.11-8.29 7.5-15s-4.82-19.35-7.5-19.35-6.9 12.69-7.51 19.36 1.4 14.99 7.51 14.99Z" opacity=".3"/><path fill="#fff" d="M418.07 376.71a5 5 0 0 0 2.27-1.62 3.93 3.93 0 0 1 1.88-1c-.16-.39-.32-.78-.48-1.15a5.77 5.77 0 0 0-2.56 1.58 3.63 3.63 0 0 1-1.28 1c-.73.25-1.18-.14-1.67-.62a4 4 0 0 0-2-1.2h-.06c-.13.31-.25.63-.38 1a3.83 3.83 0 0 1 2.13 1.19 2.26 2.26 0 0 0 2.15.82Zm-4.54 7.29c2 1.59 3.7-.67 5-2 1.08-1.12 2.23-1.35 3.46-.32a8.18 8.18 0 0 0 2.32 1.69 4.74 4.74 0 0 0 .7.17c-.08-.38-.16-.76-.25-1.15a6.87 6.87 0 0 1-2.47-1.65c-1.82-1.49-3.45-.86-4.88.78-.83 1-2.17 2.58-3.53 1.57-.8-.6-1.18-1.62-2-2.2l-.24 1c.73.52 1.13 1.54 1.89 2.11Zm2.27 7.3c1.15 1.52 2.59 1.89 4.14.59a27.75 27.75 0 0 1 2.06-2.09c1.16-.78 2.48-.37 3.68.1v-1.09a8.08 8.08 0 0 0-1.69-.52 3.42 3.42 0 0 0-2.62.53c-.86.61-1.39 1.56-2.22 2.21a2.05 2.05 0 0 1-1.76.56c-.69-.26-1.11-1.13-1.62-1.64a5 5 0 0 0-2.35-1.35 4.36 4.36 0 0 0-2.91.29v1a4.29 4.29 0 0 1 5.29 1.43Zm5.78 6.2a4.81 4.81 0 0 1-3.44 1 2.72 2.72 0 0 1-1.73-.76c-.34-.34-.58-.77-.92-1.11a4.1 4.1 0 0 0-2.3-1.14 4.56 4.56 0 0 0-1.91.16c.11.38.23.74.36 1.1a3.14 3.14 0 0 1 3 .42c.73.54 1.08 1.43 1.85 1.94a4.41 4.41 0 0 0 2.38.61 5.52 5.52 0 0 0 2.52-.62c.88-.46 1.5-1.26 2.35-1.75a3.64 3.64 0 0 1 .7-.31c.17-.45.32-.91.46-1.38a4 4 0 0 0-.86.18 8.38 8.38 0 0 0-2.46 1.68Z" opacity=".2"/><path fill="#061d44" d="m393.62 230 4-7.44-3.18-9.18v-5.62l9.73 5.62V219l-4.17 7.23a.6.6 0 0 1-.29.26Z"/><path d="m393.62 230 4-7.44-3.18-9.18v-5.62l9.73 5.62V219l-4.17 7.23a.6.6 0 0 1-.29.26Z" opacity=".2"/><path fill="#061d44" d="M372.54 164.29a6.42 6.42 0 0 1 2.92-5l2.37-1.38a6.46 6.46 0 0 1 5.84 0L420.13 179a6.47 6.47 0 0 1 2.92 5.06v40.11a6.47 6.47 0 0 1-2.92 5.06l-2.38 1.37a6.46 6.46 0 0 1-5.84 0l-13.89-8-4.18 7.24a.62.62 0 0 1-1.13-.11l-4.41-12.74-12.84-7.45a6.42 6.42 0 0 1-2.92-5.05Z"/><path d="M423.05 224.12a6.47 6.47 0 0 1-2.92 5.06l-2.38 1.37a6.57 6.57 0 0 1-5.34.24c1.38.52 2.42-.26 2.42-1.93v-40.11a6 6 0 0 0-.85-2.88l8.22-4.74a6.08 6.08 0 0 1 .85 2.88Z" opacity=".2"/><path fill="#fff" d="M372.63 163.46c.34-1.23 1.47-1.63 2.82-.85l36.47 21.09a5.77 5.77 0 0 1 2.05 2.18l8.22-4.74a5.87 5.87 0 0 0-2.06-2.18l-36.45-21.09a6.46 6.46 0 0 0-5.84 0l-2.39 1.37a6.47 6.47 0 0 0-2.82 4.22Z" opacity=".3"/><path fill="#fafafa" d="m385 178.07-1.45-2.78-4-.87a3.1 3.1 0 0 1 1.64-2.62c1.49-.64 3.59.57 5.08 2.93a10.52 10.52 0 0 1 1.69 5.92 3.06 3.06 0 0 0 .37 1.48l3.34 6.47 1.2 2.24-2.61 2.26-1-1.89-3.12-6.21a2 2 0 0 0-1.23-1.13c-1.42-.31-3-1.71-4.12-3.83-.1-.2-.19-.39-.28-.59l4 .88Zm11.39 19.36 2.84 5.48 1.58 3a2 2 0 0 0 1.23 1.13c1.42.31 3 1.7 4.12 3.83.1.2.19.39.28.59l-4-.88-.53 2.3 1.45 2.77 4 .88a3.08 3.08 0 0 1-1.64 2.62c-1.49.64-3.59-.57-5.08-2.93a10.54 10.54 0 0 1-1.69-5.92 3.06 3.06 0 0 0-.37-1.48l-2-3.89-2.64-5.08Zm-15.34 4.71 10.79-8.55a1.08 1.08 0 0 1 1.63.28l1.27 2.15a1.08 1.08 0 0 1-.18 1.32l-10.33 10c-.39.42-.81.15-1.11-.32l-2-3.67c-.27-.44-.32-1-.07-1.21Zm20.89-12.85-6.65 5.54-.82-1.41 6.65-5.54.4-1.56 3.62-1.9.73 1.53-2.41 2.98-1.52.36z"/><path fill="#fff" d="M381.94 30.93a50.71 50.71 0 0 0-35.41 82.4l-5 14a1.52 1.52 0 0 0 1.92 2l15.2-5.18a50.71 50.71 0 1 0 23.33-93.22Z"/><path fill="#455a64" d="M390.12 132.94a51.19 51.19 0 0 1-31.63-7.77l-14.78 5a2.45 2.45 0 0 1-3.09-3.15l4.87-13.56a51.63 51.63 0 1 1 44.63 19.44Zm-31.39-9.8.38.24a49.77 49.77 0 1 0-11.86-10.63l.32.4-5.22 14.54a.59.59 0 0 0 .14.62.58.58 0 0 0 .63.15Z"/><path fill="#061d44" d="M391.45 93.28a.43.43 0 0 0 .34.16h2.59a.6.6 0 0 0 .4-.16.66.66 0 0 0 .23-.38l.42-2h1.51a.6.6 0 0 0 .4-.16.63.63 0 0 0 .24-.37l.45-2.1a.46.46 0 0 0-.09-.36.39.39 0 0 0-.34-.16h-1.49l1.62-7.57a.51.51 0 0 0-.1-.38.43.43 0 0 0-.34-.14h-3.37a1 1 0 0 0-.41.06 1.82 1.82 0 0 0-.39.28l-7.47 7.44a1.64 1.64 0 0 0-.42.83l-.45 2.1a.43.43 0 0 0 .07.37.43.43 0 0 0 .34.16h6.6l-.43 2a.42.42 0 0 0 .09.38Zm-1.74-5.53 3.62-3.63-.77 3.63Zm-19.46-27.18a.82.82 0 0 0-.3 1.12l1.79 3.1a.83.83 0 0 0 .71.41.77.77 0 0 0 .41-.11.81.81 0 0 0 .3-1.12l-1.79-3.1a.81.81 0 0 0-1.12-.3ZM381.89 58v5.5a.82.82 0 0 0 1.64 0V58a.82.82 0 0 0-1.64 0Zm-16.5 13.26-3.11-1.79a.82.82 0 0 0-1.12.3.83.83 0 0 0 .3 1.12l3.11 1.79a.77.77 0 0 0 .41.11.82.82 0 0 0 .41-1.53ZM355.13 97a6.24 6.24 0 0 1 .91-.54l-.06-.11a31.32 31.32 0 0 1-3.1-19.63A30.73 30.73 0 0 1 362 59.44a30.2 30.2 0 0 1 17.4-8 29.11 29.11 0 0 1 26.84 11.69h-6.54a.91.91 0 0 0-.37 1.73l14.89 6.72a2.58 2.58 0 0 0 3.62-2L420 53.27a.91.91 0 0 0-1.68-.58l-4.05 6.72a37.75 37.75 0 0 0-12.56-10.89 36.9 36.9 0 0 0-23.15-3.79 36.39 36.39 0 0 0-20.47 10.72 35.78 35.78 0 0 0-9.64 20.61A35.23 35.23 0 0 0 353 98c.16.27.33.54.5.8.05-.09.1-.19.16-.28a5.47 5.47 0 0 1 1.47-1.52Zm9.09-15.53h-5.52a.82.82 0 1 0 0 1.64h5.52a.82.82 0 1 0 0-1.64Zm37.3 13.47a1.63 1.63 0 0 0 .36-.4l10-15.93a.48.48 0 0 0 .06-.4.28.28 0 0 0-.31-.21h-2.84a1 1 0 0 0-.62.19 1.58 1.58 0 0 0-.38.4l-10 15.93a.5.5 0 0 0-.05.41.31.31 0 0 0 .33.2h2.79a.93.93 0 0 0 .66-.23ZM423 79.81a.43.43 0 0 0-.34-.16h-9.42a.69.69 0 0 0-.63.54l-.45 2.08a.46.46 0 0 0 .08.38.4.4 0 0 0 .33.15h5.67l-6.4 10a.55.55 0 0 0-.05.39c0 .16.16.24.37.24h2.95a.57.57 0 0 0 .4-.15 2.08 2.08 0 0 0 .27-.32l6.38-10a6.27 6.27 0 0 0 .36-.58 1.76 1.76 0 0 0 .18-.42l.39-1.83a.43.43 0 0 0-.09-.32Zm-38.81 2.7a3.62 3.62 0 0 0-.8-1.54 4.32 4.32 0 0 0-1.52-1.1 5.38 5.38 0 0 0-2.17-.41 7.61 7.61 0 0 0-2.63.41 6.07 6.07 0 0 0-1.81 1.13 5.42 5.42 0 0 0-1.16 1.49 7.22 7.22 0 0 0-.62 1.65.32.32 0 0 0 .07.3.35.35 0 0 0 .29.13h2.42a1.35 1.35 0 0 0 .5-.09.77.77 0 0 0 .38-.36l.2-.37a2.06 2.06 0 0 1 .39-.48 2.25 2.25 0 0 1 .62-.42 1.93 1.93 0 0 1 .92-.19 1.65 1.65 0 0 1 .85.18 1 1 0 0 1 .41.42 1.11 1.11 0 0 1 .12.49 1.37 1.37 0 0 1 0 .39c0 .13-.06.26-.1.41a1.39 1.39 0 0 1-.2.43 2.49 2.49 0 0 1-.38.46 3.58 3.58 0 0 1-.64.51l-6.68 4.15a1.75 1.75 0 0 0-.55.53 1.93 1.93 0 0 0-.25.63l-.38 1.7a.47.47 0 0 0 .09.37.42.42 0 0 0 .35.16h10.2a.58.58 0 0 0 .4-.16.62.62 0 0 0 .23-.37l.45-2.09a.43.43 0 0 0-.08-.37.38.38 0 0 0-.33-.16h-4.55l3.09-1.81a7.61 7.61 0 0 0 1.3-1 5.54 5.54 0 0 0 .84-1 5.81 5.81 0 0 0 .51-1.07 8.25 8.25 0 0 0 .3-1.11 3.65 3.65 0 0 0-.06-1.84ZM362.4 98.66a4.21 4.21 0 0 0-1.24-.69 4.57 4.57 0 0 0-1.61-.27 6.55 6.55 0 0 0-1.87.23 4.41 4.41 0 0 0-1.38.65 3.35 3.35 0 0 0-.92 1 3.58 3.58 0 0 0-.48 1.18 2.62 2.62 0 0 0 .26 2.07 3.12 3.12 0 0 0 2 1.13l1.33.3a8.42 8.42 0 0 1 .93.25 1.42 1.42 0 0 1 .52.29.37.37 0 0 1 .11.37.82.82 0 0 1-.66.61 4.67 4.67 0 0 1-1.33.17 2.12 2.12 0 0 1-.72-.1 1.71 1.71 0 0 1-.45-.24 1.53 1.53 0 0 1-.25-.28 1.17 1.17 0 0 0-.14-.19.66.66 0 0 0-.19-.15.89.89 0 0 0-.32 0H354a.4.4 0 0 0-.24.09.46.46 0 0 0-.14.23 2 2 0 0 0 .25 1.11 2.93 2.93 0 0 0 .83 1 4.23 4.23 0 0 0 1.3.69 4.82 4.82 0 0 0 1.64.27 6.63 6.63 0 0 0 3.47-.78 3.44 3.44 0 0 0 1.59-2.27 2.39 2.39 0 0 0-.35-2.13 4 4 0 0 0-2.15-1.2c-.52-.1-.95-.2-1.3-.28a5.37 5.37 0 0 1-.82-.26.89.89 0 0 1-.4-.28.49.49 0 0 1-.06-.38.69.69 0 0 1 .19-.37 1 1 0 0 1 .37-.22 1.69 1.69 0 0 1 .48-.12 4.9 4.9 0 0 1 .54 0 2.15 2.15 0 0 1 .63.08 1.66 1.66 0 0 1 .4.19 1.13 1.13 0 0 1 .22.22 1 1 0 0 0 .12.14 1.09 1.09 0 0 0 .22.18.7.7 0 0 0 .32.06H363a.36.36 0 0 0 .24-.1.44.44 0 0 0 .14-.22 1.89 1.89 0 0 0-.23-1 3.23 3.23 0 0 0-.75-.98Zm31.41-.66c0-.12-.09-.18-.25-.18h-2a.64.64 0 0 0-.44.13.85.85 0 0 0-.2.24l-3.42 6.45-.66-6.45a.52.52 0 0 0-.11-.24c-.06-.09-.19-.13-.39-.13h-1.74c-.3 0-.42.17-.39.52l1.05 9.16a.59.59 0 0 0 .66.59h2a1 1 0 0 0 .89-.59l4.95-9.16a.67.67 0 0 0 .05-.34Zm3.73-.18h-1.93a.48.48 0 0 0-.3.12.49.49 0 0 0-.17.28l-2 9.48a.33.33 0 0 0 .32.39h1.92a.48.48 0 0 0 .31-.12.45.45 0 0 0 .16-.27l2-9.48a.31.31 0 0 0-.07-.28.3.3 0 0 0-.24-.1Zm-15.32.9a3.17 3.17 0 0 0-1.23-.67 5.41 5.41 0 0 0-1.59-.23h-3.83a.48.48 0 0 0-.3.12.49.49 0 0 0-.17.28l-2 9.48a.33.33 0 0 0 .32.39h1.92a.48.48 0 0 0 .31-.12.45.45 0 0 0 .16-.27l.68-3.14H378l.95 3.14a1 1 0 0 0 .15.26.46.46 0 0 0 .39.13h1.85a.36.36 0 0 0 .24-.09.4.4 0 0 0 .14-.23.43.43 0 0 0 0-.16l-1.08-3.49a4.28 4.28 0 0 0 1.52-1 3.68 3.68 0 0 0 .84-1.75 2.93 2.93 0 0 0 0-1.51 2.42 2.42 0 0 0-.78-1.12Zm-2 2.46a1.14 1.14 0 0 1-.59.85 2.25 2.25 0 0 1-1.07.24H377l.46-2.17h1.66a1.66 1.66 0 0 1 1 .23.75.75 0 0 1 .15.87Zm26.82-2.45a4.22 4.22 0 0 0-1.35-.77 4.69 4.69 0 0 0-1.63-.28 6.12 6.12 0 0 0-2.06.31 4.83 4.83 0 0 0-1.53.86 4.78 4.78 0 0 0-1 1.27 6 6 0 0 0-.61 1.53c-.11.42-.22.86-.32 1.32s-.18.89-.24 1.29a3.19 3.19 0 0 0 .1 1.54 3.36 3.36 0 0 0 .75 1.26 3.52 3.52 0 0 0 1.28.86 4.56 4.56 0 0 0 1.73.32 6.33 6.33 0 0 0 1.95-.29 5.35 5.35 0 0 0 1.55-.77 4.29 4.29 0 0 0 1.7-2.55.24.24 0 0 0-.05-.23.26.26 0 0 0-.21-.09h-1.92a.53.53 0 0 0-.35.09 1.77 1.77 0 0 0-.24.33 3.52 3.52 0 0 1-.25.38 1.82 1.82 0 0 1-.4.38 2.16 2.16 0 0 1-.59.28 2.57 2.57 0 0 1-.84.12 2.07 2.07 0 0 1-.81-.14 1.18 1.18 0 0 1-.47-.37 1.06 1.06 0 0 1-.21-.55 2.3 2.3 0 0 1 0-.64c0-.13.05-.31.08-.54s.09-.46.14-.7.11-.47.17-.7.1-.4.14-.53a2.56 2.56 0 0 1 .27-.64 1.74 1.74 0 0 1 .43-.54 2.21 2.21 0 0 1 .63-.38 2.48 2.48 0 0 1 .87-.14 2.21 2.21 0 0 1 .8.12 1.21 1.21 0 0 1 .46.29.79.79 0 0 1 .24.37 3.61 3.61 0 0 1 .1.38.71.71 0 0 0 .08.33c0 .07.14.1.31.1h1.92a.36.36 0 0 0 .25-.1.39.39 0 0 0 .15-.23 2.38 2.38 0 0 0-.13-1.4 3.08 3.08 0 0 0-.84-1.13Zm10.44-.91h-6.84a.48.48 0 0 0-.3.12.43.43 0 0 0-.16.28l-2 9.48a.29.29 0 0 0 .07.27.3.3 0 0 0 .25.12h7a.44.44 0 0 0 .3-.12.46.46 0 0 0 .17-.27l.33-1.56a.38.38 0 0 0 0-.28.3.3 0 0 0-.25-.12h-4.64l.34-1.64h4.19a.48.48 0 0 0 .31-.12.44.44 0 0 0 .18-.27l.33-1.56a.34.34 0 0 0-.06-.28.31.31 0 0 0-.26-.12h-4.19l.33-1.58H417a.48.48 0 0 0 .31-.12.46.46 0 0 0 .18-.28l.33-1.55a.34.34 0 0 0-.06-.28.32.32 0 0 0-.23-.1Zm-44.23.18a.31.31 0 0 0-.26-.12h-6.83a.51.51 0 0 0-.47.4l-2 9.48a.29.29 0 0 0 .07.27.31.31 0 0 0 .26.12h6.95a.44.44 0 0 0 .3-.12.46.46 0 0 0 .17-.27l.34-1.56a.34.34 0 0 0-.06-.28.3.3 0 0 0-.25-.12h-4.67l.34-1.64h4.19a.48.48 0 0 0 .31-.12.44.44 0 0 0 .18-.27l.34-1.56a.34.34 0 0 0-.07-.28.31.31 0 0 0-.26-.12h-4.19l.34-1.58h4.51a.48.48 0 0 0 .31-.12.46.46 0 0 0 .18-.28l.34-1.55a.38.38 0 0 0-.07-.28Z"/></svg>